<?xml version="1.0" encoding="utf-8"?>
<!-- Generator: Adobe Illustrator 16.0.0, SVG Export Plug-In . SVG Version: 6.00 Build 0)  -->
<!DOCTYPE svg PUBLIC "-//W3C//DTD SVG 1.1//EN" "http://www.w3.org/Graphics/SVG/1.1/DTD/svg11.dtd">
<svg version="1.1" id="Layer_1" xmlns="http://www.w3.org/2000/svg" xmlns:xlink="http://www.w3.org/1999/xlink" x="0px" y="0px"
	 width="15.028px" height="15.028px" viewBox="0 0 15.028 15.028" enable-background="new 0 0 15.028 15.028" xml:space="preserve">
<g>
	<circle cx="7.581" cy="7.515" r="6.771"/>
	<path fill="#464646" d="M7.5,0c2.103,0,3.892,0.734,5.367,2.201c0.707,0.706,1.244,1.514,1.61,2.422
		c0.367,0.907,0.55,1.872,0.55,2.891c0,1.029-0.181,1.993-0.543,2.892c-0.362,0.899-0.897,1.693-1.604,2.382
		c-0.733,0.725-1.565,1.279-2.496,1.664s-1.892,0.577-2.885,0.577c-0.993,0-1.944-0.189-2.852-0.57
		c-0.908-0.38-1.722-0.931-2.442-1.65c-0.72-0.72-1.268-1.531-1.644-2.436C0.188,9.469,0,8.517,0,7.514
		c0-0.992,0.19-1.947,0.57-2.864c0.38-0.917,0.933-1.737,1.657-2.462C3.659,0.729,5.416,0,7.5,0z M7.528,1.355
		c-1.718,0-3.163,0.6-4.334,1.798c-0.591,0.6-1.044,1.272-1.362,2.02C1.514,5.92,1.354,6.7,1.354,7.514
		c0,0.806,0.159,1.582,0.477,2.329s0.771,1.414,1.362,1.999c0.59,0.586,1.256,1.033,2,1.342c0.742,0.309,1.521,0.463,2.335,0.463
		c0.805,0,1.585-0.156,2.341-0.469c0.756-0.313,1.438-0.765,2.046-1.355c1.171-1.146,1.757-2.581,1.757-4.308
		c0-0.832-0.152-1.619-0.456-2.361s-0.748-1.404-1.328-1.985C10.681,1.96,9.227,1.355,7.528,1.355z M7.433,6.268L6.427,6.79
		C6.319,6.566,6.188,6.41,6.031,6.321c-0.157-0.09-0.302-0.135-0.437-0.135c-0.67,0-1.006,0.442-1.006,1.328
		c0,0.401,0.085,0.725,0.255,0.966c0.169,0.241,0.42,0.362,0.751,0.362c0.438,0,0.747-0.215,0.926-0.644l0.926,0.47
		C7.25,9.035,6.977,9.324,6.628,9.534C6.28,9.745,5.895,9.85,5.474,9.85c-0.671,0-1.212-0.205-1.624-0.617
		C3.439,8.821,3.233,8.248,3.233,7.515c0-0.715,0.208-1.283,0.624-1.704C4.273,5.391,4.799,5.18,5.434,5.18
		C6.364,5.18,7.031,5.543,7.433,6.268z M11.768,6.268L10.774,6.79c-0.106-0.224-0.239-0.38-0.396-0.469
		c-0.157-0.09-0.307-0.135-0.449-0.135c-0.671,0-1.007,0.442-1.007,1.328c0,0.401,0.085,0.725,0.255,0.966
		c0.17,0.241,0.42,0.362,0.752,0.362c0.438,0,0.747-0.215,0.925-0.644l0.939,0.47c-0.206,0.366-0.483,0.655-0.831,0.865
		C10.613,9.745,10.233,9.85,9.822,9.85c-0.68,0-1.223-0.205-1.63-0.617C7.785,8.821,7.581,8.248,7.581,7.515
		c0-0.715,0.208-1.283,0.624-1.704C8.621,5.391,9.146,5.18,9.781,5.18C10.712,5.18,11.374,5.543,11.768,6.268z"/>
</g>
</svg>
