<?xml version="1.0" standalone="no"?>
<!DOCTYPE svg PUBLIC "-//W3C//DTD SVG 1.1//EN" "http://www.w3.org/Graphics/SVG/1.1/DTD/svg11.dtd" >
<svg xmlns="http://www.w3.org/2000/svg">
<metadata>
This is a custom SVG webfont generated by Font Squirrel.
Copyright   : c M Klein    41006    typoasis
</metadata>
<defs>
<font id="BigMummyRegular" horiz-adv-x="1044" >
<font-face units-per-em="2048" ascent="1638" descent="-410" />
<missing-glyph horiz-adv-x="417" />
<glyph unicode=" "  horiz-adv-x="417" />
<glyph unicode="&#x09;" horiz-adv-x="417" />
<glyph unicode="&#xa0;" horiz-adv-x="417" />
<glyph unicode="!" horiz-adv-x="890" d="M90 1243q0 -41 12 -80l217 -719h246l207 719q10 41 10 72q0 59 -27.5 105t-74.5 78t-110.5 48.5t-133.5 16.5q-66 0 -128 -16.5t-110 -47t-78 -75t-30 -101.5zM160 201q0 -51 22.5 -93t61.5 -73t87 -47.5t101 -16.5q55 0 108.5 16.5t94.5 46t65.5 73t24.5 96.5h-2 q0 51 -22.5 94t-61.5 71.5t-88 45t-105 16.5q-55 0 -106 -16.5t-91 -47t-64.5 -72.5t-24.5 -93z" />
<glyph unicode="&#x22;" horiz-adv-x="1091" d="M-35 1456l101 -639h393l59 639h-553zM551 1456l59 -639h394l102 639h-555z" />
<glyph unicode="#" horiz-adv-x="1411" d="M117 406h188l-43 -312h287l45 312h84l-43 -312h287l45 312h211l39 282h-211l10 72h211l39 282h-211l41 285h-289l-39 -285h-86l41 285h-289l-39 -285h-188l-43 -282h190l-10 -72h-188zM633 688l10 72h84l-10 -72h-84z" />
<glyph unicode="$" horiz-adv-x="1648" d="M0 330q0 -109 70.5 -172.5t199.5 -98.5q104 -29 210 -43t225 -18v-135h206v139q78 8 137.5 16.5t107.5 17.5t88 22.5t79 29.5q131 57 212 151.5t81 211.5q0 88 -40 164.5t-114 140.5q-55 47 -126.5 77.5t-178.5 59.5q-168 45 -262 70.5t-117 29.5q-61 16 -79.5 23.5 t-32.5 17.5q-8 6 -14.5 18.5t-6.5 22.5q0 6 3 15.5t17.5 17.5t41 13t73.5 5q102 0 158 -22q-8 -16 -8 -43q0 -49 26.5 -85t69.5 -60.5t98.5 -36t112.5 -11.5q63 0 122.5 15.5t105.5 44t74 71.5t28 99q0 82 -52.5 143.5t-141.5 101t-207.5 60t-254.5 20.5v133h-206v-137 q-160 -16 -290 -54t-222.5 -97.5t-141.5 -141.5t-49 -186q0 -147 115 -252q47 -45 115.5 -74.5t185.5 -60.5q121 -31 211 -54.5t149 -39.5l90 -23q16 -4 25.5 -6t13.5 -4l-10 2q39 -12 59.5 -20.5t20.5 -28.5q0 -18 -23.5 -40t-95.5 -22q-53 0 -104.5 8.5t-91.5 22.5 q4 20 4 35q0 49 -31 86t-79 62.5t-108.5 38t-117.5 12.5q-68 0 -127.5 -17.5t-104.5 -49.5t-71.5 -79t-26.5 -106z" />
<glyph unicode="%" horiz-adv-x="1863" d="M-8 1073q0 -90 30.5 -163.5t86 -127t131 -83t168.5 -29.5q92 0 167.5 28.5t131 82t85 127t29.5 165.5q0 88 -29.5 161t-84 125t-129 80.5t-164.5 28.5q-94 0 -172 -27.5t-133.5 -78.5t-86 -125t-30.5 -164zM390 942q5 41 5 131q0 88 -5 129t22 41q23 0 17.5 -45 t-5.5 -129q0 -78 4 -123t-18 -45q-25 0 -20 41zM463 8l199 -88l729 1557l-199 90zM1006 391q0 -90 30.5 -163.5t86 -127t131 -83t167.5 -29.5t168 28.5t131.5 82t85 127t29.5 165.5q0 88 -29.5 161t-84 125t-129 80.5t-165.5 28.5q-94 0 -171.5 -27.5t-133 -78.5t-86 -125 t-30.5 -164zM1404 260q5 41 5 131q0 88 -5 129t21 41q23 0 18 -45t-5 -129h2q0 -78 3 -123t-20 -45q-24 0 -19 41z" />
<glyph unicode="&#x26;" horiz-adv-x="2187" d="M0 395q0 -96 40 -168.5t110.5 -124t169 -77t215.5 -25.5q160 0 286.5 41t243.5 127q141 -82 280.5 -124t276.5 -42q104 0 200.5 29.5t169 83t114.5 127t36 164.5l-4 79h-229q-6 -33 -11.5 -51t-11.5 -26.5t-15 -10.5t-22 -2q-51 0 -143 40t-205 114q23 20 42.5 35.5 t33.5 25.5q53 -39 99 -54t110 -15q59 0 117.5 13t104.5 40t73.5 66.5t27.5 91.5q0 55 -28.5 98t-77.5 71.5t-112.5 43t-131.5 14.5q-242 0 -432 -184l-63 -62q-25 23 -52.5 47.5t-50.5 46.5q47 20 74 31.5t41 18t20.5 10.5t14.5 8q78 45 124 106.5t46 139.5q0 76 -44 136 t-118 103t-168 66.5t-195 23.5q-117 0 -229.5 -27.5t-202.5 -80.5q-80 -47 -123 -126t-43 -177q0 -55 11.5 -102.5t33.5 -94.5q-186 -78 -294.5 -196.5t-108.5 -270.5zM582 512q0 37 32 59q16 -20 36 -39.5t38 -42.5l28 -27q13 -13 29 -28l70 -61q-10 -4 -18 -4h-19 q-41 0 -76.5 13t-62.5 34.5t-42 46t-15 49.5zM907 1153q0 8 14.5 23.5t61.5 15.5q41 0 57.5 -16.5t16.5 -34.5q0 -10 -8.5 -24.5t-36.5 -31.5q-14 -10 -24.5 -14t-35.5 -12q-29 39 -37 59.5t-8 34.5z" />
<glyph unicode="'" horiz-adv-x="550" d="M-33 1456l101 -639h405l100 639h-606z" />
<glyph unicode="(" horiz-adv-x="1208" d="M35 610q0 -154 41 -307t111.5 -258.5t179.5 -173.5q129 -78 316 -117t466 -41v318q-70 8 -115 15t-75.5 15.5t-50 17.5t-38.5 21q-57 41 -96 171t-39 333q0 154 37 273.5t94 175.5q16 16 35 28.5t48.5 21.5t77.5 16t122 14v323q-96 0 -165 -2t-125 -7t-104 -13.5 t-104 -20.5q-147 -33 -262 -102.5t-193.5 -173t-119.5 -236.5t-41 -291z" />
<glyph unicode=")" horiz-adv-x="1208" d="M35 31v-318q393 2 630.5 86t344.5 267q66 109 102.5 254t36.5 288q0 319 -160 529.5t-457 275.5q-55 12 -103 20.5t-104.5 13.5t-126 7t-163.5 2v-323q63 -6 105 -12.5t70 -12.5t45 -13.5t34 -15.5q68 -45 114 -170t46 -305q0 -84 -9.5 -160.5t-24 -139t-35 -108.5 t-40.5 -71q-16 -18 -35.5 -31.5t-53.5 -24t-85 -20.5t-131 -18z" />
<glyph unicode="*" horiz-adv-x="1030" d="M10 989l219 -74l-133 -198l256 -193l144 201l157 -199l269 193l-172 201l249 94l-118 303l-222 -90v233h-325v-239l-225 71z" />
<glyph unicode="+" d="M-49 666h411v-422h300v422h411v290h-414v422h-299v-422h-409v-290z" />
<glyph unicode="," horiz-adv-x="714" d="M49 197q0 -41 14.5 -79t41 -69t60.5 -51.5t75 -26.5q-8 -25 -36 -38t-93 -23v-232h82q92 0 176 37t146.5 99.5t99 145.5t36.5 175q0 70 -22.5 129.5t-64.5 102.5t-99 67.5t-125 24.5q-59 0 -111.5 -19.5t-92.5 -54.5t-63.5 -83t-23.5 -105z" />
<glyph unicode="-" horiz-adv-x="899" d="M49 430h782v338h-782v-338z" />
<glyph unicode="." horiz-adv-x="712" d="M49 215q0 -53 24.5 -98t65.5 -77t94.5 -49.5t112.5 -17.5t114.5 17.5t97.5 49.5t66.5 78t24.5 101t-23.5 99t-62.5 76t-91 49.5t-110 17.5q-61 0 -117.5 -17.5t-99.5 -49.5t-69.5 -78t-26.5 -101z" />
<glyph unicode="/" horiz-adv-x="1292" d="M-96 -215h465l995 1671h-457z" />
<glyph unicode="0" horiz-adv-x="1650" d="M23 735q0 -170 57 -311t161.5 -241.5t250 -156t319.5 -55.5q82 0 164 14.5t156.5 42t140 65.5t114.5 87q100 98 154.5 243.5t54.5 311.5q0 168 -56 306.5t-157.5 236.5t-244 151.5t-314.5 53.5q-180 0 -327.5 -52.5t-253 -149.5t-162.5 -235.5t-57 -310.5zM705 733 q0 117 3 199t15 134t34.5 76.5t59.5 24.5q20 0 37.5 -14t36.5 -76q16 -55 26.5 -145t10.5 -203h-2q0 -90 -7.5 -171t-19.5 -134q-10 -43 -20.5 -67.5t-20.5 -38t-20.5 -16.5t-22.5 -3q-37 0 -58.5 23.5t-33.5 76t-15 135t-3 199.5z" />
<glyph unicode="1" d="M43 303l2 -303h946v305h-71h-23q-31 0 -49.5 2t-26.5 10.5t-10 24.5t-2 43v1071h-430q-6 -29 -11.5 -47t-11.5 -29.5t-14 -19.5t-20 -17q-20 -12 -64.5 -23t-85.5 -11h-55h-72v-297q49 6 64.5 8t21.5 2q66 0 82 -16.5t16 -57.5v-545v-32q0 -29 -51 -48.5t-135 -19.5z" />
<glyph unicode="2" horiz-adv-x="1648" d="M39 1090q0 -49 28.5 -96.5t69.5 -82.5q98 -80 266 -80q154 0 248 68q41 29 70 72t29 90q0 57 -29 98q31 25 84 25q49 0 81 -32t32 -79q0 -51 -41 -99t-140 -83q-78 -29 -121 -44.5t-67.5 -25.5t-36.5 -16t-31 -14q-127 -61 -205.5 -133t-121.5 -175q-72 -172 -72 -395 v-88h321q8 37 15.5 59.5t14.5 34.5t18.5 17.5t27.5 5.5q18 0 51 -9.5t88 -31.5q133 -57 220.5 -81t171.5 -24q143 0 265 66.5t187 183.5q23 41 39.5 81t25.5 87t14 103.5t7 130.5h-309q-6 -78 -24.5 -100.5t-53.5 -22.5q-20 0 -52 7t-79 23q-59 20 -99 32.5t-70 20 t-54.5 9.5t-52.5 2q-47 0 -83 -8t-77 -27l45 -10v-45q14 18 56 35.5t128 29.5q104 16 176 27.5t122 22t87 20.5t72 23q139 47 218 141t79 223q0 86 -38 153.5t-114 125.5q-119 88 -276.5 133t-343.5 45q-145 0 -283.5 -28t-246 -79t-172 -123.5t-64.5 -162.5z" />
<glyph unicode="3" horiz-adv-x="1648" d="M31 375q0 -104 62.5 -177t174.5 -124q104 -47 263 -74t325 -27q158 0 292 30t231.5 88.5t151.5 143t54 195.5q0 100 -50 175t-151 134q-12 8 -23 13.5t-22 11.5q16 6 33 13t33 18q78 45 122 119.5t44 160.5q0 72 -36 141.5t-95 112.5q-104 78 -271.5 116t-373.5 38 q-143 0 -267.5 -20.5t-215.5 -63.5t-143 -107.5t-52 -150.5q0 -66 38 -125.5t99 -85.5q41 -18 104.5 -30.5t114.5 -12.5q23 0 32 -1t15 0t13.5 4t25.5 11q31 14 69 37t71.5 50.5t57 59t23.5 66.5q0 29 -12 57q16 10 30.5 12.5t30.5 2.5q47 0 78 -31t31 -82q0 -23 -6 -51.5 t-20.5 -57t-39 -52t-59.5 -33.5q-14 -4 -42 -7.5t-62.5 -5.5t-73.5 -4t-76 -2q-16 0 -23.5 -1t-13.5 -1h-18h-41v-237h2q25 0 69 -3.5t94 -11.5t101 -21.5t93 -35t69 -52t27 -71.5q0 -57 -34 -91t-93 -34q-20 0 -35 2t-29 10q14 20 19.5 43t5.5 50q0 43 -41 81.5t-99.5 67.5 t-121 45t-105.5 16q-70 0 -134.5 -14t-113.5 -44t-77.5 -75t-28.5 -108z" />
<glyph unicode="4" horiz-adv-x="1648" d="M41 377h707q0 -33 -13.5 -49.5t-64.5 -16.5h-76v-311h891v311h-84q-43 0 -57.5 14.5t-14.5 47.5l246 4v348h-246v731h-485l-803 -772v-307zM557 725l191 182v-182h-191z" />
<glyph unicode="5" horiz-adv-x="1648" d="M39 340q0 -94 55.5 -162.5t153.5 -115t232 -69t290 -22.5q176 0 323.5 37t255 106.5t168 170t60.5 229.5q0 121 -62.5 224.5t-166.5 164.5q-86 49 -193.5 60.5t-251.5 11.5q-51 0 -93 -2t-80 -7t-77 -14.5t-84 -21.5v84q41 -6 64.5 -9.5t40.5 -7.5q23 -2 39 -3t45 -1 q113 0 220 18.5t189 53.5q63 27 113.5 58.5t92.5 75.5t79 106.5t76 150.5h-436q-29 -23 -55.5 -37t-58.5 -22t-73 -12.5t-96 -4.5q-49 0 -86 3t-76 14q-35 8 -47 17t-37 42h-413q6 -47 9 -82t4 -72.5t2 -85t1 -116.5q0 -111 -1 -177.5t-4 -116.5t-9.5 -95t-18.5 -111h430 q20 27 36.5 43t33 25.5t36 12.5t48.5 3q94 0 147.5 -52t53.5 -145q0 -41 -13.5 -75.5t-37 -62t-52.5 -45t-59 -21.5q12 37 12 77q0 61 -27.5 103.5t-76 69t-112 38t-134.5 11.5q-78 0 -146.5 -13.5t-120 -42t-82 -74.5t-30.5 -112zM762 1554h6h-6z" />
<glyph unicode="6" horiz-adv-x="1648" d="M35 711q0 -362 207 -550t596 -188q160 0 296 36t235 103.5t156.5 163t57.5 216.5q0 166 -107.5 264t-287.5 141q-53 14 -114.5 10t-127.5 -4q-37 0 -64.5 -1t-55 -4t-58.5 -9t-70 -15v17q0 141 38 214t91 73q-4 -12 -4 -25v-25q0 -53 32 -92t84 -65.5t116.5 -39.5 t130.5 -13q51 0 109.5 12t107.5 39.5t82 75t33 114.5q0 82 -50.5 142.5t-136.5 101.5t-199.5 61.5t-240.5 20.5q-203 0 -361.5 -51.5t-268 -149.5t-168 -242.5t-58.5 -330.5zM707 465q0 82 35.5 122t84.5 40q41 0 80 -45t39 -125q0 -76 -38 -116t-93 -40q-45 0 -76.5 36 t-31.5 128z" />
<glyph unicode="7" horiz-adv-x="1574" d="M55 840h396q2 115 27.5 168t70.5 53q31 0 57 -10q84 -31 132 -45.5t89 -18.5l-8 -6q-94 -49 -175 -100.5t-122 -92.5q-96 -92 -150.5 -200.5t-54.5 -216.5q0 -90 29 -164t82 -126t126 -82t163 -30q74 0 140.5 23.5t116.5 66.5t79.5 101.5t29.5 128.5q0 39 -9 68.5 t-32 80.5q-18 43 -24 66.5t-6 40.5q0 25 8 49t31.5 56t66.5 74t115 101q86 70 144.5 135.5t93 138t49 158.5t12.5 199h-348q-6 -37 -11.5 -56.5t-11.5 -28.5t-15 -11t-22 -2q-23 0 -56.5 8t-96.5 31q-53 18 -95 31.5t-76 20.5t-63.5 11t-58.5 4q-68 0 -135.5 -19.5 t-141.5 -60.5v72h-346v-616z" />
<glyph unicode="8" horiz-adv-x="1648" d="M14 422q0 -129 90.5 -226.5t243.5 -150.5q211 -72 449 -72q150 0 286 28t240 79q63 31 114.5 78t88.5 103t56.5 120.5t19.5 132.5q0 111 -46.5 201t-132.5 155q61 51 92 105.5t31 120.5q0 72 -42 142.5t-107 117.5q-96 68 -218 98.5t-282 30.5q-141 0 -274.5 -24.5 t-251.5 -76.5q-145 -61 -228.5 -161.5t-83.5 -231.5q0 -164 129 -289q-174 -100 -174 -280zM471 420q0 27 10.5 45t50.5 53q18 -4 32 -8t30 -8q20 -4 48 -9.5t79 -15.5q47 -8 75.5 -19.5t45 -23.5t22.5 -23.5t6 -21.5q0 -29 -41 -60.5t-135 -31.5q-68 0 -125 21.5t-82 50.5 q-6 8 -11 21.5t-5 29.5zM762 1130q0 33 45 44.5t111 11.5q96 0 137 -32t41 -62q0 -16 -4.5 -29.5t-20.5 -30.5l-34.5 11.5t-38 9.5t-50 10t-71.5 14q-63 10 -89 17t-26 36z" />
<glyph unicode="9" horiz-adv-x="1648" d="M43 981q0 -106 43 -181t121 -123t187.5 -69.5t242.5 -21.5q37 0 67.5 4t62.5 11t67.5 15.5t83.5 18.5q0 -23 -2.5 -52.5t-3.5 -60t-3 -60.5t-4 -48q-12 -76 -45 -108t-74 -32h-14q6 16 10 33t4 33q0 55 -29.5 99t-77.5 74t-110.5 46t-126.5 16q-74 0 -139 -18t-116.5 -52 t-81 -83t-29.5 -111q0 -84 53 -147.5t142 -106.5t208 -64.5t252 -21.5q98 0 210 18.5t198 51.5q102 39 183 107.5t136 160.5t85 204t30 235q0 170 -57.5 306t-163 231t-256 146.5t-334.5 51.5q-180 0 -330.5 -51.5t-261.5 -153.5q-61 -55 -94 -131t-33 -166zM690 1024 q0 82 32 117t77 35q43 0 74.5 -36t31.5 -126h-2q0 -86 -29.5 -121t-74.5 -35q-47 0 -78 35t-31 131z" />
<glyph unicode=":" horiz-adv-x="796" d="M90 215q0 -53 24.5 -98t65.5 -77t94.5 -49.5t112.5 -17.5t114.5 17.5t97.5 49.5t66.5 78t24.5 101t-23.5 99t-62.5 76t-91 49.5t-110 17.5q-61 0 -117.5 -17.5t-99.5 -49.5t-69.5 -78t-26.5 -101zM90 829q0 -53 24.5 -98t65.5 -76.5t94.5 -49t112.5 -17.5t114.5 17.5 t97.5 49t66.5 77.5t24.5 102q0 55 -23.5 99t-62.5 75.5t-91 49t-110 17.5q-61 0 -117.5 -17.5t-99.5 -49t-69.5 -78t-26.5 -101.5z" />
<glyph unicode=";" horiz-adv-x="804" d="M92 829q0 -53 24.5 -98t65.5 -76.5t94.5 -49t110.5 -17.5q61 0 115.5 17.5t96.5 49t66.5 77.5t24.5 102q0 55 -22.5 99t-61.5 75.5t-91 49t-109 17.5q-61 0 -118 -17.5t-101 -49t-69.5 -78t-25.5 -101.5zM96 197q0 -41 14.5 -79t40 -69t59.5 -51.5t75 -26.5 q-8 -25 -35 -38t-92 -23v-232h80q92 0 176 37t146.5 99.5t99 145.5t36.5 175q0 70 -22.5 129.5t-64.5 102.5t-98 67.5t-124 24.5q-59 0 -111.5 -19.5t-92.5 -54.5t-63.5 -83t-23.5 -105z" />
<glyph unicode="&#x3c;" d="M23 528l978 -563l-4 545l-368 229l370 228v549l-976 -564v-424z" />
<glyph unicode="=" d="M-49 508h1122v285h-1122v-285zM-49 831h1122v285h-1122v-285z" />
<glyph unicode="&#x3e;" d="M23 -35l978 561v426l-974 564v-545l370 -230l-374 -229v-547z" />
<glyph unicode="?" horiz-adv-x="1443" d="M23 1139q0 -51 24.5 -91t64.5 -67t92 -40t109 -13q37 0 90.5 21.5t98.5 57t70.5 79.5t5.5 90q49 23 118 22q47 0 84 -3t37 -26q0 -16 -23.5 -21t-66.5 -20q-29 -10 -51.5 -20t-43 -22.5t-41 -27t-44.5 -32.5q-33 -25 -67 -55.5t-61.5 -66.5t-45 -77t-17.5 -86 q0 -76 28 -129t78 -88t118.5 -51t150.5 -16q72 0 131.5 9t103.5 37.5t71.5 81t37.5 138.5l-123 20q18 6 42 13.5t53 17.5q174 57 260 129t86 193q0 92 -53.5 163.5t-144.5 121t-212 76t-256 26.5q-119 0 -243 -21.5t-228 -60.5q-98 -37 -165.5 -106.5t-67.5 -155.5zM416 215 q0 -53 24.5 -98t65.5 -77t94 -49.5t113 -17.5q59 0 114.5 17.5t97.5 49.5t66.5 78t24.5 101h-2q0 55 -22.5 96t-61.5 69t-91.5 42t-109.5 14q-61 0 -117.5 -14t-99.5 -42t-69.5 -71t-26.5 -98z" />
<glyph unicode="@" horiz-adv-x="1386" d="M0 543q0 -147 56.5 -277.5t152.5 -227.5t227 -152.5t279 -55.5q186 0 357 104.5t288 311.5h-199q-86 -121 -200.5 -183.5t-237.5 -62.5q-113 0 -211 42t-171 115.5t-115 173t-42 214.5q0 113 41 211t112 170.5t167 113.5t207 41q119 0 223 -53t170 -145h-234l-12 -31 q-53 35 -97 49t-91 14q-82 0 -158 -38.5t-134.5 -102t-93 -145.5t-34.5 -168q0 -66 21.5 -122t59.5 -97t91 -64.5t117 -23.5q47 0 88 14t114 57q35 -35 73 -49t81 -14q63 0 135 26.5t131 71.5q94 70 146.5 174.5t52.5 220.5q0 123 -51.5 230.5t-140.5 187.5t-206.5 127 t-248.5 47q-150 0 -280 -54t-226 -149.5t-151.5 -224.5t-55.5 -276zM530 381q0 35 15.5 98.5t43 125t66.5 107.5t84 46q18 0 33.5 -14.5t15.5 -47.5q0 -35 -20 -90l-45 -129q-35 -102 -70 -140t-69 -38q-20 0 -37 17.5t-17 64.5zM938 291q18 45 22.5 57t6.5 23l155 485 q29 -47 45.5 -100.5t16.5 -112.5q0 -63 -22.5 -127.5t-61.5 -114.5q-29 -35 -66 -60t-96 -50z" />
<glyph unicode="A" horiz-adv-x="2029" d="M0 0h885v350h-103q-25 0 -36 5t-11 26q0 6 2 12q0 4 1 7l3 10h349q4 -10 6 -18.5t2 -12.5t-10.5 -16.5t-49.5 -12.5h-131v-350h1075v350h-63q-25 0 -42 3t-32.5 15.5t-32 37t-34.5 67.5l-437 983h-692l-444 -1003q-14 -33 -29.5 -53.5t-38 -32t-55.5 -14.5q-20 -2 -45 -2 q-17 0 -37 1v-352zM838 637l77 225l78 -225h-155z" />
<glyph unicode="B" horiz-adv-x="2078" d="M49 0h1225q25 0 65.5 2t92.5 6q61 6 106 12.5t82 15.5t71.5 21.5t75.5 30.5q125 57 187.5 140t62.5 204q0 88 -43 162t-121 125q-27 16 -54 28.5t-58 22.5q10 4 21.5 10t23.5 13q82 45 126 114.5t44 161.5q0 100 -48 174t-136.5 121t-213 69.5t-280.5 22.5h-1229v-350h66 q41 0 62.5 -22.5t21.5 -100.5v-510q0 -78 -21.5 -100.5t-62.5 -22.5h-66v-350zM903 360v215h162q115 0 152.5 -29.5t37.5 -72.5q0 -49 -35.5 -81t-129.5 -32h-187zM903 936v166h162q61 0 90 -5t39 -12q14 -10 23.5 -27.5t9.5 -37.5q0 -18 -5 -33.5t-25.5 -27t-59.5 -17.5 t-107 -6h-127z" />
<glyph unicode="C" horiz-adv-x="1841" d="M27 709q0 -344 286 -557q131 -98 284 -142.5t345 -44.5q170 0 308.5 35t254.5 106q274 174 275 515v98h-570v-98q0 -117 -54 -181.5t-126 -64.5q-113 0 -156 119q-8 20 -13 40.5t-8 46t-4 59.5t-1 81q0 63 2 108t5 78t9 56.5t15 44.5q35 96 149 96q49 0 84 -19.5 t53.5 -52.5t30.5 -79t12 -76v-74h564v653h-369v-55v-15v-22v-23q0 -10 -2 -10q-4 0 -7 10.5t-8.5 22.5t-10.5 23.5t-11 13.5q-72 29 -123 46t-96 27.5t-91 13.5t-104 3q-197 0 -364.5 -58.5t-292.5 -162t-195.5 -246.5t-70.5 -315z" />
<glyph unicode="D" horiz-adv-x="2125" d="M35 0h995q145 0 255 7t196 25.5t156.5 49.5t138.5 78q137 96 206.5 238.5t69.5 320.5q0 227 -108.5 394t-311.5 245q-68 27 -145.5 45t-175 30.5t-216 17.5t-266.5 5h-794v-350h65q41 0 62.5 -22.5t21.5 -100.5v-510q0 -78 -21.5 -100.5t-62.5 -22.5h-65v-350zM889 362 v732h61q84 0 124 -8.5t67 -24.5q51 -31 77.5 -105.5t26.5 -226.5q0 -117 -17.5 -187.5t-49.5 -113.5q-14 -18 -29.5 -30.5t-37 -20.5t-53.5 -11.5t-79 -3.5h-90z" />
<glyph unicode="E" horiz-adv-x="2086" d="M53 0h1940v659h-578v-96q0 -41 -12 -85t-31 -72q-14 -25 -44 -38.5t-85 -13.5h-342v236h37q14 0 26.5 -4t20.5 -18.5t14.5 -40t8.5 -70.5h303v557h-299q-4 -33 -8.5 -52.5t-10.5 -30.5t-14 -15.5t-23 -4.5h-55v187h322q106 0 150 -44t44 -155v-164h576v721h-1940v-350h66 q41 0 62.5 -22.5t21.5 -100.5v-510q0 -78 -21.5 -100.5t-62.5 -22.5h-66v-350z" />
<glyph unicode="F" horiz-adv-x="1978" d="M23 0h1019v350h-75q-51 0 -73 21.5t-22 91.5v131h29q33 0 48.5 -15.5t15.5 -29.5v-31l6 -69h293v571h-293q-8 -76 -27.5 -98.5t-48.5 -22.5h-23v203h224q51 0 82.5 -2t53 -7.5t35 -12.5t25.5 -19q25 -23 43.5 -70t18.5 -102v-80h563v647h-1894v-350h65q41 0 62.5 -22.5 t21.5 -100.5v-510q0 -78 -21.5 -100.5t-62.5 -22.5h-65v-350z" />
<glyph unicode="G" horiz-adv-x="2048" d="M14 725q0 -193 88 -354.5t246 -253.5q123 -72 283 -112t321 -40q88 0 178.5 13.5t157.5 35.5q74 27 114 40.5t60 21.5q16 4 21.5 5t11.5 1q8 0 8 -6v-17v-59h357v414v39q0 14 1 23t5 15.5t12 14.5t29 12q14 3 47 3q17 0 39 -1v320h-944v-318h77h23q10 0 14 -2 q10 -4 19.5 -16t9.5 -31q0 -29 -34 -57.5t-105 -28.5q-100 0 -162 84t-62 272q0 195 63.5 280t172.5 85q100 0 157.5 -54.5t57.5 -135.5v-44h580v582h-353q-8 -39 -11 -49t-13 -10q-18 0 -64 14q-78 25 -134 40t-106.5 24.5t-99.5 12.5t-110 3q-207 0 -382 -55.5 t-302 -155.5t-199 -241.5t-72 -313.5z" />
<glyph unicode="H" horiz-adv-x="2213" d="M57 0h1002v350h-66q-41 0 -62.5 22.5t-21.5 100.5v133h334v-133q0 -78 -21.5 -100.5t-62.5 -22.5h-65v-350h1020v350h-66q-41 0 -62.5 22.5t-21.5 100.5v510q0 78 21.5 100.5t62.5 22.5h66v350h-1020v-350h65q41 0 62.5 -22.5t21.5 -100.5v-59h-334v59q0 78 21.5 100.5 t62.5 22.5h66v350h-1002v-350h66q41 0 62.5 -22.5t21.5 -100.5v-510q0 -78 -21.5 -100.5t-62.5 -22.5h-66v-350z" />
<glyph unicode="I" horiz-adv-x="1130" d="M57 0h994v350h-66q-41 0 -62.5 22.5t-21.5 100.5v510q0 78 21.5 100.5t62.5 22.5h66v350h-994v-350h66q41 0 62.5 -22.5t21.5 -100.5v-510q0 -78 -21.5 -100.5t-62.5 -22.5h-66v-350z" />
<glyph unicode="J" horiz-adv-x="1505" d="M-27 371q0 -98 51.5 -173t141.5 -127.5t212 -79t263 -26.5q139 0 253 25.5t212 83.5q248 141 248 424v485q0 78 21.5 100.5t62.5 22.5h65v350h-997v-350h65q41 0 62.5 -22.5t21.5 -100.5v-422q-43 59 -124.5 92t-174.5 33q-80 0 -149.5 -22.5t-121.5 -63.5t-82 -99 t-30 -130z" />
<glyph unicode="K" horiz-adv-x="2158" d="M18 8h1002v350h-66q-41 0 -62.5 22.5t-21.5 100.5l97 64l135 -146q14 -16 19 -20t5 -14q0 -6 -16 -7h-78v-350h1065v342l-61 6q-14 2 -46 21.5t-67 54.5l-422 449l324 202q18 12 32.5 18.5t33 9.5t46.5 3h78v350h-983v-350q51 0 74 1l22 1l-9 -1q-9 -1 -32 -15l-217 -142 v33q0 80 21.5 101.5t62.5 21.5h66v350h-1002v-350h66q41 0 62.5 -21.5t21.5 -101.5v-510q0 -78 -21.5 -100.5t-62.5 -22.5h-66v-350z" />
<glyph unicode="L" horiz-adv-x="1798" d="M14 0h1735v715h-578v-158q0 -111 -39.5 -156t-109.5 -45h-160v627q0 78 21.5 100.5t62.5 22.5h66v350h-998v-350h66q41 0 62.5 -22.5t21.5 -100.5v-510q0 -78 -21.5 -100.5t-62.5 -22.5h-66v-350z" />
<glyph unicode="M" horiz-adv-x="2580" d="M29 4h753v275h-20q-72 0 -104.5 41.5t-32.5 136.5v528l370 -981h363l381 1030v-577q0 -94 -33 -136t-104 -42h-21v-275h920v275h-23q-72 0 -104.5 41.5t-32.5 136.5v542q0 94 32.5 136.5t104.5 42.5h23v274h-1008l-258 -678l-256 678h-950v-274h22q72 0 103.5 -42 t31.5 -137v-542q0 -94 -31.5 -136t-103.5 -42h-22v-275z" />
<glyph unicode="N" horiz-adv-x="2162" d="M39 0h827v350h-65q-31 0 -50.5 14.5t-25.5 32.5q-4 8 -7 27.5t-3 30.5q4 8 4 18v209l450 -682h762v983q0 78 21.5 100.5t62.5 22.5h66v350h-828v-350h66q41 0 62.5 -22.5t21.5 -100.5v-211l-457 684h-907v-350h65q41 0 62.5 -22.5t21.5 -100.5v-510q0 -78 -21.5 -100.5 t-62.5 -22.5h-65v-350z" />
<glyph unicode="O" horiz-adv-x="2056" d="M12 713q0 -92 22.5 -179.5t65.5 -162t104.5 -137t139.5 -105.5q137 -78 320.5 -121t373.5 -43q211 0 389.5 53.5t305.5 152.5t198.5 239.5t71.5 314.5q0 158 -66.5 305.5t-185.5 241.5q-135 109 -326.5 164t-420.5 55q-203 0 -375 -45t-301 -135q-74 -49 -132.5 -116 t-99.5 -143.5t-62.5 -163.5t-21.5 -175zM836 731q0 119 12 196t34.5 121t55.5 61t74 17t73.5 -17t56 -63.5t36 -124t12.5 -198.5q0 -115 -13.5 -188.5t-36 -118.5t-56 -62.5t-72.5 -17.5q-41 0 -74 17.5t-55.5 61.5t-34.5 120.5t-12 195.5z" />
<glyph unicode="P" horiz-adv-x="2004" d="M10 0h1041v352l-80 -4q-35 -2 -56.5 1t-34 15.5t-16.5 37t-4 63.5v117h578q111 0 205 30.5t163.5 86t109.5 133t40 174.5q0 106 -45 190t-126 141.5t-192.5 88t-242.5 30.5h-1340v-350h66q41 0 62.5 -22.5t21.5 -100.5v-510q0 -78 -21.5 -100.5t-62.5 -22.5h-66v-350z M860 940v170h207q76 0 101.5 -24.5t25.5 -59.5q0 -41 -24.5 -63.5t-110.5 -22.5h-199z" />
<glyph unicode="Q" horiz-adv-x="2037" d="M-27 717q0 -190 91.5 -349t252.5 -249q133 -76 300 -115t350 -39q43 0 79.5 2t70.5 6t68 12.5t75 20.5q53 -86 144 -131t208 -45q121 0 229 49q182 84 182 289v133h-221h-33q0 -6 5.5 -5t11.5 3t11 4t5 -2q-2 -33 -24.5 -57.5t-32.5 -24.5q-12 0 -16 2q109 102 167 229.5 t58 280.5q0 80 -20.5 160t-57.5 153.5t-90 138t-119 115.5q-125 98 -293 145.5t-370 47.5q-199 0 -376 -45t-321 -131q-158 -96 -246 -254t-88 -344zM786 674v55q0 115 13.5 192.5t37 125t56.5 68t70 20.5q39 0 72.5 -19.5t58 -62.5t39 -112t14.5 -165h-2q0 -61 -6 -135 q-35 12 -69 18.5t-75 6.5q-100 0 -204 -43q-5 28 -5 51zM881 356q23 10 44 24.5t50 14.5q27 0 44 -13t34 -22q-37 -25 -88 -24q-49 0 -84 20z" />
<glyph unicode="R" horiz-adv-x="2179" d="M14 0h998v350h-66q-20 0 -35.5 -2t-27 4t-16.5 23.5t-5 56.5v141h129q82 0 122 -38.5t54 -137.5q6 -41 12.5 -85t17.5 -86t30.5 -81t54.5 -67q29 -25 73 -46.5t95 -35.5t106.5 -22.5t108.5 -8.5q88 0 168 21.5t145 68.5q76 53 110 128t34 177q0 10 -1 32t-5 69h-236 q-6 57 -12 92t-13.5 57.5t-19.5 40t-30.5 40t-42 40t-50.5 33.5q16 4 28.5 8t26.5 10q94 41 150.5 118t56.5 173q0 104 -60.5 185t-164.5 128q-43 18 -87 32t-94 22t-110.5 12t-136.5 4h-1307v-350h66q41 0 62.5 -22.5t21.5 -100.5v-510q0 -78 -21.5 -100.5t-62.5 -22.5h-66 v-350zM862 936v164h242q66 0 89.5 -22.5t23.5 -55.5q0 -39 -25 -62.5t-88 -23.5h-242z" />
<glyph unicode="S" horiz-adv-x="1855" d="M41 967q0 -111 58.5 -205t158.5 -154q86 -53 197.5 -87t277.5 -60q80 -12 125 -19.5t70 -11.5q23 -4 35 -8t28 -10q20 -8 25.5 -16.5t5.5 -12.5q0 -37 -50 -45t-138 -8q-45 0 -98.5 6t-100.5 24.5t-80 52t-35 89.5h-461v-502h375l21 57l13 -1q13 -1 30 -7 q137 -45 254.5 -64.5t251.5 -19.5q141 0 278 31t250 88q135 70 204.5 179.5t69.5 252.5q0 190 -137 326q-37 37 -78 66.5t-92 53t-116.5 43t-151.5 33.5q-106 16 -164 17q-57 0 -90 8q-35 6 -53.5 10t-46.5 10q-23 6 -40.5 12.5t-17.5 18.5q0 27 41 32t103 5q29 0 82 -6 t106 -20.5t96 -39t53 -59.5h402v430h-348l-23 -59l-14 2q-14 2 -41 10q-84 25 -144.5 41t-110.5 25.5t-96 12.5t-100 3q-133 0 -259 -29.5t-236 -87.5q-135 -70 -212 -175t-77 -232z" />
<glyph unicode="T" horiz-adv-x="2048" d="M29 805h585v201q0 45 10.5 63t30.5 25v-621q0 -78 -21.5 -100.5t-62.5 -22.5h-65v-350h997v350h-65q-41 0 -62.5 22.5t-21.5 100.5v619q18 -4 28.5 -23.5t10.5 -62.5v-201h585v651h-1949v-651z" />
<glyph unicode="U" horiz-adv-x="2037" d="M6 1106h66q41 0 62.5 -22.5t21.5 -100.5v-358q0 -166 61.5 -294t183.5 -210q117 -78 264.5 -117t321.5 -39q164 0 307.5 33t251.5 96q68 39 122 96.5t93 127t59.5 147.5t20.5 160v358q0 78 21.5 100.5t62.5 22.5h66v350h-912v-350h62q70 0 101.5 -21.5t31.5 -89.5v-383 q0 -133 -51.5 -190t-155.5 -57q-49 0 -90 15t-68 38q-14 14 -25.5 30.5t-18.5 39t-10 56.5t-3 81v381q0 59 19.5 79.5t78.5 20.5h97v350h-1041v-350z" />
<glyph unicode="V" horiz-adv-x="1859" d="M-51 1114q55 -10 88 -19.5t55.5 -26.5t38.5 -48t39 -86l393 -934h707l399 977q16 43 31.5 67.5t37 38t53.5 18.5t83 7v348h-868v-350h84q43 0 50 -11.5t7 -21.5t-2 -25.5t-12 -37.5l-134 -328l-151 354q-8 16 -8 35q0 16 9 25.5t40 9.5h88v350h-1028v-342z" />
<glyph unicode="W" horiz-adv-x="2650" d="M-37 1104q53 0 85 -3t51.5 -16.5t31.5 -40t29 -71.5l327 -973h648l174 500l182 -500h618l322 977q12 39 22.5 64.5t21.5 40t26.5 19.5t40.5 5h94v350h-815v-350h96q23 0 31 -8t8 -23q0 -14 -12 -53l-111 -346l-137 348q-4 14 -8.5 23.5t-6.5 17.5q-2 6 -2 10q0 16 11 23 q6 8 15 6t32 0l59 2v350h-864v-350h92q14 0 24.5 -2t10.5 -12q0 -20 -17 -70l-116 -342l-119 342q-10 29 -13 37t-3 18t7 19.5t38 9.5h69v350h-942v-352z" />
<glyph unicode="X" horiz-adv-x="2017" d="M6 0l881 -2v401q-16 -4 -34.5 -6t-27.5 -4q4 4 9 6l69 70l72 -78l-55 6v-395l1052 2v350h-69q-31 0 -51.5 2t-36 7.5t-27.5 15.5t-29 26l-366 379l282 264q25 23 42.5 35.5t42 18.5t61.5 7t98 1v350h-825v-350h69l-76 -78l-79 76l-11 8l10 -3q9 -3 58 -3v350h-1040v-350 h61h12h31q29 0 64.5 -16.5t64.5 -42.5l332 -336l-330 -308q-23 -23 -65.5 -38t-85.5 -15h-37h-66v-350z" />
<glyph unicode="Y" horiz-adv-x="1996" d="M2 1106l57 -2h19q18 0 33.5 -2t32 -10.5t39 -25.5t57.5 -48l419 -383v-162q0 -78 -21.5 -100.5t-62.5 -22.5h-65v-350h963v350h-66q-41 0 -62.5 22.5t-21.5 100.5v162l428 391q33 29 54.5 45t44 24.5t50.5 9.5h20q22 0 52 -1v352h-833v-350h90q10 0 14 7t4 1l-1 -3 q-1 -3 -7 -7l-10 -10q-6 -6 -17 -13l-88 -80l-88 82q-12 10 -18 14.5t-6 12.5q0 4 2 0t6 -4h98v350h-1116v-350z" />
<glyph unicode="Z" horiz-adv-x="1914" d="M41 0h1796v684l-489 2l489 508v262h-1751v-616q131 0 215 1t133 1h74h35q12 0 17 -1t22 -1v-2q0 51 1 82.5t4 51t8 32t13 26.5q20 35 57 53.5t123 18.5h58l-264 -264l-39 -39l-502 -502v-297zM995 350l324 324q0 -78 -3 -114t-9 -62q-10 -41 -26.5 -69t-43.5 -45 t-68 -25.5t-98 -8.5h-76z" />
<glyph unicode="[" horiz-adv-x="919" d="M31 -272h839v362h-98q-35 0 -48 3t-27.5 15.5t-15.5 27t-1 46.5v834q0 33 1 47t15.5 26.5t27.5 14.5t48 2h98v350h-839v-1728z" />
<glyph unicode="\" horiz-adv-x="1292" d="M-96 1456l995 -1671h465l-1006 1671h-454z" />
<glyph unicode="]" horiz-adv-x="919" d="M31 90v-362h839v1728h-839v-350h98q35 0 48 -2t27.5 -14.5t15.5 -26.5t1 -47v-834q0 -33 -1 -47t-15.5 -26.5t-27.5 -15.5t-48 -3h-98z" />
<glyph unicode="^" d="M-66 670h486l92 299l92 -299h486l-299 796h-558z" />
<glyph unicode="_" d="M-45 -342v-348h1114v348h-1114z" />
<glyph unicode="`" d="M-123 1489l709 -328h561l-508 328h-762z" />
<glyph unicode="a" horiz-adv-x="1615" d="M-4 315q0 -96 58.5 -175t150.5 -113q63 -27 142 -40.5t157 -13.5q53 0 109.5 8.5t110.5 21.5t103.5 33.5t87.5 45.5q57 -59 122 -84t161 -25q109 0 195 33t139 103q18 23 29.5 46t17.5 54t8 72t2 98h-168v350q0 29 -1 46.5t-5 33.5q-12 55 -48 110.5t-85 90.5 q-92 66 -234.5 101.5t-295.5 35.5q-207 0 -414 -53q-61 -16 -115.5 -40t-94.5 -55.5t-62.5 -71.5t-22.5 -87q0 -66 35 -116t96 -67q20 -6 53 -5t70 5.5t75 10.5t68 10q102 23 140 50.5t47 80.5q2 12 -2 23.5t-9 21.5q10 4 21 4h25q66 0 107.5 -15.5t57.5 -33.5 q16 -16 18.5 -35.5t4.5 -66.5h-49q-45 0 -86 -6.5t-82 -10.5q-10 -2 -49 -9t-72 -11q-80 -10 -160 -22.5t-141 -45.5q-92 -53 -153.5 -119t-61.5 -168zM578 356q0 20 10 36t43 26q35 12 97.5 21.5t121.5 11.5v-113q-47 -27 -87 -37t-83 -10q-57 0 -79.5 21t-22.5 44z" />
<glyph unicode="b" horiz-adv-x="1677" d="M10 1155h56q29 0 43 -14q10 -12 12 -25.5t2 -42.5v-1073h336l26 104l33 -8l41 -19q41 -19 103.5 -42t134 -42.5t133.5 -19.5q106 0 209.5 27t193.5 76q301 164 301 489q0 131 -46 237.5t-129 181.5t-198.5 116t-256.5 41q-86 0 -156 -13.5t-141 -46.5v375h-697v-301z M707 504v164q0 63 33.5 97t90.5 34q82 0 109 -70q14 -29 23.5 -79t9.5 -97h-2q0 -133 -40 -184.5t-100 -51.5q-35 0 -61.5 13.5t-36.5 29.5q-8 14 -13 25.5t-8 26t-4 36t-1 56.5z" />
<glyph unicode="c" horiz-adv-x="1566" d="M-2 541q0 -156 76 -277t211 -186q109 -51 244 -78t270 -27q154 0 289 40t235 118q47 35 82 71t59.5 80t40 99t21.5 129h-600q-2 -74 -10.5 -115t-23.5 -61.5t-38 -25.5t-49 -5q-74 0 -103 62q-16 35 -27 88t-11 112q0 131 40.5 186.5t92.5 55.5q33 0 47 -8 q-6 -16 -7 -23.5t-1 -19.5q0 -55 28.5 -97.5t75.5 -72t107.5 -45t123.5 -15.5q74 0 139.5 16.5t117 48.5t81 78t29.5 107q0 100 -66.5 171t-183.5 114q-219 80 -471 80q-180 0 -330.5 -41t-259 -118t-169 -188.5t-60.5 -252.5z" />
<glyph unicode="d" horiz-adv-x="1636" d="M-6 535q0 -319 256 -472q80 -47 174 -70.5t192 -23.5q84 0 160 38t148 73v-80h686v301h-58q-29 0 -43 14q-10 12 -12 26.5t-2 43.5v1071h-713v-301h82q29 0 43.5 -14.5t14.5 -50.5q-63 27 -133 40t-154 13q-92 0 -180 -25.5t-170 -73.5q-291 -171 -291 -509zM662 543 q0 74 10 123t28.5 77.5t42 41t52.5 12.5t55.5 -16.5t38.5 -39t20.5 -60.5t8.5 -103h-3q0 -86 -7 -135.5t-17 -67.5q-16 -31 -43 -47.5t-55 -16.5q-61 0 -97 62q-16 29 -25 65.5t-9 104.5z" />
<glyph unicode="e" horiz-adv-x="1566" d="M20 555q0 -137 57.5 -244.5t160 -182.5t246 -115t315.5 -40q158 0 290 38t236 114q45 33 81 60.5t61.5 60.5t44 77t28.5 113h-557q0 -4 -14.5 -21.5t-37 -36t-49 -33.5t-48.5 -15q-143 0 -156 137h866v78q0 86 -25.5 169t-72.5 154q-92 135 -258 204t-385 69 q-170 0 -313.5 -41t-248 -117t-163 -184.5t-58.5 -243.5zM692 705q12 41 43 77.5t84 36.5q49 0 79 -38t42 -76h-248z" />
<glyph unicode="f" horiz-adv-x="1015" d="M14 803h150v-418q0 -29 -1 -42t-11 -26q-12 -16 -48 -16h-79v-301h942v313h-150q-25 0 -41 6.5t-22 10.5q-4 4 -8.5 19.5t-4.5 68.5v385h224v311h-224v53l38 1q38 1 83 12.5t83 35t38 66.5q0 53 -30.5 96t-78.5 70q-49 29 -136 42t-191 13q-203 0 -318.5 -66.5 t-115.5 -219.5q0 -14 3 -42t7 -61h-109v-311z" />
<glyph unicode="g" horiz-adv-x="1646" d="M-14 -49q0 -55 29.5 -96t82.5 -70q43 -23 107.5 -39t145.5 -28.5t174 -18.5t194 -6q213 0 389 23.5t272 64.5q98 43 156.5 118.5t58.5 174.5q0 90 -51 167.5t-133 120.5q-25 12 -57.5 24.5t-70.5 21t-77 12.5q-26 3 -50 3q-12 0 -23 -1l-508 -21q-20 -2 -33.5 8.5 t-13.5 22.5q0 2 25.5 4t56 3t59.5 1h35q125 0 240.5 23.5t203.5 70t140.5 114t52.5 153.5v6q37 -20 75 -21q72 0 116 53.5t44 125.5q0 88 -62.5 143t-152.5 55q-59 0 -131 -22.5t-137 -61.5q-59 18 -106.5 29.5t-92.5 19t-90 10.5t-98 3q-152 0 -281 -22.5t-224 -67.5 t-149.5 -114t-54.5 -161q0 -80 41 -139t117 -102q-49 -16 -92 -46q-47 -29 -77 -80t-30 -104q0 -80 60 -145q20 -23 47 -41q-53 -25 -90 -65t-37 -103zM553 16q0 4 10 11q12 6 21 6h47h287h65q25 0 25 -23q0 -33 -63.5 -36t-176.5 -3h-96q-41 0 -67.5 3t-39 12.5t-12.5 29.5 zM614 784q0 47 30 75q28 26 69 26h6q47 -2 73.5 -30t26.5 -62q0 -37 -28.5 -66t-75.5 -29t-74 25.5t-27 60.5z" />
<glyph unicode="h" horiz-adv-x="1675" d="M20 0h803v301h-59q-16 0 -27.5 5t-17.5 9q-6 6 -10 17.5t-4 52.5v272q0 66 35.5 102t101.5 36q55 0 88 -34t33 -97v-279q0 -29 -1 -42t-12 -26q-12 -16 -47 -16h-59v-301h809v301h-54q-27 0 -45 14q-10 12 -12 26.5t-2 43.5v369q0 86 -31.5 148.5t-107.5 119.5 q-76 59 -166 89t-193 30q-180 0 -337 -88v403h-685v-301h54q27 0 45 -14q10 -12 12 -25.5t2 -42.5v-688q0 -29 -1 -42t-11 -26q-12 -16 -47 -16h-54v-301z" />
<glyph unicode="i" horiz-adv-x="870" d="M27 0h802v301h-55q-27 0 -45 14q-10 12 -12 26.5t-2 43.5v729h-688v-301h53q27 0 45 -14q10 -12 12 -25.5t2 -42.5v-346q0 -29 -1 -42t-11 -26q-12 -16 -47 -16h-53v-301zM96 1327q0 -106 99 -153q41 -20 99 -30.5t118 -10.5q61 0 117.5 11t99.5 33.5t68.5 59.5t25.5 90 q0 51 -24.5 89t-66.5 61.5t-97.5 35t-118.5 11.5q-68 0 -126.5 -10.5t-101.5 -34t-67.5 -61.5t-24.5 -91z" />
<glyph unicode="j" horiz-adv-x="854" d="M6 -96q0 -53 30 -92t77 -66t107.5 -40t121.5 -13q55 0 111.5 7t107.5 19.5t94 30t70 39.5q53 41 79.5 104.5t26.5 133.5q0 35 -7 71.5t-23 87.5q-14 47 -23.5 78t-13.5 54.5t-6 43t-2 46.5v706h-690v-301h55q29 0 43 -14q10 -12 12 -25.5t2 -42.5v-448q0 -74 18.5 -113 t75.5 -78q-49 0 -97 -12t-86 -36t-60.5 -59.5t-22.5 -80.5zM139 1327q0 -53 25.5 -92t73.5 -61q41 -20 100 -30.5t119 -10.5q61 0 117.5 11t99.5 33.5t68.5 59.5t25.5 90q0 51 -24.5 89t-67.5 61.5t-99.5 35t-119.5 11.5q-66 0 -124.5 -10.5t-101.5 -34t-67.5 -61.5 t-24.5 -91z" />
<glyph unicode="k" horiz-adv-x="1671" d="M-2 0h770v301h-20q-14 0 -24.5 2t-21.5 12q-14 12 -14 25v37l86 45l86 -119l2 -2h-2h-69v-301h847v301h-57q-31 0 -53.5 12.5t-44.5 42.5l-230 324l181 108q12 6 25.5 11.5t33.5 8.5t50 4h22q23 0 53 -1v303h-907v-295h125l-148 -96v733h-690v-301h53q27 0 45 -14 q10 -12 12.5 -25.5t2.5 -42.5v-688q0 -29 -1 -42t-10 -24q-18 -18 -49 -18h-53v-301z" />
<glyph unicode="l" horiz-adv-x="843" d="M14 0h799v301h-57q-29 0 -43 14q-10 12 -12.5 26.5t-2.5 43.5v1071h-684v-301h56q29 0 43 -14q10 -12 12 -25.5t2 -42.5v-688v-43q0 -12 -10 -25q-6 -6 -18.5 -11t-30.5 -5h-54v-301z" />
<glyph unicode="m" horiz-adv-x="2555" d="M12 0h803v301h-41q-12 0 -34.5 4t-28.5 10q-10 12 -12.5 26.5t-2.5 43.5v248q0 76 39 118t101 42q53 0 87.5 -37t34.5 -127v-244q0 -29 -1 -42t-11 -26q-6 -6 -18.5 -11t-30.5 -5h-59v-301h825v301h-61q-14 0 -26.5 5t-16.5 9q-8 6 -12.5 17.5t-4.5 52.5v279q0 43 7 59 t26 31q39 35 100 34q61 0 95 -36.5t34 -122.5v-244q0 -29 -1 -42t-11 -26q-6 -6 -18.5 -11t-30.5 -5h-60v-301h811v301h-55q-29 0 -43 14q-10 12 -12 26.5t-2 43.5v264q0 111 -34 199t-103 149q-74 70 -176.5 107t-210.5 37q-113 0 -230 -40t-203 -108q-184 147 -397 148 q-61 0 -135 -15.5t-131 -40.5q-16 -6 -31.5 -14t-36.5 -18v61h-682v-301h56q29 0 43 -14q10 -12 12 -25.5t2 -42.5v-346v-43q0 -12 -10 -25q-6 -6 -18.5 -11t-30.5 -5h-54v-301z" />
<glyph unicode="n" horiz-adv-x="1728" d="M27 0h809v301h-60q-27 0 -45 14q-10 12 -12 26.5t-2 43.5v285q0 55 37 91t104 36q57 0 90 -36t33 -118v-258q0 -29 -1 -42t-11 -26q-12 -16 -47 -16h-60v-301h805v301h-53q-27 0 -45 14q-10 12 -12.5 26.5t-2.5 43.5v330q0 92 -37.5 171t-103 135t-155 88t-189.5 32 q-104 0 -185 -20.5t-167 -69.5v63h-690v-301h53q27 0 45 -14q10 -12 12 -25.5t2 -42.5v-346q0 -29 -1 -42t-11 -26q-12 -16 -47 -16h-53v-301z" />
<glyph unicode="o" horiz-adv-x="1632" d="M6 551q0 -141 55.5 -249.5t159 -181.5t250.5 -110t332 -37q180 0 327.5 38t250 111t158.5 181.5t56 249.5t-55 250.5t-156.5 184.5t-245 114t-319.5 39q-225 0 -384 -50.5t-277 -166.5q-152 -148 -152 -373zM676 557q0 84 8 134t24.5 78t42 37t60.5 9q33 0 58.5 -9 t42 -37t24.5 -79t8 -137q0 -84 -8 -134t-25.5 -77t-42 -36t-57.5 -9q-35 0 -60.5 8t-42 36t-24.5 79t-8 137z" />
<glyph unicode="p" horiz-adv-x="1689" d="M25 14v-301h800v240h-94h-6v76l1 3q1 3 -1 7q70 -33 136.5 -50.5t144.5 -17.5q84 0 170 23.5t165 66.5q141 74 216 202t75 290q0 129 -48 244.5t-138 195.5q-84 78 -176 113t-205 35q-106 0 -192.5 -20.5t-161.5 -67.5v61h-686v-301h53q27 0 45 -14q10 -12 12 -25.5 t2 -42.5v-633q0 -29 -1 -42t-11 -25q-12 -16 -47 -17h-53zM711 559q0 76 8 118t24 68q12 23 40 38.5t59 15.5q37 0 65.5 -23.5t42.5 -75.5q6 -27 10.5 -67.5t4.5 -97.5q0 -55 -5.5 -86t-15.5 -56q-16 -35 -46 -55.5t-58 -20.5q-27 0 -55.5 17.5t-47.5 48.5q-12 20 -19 56 t-7 120z" />
<glyph unicode="q" horiz-adv-x="1619" d="M-10 528q0 -264 186 -407q92 -72 208 -110t237 -38q47 0 92 5.5t90 15.5v-281h794v301h-57q-25 0 -43 15q-10 12 -12 26.5t-2 42.5v1016h-275q-1 -24 0 -41q0 -27 1 -40q3 -22 -13 -21q-8 0 -20 6l-46 22q-113 55 -206 79t-201 24q-154 0 -292 -47t-249 -138 q-192 -162 -192 -430zM649 569q0 135 38 184.5t95 49.5t95 -53q16 -23 24 -65t8 -134q0 -49 -3 -85t-7 -52q-10 -51 -37.5 -73t-75.5 -22q-29 0 -54 12.5t-43.5 41t-29 76.5t-10.5 120z" />
<glyph unicode="r" horiz-adv-x="1366" d="M37 0h827v301h-80q-27 0 -45 14q-10 12 -12 26.5t-2 43.5v266q0 27 9 57.5t26 51.5q4 -47 28.5 -87t61.5 -67.5t84 -43t100 -15.5q63 0 116.5 22.5t93.5 61.5t62.5 93t22.5 116q0 66 -25.5 121t-68.5 95t-102.5 62.5t-126.5 22.5q-39 0 -72 -5.5t-65.5 -16.5t-67.5 -29.5 t-76 -45.5v70h-688v-301h53q27 0 45 -14q10 -12 12.5 -25.5t2.5 -42.5v-346q0 -29 -1.5 -42t-11.5 -26q-12 -16 -47 -16h-53v-301z" />
<glyph unicode="s" horiz-adv-x="1359" d="M8 731q0 -115 68.5 -198.5t185.5 -131.5h-244v-401h287q4 39 0 48t2 9q14 0 26.5 -4t51.5 -18q96 -35 180 -49.5t176 -14.5q117 0 222.5 33t186.5 91.5t128 139t47 177.5q0 100 -51 184t-141 131q-16 8 -36 14.5t-42 14.5h200v358h-221l-45 -45q2 0 6 -4q-2 0 -10 4 q-4 2 -8 3t-14.5 5t-31 9.5t-59.5 15.5q-80 23 -140 31t-134 8q-231 0 -393 -97q-86 -53 -141.5 -137t-55.5 -176zM420 360q88 -16 141 -22t82 -10t37 -10.5t8 -22.5q0 -12 -25.5 -21.5t-48.5 -13.5q-11 -2 -21 -2q-13 0 -24 3q-20 5 -38.5 14.5t-36 21.5t-35.5 20 q-16 8 -24.5 15.5t-14.5 27.5zM649 842q0 10 16.5 28.5t39.5 18.5q63 0 102 -32t67 -60q-31 4 -63.5 9t-67.5 9q-41 4 -67.5 7.5t-26.5 19.5z" />
<glyph unicode="t" horiz-adv-x="972" d="M-6 815h170v-534q0 -57 19.5 -103.5t58.5 -87.5q53 -55 144 -86t187 -31q82 0 159 29t130 78q53 51 74.5 114.5t21.5 153.5v109h-225v358h225v299h-225v275h-405q0 -63 -2 -103.5t-8.5 -65t-15.5 -39t-23 -28.5q-25 -25 -64 -38t-117 -13h-104v-287z" />
<glyph unicode="u" horiz-adv-x="1646" d="M2 813h53q27 0 45 -14q10 -12 12.5 -25.5t2.5 -42.5v-375q0 -84 48 -167t124 -130q70 -41 146.5 -64.5t154.5 -23.5q98 0 186 21.5t160 62.5v-55h680v301h-53q-27 0 -45 14q-10 12 -12.5 26.5t-2.5 43.5v729h-706v-301h79q16 0 27.5 -5t18.5 -9q10 -10 12 -24.5t2 -43.5 v-262q0 -74 -36 -112t-89 -38q-57 0 -88 32t-31 118v645h-688v-301z" />
<glyph unicode="v" horiz-adv-x="1542" d="M-33 821q47 -8 76 -15t46 -19.5t28.5 -31t23.5 -50.5l297 -705h625l301 698q16 39 28.5 61.5t30 34t46 15.5t75.5 8v297h-721v-301h58q25 0 33 -9t8 -26q0 -10 -3.5 -18t-7.5 -19l-94 -219l-100 250q-2 4 -2 16q0 16 14 20.5t68 4.5v301h-830v-293z" />
<glyph unicode="w" horiz-adv-x="2408" d="M-33 813q117 0 164 -117l287 -696h612l139 326l127 -326h613l325 735q10 25 19.5 39t27 23.5t44 12.5t69.5 3v301h-723v-299q61 -4 83 -6t22 -18q0 -8 -7 -21l-106 -258l-104 258q-2 6 -3 12q0 20 18.5 24.5t82.5 10.5v297h-842v-301q53 0 66.5 1t19.5 -3q14 -10 14 -20 q0 -8 -6 -21l-106 -254l-94 252q-2 6 -2 12t2 11.5t11 10.5t28.5 8t54.5 5v299h-836v-301z" />
<glyph unicode="x" horiz-adv-x="1640" d="M-2 0h743v301h-39l48 35l36 -35h-30v-301h854v301q-49 0 -79 2t-50.5 7t-34.5 14.5t-33 25.5l-285 238l275 192q16 10 28.5 17.5t30 10.5t41.5 4h18q20 0 48 -1v303h-709v-307h39l-47 -37l-51 37h47v307h-850v-305q26 2 47 2q31 0 50 -5q32 -9 63 -32l309 -239l-289 -209 q-10 -6 -20.5 -11.5t-28.5 -8.5t-49 -4t-82 -1v-301z" />
<glyph unicode="y" horiz-adv-x="1589" d="M-4 815q45 -2 72.5 -6t44 -13.5t28 -23.5t21.5 -39l323 -706q16 4 5 14t-36.5 21.5t-61.5 19.5t-70 8q-43 0 -86 -12t-77 -36t-55.5 -56.5t-21.5 -75.5q0 -59 34 -101t92 -68t137 -37t167 -11q131 0 238.5 21.5t179.5 64.5q66 41 123 113.5t90 154.5l282 692 q10 25 18.5 38.5t24 21.5t40 11t67.5 5v299h-715v-297q51 -4 67.5 -5t22.5 -3h6q6 -6 7 -18q0 -12 -9 -35l-92 -228l-112 246q-2 2 -2 8v13q0 16 19 17t79 1v301h-850v-299z" />
<glyph unicode="z" horiz-adv-x="1433" d="M33 0h1370v508h-322q-4 -63 -12 -102t-26.5 -60.5t-47 -30t-73.5 -8.5h-62l543 549v258h-1319v-477h248l43 43q-2 -4 -4 -19.5t-2 -60.5q8 63 19 103t29.5 62.5t45 31t63.5 8.5h58l-551 -541v-264z" />
<glyph unicode="{" d="M86 328q33 -6 55.5 -15.5t34.5 -24t17.5 -38t5.5 -60.5v-253q0 -86 20.5 -152t67.5 -109q29 -27 59.5 -42t70.5 -23t92 -11t124 -3q47 0 94 1t94 3q18 0 41 1t76 1v483h-92q-35 0 -57.5 1t-35 7t-17.5 18.5t-5 34.5v27v98q0 94 -20.5 154.5t-73.5 108.5q12 10 20.5 20 t18.5 20q29 39 42 97.5t13 124.5v73q0 33 3 50.5t14.5 26.5t32 11.5t57.5 2.5q12 0 28.5 -1.5t69.5 -5.5v512h-117q-45 0 -70.5 1t-44 2t-33 2.5t-34.5 1.5q-70 0 -118 -2.5t-84 -8.5t-63.5 -17t-54.5 -30q-66 -43 -92 -114.5t-26 -172.5v-249q0 -31 -4.5 -50.5t-16.5 -32 t-33.5 -19.5t-58.5 -13v-436z" />
<glyph unicode="|" d="M242 -342h540v1798h-540v-1798z" />
<glyph unicode="}" d="M86 109v-506h78q25 0 41 -2q43 -2 68.5 -3t41.5 -1h33h39q68 0 116 2t85 8t64.5 17t56.5 30q66 43 92 114.5t26 172.5v249q0 23 6.5 47.5t10.5 30.5q6 10 21.5 17.5t72.5 19.5v436q-33 6 -54.5 14.5t-34.5 23t-18.5 38t-5.5 62.5v251q0 86 -20.5 153t-67.5 110 q-29 27 -59.5 42t-70.5 23t-92 11.5t-126 3.5h-59q-29 0 -60 -3l-67 -4q-16 -2 -41 -2q-23 0 -76 -4v-477h94q35 0 56.5 -1t34 -7t17.5 -18.5t5 -34.5v-27v-98q0 -94 20.5 -154.5t73.5 -107.5q-27 -23 -39 -41q-29 -41 -43 -98.5t-14 -125.5v-71q0 -33 -3 -50.5t-13.5 -26.5 t-32 -11t-58.5 -2h-98z" />
<glyph unicode="~" horiz-adv-x="1392" d="M129 1286l279 -237q39 76 54 101.5t34 25.5q8 0 19 -2.5t22 -6.5l138 -46q52 -17 85 -26.5t52 -12.5t40 -3q59 0 117.5 24.5t103.5 72.5q23 25 41.5 49t36.5 57t38.5 78t47.5 108l-279 234q-23 -41 -35 -64.5t-21 -38t-17 -18.5t-21 -4q-4 0 -15 2t-30 8 q-92 31 -140 47.5t-77 24.5q-31 10 -48 11t-40 1q-133 0 -221 -93t-164 -292z" />
<glyph unicode="&#xa1;" horiz-adv-x="890" d="M90 -39q0 -59 27.5 -105t76 -78t111 -48.5t131.5 -16.5q66 0 128.5 16.5t110.5 47t77.5 76t29.5 102.5q0 16 -4 36.5t-10 43.5l-215 758h-248l-205 -758q-4 -18 -7 -36t-3 -38zM145 993q0 -53 24 -95t61.5 -70.5t88 -45t105.5 -16.5t106.5 16.5t91.5 47t64.5 73.5 t24.5 94q0 49 -22.5 91t-61.5 73t-88.5 47.5t-102.5 16.5q-55 0 -108.5 -16.5t-93 -47.5t-64.5 -74t-25 -94z" />
<glyph unicode="&#xa2;" horiz-adv-x="1648" d="M37 684q0 -172 88 -301t248 -195q78 -33 160.5 -50t187.5 -25v-195h209v195q131 10 243.5 50t195.5 107.5t133 164.5t57 220h-609q6 -49 7 -67.5t1 -24.5q0 -63 -35.5 -100t-86.5 -37q-49 0 -91.5 60.5t-42.5 205.5q0 133 43 189.5t97 56.5q29 0 41 -10q-2 -8 -4 -17.5 t-2 -19.5q0 -55 29.5 -99t76.5 -75t108.5 -47.5t122.5 -16.5q76 0 142.5 16.5t116 48.5t78 80t28.5 111q0 109 -83 179.5t-224 117.5q-88 29 -167 44.5t-177 19.5v178h-209v-180q-47 -6 -82 -11.5t-63.5 -11.5t-54 -13t-52.5 -18q-201 -72 -315.5 -209t-114.5 -321z" />
<glyph unicode="&#xa3;" horiz-adv-x="1648" d="M47 -35q147 33 251.5 45.5t203.5 12.5q31 0 76 -1.5t89 -4.5t82.5 -6t61.5 -5q90 -12 139 -18t78 -11q31 -4 47 -4h43q111 0 205 40t147 114q20 29 37 61.5t29 73.5t19.5 92.5t13.5 116.5h-244q2 -82 -16.5 -106.5t-75.5 -24.5q-43 0 -89 2t-124 10q-51 4 -86 6t-57 4 l-54 3q43 57 68 129h180l59 258h-278q-16 25 -31 43q-41 55 -65.5 92t-37.5 62.5t-17.5 46t-4.5 42.5q0 53 41 95.5t94 46.5q-10 -27 -10 -56q0 -57 32 -100t84 -71.5t119.5 -43t139.5 -14.5q61 0 114.5 11.5t92.5 39.5q47 33 77.5 86t30.5 109q0 55 -28.5 106t-75.5 86 q-104 76 -260 115t-332 39q-145 0 -279.5 -33t-235.5 -92t-161.5 -143t-60.5 -187q0 -63 26.5 -133t73.5 -123q4 -8 10.5 -13t10.5 -11h-88l-60 -258h400q23 -29 29.5 -47.5t6.5 -32.5q0 -8 -1 -15.5t-5 -21.5h-32q-84 0 -155 -10.5t-159 -34.5z" />
<glyph unicode="&#xa4;" horiz-adv-x="2009" d="M33 631h160q31 -293 282 -479q133 -98 285.5 -142.5t345.5 -44.5q334 0 561 141q276 174 277 515v98h-572v-98q0 -117 -54 -181.5t-126 -64.5q-53 0 -93 29.5t-63 89.5q-10 31 -15 61.5t-9 77.5h311v80h-311v8q-2 20 -1 39.5t1 36.5h311v80h-309q4 47 10 76.5t16 54.5 q35 96 152 96q47 0 83 -19.5t52 -52.5q18 -33 31.5 -79t13.5 -76v-74h563v653h-370v-55q0 -8 -2 -8q-12 0 -35 8q-72 29 -123 46t-96 27.5t-91.5 13.5t-105.5 3q-170 0 -320.5 -45t-269.5 -126t-200.5 -194.5t-112.5 -251.5h-176v-79h162q-4 -20 -5 -41v-43h-157v-80z" />
<glyph unicode="&#x20ac;" horiz-adv-x="2009" d="M33 631h160q31 -293 282 -479q133 -98 285.5 -142.5t345.5 -44.5q334 0 561 141q276 174 277 515v98h-572v-98q0 -117 -54 -181.5t-126 -64.5q-53 0 -93 29.5t-63 89.5q-10 31 -15 61.5t-9 77.5h311v80h-311v8q-2 20 -1 39.5t1 36.5h311v80h-309q4 47 10 76.5t16 54.5 q35 96 152 96q47 0 83 -19.5t52 -52.5q18 -33 31.5 -79t13.5 -76v-74h563v653h-370v-55q0 -8 -2 -8q-12 0 -35 8q-72 29 -123 46t-96 27.5t-91.5 13.5t-105.5 3q-170 0 -320.5 -45t-269.5 -126t-200.5 -194.5t-112.5 -251.5h-176v-79h162q-4 -20 -5 -41v-43h-157v-80z" />
<glyph unicode="&#xa5;" horiz-adv-x="1435" d="M-94 1448l250 -444h-158v-250h295l45 -82h-354v-252h444v-420h549v420h440v252h-354l45 82h299v250h-160l254 452h-606l-195 -444l-198 436h-596z" />
<glyph unicode="&#xa6;" d="M242 -342h540v745h-540v-745zM242 612h540v844h-540v-844z" />
<glyph unicode="&#xa7;" horiz-adv-x="1650" d="M59 -82q0 -86 58.5 -146.5t148.5 -93.5q104 -37 241.5 -57t278.5 -20q156 0 296.5 25.5t244.5 72.5q96 45 151.5 127t55.5 182q0 86 -34 151.5t-103 121.5q82 59 122 125.5t40 152.5q0 51 -16.5 101.5t-44.5 96.5t-66.5 85t-83.5 63q-23 12 -46.5 23.5t-59.5 24t-89 28.5 l-133 41q-12 4 -16 4q-74 23 -116 35t-65.5 19t-38 12.5t-32.5 13.5q-45 16 -57.5 31.5t-12.5 25.5t7 22.5t24.5 23t47.5 17.5t75 7q33 0 60.5 -4t57.5 -15q-8 -16 -13 -31.5t-5 -35.5q0 -39 18.5 -68.5t49.5 -52.5q45 -33 109.5 -48t129.5 -15q55 0 105.5 14t89.5 40.5 t62.5 65.5t23.5 88q0 80 -55.5 138.5t-149.5 97.5t-219 58.5t-262 19.5q-156 0 -285 -22.5t-225 -67.5q-51 -25 -93 -61t-73 -79t-48.5 -92t-17.5 -100q0 -86 39 -151.5t115 -118.5q-88 -66 -133 -136.5t-45 -160.5q0 -72 32.5 -136.5t90.5 -115.5q45 -41 102 -66.5 t160 -56.5q47 -14 86 -25.5t73 -21.5q119 -35 188.5 -55.5t106.5 -36.5q25 -10 32 -16.5t7 -18.5q0 -20 -35.5 -48t-119.5 -28q-80 0 -142 23q14 35 15 67q0 35 -14.5 62.5t-37.5 50.5q-41 41 -107.5 59.5t-137.5 18.5q-63 0 -119.5 -15.5t-99.5 -44.5t-68 -73t-25 -101z M631 578q0 6 5 15t34 38l295 -80q37 -10 49 -25.5t12 -23.5h-2q0 -14 -8 -23.5t-25 -25.5q-6 -8 -12 -14.5t-10 -12.5l49 18l-313 88q-35 10 -54.5 19t-19.5 27z" />
<glyph unicode="&#xa8;" d="M12 1331q0 -43 20.5 -76.5t53.5 -56t76 -34t90 -11.5q45 0 88 11.5t76 34t52 55t19 77.5q0 43 -19 77t-53 55.5t-77 32.5t-88 11q-47 0 -90 -11t-76 -32.5t-52.5 -54.5t-19.5 -78zM537 1331q0 -43 20.5 -76.5t53 -56t75.5 -34t90 -11.5q45 0 88 11.5t76 34t52.5 55 t19.5 77.5q0 43 -19.5 77t-53.5 55.5t-77 32.5t-88 11q-47 0 -90 -11t-76 -32.5t-52 -54.5t-19 -78z" />
<glyph unicode="&#xa9;" horiz-adv-x="1581" d="M18 727q0 -158 59.5 -295t163 -240.5t242 -163t295.5 -59.5q156 0 293 59.5t239.5 163t162 240.5t59.5 295q0 156 -59.5 294t-161 241.5t-236.5 164t-289 60.5q-160 0 -300 -59.5t-244.5 -162t-164 -240.5t-59.5 -298zM305 727q0 102 37 191.5t101.5 155t152.5 103 t188 37.5q92 0 176 -38.5t147.5 -104t100.5 -155t37 -189.5h-2q0 -102 -37 -190t-100.5 -154t-148.5 -103.5t-181 -37.5t-181 37.5t-149.5 104.5t-102.5 155t-38 188zM344 737q0 -100 31 -184t88 -143.5t136 -93t177 -33.5q172 0 281.5 103t126.5 310h-281 q-12 -57 -37.5 -79.5t-81.5 -22.5q-39 0 -65.5 29.5t-26.5 111.5t26.5 112t67.5 30q53 0 79 -20.5t38 -61.5h275q-4 94 -37 166.5t-86.5 123t-124 77t-150.5 26.5q-96 0 -176 -34t-137 -94.5t-90 -142.5t-33 -180z" />
<glyph unicode="&#xaa;" horiz-adv-x="1038" d="M-10 758q0 -57 27.5 -100.5t73.5 -71t107.5 -42t131.5 -14.5q61 0 129.5 15.5t122.5 42.5q35 -31 77.5 -44.5t100.5 -13.5q125 0 196.5 59.5t71.5 172.5v59h-104v180q0 123 -101 187q-61 41 -151 63.5t-189 22.5q-102 0 -187 -17.5t-146.5 -46t-96.5 -66.5t-35 -77 t18.5 -67.5t47.5 -47t66.5 -28t74.5 -9.5q35 0 72 7.5t66.5 24t48 41t18.5 61.5v4q37 0 56.5 -8.5t23.5 -12.5q6 -8 8 -18q-68 0 -130 -6.5t-124 -16.5q-121 -23 -197.5 -78t-76.5 -155zM401 782q0 8 17 13q14 6 41.5 10t58.5 6v-25q-20 -10 -38.5 -14t-41.5 -4 q-14 0 -25.5 2t-11.5 12z" />
<glyph unicode="&#xab;" horiz-adv-x="1329" d="M10 610l228 -385h467l-224 385l224 385h-467zM598 610l223 -385h471l-223 385l223 385h-471z" />
<glyph unicode="&#xac;" d="M23 229h452v-229h526v711h-978v-482z" />
<glyph unicode="&#xad;" horiz-adv-x="899" d="M49 430h782v338h-782v-338z" />
<glyph unicode="&#xae;" horiz-adv-x="1581" d="M18 727q0 -158 59.5 -295t163 -240.5t242 -163t295.5 -59.5q156 0 293 59.5t239.5 163t162 240.5t59.5 295q0 156 -59.5 294t-161 241.5t-236.5 164t-289 60.5q-160 0 -300 -59.5t-244.5 -162t-164 -240.5t-59.5 -298zM305 727q0 102 37 191.5t101.5 155t152.5 103 t188 37.5q92 0 176 -38.5t147.5 -104t100.5 -155t37 -189.5h-2q0 -102 -37 -190t-100.5 -154t-148.5 -103.5t-181 -37.5t-182 37.5t-150.5 104.5t-101.5 155t-37 188zM432 311h348v269q6 -10 11.5 -35t9.5 -82q4 -41 10 -76t23 -76h327q-12 59 -16 79t-8 32q-2 12 -3 23.5 t-4 23.5q-4 92 -16 152.5t-51 99.5q82 70 82 188q0 74 -35 132.5t-100 93.5q-41 23 -87 32t-116 9h-375v-865zM733 838h29q23 0 31 6t8 43h-2q0 29 -5.5 37t-15.5 10v-141z" />
<glyph unicode="&#xaf;" d="M84 1188h856v280h-856v-280z" />
<glyph unicode="&#xb0;" d="M115 1083q0 -82 31.5 -153.5t85 -125.5t126 -85t156.5 -31q82 0 153.5 31t125 85t85 125.5t31.5 151.5q0 84 -30.5 158t-84 128t-126 85t-156.5 31t-155.5 -32t-126 -85t-85 -127t-30.5 -156zM371 1085q0 31 12 57.5t31.5 46t44 32t51.5 12.5q57 0 100 -44t43 -110h-2 q0 -55 -42 -98t-99 -43q-53 0 -96 43t-43 104z" />
<glyph unicode="&#xb1;" d="M-49 -16h1122v290h-1122v-290zM-49 664h409v-402h299v402h414v290h-414v420h-299v-420h-409v-290z" />
<glyph unicode="&#xb2;" horiz-adv-x="1173" d="M39 1219q0 -43 23.5 -76t60.5 -54.5t83 -33t93 -11.5q59 0 117.5 16.5t95.5 51.5q39 35 39 88q0 29 -12 53q8 2 16 3t18 1q31 0 46.5 -16t15.5 -33q0 -20 -22.5 -44.5t-88.5 -47.5l-12 -4q-66 -23 -106.5 -37t-57.5 -20q-86 -37 -141 -81t-88 -110q-51 -109 -51 -246v-71 h243q12 45 18.5 56t22.5 11q10 0 32 -5t60 -19q90 -33 149.5 -46.5t117.5 -13.5q174 0 277.5 107.5t103.5 316.5h-236q-4 -47 -11 -59t-28 -12q-14 0 -35.5 3t-54.5 13q-41 12 -68.5 19.5t-47 11.5t-36 5t-36.5 1q-33 0 -57.5 -4t-53.5 -17l35 -4l8 -59q6 6 32.5 16.5 t84.5 18.5q74 10 123 17t82.5 13.5t57 11.5t48.5 13q94 29 153.5 89.5t59.5 146.5q0 59 -28.5 104t-82.5 80q-84 57 -192.5 84t-235.5 27q-96 0 -191 -16.5t-172 -48.5t-124 -80t-47 -109z" />
<glyph unicode="&#xb3;" horiz-adv-x="1173" d="M31 788q0 -68 47 -116.5t127 -79.5t184.5 -46.5t220.5 -15.5q104 0 197.5 18.5t163 54.5t109.5 91.5t40 128.5q0 49 -22.5 90t-60.5 72t-88 51.5t-105 26.5l35 -39l-35 -39q117 16 191.5 70.5t74.5 154.5q0 70 -43 119t-118 81t-174 47.5t-210 15.5t-198.5 -17.5 t-149 -48.5t-94.5 -72t-33 -86t22.5 -76.5t58.5 -52t83 -31t96 -10.5t97.5 15.5t82.5 44.5q43 39 43 94q0 10 -4 22q6 2 21 2q31 0 45 -14t14 -35q0 -16 -13 -32.5t-61 -28.5l-20 -4q-10 -2 -25 -4q-27 -2 -71.5 -3t-132.5 -1v-215h73q51 0 95 -7q82 -10 112.5 -37.5 t30.5 -54.5q0 -23 -17.5 -40t-56.5 -17q-12 0 -18 2q4 10 6 20.5t2 22.5q0 33 -16.5 58.5t-42.5 45.5q-41 31 -98.5 47.5t-108.5 16.5q-47 0 -93.5 -12.5t-82 -37t-58 -59.5t-22.5 -80z" />
<glyph unicode="&#xb4;" d="M-123 1161h561l709 328h-762z" />
<glyph unicode="&#xb5;" d="M-20 -356h466v358q33 -16 68 -16q18 0 33.5 4t30.5 10h466v1073h-466v-522v-39q2 -10 2 -23q0 -12 2 -34q0 -4 -3.5 -17.5t-11.5 -25.5q-12 -23 -45 -23q-29 0 -48 14.5t-23 34.5q-2 10 -3.5 36t-1.5 79v520h-466v-1429z" />
<glyph unicode="&#xb6;" horiz-adv-x="1425" d="M133 1055q0 -92 35 -172t100 -131q53 -39 120 -61.5t134 -26.5v-895h295v1439h57v-1439h295v1439h95v248h-609q-61 0 -106 -2t-81 -7t-66.5 -15.5t-63.5 -26.5q-102 -51 -153.5 -141t-51.5 -209z" />
<glyph unicode="&#xb7;" horiz-adv-x="612" d="M43 303h514v504h-514v-504z" />
<glyph unicode="&#x2219;" horiz-adv-x="612" d="M43 303h514v504h-514v-504z" />
<glyph unicode="&#xb8;" d="M193 -152q0 -43 2 -74.5t6 -55t12 -41t20 -35.5q41 -59 113 -89t156 -30q66 0 125 17.5t105 50t72.5 79.5t26.5 107q0 100 -60 146t-165 54v113h-227v-242v-41q39 6 57 7q14 2 21 2h10q31 0 49.5 -4.5t26.5 -10.5t10 -12t2 -8q0 -14 -15.5 -29.5t-39.5 -15.5 q-23 0 -38.5 14t-25.5 64q-4 20 -4 34h-53h-186z" />
<glyph unicode="&#xb9;" horiz-adv-x="1173" d="M240 547h671v217h-63h-14q-25 0 -35.5 5t-10.5 26v661h-317q-10 -41 -15 -51t-20 -19q-12 -8 -39.5 -13t-56.5 -5h-100v-219q47 8 58 9t15 1q25 0 38.5 -3t13.5 -23v-326v-21q0 -23 -27 -22h-98v-217z" />
<glyph unicode="&#xba;" horiz-adv-x="1048" d="M-4 897q0 -92 38 -160.5t105.5 -115t163.5 -69t213 -22.5q115 0 210 24t162.5 70t105.5 114.5t38 158.5q0 92 -37 161.5t-104.5 117t-160.5 71t-204 23.5q-117 0 -214 -23.5t-167.5 -71t-109.5 -117t-39 -161.5zM463 901q0 68 8 97.5t49 29.5t49.5 -29.5t8.5 -99.5 q0 -68 -8.5 -97.5t-49.5 -29.5t-49 29.5t-8 99.5z" />
<glyph unicode="&#xbb;" horiz-adv-x="1329" d="M10 225h467l228 385l-228 385h-467l223 -385zM598 225h467l227 385l-227 385h-467l223 -385z" />
<glyph unicode="&#xbc;" horiz-adv-x="2551" d="M139 547h672v217h-63h-15q-25 0 -35 5t-10 26v661h-317q-10 -41 -15.5 -51t-19.5 -19q-10 -8 -39 -13t-57 -5h-101v-219q47 8 59.5 9t16.5 1q25 0 38 -3t13 -23v-326v-21q0 -23 -26 -22h-101v-217zM791 8l196 -88l731 1557l-198 90zM1288 225h471q-6 -2 -28 -2h-66v-223 h637v223h-74q-16 0 -20 2h155v246h-170v438h-348l-557 -471v-213zM1702 471l70 57v-57h-70z" />
<glyph unicode="&#xbd;" horiz-adv-x="2551" d="M143 547h674v217h-65h-15q-25 0 -35 5t-10 26v661h-317q-10 -41 -15.5 -51t-19.5 -19q-10 -8 -39 -13t-57 -5h-101v-219q47 8 59.5 9t16.5 1q25 0 38 -3t13 -23v-326v-21q0 -23 -26 -22h-101v-217zM590 8l196 -88l732 1557l-199 90zM1182 672q0 -43 23.5 -76t61.5 -54.5 t84 -31.5t93 -10q55 0 113.5 15t95.5 48q43 39 43 92q0 27 -13 52q16 4 35 4q29 0 45.5 -16.5t16.5 -32.5q0 -18 -22.5 -44t-88.5 -49l-16 -6q-66 -23 -105 -36t-55 -19q-86 -37 -141.5 -81t-87.5 -110q-25 -51 -39.5 -113.5t-14.5 -131.5v-72h246q10 47 17.5 58.5 t23.5 11.5q10 0 31.5 -5.5t58.5 -19.5q92 -35 151.5 -48t116.5 -13q174 0 276.5 107.5t106.5 318.5h-239q-4 -51 -11.5 -62.5t-27.5 -11.5q-10 0 -32.5 3t-53.5 13q-41 12 -68.5 19.5t-48 12.5t-37 6t-37.5 1q-33 0 -58.5 -4t-53.5 -16l37 -4l6 -60q6 6 32.5 16.5t84.5 18.5 q70 8 118.5 15.5t83.5 13.5t60.5 12t50.5 14q94 29 153.5 88.5t59.5 145.5q0 59 -29.5 104t-83.5 80q-84 55 -192.5 83t-235.5 28q-96 0 -191 -16.5t-171 -48.5t-124 -80t-48 -109z" />
<glyph unicode="&#xbe;" horiz-adv-x="2551" d="M39 788q0 -68 47 -116.5t127 -79.5t184.5 -46.5t220.5 -15.5q104 0 197.5 18.5t163.5 54.5t109.5 91.5t39.5 128.5q0 49 -22.5 90t-60 72t-88 51.5t-105.5 26.5l35 -39l-35 -39q117 16 191.5 70.5t74.5 154.5q0 70 -43 119t-117.5 81t-174 47.5t-210.5 15.5t-198.5 -17.5 t-149 -48.5t-94.5 -72t-33 -86t22.5 -76.5t58.5 -52t83 -31t96 -10.5t97.5 15.5t83.5 44.5q43 39 43 94q0 10 -4 22q6 2 20 2q31 0 45 -14t14 -35q0 -16 -13 -32.5t-60 -28.5l-21 -4q-10 -2 -24 -4q-27 -2 -72 -3t-133 -1v-215h74q51 0 94 -7q82 -10 112.5 -37.5t30.5 -54.5 q0 -23 -17.5 -40t-56.5 -17q-12 0 -18 2q4 10 6 20.5t2 22.5q0 33 -16.5 58.5t-42.5 45.5q-41 31 -98.5 47.5t-108.5 16.5q-47 0 -93 -12.5t-82 -37t-58.5 -59.5t-22.5 -80zM889 8l198 -88l732 1557l-199 90zM1389 225h471q-6 -2 -29 -2h-66v-223h637v223h-73q-16 0 -21 2 h156v246h-170v438h-348l-557 -471v-213zM1802 471l70 57v-57h-70z" />
<glyph unicode="&#xbf;" horiz-adv-x="1443" d="M23 100q0 -92 53 -163.5t144 -120.5t212 -76t256 -27q119 0 243 21.5t228 60.5q98 37 166 106.5t68 155.5q0 51 -25 91t-64.5 67t-92 40t-109.5 13q-55 0 -115 -16q-66 -18 -114 -63.5t-48 -116.5q0 -27 13 -52q-49 -23 -119 -22q-47 0 -84 4t-37 25q0 16 23.5 21 t66.5 20q84 27 164 70.5t135 113.5q35 43 53.5 94t18.5 109q0 76 -27.5 136t-78 102t-119 64.5t-148.5 22.5q-143 0 -235.5 -77.5t-108.5 -249.5h123q-20 -6 -44 -13.5t-52 -17.5q-174 -57 -260 -129t-86 -193zM401 979q0 -55 24 -99t62.5 -76t91 -49.5t111.5 -17.5 t115.5 17.5t99.5 49.5t69.5 77t26.5 102q0 53 -25.5 98t-66.5 77t-94 49.5t-110 17.5q-59 0 -114.5 -17.5t-97.5 -49.5t-67 -78t-25 -101z" />
<glyph unicode="&#xc0;" horiz-adv-x="2023" d="M0 0h885v350h-103q-25 0 -36 5t-11 26q0 6 2 12q0 4 1 7l3 10h349q4 -10 6 -18.5t2 -12.5t-10.5 -16.5t-49.5 -12.5h-96v-350h1040v350h-63q-25 0 -42 3t-32.5 15.5t-32 37t-34.5 67.5l-437 983h-692l-444 -1003q-14 -33 -29.5 -53.5t-38 -32t-55.5 -14.5t-82 -1v-352z M86 1810l729 -325h533l-490 325h-772zM858 719l57 143l58 -143h-115z" />
<glyph unicode="&#xc1;" horiz-adv-x="2029" d="M0 0h885v350h-103q-25 0 -36 5t-11 26q0 6 2 12q0 4 1 7l3 10h349q4 -10 6 -18.5t2 -12.5t-10.5 -16.5t-49.5 -12.5h-96v-350h1040v350h-63q-25 0 -42 3t-32.5 15.5t-32 37t-34.5 67.5l-437 983h-692l-444 -1003q-14 -33 -29.5 -53.5t-38 -32t-55.5 -14.5t-82 -1v-352z M633 1475h530l731 325h-772zM858 719l57 143l58 -143h-115z" />
<glyph unicode="&#xc2;" horiz-adv-x="2015" d="M0 0h885v350h-103q-25 0 -36 5t-11 26q0 6 2 12q0 4 1 7l3 10h349q4 -10 6 -18.5t2 -12.5t-10.5 -16.5t-49.5 -12.5h-96v-350h1040v350h-63q-25 0 -42 3t-32.5 15.5t-32 37t-34.5 67.5l-437 983h-692l-444 -1003q-14 -33 -29.5 -53.5t-38 -32t-55.5 -14.5t-82 -1v-352z M416 1481h493l88 104l86 -104h490l-402 321h-368zM858 719l57 143l58 -143h-115z" />
<glyph unicode="&#xc3;" horiz-adv-x="2007" d="M0 0h885v350h-103q-25 0 -36 5t-11 26q0 6 2 12q0 4 1 7l3 10h349q4 -10 6 -18.5t2 -12.5t-10.5 -16.5t-49.5 -12.5h-96v-350h1040v350h-63q-25 0 -42 3t-32.5 15.5t-32 37t-34.5 67.5l-437 983h-692l-444 -1003q-14 -33 -29.5 -53.5t-38 -32t-55.5 -14.5t-82 -1v-352z M485 1479h291q10 41 22.5 47t35.5 6q45 0 57 -6l166 -43q29 -8 57.5 -13.5t52.5 -5.5q63 0 124 29t104 76q14 18 27.5 36.5t25.5 45t26.5 65.5t30.5 94h-280q-10 -35 -19.5 -42t-25.5 -7q-10 0 -26.5 2t-33.5 6l-145 37q-33 10 -71 15.5t-73 5.5q-109 0 -200 -74 q-27 -20 -47.5 -42.5t-37 -53.5t-31 -74t-30.5 -104zM858 719l57 143l58 -143h-115z" />
<glyph unicode="&#xc4;" horiz-adv-x="2056" d="M20 0h885v350h-102q-25 0 -36 5t-11 26q0 6 2 12q0 4 1 7l3 10h348q4 -10 6 -18.5t2 -12.5t-10 -16.5t-49 -12.5h-96v-350h1040v350h-64q-25 0 -42 3t-32.5 15.5t-31.5 37t-35 67.5l-436 983h-692l-445 -1003q-14 -33 -29.5 -53.5t-38 -32t-55 -14.5t-82.5 -1v-352z M516 1653q0 -43 20.5 -77t53.5 -56.5t75 -33.5t87 -11t88 11t75.5 33.5t53 56.5t20.5 77t-19.5 77.5t-52 58t-74.5 37t-85 13.5q-47 0 -90 -12t-77 -36t-54.5 -58.5t-20.5 -79.5zM858 637l78 225l78 -225h-156zM1040 1653q0 -43 20.5 -77t53.5 -56.5t75 -33.5t87 -11t88 11 t76 33.5t53 56.5t20 77t-19 77.5t-52 58t-75 37t-85 13.5q-47 0 -90 -12t-77 -36t-54.5 -58.5t-20.5 -79.5z" />
<glyph unicode="&#xc5;" horiz-adv-x="2031" d="M0 0h885v350h-103q-25 0 -36 5t-11 26q0 6 2 12q0 4 1 7l3 10h349q4 -10 6 -18.5t2 -12.5t-10.5 -16.5t-49.5 -12.5h-96v-350h1040v350h-63q-25 0 -42 3t-32.5 15.5t-32 37t-34.5 67.5l-437 983h-692l-444 -1003q-14 -33 -29.5 -53.5t-38 -32t-55.5 -14.5t-82 -1v-352z M649 1694q0 -55 29 -96.5t77 -69t110.5 -40.5t129.5 -13q66 0 128.5 13t110.5 40.5t76.5 68.5t28.5 97q0 53 -29.5 94t-76.5 68.5t-109.5 42t-126.5 14.5q-68 0 -130 -13.5t-111 -40t-78 -68.5t-29 -97zM858 719l57 143l58 -143h-115zM926 1692q0 25 14 40t61 15 q41 0 57.5 -17.5t16.5 -37.5q0 -18 -16.5 -36t-57.5 -18t-58 17t-17 37z" />
<glyph unicode="&#xc6;" horiz-adv-x="3065" d="M16 0h938v350h-139q-29 0 -45 1t-16 18q0 10 14 39l57 96h377v-51q0 -33 -2 -45.5t-10 -28.5q-8 -14 -20.5 -21.5t-55.5 -7.5h-106v-350h1982v659h-580v-96q0 -41 -12 -85t-31 -72q-16 -23 -44.5 -37.5t-84.5 -14.5h-342v236h39q14 0 26.5 -4t21 -18.5t13.5 -40t7 -70.5 h346v557h-340q-10 -66 -19.5 -84.5t-37.5 -18.5h-56v187h324q106 0 149.5 -44t43.5 -155v-164h577v721h-2623v-350h112h56q20 0 20 -19q0 -4 -1 -6l-3 -6q-4 -10 -11.5 -23.5t-19.5 -37.5l-303 -580q-14 -29 -26.5 -45t-33 -25.5t-53 -11.5t-88.5 -2v-350zM983 809l154 285 q23 -2 32 -7.5t17 -15.5q12 -14 14 -30.5t2 -61.5v-170h-219z" />
<glyph unicode="&#xc7;" horiz-adv-x="1837" d="M25 717q0 -197 98 -358.5t278 -264.5q49 -29 95.5 -48t99.5 -33.5t119.5 -25t156.5 -20.5v-180q27 4 43 4t27 2h35q47 0 68.5 -6t21.5 -35q0 -23 -17.5 -39t-52.5 -16q-57 0 -57 55v41v27h-268q-6 -41 -7 -53.5t-1 -20.5q0 -63 27.5 -114.5t73.5 -87.5t108.5 -55 t130.5 -19q72 0 137 19t114.5 55t79 87.5t29.5 114.5q0 106 -69.5 159.5t-182.5 59.5v4q57 8 105.5 17.5t91.5 23t83 31.5t81 43q147 86 225 223t78 311q0 8 -1 28t-6 69h-563q0 -55 -1 -89t-2 -57.5t-4 -39t-9 -31.5q-41 -123 -170 -123q-82 0 -127 61q-12 18 -22.5 43 t-16.5 63t-9 93t-3 135q0 57 1 95t4 62.5t8 43t15 37.5q43 96 156 96q41 0 74 -13.5t55.5 -47t36.5 -93t18 -151.5h564v657h-373v-55q0 -14 -8 -15q-2 0 -7.5 1.5t-21.5 11.5q-98 49 -201.5 71.5t-228.5 22.5q-193 0 -358.5 -58.5t-288.5 -162t-192.5 -245.5t-69.5 -310z " />
<glyph unicode="&#xc8;" horiz-adv-x="2086" d="M53 0h1940v659h-578v-96q0 -41 -12 -85t-31 -72q-14 -25 -44 -38.5t-85 -13.5h-342v236h37q14 0 26.5 -4t20.5 -18.5t14.5 -40t8.5 -70.5h344v557h-340q-4 -33 -8.5 -52.5t-10.5 -30.5t-14 -15.5t-23 -4.5h-55v187h322q106 0 150 -44t44 -155v-164h576v721h-1940v-350h66 q41 0 62.5 -22.5t21.5 -100.5v-510q0 -78 -21.5 -100.5t-62.5 -22.5h-66v-350zM358 1790l729 -326h533l-490 326h-772z" />
<glyph unicode="&#xc9;" horiz-adv-x="2086" d="M53 0h1940v659h-578v-96q0 -41 -12 -85t-31 -72q-14 -25 -44 -38.5t-85 -13.5h-342v236h37q14 0 26.5 -4t20.5 -18.5t14.5 -40t8.5 -70.5h344v557h-340q-4 -33 -8.5 -52.5t-10.5 -30.5t-14 -15.5t-23 -4.5h-55v187h322q106 0 150 -44t44 -155v-164h576v721h-1940v-350h66 q41 0 62.5 -22.5t21.5 -100.5v-510q0 -78 -21.5 -100.5t-62.5 -22.5h-66v-350zM420 1464h532l729 326h-772z" />
<glyph unicode="&#xca;" horiz-adv-x="2086" d="M53 0h1940v659h-578v-96q0 -41 -12 -85t-31 -72q-14 -25 -44 -38.5t-85 -13.5h-342v236h37q14 0 26.5 -4t20.5 -18.5t14.5 -40t8.5 -70.5h344v557h-340q-4 -33 -8.5 -52.5t-10.5 -30.5t-14 -15.5t-23 -4.5h-55v187h322q106 0 150 -44t44 -155v-164h576v721h-1940v-350h66 q41 0 62.5 -22.5t21.5 -100.5v-510q0 -78 -21.5 -100.5t-62.5 -22.5h-66v-350zM442 1460h494l88 105l86 -105h489l-401 322h-369z" />
<glyph unicode="&#xcb;" horiz-adv-x="2086" d="M53 0h1940v659h-578v-96q0 -41 -12 -85t-31 -72q-14 -25 -44 -38.5t-85 -13.5h-342v236h37q14 0 26.5 -4t20.5 -18.5t14.5 -40t8.5 -70.5h344v557h-340q-4 -33 -8.5 -52.5t-10.5 -30.5t-14 -15.5t-23 -4.5h-55v187h322q106 0 150 -44t44 -155v-164h576v721h-1940v-350h66 q41 0 62.5 -22.5t21.5 -100.5v-510q0 -78 -21.5 -100.5t-62.5 -22.5h-66v-350zM522 1632q0 -43 20.5 -76.5t53.5 -56t75 -34t87 -11.5t88 11.5t75.5 34t53 56t20.5 76.5t-19.5 78t-52 58.5t-74.5 37t-85 13.5q-47 0 -90 -12.5t-77 -36t-54.5 -58.5t-20.5 -80zM1047 1632 q0 -43 20 -76.5t53 -56t75 -34t87 -11.5t88 11.5t76 34t53.5 56t20.5 76.5t-19.5 78t-52.5 58.5t-75 37t-85 13.5q-47 0 -90 -12.5t-77 -36t-54 -58.5t-20 -80z" />
<glyph unicode="&#xcc;" horiz-adv-x="1130" d="M-78 1790l731 -326h533l-492 326h-772zM88 0h993v350h-65q-41 0 -62.5 22.5t-21.5 100.5v510q0 78 21.5 100.5t62.5 22.5h65v350h-993v-350h66q41 0 62.5 -22.5t21.5 -100.5v-510q0 -78 -21.5 -100.5t-62.5 -22.5h-66v-350z" />
<glyph unicode="&#xcd;" horiz-adv-x="1130" d="M-78 1464h533l731 326h-772zM25 0h993v350h-66q-41 0 -62.5 22.5t-21.5 100.5v510q0 78 21.5 100.5t62.5 22.5h66v350h-993v-350h65q41 0 62.5 -22.5t21.5 -100.5v-510q0 -78 -21.5 -100.5t-62.5 -22.5h-65v-350z" />
<glyph unicode="&#xce;" horiz-adv-x="1130" d="M-25 1460h494l88 105l86 -105h490l-402 322h-369zM55 0h994v350h-66q-41 0 -62.5 22.5t-21.5 100.5v510q0 78 21.5 100.5t62.5 22.5h66v350h-994v-350h66q41 0 62.5 -22.5t21.5 -100.5v-510q0 -78 -21.5 -100.5t-62.5 -22.5h-66v-350z" />
<glyph unicode="&#xcf;" horiz-adv-x="1130" d="M57 0h994v350h-66q-41 0 -62.5 22.5t-21.5 100.5v510q0 78 21.5 100.5t62.5 22.5h66v350h-994v-350h66q41 0 62.5 -22.5t21.5 -100.5v-510q0 -78 -21.5 -100.5t-62.5 -22.5h-66v-350zM100 1632q0 -43 17.5 -75.5t48.5 -55t69.5 -35t81.5 -12.5t82 12.5t70 35t48.5 55 t17.5 75.5t-17.5 77t-47.5 58.5t-69 38t-79 13.5q-43 0 -83 -13.5t-71 -37t-49.5 -58.5t-18.5 -78zM573 1632q0 -43 17.5 -75.5t48.5 -55t70 -35t82 -12.5t81.5 12.5t69.5 35t48.5 55t17.5 75.5t-17.5 77t-47.5 58.5t-68.5 38t-79.5 13.5q-43 0 -83 -13.5t-71 -37 t-49.5 -58.5t-18.5 -78z" />
<glyph unicode="&#xd0;" horiz-adv-x="2125" d="M35 0h993q145 0 255 7t196 25.5t156.5 49.5t138.5 78q137 96 206.5 238.5t69.5 320.5q0 227 -108.5 394t-311.5 245q-68 27 -145.5 45t-174 30.5t-215 17.5t-266.5 5h-794v-350h65q41 0 62.5 -22.5t21.5 -100.5v-125h-110v-237h110v-148q0 -78 -21.5 -100.5t-62.5 -22.5 h-65v-350zM889 362v259h162v237h-162v236h59q84 0 124 -8.5t67 -24.5q51 -31 77.5 -104.5t26.5 -227.5q0 -117 -17.5 -187.5t-49.5 -113.5q-14 -18 -30 -30.5t-37.5 -20.5t-53 -11.5t-78.5 -3.5h-88z" />
<glyph unicode="&#xd1;" horiz-adv-x="2162" d="M39 0h827v350h-65q-31 0 -50.5 14.5t-25.5 32.5q-4 8 -7 27.5t-3 30.5q4 8 4 18v209l450 -682h762v983q0 78 21.5 100.5t62.5 22.5h66v350h-828v-350h66q41 0 62.5 -22.5t21.5 -100.5v-211l-457 684h-907v-350h65q41 0 62.5 -22.5t21.5 -100.5v-510q0 -78 -21.5 -100.5 t-62.5 -22.5h-65v-350zM537 1458h290q10 41 22.5 47t35.5 6q45 0 57 -6l166 -43q29 -8 57.5 -13t53.5 -5q63 0 123.5 28.5t103.5 75.5q14 18 27.5 37t25.5 45.5t26.5 65.5t30.5 94h-280q-10 -35 -19.5 -42t-25.5 -7q-10 0 -26.5 2t-33.5 6l-145 37q-33 10 -70.5 15t-72.5 5 q-109 0 -201 -73q-27 -20 -47.5 -43t-36.5 -53.5t-30.5 -74t-30.5 -104.5z" />
<glyph unicode="&#xd2;" horiz-adv-x="2056" d="M12 713q0 -92 22.5 -179.5t65.5 -162t104.5 -137t139.5 -105.5q137 -78 320.5 -121t373.5 -43q211 0 389.5 53.5t305.5 152.5t198.5 239.5t71.5 314.5q0 158 -66.5 305.5t-185.5 241.5q-135 109 -326.5 164t-420.5 55q-203 0 -375 -45t-301 -135q-74 -49 -132.5 -116 t-99.5 -143.5t-62.5 -163.5t-21.5 -175zM346 1790l729 -326h533l-490 326h-772zM836 731q0 119 12 196t34.5 121t55.5 61t74 17t73.5 -17t56 -63.5t36 -124t12.5 -198.5q0 -115 -13.5 -188.5t-36 -118.5t-56 -62.5t-72.5 -17.5q-41 0 -74 17.5t-55.5 61.5t-34.5 120.5 t-12 195.5z" />
<glyph unicode="&#xd3;" horiz-adv-x="2056" d="M12 713q0 -92 22.5 -179.5t65.5 -162t104.5 -137t139.5 -105.5q137 -78 320.5 -121t373.5 -43q211 0 389.5 53.5t305.5 152.5t198.5 239.5t71.5 314.5q0 158 -66.5 305.5t-185.5 241.5q-135 109 -326.5 164t-420.5 55q-203 0 -375 -45t-301 -135q-74 -49 -132.5 -116 t-99.5 -143.5t-62.5 -163.5t-21.5 -175zM408 1464h532l729 326h-772zM836 731q0 119 12 196t34.5 121t55.5 61t74 17t73.5 -17t56 -63.5t36 -124t12.5 -198.5q0 -115 -13.5 -188.5t-36 -118.5t-56 -62.5t-72.5 -17.5q-41 0 -74 17.5t-55.5 61.5t-34.5 120.5t-12 195.5z" />
<glyph unicode="&#xd4;" horiz-adv-x="2056" d="M12 713q0 -92 22.5 -179.5t65.5 -162t104.5 -137t139.5 -105.5q137 -78 320.5 -121t373.5 -43q211 0 389.5 53.5t305.5 152.5t198.5 239.5t71.5 314.5q0 158 -66.5 305.5t-185.5 241.5q-135 109 -326.5 164t-420.5 55q-203 0 -375 -45t-301 -135q-74 -49 -132.5 -116 t-99.5 -143.5t-62.5 -163.5t-21.5 -175zM430 1460h494l88 105l86 -105h489l-401 322h-369zM836 731q0 119 12 196t34.5 121t55.5 61t74 17t73.5 -17t56 -63.5t36 -124t12.5 -198.5q0 -115 -13.5 -188.5t-36 -118.5t-56 -62.5t-72.5 -17.5q-41 0 -74 17.5t-55.5 61.5 t-34.5 120.5t-12 195.5z" />
<glyph unicode="&#xd5;" horiz-adv-x="2056" d="M12 713q0 -92 22.5 -179.5t65.5 -162t104.5 -137t139.5 -105.5q137 -78 320.5 -121t373.5 -43q211 0 389.5 53.5t305.5 152.5t198.5 239.5t71.5 314.5q0 158 -66.5 305.5t-185.5 241.5q-135 109 -326.5 164t-420.5 55q-203 0 -375 -45t-301 -135q-74 -49 -132.5 -116 t-99.5 -143.5t-62.5 -163.5t-21.5 -175zM500 1458h291q10 41 22 47t35 6q45 0 57 -6l166 -43q29 -8 57.5 -13t53.5 -5q63 0 123.5 28.5t103.5 75.5q14 18 27.5 37t26 45.5t26.5 65.5t31 94h-281q-10 -35 -19.5 -42t-25.5 -7q-10 0 -26.5 2t-32.5 6l-146 37q-33 10 -70.5 15 t-72.5 5q-109 0 -201 -73q-27 -20 -47 -43t-36.5 -53.5t-31 -74t-30.5 -104.5zM836 731q0 119 12 196t34.5 121t55.5 61t74 17t73.5 -17t56 -63.5t36 -124t12.5 -198.5q0 -115 -13.5 -188.5t-36 -118.5t-56 -62.5t-72.5 -17.5q-41 0 -74 17.5t-55.5 61.5t-34.5 120.5 t-12 195.5z" />
<glyph unicode="&#xd6;" horiz-adv-x="2056" d="M12 713q0 -92 22.5 -179.5t65.5 -162t104.5 -137t139.5 -105.5q137 -78 320.5 -121t373.5 -43q211 0 389.5 53.5t305.5 152.5t198.5 239.5t71.5 314.5q0 158 -66.5 305.5t-185.5 241.5q-135 109 -326.5 164t-420.5 55q-203 0 -375 -45t-301 -135q-74 -49 -132.5 -116 t-99.5 -143.5t-62.5 -163.5t-21.5 -175zM510 1632q0 -43 20.5 -76.5t53 -56t74.5 -34t87 -11.5t88.5 11.5t76 34t53 56t20.5 76.5t-19.5 78t-52 58.5t-74.5 37t-85 13.5q-47 0 -90.5 -12.5t-77 -36t-54 -58.5t-20.5 -80zM836 731q0 119 12 196t34.5 121t55.5 61t74 17 t73.5 -17t56 -63.5t36 -124t12.5 -198.5q0 -115 -13.5 -188.5t-36 -118.5t-56 -62.5t-72.5 -17.5q-41 0 -74 17.5t-55.5 61.5t-34.5 120.5t-12 195.5zM1034 1632q0 -43 20.5 -76.5t53.5 -56t75 -34t87 -11.5t88 11.5t75.5 34t53 56t20.5 76.5t-19.5 78t-52 58.5t-74.5 37 t-85 13.5q-47 0 -90 -12.5t-77 -36t-54.5 -58.5t-20.5 -80z" />
<glyph unicode="&#xd7;" d="M10 524l211 -213l293 297l289 -293l205 207l-289 289l295 291l-215 211l-291 -295l-283 289l-209 -205l289 -287z" />
<glyph unicode="&#xd8;" horiz-adv-x="2045" d="M12 725q0 -172 62.5 -304t201.5 -251l-122 -127l170 -160l163 166q98 -43 221 -63.5t271 -20.5q227 0 413.5 53.5t319.5 152.5t207 241.5t74 320.5q0 86 -16.5 160t-50.5 141.5t-89 132t-131 131.5l100 103l-161 162l-146 -146q-104 39 -217 56.5t-250 17.5 q-229 0 -417.5 -52.5t-321.5 -150.5t-207 -240.5t-74 -322.5zM815 727v41q0 102 13.5 171t39 111t61.5 59t79 17q96 0 129 -75zM862 434l330 330v-51q0 -78 -4 -134.5t-10 -84.5q-20 -80 -68.5 -123t-105.5 -43q-51 0 -88.5 27.5t-53.5 78.5z" />
<glyph unicode="&#xd9;" horiz-adv-x="2037" d="M6 1106h66q41 0 62.5 -22.5t21.5 -100.5v-358q0 -166 61.5 -294t183.5 -210q117 -78 264.5 -117t321.5 -39q164 0 307.5 33t251.5 96q68 39 122 96.5t93 127t59.5 147.5t20.5 160v358q0 78 21.5 100.5t62.5 22.5h66v350h-901v-350h71q70 0 91.5 -21.5t21.5 -89.5v-383 q0 -133 -51.5 -190t-155.5 -57q-49 0 -90 15t-68 38q-14 14 -25.5 30.5t-18.5 39t-10 56.5t-3 81v381q0 59 19.5 79.5t78.5 20.5h86v350h-1030v-350zM332 1790l729 -326h532l-489 326h-772z" />
<glyph unicode="&#xda;" horiz-adv-x="2037" d="M6 1106h66q41 0 62.5 -22.5t21.5 -100.5v-358q0 -166 61.5 -294t183.5 -210q117 -78 264.5 -117t321.5 -39q164 0 307.5 33t251.5 96q68 39 122 96.5t93 127t59.5 147.5t20.5 160v358q0 78 21.5 100.5t62.5 22.5h66v350h-901v-350h71q70 0 91.5 -21.5t21.5 -89.5v-383 q0 -133 -51.5 -190t-155.5 -57q-49 0 -90 15t-68 38q-14 14 -25.5 30.5t-18.5 39t-10 56.5t-3 81v381q0 59 19.5 79.5t78.5 20.5h86v350h-1030v-350zM393 1464h533l729 326h-772z" />
<glyph unicode="&#xdb;" horiz-adv-x="2037" d="M6 1106h66q41 0 62.5 -22.5t21.5 -100.5v-358q0 -166 61.5 -294t183.5 -210q117 -78 264.5 -117t321.5 -39q164 0 307.5 33t251.5 96q68 39 122 96.5t93 127t59.5 147.5t20.5 160v358q0 78 21.5 100.5t62.5 22.5h66v350h-901v-350h71q70 0 91.5 -21.5t21.5 -89.5v-383 q0 -133 -51.5 -190t-155.5 -57q-49 0 -90 15t-68 38q-14 14 -25.5 30.5t-18.5 39t-10 56.5t-3 81v381q0 59 19.5 79.5t78.5 20.5h86v350h-1030v-350zM416 1460h493l88 105l86 -105h490l-402 322h-368z" />
<glyph unicode="&#xdc;" horiz-adv-x="2037" d="M6 1106h66q41 0 62.5 -22.5t21.5 -100.5v-358q0 -166 61.5 -294t183.5 -210q117 -78 264.5 -117t321.5 -39q164 0 307.5 33t251.5 96q68 39 122 96.5t93 127t59.5 147.5t20.5 160v358q0 78 21.5 100.5t62.5 22.5h66v350h-901v-350h71q70 0 91.5 -21.5t21.5 -89.5v-383 q0 -133 -51.5 -190t-155.5 -57q-49 0 -90 15t-68 38q-14 14 -25.5 30.5t-18.5 39t-10 56.5t-3 81v381q0 59 19.5 79.5t78.5 20.5h86v350h-1030v-350zM569 1632q0 -43 20.5 -76.5t53.5 -56t75 -34t87 -11.5t88 11.5t75.5 34t53 56t20.5 76.5t-19 78t-52 58.5t-75 37t-85 13.5 q-47 0 -90 -12.5t-77 -36t-54.5 -58.5t-20.5 -80zM1094 1632q0 -43 20.5 -76.5t53 -56t74.5 -34t87 -11.5t88 11.5t76 34t53.5 56t20.5 76.5t-19.5 78t-52.5 58.5t-75 37t-85 13.5q-47 0 -90 -12.5t-76.5 -36t-54 -58.5t-20.5 -80z" />
<glyph unicode="&#xdd;" horiz-adv-x="1923" d="M-43 1106h59h19q18 0 32.5 -2t32 -11.5t40 -26.5t57.5 -48l419 -383v-162q0 -78 -22.5 -100.5t-63.5 -22.5h-65v-350h965v350h-68q-41 0 -62.5 22.5t-21.5 100.5v162l428 391q33 29 54.5 45t44 24.5t51 9.5t73.5 -1v352h-811v-350h68q10 0 14 7t4 1q2 0 -8 -10 q-4 -4 -11 -10.5t-16 -12.5l-90 -80l-86 82q-12 10 -19 14.5t-7 12.5q0 4 3 0t7 -4h88v350h-1108v-350zM344 1464h530l732 326h-772z" />
<glyph unicode="&#xde;" horiz-adv-x="1423" d="M33 0h540v236h232q123 0 225.5 36.5t176 103t114.5 162t41 212.5q0 92 -29.5 182t-83.5 162q-76 102 -190.5 150t-263.5 48h-224v164h-538v-1456zM571 672v164h154q59 0 78.5 -18.5t19.5 -55.5h-2q0 -90 -86 -90h-164z" />
<glyph unicode="&#xdf;" horiz-adv-x="1556" d="M8 0h699v1069q0 82 25.5 108.5t80.5 26.5t75.5 -19.5t20.5 -41.5q0 -16 -2 -28.5t-13 -22t-32.5 -15.5t-60.5 -10q-10 0 -23.5 -2t-50.5 -10v-275q68 -16 112 -36.5t68.5 -49t34.5 -70.5t10 -100q0 -68 -13 -109.5t-36 -70.5q-25 -29 -47 -40t-45 -11q-4 0 -20.5 1 t-63.5 7v-295l72 -10q29 -4 50 -5t40.5 -2t44.5 -1q127 0 233.5 34.5t184.5 99t122 156t44 203.5q0 94 -38 174t-110 146q-31 29 -64.5 49t-84.5 43q12 4 24 9t25 13q70 35 111.5 101.5t41.5 144.5q0 88 -46 152.5t-129 106.5t-195.5 62.5t-245.5 20.5q-127 0 -238.5 -22.5 t-206.5 -69.5q-51 -27 -95 -64.5t-76.5 -81.5t-51 -94.5t-18.5 -101.5v-684v-43q0 -12 -10 -25q-6 -6 -18.5 -11t-31.5 -5h-53v-301z" />
<glyph unicode="&#xe0;" horiz-adv-x="1615" d="M-4 315q0 -96 58.5 -175t150.5 -113q63 -27 142 -40.5t157 -13.5q53 0 109.5 8.5t110.5 21.5t103.5 33.5t87.5 45.5q57 -59 122 -84t161 -25q109 0 195 33t139 103q18 23 29.5 46t17.5 54t8 72t2 98h-168v350q0 29 -1 46.5t-5 33.5q-12 55 -48 110.5t-85 90.5 q-92 66 -234.5 101.5t-295.5 35.5q-207 0 -414 -53q-61 -16 -115.5 -40t-94.5 -55.5t-62.5 -71.5t-22.5 -87q0 -66 35 -116t96 -67q23 -6 62 -6q41 0 85 3t84.5 8.5t67.5 9.5v-2q-6 -6 -34.5 -8.5t-67.5 -7.5t-83 -14t-77 -30q-92 -53 -153.5 -123t-61.5 -172zM115 1489 l708 -328h561l-510 328h-759zM473 670v2q39 12 66.5 24.5t45 26.5t28 34.5t14.5 51.5q2 12 -2 23.5t-9 21.5q10 4 21 4h25q66 0 107.5 -15.5t57.5 -33.5q16 -16 18.5 -35.5t4.5 -66.5h-49q-45 0 -86 -6.5t-82 -10.5q-6 0 -32 -5t-53.5 -10t-50 -7t-24.5 2zM578 356 q0 20 10 36t43 26q35 12 97.5 21.5t121.5 11.5v-113q-47 -27 -87 -37t-83 -10q-57 0 -79.5 21t-22.5 44z" />
<glyph unicode="&#xe1;" horiz-adv-x="1615" d="M-4 315q0 -96 58.5 -175t150.5 -113q63 -27 142 -40.5t157 -13.5q53 0 109.5 8.5t110.5 21.5t103.5 33.5t87.5 45.5q57 -59 122 -84t161 -25q109 0 195 33t139 103q18 23 29.5 46t17.5 54t8 72t2 98h-168v350q0 29 -1 46.5t-5 33.5q-12 55 -48 110.5t-85 90.5 q-92 66 -234.5 101.5t-295.5 35.5q-207 0 -414 -53q-61 -16 -115.5 -40t-94.5 -55.5t-62.5 -71.5t-22.5 -87q0 -66 35 -116t96 -67q23 -6 62 -6q41 0 85 3t84.5 8.5t67.5 9.5v-2q-6 -6 -34.5 -8.5t-67.5 -7.5t-83 -14t-77 -30q-92 -53 -153.5 -123t-61.5 -172zM166 1161h561 l709 328h-760zM473 670v2q39 12 66.5 24.5t45 26.5t28 34.5t14.5 51.5q2 12 -2 23.5t-9 21.5q10 4 21 4h25q66 0 107.5 -15.5t57.5 -33.5q16 -16 18.5 -35.5t4.5 -66.5h-49q-45 0 -86 -6.5t-82 -10.5q-6 0 -32 -5t-53.5 -10t-50 -7t-24.5 2zM578 356q0 20 10 36t43 26 q35 12 97.5 21.5t121.5 11.5v-113q-47 -27 -87 -37t-83 -10q-57 0 -79.5 21t-22.5 44z" />
<glyph unicode="&#xe2;" horiz-adv-x="1615" d="M-4 272q0 -96 58.5 -174t150.5 -114q63 -25 142 -39.5t157 -14.5q53 0 109.5 8.5t110.5 22.5t103.5 33.5t87.5 44.5q57 -59 122 -84t161 -25q109 0 195 33t139 103q18 23 29.5 46t17.5 54t8 72t2 98h-168v350q0 29 -1 46.5t-5 33.5q-12 55 -48 110.5t-85 90.5 q-92 66 -234.5 101.5t-295.5 35.5q-102 0 -207 -13.5t-207 -37.5q-61 -16 -115.5 -40t-94.5 -56.5t-62.5 -72.5t-22.5 -87q0 -66 35 -116t96 -67q23 -6 62 -6q41 0 85 3t84.5 8.5t67.5 9.5v-2q-6 -6 -34.5 -8.5t-67.5 -7.5t-83 -14t-77 -30q-92 -53 -153.5 -122t-61.5 -173z M229 1171h492l88 101l88 -101h479l-391 324h-362zM473 627v2q39 12 66.5 24.5t45 26.5t28 34.5t14.5 51.5q2 14 -2 25.5t-9 21.5q10 2 21 2h25q66 0 107.5 -15.5t57.5 -33.5q16 -16 18.5 -34.5t4.5 -67.5h-49q-45 0 -86 -6.5t-82 -10.5q-6 0 -32 -5t-53.5 -10t-50 -7 t-24.5 2zM578 313q0 23 10 37.5t43 26.5q35 10 97.5 20.5t121.5 10.5v-113q-47 -27 -87 -37t-83 -10q-57 0 -79.5 21t-22.5 44z" />
<glyph unicode="&#xe3;" horiz-adv-x="1615" d="M-4 315q0 -96 58.5 -175t150.5 -113q63 -27 142 -40.5t157 -13.5q53 0 109.5 8.5t110.5 21.5t103.5 33.5t87.5 45.5q57 -59 122 -84t161 -25q109 0 195 33t139 103q18 23 29.5 46t17.5 54t8 72t2 98h-168v350q0 29 -1 46.5t-5 33.5q-12 55 -48 110.5t-85 90.5 q-92 66 -234.5 101.5t-295.5 35.5q-207 0 -414 -53q-61 -16 -115.5 -40t-94.5 -55.5t-62.5 -71.5t-22.5 -87q0 -66 35 -116t96 -67q23 -6 62 -6q41 0 85 3t84.5 8.5t67.5 9.5v-2q-6 -6 -34.5 -8.5t-67.5 -7.5t-83 -14t-77 -30q-92 -53 -153.5 -123t-61.5 -172zM266 1159h289 q10 39 22.5 44t30.5 5q16 0 50 -5t87 -17q70 -16 113 -24.5t76 -8.5q78 0 153.5 39t120.5 108q12 16 20.5 33t15.5 39.5t14.5 53t17.5 77.5h-293q-4 -41 -10 -49t-21 -8q-49 0 -118 16q-66 16 -100 25.5t-54 13.5q-23 4 -37 5t-35 1q-125 0 -210 -84t-132 -264zM473 670v2 q39 12 66.5 24.5t45 26.5t28 34.5t14.5 51.5q2 12 -2 23.5t-9 21.5q10 4 21 4h25q66 0 107.5 -15.5t57.5 -33.5q16 -16 18.5 -35.5t4.5 -66.5h-49q-45 0 -86 -6.5t-82 -10.5q-6 0 -32 -5t-53.5 -10t-50 -7t-24.5 2zM578 356q0 20 10 36t43 26q35 12 97.5 21.5t121.5 11.5 v-113q-47 -27 -87 -37t-83 -10q-57 0 -79.5 21t-22.5 44z" />
<glyph unicode="&#xe4;" horiz-adv-x="1615" d="M-4 315q0 -96 58.5 -175t150.5 -113q63 -27 142 -40.5t157 -13.5q53 0 109.5 8.5t110.5 21.5t103.5 33.5t87.5 45.5q57 -59 122 -84t161 -25q109 0 195 33t139 103q18 23 29.5 46t17.5 54t8 72t2 98h-168v350q0 29 -1 46.5t-5 33.5q-12 55 -48 110.5t-85 90.5 q-92 66 -234.5 101.5t-295.5 35.5q-207 0 -414 -53q-61 -16 -115.5 -40t-94.5 -55.5t-62.5 -71.5t-22.5 -87q0 -66 35 -116t96 -67q23 -6 62 -6q41 0 85 3t84.5 8.5t67.5 9.5v-2q-6 -6 -34.5 -8.5t-67.5 -7.5t-83 -14t-77 -30q-92 -53 -153.5 -123t-61.5 -172zM238 1331 q0 -43 20.5 -76.5t53 -56t75.5 -34t90 -11.5q45 0 88 11.5t76 34t52.5 55t19.5 77.5q0 43 -19.5 77t-53.5 55.5t-77 32.5t-88 11q-47 0 -90 -11t-76 -32.5t-52 -54.5t-19 -78zM473 670v2q39 12 66.5 24.5t45 26.5t28 34.5t14.5 51.5q2 12 -2 23.5t-9 21.5q10 4 21 4h25 q66 0 107.5 -15.5t57.5 -33.5q16 -16 18.5 -35.5t4.5 -66.5h-49q-45 0 -86 -6.5t-82 -10.5q-6 0 -32 -5t-53.5 -10t-50 -7t-24.5 2zM578 356q0 20 10 36t43 26q35 12 97.5 21.5t121.5 11.5v-113q-47 -27 -87 -37t-83 -10q-57 0 -79.5 21t-22.5 44zM762 1331 q0 -43 20.5 -76.5t53 -56t75.5 -34t90 -11.5q45 0 88.5 11.5t76 34t52 55t19.5 77.5q0 43 -19.5 77t-53.5 55.5t-77 32.5t-88 11q-47 0 -90 -11t-75.5 -32.5t-52 -54.5t-19.5 -78z" />
<glyph unicode="&#xe5;" horiz-adv-x="1615" d="M-4 315q0 -96 58.5 -175t150.5 -113q63 -27 142 -40.5t157 -13.5q53 0 109.5 8.5t110.5 21.5t103.5 33.5t87.5 45.5q57 -59 122 -84t161 -25q109 0 195 33t139 103q18 23 29.5 46t17.5 54t8 72t2 98h-168v350q0 29 -1 46.5t-5 33.5q-12 55 -48 110.5t-85 90.5 q-92 66 -234.5 101.5t-295.5 35.5q-207 0 -414 -53q-61 -16 -115.5 -40t-94.5 -55.5t-62.5 -71.5t-22.5 -87q0 -66 35 -116t96 -67q23 -6 62 -6q41 0 85 3t84.5 8.5t67.5 9.5v-2q-6 -6 -34.5 -8.5t-67.5 -7.5t-83 -14t-77 -30q-92 -53 -153.5 -123t-61.5 -172zM420 1352 q0 -51 26.5 -89t71.5 -63.5t102.5 -38t116.5 -12.5t116.5 12.5t101.5 38t72 63t28 89.5q0 51 -27 89t-72 63.5t-101 37.5t-114 12q-61 0 -119.5 -12t-102.5 -36.5t-71.5 -63.5t-27.5 -90zM473 670v2q39 12 66.5 24.5t45 26.5t28 34.5t14.5 51.5q2 12 -2 23.5t-9 21.5 q10 4 21 4h25q66 0 107.5 -15.5t57.5 -33.5q16 -16 18.5 -35.5t4.5 -66.5h-49q-45 0 -86 -6.5t-82 -10.5q-6 0 -32 -5t-53.5 -10t-50 -7t-24.5 2zM578 356q0 20 10 36t43 26q35 12 97.5 21.5t121.5 11.5v-113q-47 -27 -87 -37t-83 -10q-57 0 -79.5 21t-22.5 44zM680 1352 q0 18 11 31.5t52 13.5q35 0 49.5 -14.5t14.5 -30.5t-13.5 -30.5t-50.5 -14.5t-50 14.5t-13 30.5z" />
<glyph unicode="&#xe6;" horiz-adv-x="2410" d="M4 322q0 -84 38 -148.5t104.5 -109t156.5 -68t195 -23.5q143 0 278 46.5t248 134.5q49 -43 113.5 -76t138.5 -56.5t154.5 -36t162.5 -12.5q74 0 142.5 3.5t135 17.5t130 44t125.5 81q51 43 79.5 73.5t50 70.5t43 98.5t60.5 158.5l-563 -4q-10 -66 -19.5 -101.5t-24.5 -53 t-37.5 -23.5t-55.5 -8q-41 -4 -79 13t-54 38q-6 6 -11.5 27.5t-8.5 47t-5 52.5t-2 45l346 2l508 -2q0 72 -4 113t-14.5 69.5t-26.5 53t-39 63.5q-51 88 -117.5 144.5t-146.5 88t-173 44t-200 12.5q-61 0 -123.5 -6.5t-121 -16.5t-109.5 -26.5t-90 -34.5q-100 45 -209 65.5 t-238 20.5q-84 0 -172 -9.5t-180 -27.5q-74 -16 -137.5 -31.5t-109.5 -39t-72.5 -58.5t-26.5 -90q0 -53 25.5 -91t66.5 -62.5t92.5 -37t102.5 -14.5t104 8t97 32.5t72 57.5t28 82q0 10 -2 20.5t-6 20.5q8 2 32 2q72 0 111 -15.5t55 -37.5q10 -14 14.5 -57t8.5 -88 q-68 -2 -158 -11.5t-179 -24t-164 -30.5t-112 -31q-106 -43 -166.5 -115.5t-60.5 -172.5zM584 362q0 16 16 35t64 31q39 10 90 15.5t92 7.5q2 -53 22 -99q-59 -33 -105 -45t-93 -12q-45 0 -65.5 19t-20.5 48zM1522 684q14 41 43.5 78t83.5 37q49 0 78.5 -38t44.5 -77h-250z " />
<glyph unicode="&#xe7;" horiz-adv-x="1566" d="M-2 541q0 -156 73.5 -277t213.5 -186q41 -20 79.5 -34.5t84 -26t99.5 -20.5t126 -17v-132v-41q39 6 57 7q14 2 21 2h10q31 0 49 -4.5t26.5 -10.5t10.5 -12t2 -8q0 -16 -14.5 -30.5t-40.5 -14.5q-23 0 -38.5 14t-25.5 64q-4 20 -4 34h-53h-187q0 -43 2.5 -74.5t6.5 -55 t12 -41t20 -35.5q41 -59 113 -89t156 -30q66 0 125 17.5t105 50t72.5 79.5t26.5 107q0 98 -58 145t-163 55q129 14 238.5 57.5t190.5 113t130 166t58 216.5h-596q-2 -74 -11.5 -117.5t-25 -68.5t-37 -33t-47.5 -8q-74 0 -103 62q-16 35 -27 88t-11 112q0 131 40.5 186.5 t90.5 55.5q33 0 49 -8q-8 -18 -8 -43q0 -55 28.5 -97.5t75.5 -72t107.5 -45t121.5 -15.5q74 0 140.5 16.5t118 48.5t81 78t29.5 107q0 100 -65.5 171t-182.5 114q-221 80 -473 80q-182 0 -332.5 -41t-258 -118t-168 -188.5t-60.5 -252.5z" />
<glyph unicode="&#xe8;" horiz-adv-x="1566" d="M6 555q0 -137 57.5 -244.5t160 -182.5t245.5 -115t315 -40q158 0 290 38t237 114q45 33 80.5 60.5t61.5 60.5t44.5 77t28.5 113h-557q0 -4 -14.5 -21.5t-37 -36t-49 -33.5t-49.5 -15q-143 0 -155 137h866v78q0 86 -25.5 169t-72.5 154q-92 135 -258 204t-386 69 q-170 0 -313 -41t-247.5 -117t-163 -184.5t-58.5 -243.5zM106 1489l709 -328h561l-510 328h-760zM678 705q12 41 43 77.5t84 36.5q49 0 78.5 -38t42.5 -76h-248z" />
<glyph unicode="&#xe9;" horiz-adv-x="1566" d="M6 555q0 -137 57.5 -244.5t160 -182.5t245.5 -115t315 -40q158 0 290 38t237 114q45 33 80.5 60.5t61.5 60.5t44.5 77t28.5 113h-557q0 -4 -14.5 -21.5t-37 -36t-49 -33.5t-49.5 -15q-143 0 -155 137h866v78q0 86 -25.5 169t-72.5 154q-92 135 -258 204t-386 69 q-170 0 -313 -41t-247.5 -117t-163 -184.5t-58.5 -243.5zM158 1161h561l708 328h-759zM678 705q12 41 43 77.5t84 36.5q49 0 78.5 -38t42.5 -76h-248z" />
<glyph unicode="&#xea;" horiz-adv-x="1566" d="M6 555q0 -137 57.5 -244.5t160 -182.5t245.5 -115t315 -40q158 0 290 38t237 114q45 33 80.5 60.5t61.5 60.5t44.5 77t28.5 113h-557q0 -4 -14.5 -21.5t-37 -36t-49 -33.5t-49.5 -15q-143 0 -155 137h866v78q0 86 -25.5 169t-72.5 154q-92 135 -258 204t-386 69 q-170 0 -313 -41t-247.5 -117t-163 -184.5t-58.5 -243.5zM193 1171h493l86 101l90 -101h479l-391 324h-362zM678 705q12 41 43 77.5t84 36.5q49 0 78.5 -38t42.5 -76h-248z" />
<glyph unicode="&#xeb;" horiz-adv-x="1566" d="M6 555q0 -137 57.5 -244.5t160 -182.5t245.5 -115t315 -40q158 0 290 38t237 114q45 33 80.5 60.5t61.5 60.5t44.5 77t28.5 113h-557q0 -4 -14.5 -21.5t-37 -36t-49 -33.5t-49.5 -15q-143 0 -155 137h866v78q0 86 -25.5 169t-72.5 154q-92 135 -258 204t-386 69 q-170 0 -313 -41t-247.5 -117t-163 -184.5t-58.5 -243.5zM268 1331q0 -43 20.5 -76.5t53.5 -56t76 -34t90 -11.5q45 0 88 11.5t76 34t52 55t19 77.5q0 43 -19 77t-53 55.5t-77 32.5t-88 11q-47 0 -90 -11t-76 -32.5t-52.5 -54.5t-19.5 -78zM678 705q12 41 43 77.5t84 36.5 q49 0 78.5 -38t42.5 -76h-248zM793 1331q0 -43 20.5 -76.5t53 -56t75.5 -34t90 -11.5q45 0 88 11.5t76 34t52.5 55t19.5 77.5q0 43 -19.5 77t-53.5 55.5t-77 32.5t-88 11q-47 0 -90 -11t-76 -32.5t-52 -54.5t-19 -78z" />
<glyph unicode="&#xec;" horiz-adv-x="870" d="M-207 1489l709 -328h559l-508 328h-760zM70 0h802v301h-55q-27 0 -45 14q-10 12 -12 26.5t-2 43.5v729h-688v-301h53q29 0 43 -14q10 -12 13 -25.5t3 -42.5v-346q0 -29 -1 -42t-11 -26q-6 -6 -18.5 -11t-28.5 -5h-53v-301z" />
<glyph unicode="&#xed;" horiz-adv-x="870" d="M-207 1161h559l709 328h-760zM16 0h803v301h-55q-29 0 -43 14q-10 12 -13 26.5t-3 43.5v729h-689v-301h54q27 0 45 -14q10 -12 12 -25.5t2 -42.5v-346v-43q0 -12 -10 -25q-6 -6 -18.5 -11t-30.5 -5h-54v-301z" />
<glyph unicode="&#xee;" horiz-adv-x="870" d="M-147 1171h493l86 101l90 -101h479l-391 324h-362zM45 0h803v301h-55q-27 0 -45 14q-10 12 -12.5 26.5t-2.5 43.5v729h-688v-301h53q29 0 43 -14q10 -12 13.5 -25.5t3.5 -42.5v-346q0 -29 -1 -42t-12 -26q-6 -6 -18 -11t-29 -5h-53v-301z" />
<glyph unicode="&#xef;" horiz-adv-x="870" d="M-29 1331q0 -43 18.5 -75.5t49.5 -55t71 -35t85 -12.5q86 0 150.5 46t64.5 132h-2q0 43 -17.5 77t-48.5 55.5t-71 32.5t-83 11q-88 0 -152.5 -45t-64.5 -131zM43 0h805v301h-57q-29 0 -43 14q-10 12 -12.5 26.5t-2.5 43.5v729h-690v-301h55q29 0 43 -14 q10 -12 12.5 -25.5t2.5 -42.5v-346v-43q0 -12 -11 -25q-6 -6 -18 -11t-31 -5h-53v-301zM444 1331q0 -43 18.5 -75.5t49.5 -55t71 -35t85 -12.5q86 0 150.5 46t64.5 132q0 43 -18.5 77t-49.5 55.5t-70.5 32.5t-82.5 11q-88 0 -153 -45t-65 -131z" />
<glyph unicode="&#xf0;" horiz-adv-x="1245" d="M-12 1280q68 -12 116 -22.5t82 -20.5l-145 -88l125 -195l258 164q4 -4 9 -7t9 -7l2 -2q-10 -2 -16 -4l-12 -4q-12 -4 -21.5 -8.5t-25.5 -12.5q-43 -23 -76 -41t-60 -41q-100 -80 -153 -196.5t-53 -251.5q0 -123 46 -229.5t126 -183.5t189.5 -121t236.5 -44 q135 0 246.5 43t192.5 121t125 188.5t44 245.5q0 147 -52.5 283.5t-150.5 240.5q-59 63 -132 118t-169 106l156 96l-125 199l-291 -189q-43 14 -84 24.5t-87 19.5t-100.5 16.5t-125.5 15.5zM528 535q0 133 35 180t86 47q57 0 69.5 -55.5t12.5 -182.5q0 -59 -3 -84.5 t-13 -52.5q-18 -53 -82 -53q-23 0 -42.5 8t-33.5 29.5t-21.5 62t-7.5 101.5z" />
<glyph unicode="&#xf1;" horiz-adv-x="1728" d="M27 0h829v301h-80q-27 0 -45 14q-10 12 -12 26.5t-2 43.5v285q0 55 37 91t104 36q57 0 90 -36t33 -118v-258q0 -29 -1 -42t-11 -26q-12 -16 -47 -16h-80v-301h825v301h-53q-27 0 -45 14q-10 12 -12.5 26.5t-2.5 43.5v330q0 92 -37.5 171t-103 135t-155 88t-189.5 32 q-104 0 -185 -20.5t-167 -69.5v63h-690v-301h53q27 0 45 -14q10 -12 12 -25.5t2 -42.5v-346q0 -29 -1 -42t-11 -26q-12 -16 -47 -16h-53v-301zM322 1159h288q10 39 22.5 44t31.5 5q16 0 50 -5t87 -17q70 -16 112.5 -24.5t75.5 -8.5q78 0 154 39t121 108q12 16 20 33 t15.5 39.5t14.5 53t17 77.5h-293q-4 -41 -10 -49t-20 -8q-49 0 -119 16q-66 16 -99.5 25.5t-54.5 13.5q-23 4 -37 5t-34 1q-125 0 -210 -84t-132 -264z" />
<glyph unicode="&#xf2;" horiz-adv-x="1632" d="M4 551q0 -141 55.5 -249.5t160 -181.5t251.5 -110t332 -37q180 0 326.5 38t250 111t159.5 181.5t56 249.5t-55 250.5t-156.5 184.5t-246 114t-320.5 39q-225 0 -384 -51.5t-277 -165.5q-74 -74 -113 -168t-39 -205zM137 1489l711 -328h559l-508 328h-762zM674 557 q0 84 8 134t25.5 78t43 37t60.5 9q33 0 57.5 -9t42 -37t25.5 -79t8 -137h-2q0 -84 -8 -134t-25.5 -77t-42 -36t-57.5 -9q-35 0 -59.5 8t-42 36t-25.5 79t-8 137z" />
<glyph unicode="&#xf3;" horiz-adv-x="1632" d="M4 551q0 -141 55.5 -249.5t160 -181.5t251.5 -110t332 -37q180 0 326.5 38t250 111t159.5 181.5t56 249.5t-55 250.5t-156.5 184.5t-246 114t-320.5 39q-225 0 -384 -51.5t-277 -165.5q-74 -74 -113 -168t-39 -205zM190 1161h560l710 328h-762zM674 557q0 84 8 134 t25.5 78t43 37t60.5 9q33 0 57.5 -9t42 -37t25.5 -79t8 -137h-2q0 -84 -8 -134t-25.5 -77t-42 -36t-57.5 -9q-35 0 -59.5 8t-42 36t-25.5 79t-8 137z" />
<glyph unicode="&#xf4;" horiz-adv-x="1632" d="M4 551q0 -141 55.5 -249.5t160 -181.5t251.5 -110t332 -37q180 0 326.5 38t250 111t159.5 181.5t56 249.5t-55 250.5t-156.5 184.5t-246 114t-320.5 39q-225 0 -384 -51.5t-277 -165.5q-74 -74 -113 -168t-39 -205zM225 1171h494l86 101l90 -101h479l-393 324h-360z M674 557q0 84 8 134t25.5 78t43 37t60.5 9q33 0 57.5 -9t42 -37t25.5 -79t8 -137h-2q0 -84 -8 -134t-25.5 -77t-42 -36t-57.5 -9q-35 0 -59.5 8t-42 36t-25.5 79t-8 137z" />
<glyph unicode="&#xf5;" horiz-adv-x="1632" d="M4 551q0 -141 55.5 -249.5t160 -181.5t251.5 -110t332 -37q180 0 326.5 38t250 111t159.5 181.5t56 249.5t-55 250.5t-156.5 184.5t-246 114t-320.5 39q-225 0 -384 -51.5t-277 -165.5q-74 -74 -113 -168t-39 -205zM293 1159h289q10 39 21 44t32 5q16 0 50 -5t85 -17 q70 -16 114 -24.5t77 -8.5q78 0 152.5 39t121.5 108q10 16 18.5 33t16.5 39.5t15 53t15 77.5h-292q-4 -41 -10.5 -49t-20.5 -8q-23 0 -54.5 4t-64.5 12q-63 16 -98 25.5t-55 13.5q-23 4 -36.5 5t-35.5 1q-123 0 -208 -84t-132 -264zM674 557q0 84 8 134t25.5 78t43 37 t60.5 9q33 0 57.5 -9t42 -37t25.5 -79t8 -137h-2q0 -84 -8 -134t-25.5 -77t-42 -36t-57.5 -9q-35 0 -59.5 8t-42 36t-25.5 79t-8 137z" />
<glyph unicode="&#xf6;" horiz-adv-x="1632" d="M4 551q0 -141 55.5 -249.5t160 -181.5t251.5 -110t332 -37q180 0 326.5 38t250 111t159.5 181.5t56 249.5t-55 250.5t-156.5 184.5t-246 114t-320.5 39q-225 0 -384 -51.5t-277 -165.5q-74 -74 -113 -168t-39 -205zM299 1331q0 -43 20.5 -76.5t54.5 -56t77 -34t90 -11.5 q45 0 88 11.5t75.5 34t52 55t19.5 77.5h-2q0 43 -19.5 77t-53 55.5t-76.5 32.5t-88 11q-47 0 -89 -11t-76 -32.5t-53.5 -54.5t-19.5 -78zM674 557q0 84 8 134t25.5 78t43 37t60.5 9q33 0 57.5 -9t42 -37t25.5 -79t8 -137h-2q0 -84 -8 -134t-25.5 -77t-42 -36t-57.5 -9 q-35 0 -59.5 8t-42 36t-25.5 79t-8 137zM823 1331q0 -43 20.5 -76.5t54.5 -56t77 -34t90 -11.5q45 0 88 11.5t76 34t52 55t19 77.5q0 43 -20 77t-53 55.5t-77 32.5t-89 11q-47 0 -89 -11t-76 -32.5t-53.5 -54.5t-19.5 -78z" />
<glyph unicode="&#xf7;" d="M-49 666h1122v290h-1122v-290zM322 475q0 -39 15 -72.5t40.5 -59.5t60.5 -41t74 -15t72.5 15t59.5 41t41 60.5t15 73.5q0 78 -55 133.5t-133 55.5q-39 0 -74 -14.5t-60.5 -41t-40.5 -61.5t-15 -74zM322 1145q0 -39 15 -74t40.5 -60.5t60.5 -41t74 -15.5t72.5 15.5 t59.5 41t41 60.5t15 74q0 78 -55 133t-133 55q-39 0 -74 -14t-60.5 -40t-40.5 -60.5t-15 -73.5z" />
<glyph unicode="&#xf8;" horiz-adv-x="1634" d="M6 545q0 -272 223 -430l-73 -70l157 -156l129 127q76 -18 183.5 -30.5t203.5 -12.5q141 0 271.5 30t234.5 87q125 68 192.5 187.5t67.5 269.5q0 137 -48 237.5t-158 194.5l73 80l-157 147l-119 -121q-76 27 -176.5 41.5t-204.5 14.5q-131 0 -265 -29t-233 -78 q-145 -76 -223 -201.5t-78 -287.5zM674 567q2 70 10 120t18 67q33 59 107 59q51 0 84 -27zM735 315l207 207q-2 -72 -11 -116t-26.5 -68.5t-42 -32.5t-55.5 -8q-47 0 -72 18z" />
<glyph unicode="&#xf9;" horiz-adv-x="1646" d="M0 813h55q29 0 43 -14q10 -12 12.5 -25.5t2.5 -42.5v-375q0 -86 48 -168t126 -129q68 -41 144.5 -64.5t156.5 -23.5q96 0 185 21.5t161 62.5v-55h680v301h-55q-29 0 -43 14q-10 12 -12.5 26.5t-2.5 43.5v729h-708v-301h81q14 0 26.5 -5t17.5 -9q12 -10 14 -24.5t2 -43.5 v-262q0 -74 -36 -112t-91 -38q-57 0 -88 32t-31 118v645h-688v-301zM135 1489l711 -328h559l-508 328h-762z" />
<glyph unicode="&#xfa;" horiz-adv-x="1646" d="M0 813h55q29 0 43 -14q10 -12 12.5 -25.5t2.5 -42.5v-375q0 -86 48 -168t126 -129q68 -41 144.5 -64.5t156.5 -23.5q96 0 185 21.5t161 62.5v-55h680v301h-55q-29 0 -43 14q-10 12 -12.5 26.5t-2.5 43.5v729h-708v-301h81q14 0 26.5 -5t17.5 -9q12 -10 14 -24.5t2 -43.5 v-262q0 -74 -36 -112t-91 -38q-57 0 -88 32t-31 118v645h-688v-301zM188 1161h560l710 328h-762z" />
<glyph unicode="&#xfb;" horiz-adv-x="1646" d="M0 813h55q29 0 43 -14q10 -12 12.5 -25.5t2.5 -42.5v-375q0 -86 48 -168t126 -129q68 -41 144.5 -64.5t156.5 -23.5q96 0 185 21.5t161 62.5v-55h680v301h-55q-29 0 -43 14q-10 12 -12.5 26.5t-2.5 43.5v729h-708v-301h81q14 0 26.5 -5t17.5 -9q12 -10 14 -24.5t2 -43.5 v-262q0 -74 -36 -112t-91 -38q-57 0 -88 32t-31 118v645h-688v-301zM223 1171h494l86 101l90 -101h479l-393 324h-361z" />
<glyph unicode="&#xfc;" horiz-adv-x="1646" d="M0 813h55q29 0 43 -14q10 -12 12.5 -25.5t2.5 -42.5v-375q0 -86 48 -168t126 -129q68 -41 144.5 -64.5t156.5 -23.5q96 0 185 21.5t161 62.5v-55h680v301h-55q-29 0 -43 14q-10 12 -12.5 26.5t-2.5 43.5v729h-708v-301h81q14 0 26.5 -5t17.5 -9q12 -10 14 -24.5t2 -43.5 v-262q0 -74 -36 -112t-91 -38q-57 0 -88 32t-31 118v645h-688v-301zM238 1331q0 -43 20.5 -76.5t54 -56t76.5 -34t90 -11.5q45 0 88 11.5t76 34t52.5 55t19.5 77.5h-2q0 43 -19.5 77t-53.5 55.5t-77 32.5t-88 11q-47 0 -89 -11t-76 -32.5t-53 -54.5t-19 -78zM762 1331 q0 -43 20.5 -76.5t54 -56t76.5 -34t91 -11.5q45 0 88 11.5t75.5 34t52 55t19.5 77.5q0 43 -20.5 77t-53 55.5t-77 32.5t-89.5 11q-47 0 -89 -11t-75.5 -32.5t-53 -54.5t-19.5 -78z" />
<glyph unicode="&#xfd;" horiz-adv-x="1546" d="M-33 815q45 -2 73 -6t44 -13.5t27.5 -23.5t21.5 -39l324 -706q10 -20 15 -29.5t5 -17.5v-11q0 -6 -6 -6h-16l47 -45v23q0 37 -19.5 64.5t-50.5 47t-67.5 28.5t-71.5 9q-43 0 -86 -12t-77 -36t-55.5 -56.5t-21.5 -75.5q0 -59 35 -101t93.5 -68t137 -37t166.5 -11 q131 0 237.5 21.5t178.5 64.5q66 41 123 113.5t92 154.5l283 692q10 25 18 38.5t23.5 21.5t40 11t67.5 5v299h-717v-297q51 -4 67.5 -5t25.5 -3h6q6 -6 6 -18q0 -8 -10 -35l-90 -228l-115 246v21q0 16 19.5 17t78.5 1v301h-852v-299zM131 1161h559l711 328h-762z" />
<glyph unicode="&#xfe;" horiz-adv-x="1282" d="M29 -319h495v342q82 -61 215 -62q117 0 207 40t153.5 114.5t96.5 179t33 233.5t-33 234.5t-95.5 181.5t-152.5 117t-203 41q-78 0 -133 -16.5t-108 -59.5v430h-475v-1775zM514 514q0 98 32 135t79 37q41 0 75.5 -41t34.5 -133h-2q0 -90 -30.5 -126t-75.5 -36t-79 39 t-34 125z" />
<glyph unicode="&#xff;" horiz-adv-x="1546" d="M-33 815q45 -2 73 -6t44 -13.5t27.5 -23.5t21.5 -39l324 -706q10 -20 15 -29.5t5 -17.5v-11q0 -6 -6 -6h-16l47 -45v23q0 37 -19.5 64.5t-50.5 47t-67.5 28.5t-71.5 9q-43 0 -86 -12t-77 -36t-55.5 -56.5t-21.5 -75.5q0 -59 35 -101t93.5 -68t137 -37t166.5 -11 q131 0 237.5 21.5t178.5 64.5q66 41 123 113.5t92 154.5l283 692q10 25 18 38.5t23.5 21.5t40 11t67.5 5v299h-717v-297q51 -4 67.5 -5t25.5 -3h6q6 -6 6 -18q0 -8 -10 -35l-90 -228l-115 246v21q0 16 19.5 17t78.5 1v301h-852v-299zM240 1331q0 -43 20.5 -76.5t54 -56 t76.5 -34t90 -11.5q45 0 88 11.5t76 34t52.5 55t19.5 77.5h-2q0 43 -19.5 77t-53.5 55.5t-77 32.5t-88 11q-47 0 -89 -11t-75.5 -32.5t-53 -54.5t-19.5 -78zM764 1331q0 -43 20.5 -76.5t54 -56t76.5 -34t91 -11.5q45 0 88 11.5t75.5 34t52 55t19.5 77.5q0 43 -20.5 77 t-53 55.5t-76.5 32.5t-90 11q-47 0 -89 -11t-75.5 -32.5t-53 -54.5t-19.5 -78z" />
<glyph unicode="&#x152;" horiz-adv-x="3033" d="M41 737q0 -178 71.5 -320.5t200.5 -242.5t309.5 -154.5t395.5 -54.5q66 0 133.5 6t132.5 17q23 4 66 8t108 4h1475v659h-578v-96q0 -41 -12 -85t-33 -72q-14 -23 -43 -37.5t-84 -14.5h-342v236h37q14 0 26.5 -4t20.5 -18.5t14.5 -40t8.5 -70.5h344v557h-340 q-4 -33 -8.5 -52.5t-10.5 -30.5t-14 -15.5t-23 -4.5h-55v187h322q106 0 149 -44t43 -155v-164h578v721h-1569q-35 4 -61.5 7t-42.5 7q-59 10 -124 15.5t-128 5.5q-213 0 -391.5 -52.5t-306.5 -150.5t-198.5 -237.5t-70.5 -313.5zM842 743q0 115 12 190t36.5 119t59.5 61 t80 17q55 0 84 -25.5t29 -47.5v-649q0 -25 -30 -51.5t-83 -26.5q-35 0 -64.5 10t-45.5 25q-18 14 -33 41.5t-25 71.5t-15 108.5t-5 156.5z" />
<glyph unicode="&#x153;" horiz-adv-x="2502" d="M4 557q0 -139 59.5 -251.5t172.5 -188.5q104 -70 247.5 -107t296.5 -37q137 0 268.5 23.5t223.5 66.5q172 -90 432 -90q61 0 124.5 8.5t125 22.5t118 35.5t101.5 48.5q51 31 91 58.5t71.5 65.5t58.5 93t53 139h-563q-4 -31 -7 -43t-5 -16t-4 -4t-4 -4q-10 -20 -41 -34.5 t-80 -14.5q-55 0 -86 17t-45 48q-16 41 -21 92h858q-4 72 -11 125.5t-18.5 95.5t-27.5 76.5t-39 69.5q-98 145 -257 217t-370 72q-248 0 -454 -90q-61 25 -115.5 42t-110 28.5t-115 15.5t-128.5 4q-178 0 -325.5 -39t-252 -114t-163 -183.5t-58.5 -247.5zM662 555 q0 78 7 122t21 73q33 61 105 61q74 0 106 -61q12 -27 19.5 -71t7.5 -128q0 -78 -9.5 -126t-27 -75.5t-42 -38t-54.5 -10.5q-72 0 -105 61q-14 29 -21 72t-7 121zM1593 709q6 51 42 79.5t96 28.5q51 0 78.5 -23.5t31.5 -84.5h-248z" />
<glyph unicode="&#x178;" horiz-adv-x="1923" d="M-43 1106h59h19q18 0 32.5 -2t32 -11.5t40 -26.5t57.5 -48l419 -383v-162q0 -78 -22.5 -100.5t-63.5 -22.5h-65v-350h965v350h-68q-41 0 -62.5 22.5t-21.5 100.5v162l428 391q33 29 54.5 45t44 24.5t51 9.5t73.5 -1v352h-811v-350h68q10 0 14 7t4 1q2 0 -8 -10 q-4 -4 -11 -10.5t-16 -12.5l-90 -80l-86 82q-12 10 -19 14.5t-7 12.5q0 4 3 0t7 -4h88v350h-1108v-350zM444 1632q0 -43 20.5 -76.5t53.5 -56t76 -34t88 -11.5t88 11.5t76 34t53.5 56t20.5 76.5h-2q0 43 -19.5 78t-52.5 58.5t-74 37t-86 13.5q-47 0 -90 -12.5t-77 -36 t-54.5 -58.5t-20.5 -80zM969 1632q0 -43 20.5 -76.5t53 -56t75.5 -34t88 -11.5t88 11.5t76 34t53.5 56t20.5 76.5t-19.5 78t-52.5 58.5t-75 37t-87 13.5q-47 0 -90 -12.5t-76.5 -36t-54 -58.5t-20.5 -80z" />
<glyph unicode="&#x2c6;" d="M-61 1171h491l86 101l90 -101h479l-391 324h-362z" />
<glyph unicode="&#x2dc;" d="M8 1159h289q10 39 21.5 44t31.5 5q16 0 50 -5t85 -17q70 -16 114 -24.5t77 -8.5q78 0 152.5 39t121.5 108q10 16 18.5 33t16.5 39.5t15.5 53t15.5 77.5h-291q-4 -41 -11 -49t-20 -8q-49 0 -121 16q-63 16 -98 25.5t-55 13.5q-23 4 -36 5t-34 1q-125 0 -210 -84t-132 -264 z" />
<glyph unicode="&#x2000;" horiz-adv-x="956" />
<glyph unicode="&#x2001;" horiz-adv-x="1912" />
<glyph unicode="&#x2002;" horiz-adv-x="956" />
<glyph unicode="&#x2003;" horiz-adv-x="1912" />
<glyph unicode="&#x2004;" horiz-adv-x="636" />
<glyph unicode="&#x2005;" horiz-adv-x="477" />
<glyph unicode="&#x2006;" horiz-adv-x="317" />
<glyph unicode="&#x2007;" horiz-adv-x="317" />
<glyph unicode="&#x2008;" horiz-adv-x="237" />
<glyph unicode="&#x2009;" horiz-adv-x="380" />
<glyph unicode="&#x200a;" horiz-adv-x="104" />
<glyph unicode="&#x2010;" horiz-adv-x="899" d="M49 430h782v338h-782v-338z" />
<glyph unicode="&#x2011;" horiz-adv-x="899" d="M49 430h782v338h-782v-338z" />
<glyph unicode="&#x2012;" horiz-adv-x="899" d="M49 430h782v338h-782v-338z" />
<glyph unicode="&#x2013;" horiz-adv-x="1794" d="M49 369h1661v399h-1661v-399z" />
<glyph unicode="&#x2014;" horiz-adv-x="2623" d="M49 369h2474v399h-2474v-399z" />
<glyph unicode="&#x2018;" horiz-adv-x="704" d="M70 1067q0 -63 21.5 -116.5t59 -93.5t90 -62.5t113.5 -22.5q53 0 101.5 17.5t85.5 50t58.5 75.5t21.5 97q0 43 -15.5 80.5t-43 66.5t-65.5 45.5t-81 16.5h-17l45 -43q0 20 3.5 33.5t15.5 24.5t36.5 18.5t65.5 15.5v213h-78q-84 0 -159.5 -34t-133 -90t-91 -132 t-33.5 -160z" />
<glyph unicode="&#x2019;" horiz-adv-x="704" d="M70 1243q0 -78 48 -136t122 -71q-8 -18 -33 -29.5t-82 -21.5v-213h78q84 0 159.5 33t133 90t91.5 133t34 160q0 63 -21.5 116.5t-59.5 93.5t-90.5 62.5t-113.5 22.5q-53 0 -101.5 -17.5t-85 -50.5t-58 -77t-21.5 -95z" />
<glyph unicode="&#x201a;" horiz-adv-x="714" d="M49 197q0 -41 14.5 -79t41 -69t60.5 -51.5t75 -26.5q-8 -25 -36 -38t-93 -23v-232h82q92 0 176 37t146.5 99.5t99 145.5t36.5 175q0 70 -22.5 129.5t-64.5 102.5t-99 67.5t-125 24.5q-59 0 -111.5 -19.5t-92.5 -54.5t-63.5 -83t-23.5 -105z" />
<glyph unicode="&#x201c;" horiz-adv-x="1267" d="M70 1067q0 -63 21.5 -116.5t59 -93.5t90 -62.5t113.5 -22.5q53 0 101.5 17.5t85.5 50t58.5 75.5t21.5 97h-3q0 43 -15 80.5t-41.5 66.5t-64.5 45.5t-81 16.5h-17l45 -43q0 20 3.5 33.5t15.5 24.5t36.5 18.5t65.5 15.5v213h-78q-84 0 -159.5 -34t-133 -90t-91 -132 t-33.5 -160zM623 1067q0 -63 21.5 -116.5t59 -93.5t90 -62.5t113.5 -22.5q53 0 101.5 17.5t85 50t58.5 75.5t22 97q0 43 -15.5 80.5t-43.5 66.5t-65.5 45.5t-80.5 16.5h-17l45 -43q0 20 3.5 33.5t15.5 24.5t36.5 18.5t65.5 15.5v213h-78q-84 0 -159.5 -34t-133 -90t-91 -132 t-33.5 -160z" />
<glyph unicode="&#x201d;" horiz-adv-x="1253" d="M63 1243q0 -78 48.5 -136t121.5 -71q-8 -18 -32.5 -29.5t-81.5 -21.5v-213h76q84 0 159.5 33t133 90t91 133t33.5 160q0 63 -21.5 116.5t-58 93.5t-89 62.5t-113.5 22.5q-53 0 -101.5 -17.5t-85.5 -50.5t-58.5 -77t-21.5 -95zM616 1243q0 -78 48.5 -136t121.5 -71 q-8 -18 -32.5 -29.5t-81.5 -21.5v-213h76q84 0 159.5 33t133 90t91 133t33.5 160q0 63 -21.5 116.5t-58 93.5t-89 62.5t-113.5 22.5q-53 0 -101.5 -17.5t-85.5 -50.5t-58.5 -77t-21.5 -95z" />
<glyph unicode="&#x201e;" horiz-adv-x="1267" d="M70 182q0 -78 47 -136t123 -71q-8 -18 -33 -29.5t-82 -21.5v-207q43 -6 58.5 -7t19.5 -1q84 0 159.5 34t133 90t91.5 132t34 160h-3q0 63 -20 117.5t-58 94.5t-90.5 62.5t-113.5 22.5q-53 0 -101.5 -17.5t-85 -50t-58 -77t-21.5 -95.5zM623 182q0 -78 47 -136t123 -71 q-8 -18 -33 -29.5t-82 -21.5v-207q43 -6 58.5 -7t19.5 -1q84 0 159.5 34t133 90t91.5 132t34 160q0 63 -22 117.5t-59.5 94.5t-90 62.5t-113.5 22.5q-53 0 -101.5 -17.5t-85 -50t-58 -77t-21.5 -95.5z" />
<glyph unicode="&#x2022;" horiz-adv-x="1392" d="M354 737q0 -68 27 -127t71 -104t104 -70.5t128 -25.5t127 25.5t104.5 70.5t71 105.5t25.5 127.5q0 68 -25.5 127.5t-70 103.5t-103.5 70.5t-125 26.5q-70 0 -131 -25.5t-106 -70.5t-71 -104.5t-26 -129.5z" />
<glyph unicode="&#x2026;" horiz-adv-x="2136" d="M49 215q0 -53 24.5 -98t65.5 -77t94.5 -49.5t112.5 -17.5t114.5 17.5t97.5 49.5t66.5 78t24.5 101h-2q0 55 -22.5 99t-61.5 76t-91 49.5t-110 17.5q-61 0 -117.5 -17.5t-99.5 -49.5t-69.5 -78t-26.5 -101zM748 215q0 -53 24.5 -98t65.5 -77t94 -49.5t112 -17.5 t114.5 17.5t97.5 49.5t67 78t25 101h-2q0 55 -23 99t-61.5 76t-91 49.5t-109.5 17.5q-61 0 -117.5 -17.5t-99.5 -49.5t-69.5 -78t-26.5 -101zM1446 215q0 -53 24.5 -98t65.5 -77t94 -49.5t113 -17.5q59 0 114.5 17.5t97.5 49.5t66.5 78t24.5 101t-23.5 99t-62.5 76t-91 49.5 t-110 17.5q-61 0 -117.5 -17.5t-99.5 -49.5t-69.5 -78t-26.5 -101z" />
<glyph unicode="&#x202f;" horiz-adv-x="380" />
<glyph unicode="&#x2039;" horiz-adv-x="729" d="M10 610l228 -385h467l-224 385l224 385h-467z" />
<glyph unicode="&#x203a;" horiz-adv-x="729" d="M10 225h467l228 385l-228 385h-467l223 -385z" />
<glyph unicode="&#x205f;" horiz-adv-x="477" />
<glyph unicode="&#x2122;" horiz-adv-x="2897" d="M8 1022h389v-172q0 -23 -5 -35t-23 -12h-66v-256h670v256h-66q-18 0 -22 12t-4 35v172h387v434h-1260v-434zM1282 547h547v88v168h-66q-23 0 -24.5 16.5t-1.5 30.5v16l24 -63l68 -168l35 -88h286l99 256l32 84v-37q0 -23 -4 -35t-22 -12h-6h-60v-256h643v256h-65 q-18 0 -22.5 12t-4.5 35v303q0 23 4 35t23 12h65v256h-678l-114 -287l-113 287h-645v-256h66q18 0 22 -12t4 -35v-303q0 -23 -4 -35t-22 -12h-66v-256z" />
<glyph unicode="&#xe000;" horiz-adv-x="1115" d="M0 1115h1115v-1115h-1115v1115z" />
<glyph unicode="&#xfb01;" horiz-adv-x="1886" d="M1043 0h802v301h-55q-27 0 -45 14q-10 12 -12 26.5t-2 43.5v729h-688v-301h53q27 0 45 -14q10 -12 12 -25.5t2 -42.5v-346q0 -29 -1 -42t-11 -26q-12 -16 -47 -16h-53v-301zM1112 1327q0 -106 99 -153q41 -20 99 -30.5t118 -10.5q61 0 117.5 11t99.5 33.5t68.5 59.5 t25.5 90q0 51 -24.5 89t-66.5 61.5t-97.5 35t-118.5 11.5q-68 0 -126.5 -10.5t-101.5 -34t-67.5 -61.5t-24.5 -91zM14 803h150v-418q0 -29 -1 -42t-11 -26q-12 -16 -48 -16h-79v-301h942v313h-150q-25 0 -41 6.5t-22 10.5q-4 4 -8.5 19.5t-4.5 68.5v385h224v311h-224v53 l38 1q38 1 83 12.5t83 35t38 66.5q0 53 -30.5 96t-78.5 70q-49 29 -136 42t-191 13q-203 0 -318.5 -66.5t-115.5 -219.5q0 -14 3 -42t7 -61h-109v-311z" />
<glyph unicode="&#xfb02;" horiz-adv-x="1859" d="M1030 0h799v301h-57q-29 0 -43 14q-10 12 -12.5 26.5t-2.5 43.5v1071h-684v-301h56q29 0 43 -14q10 -12 12 -25.5t2 -42.5v-688v-43q0 -12 -10 -25q-6 -6 -18.5 -11t-30.5 -5h-54v-301zM14 803h150v-418q0 -29 -1 -42t-11 -26q-12 -16 -48 -16h-79v-301h942v313h-150 q-25 0 -41 6.5t-22 10.5q-4 4 -8.5 19.5t-4.5 68.5v385h224v311h-224v53l38 1q38 1 83 12.5t83 35t38 66.5q0 53 -30.5 96t-78.5 70q-49 29 -136 42t-191 13q-203 0 -318.5 -66.5t-115.5 -219.5q0 -14 3 -42t7 -61h-109v-311z" />
<glyph unicode="&#xfb03;" horiz-adv-x="2902" d="M2059 0h802v301h-55q-27 0 -45 14q-10 12 -12 26.5t-2 43.5v729h-688v-301h53q27 0 45 -14q10 -12 12 -25.5t2 -42.5v-346q0 -29 -1 -42t-11 -26q-12 -16 -47 -16h-53v-301zM2128 1327q0 -106 99 -153q41 -20 99 -30.5t118 -10.5q61 0 117.5 11t99.5 33.5t68.5 59.5 t25.5 90q0 51 -24.5 89t-66.5 61.5t-97.5 35t-118.5 11.5q-68 0 -126.5 -10.5t-101.5 -34t-67.5 -61.5t-24.5 -91zM1030 803h150v-418q0 -29 -1 -42t-11 -26q-12 -16 -48 -16h-79v-301h942v313h-150q-25 0 -41 6.5t-22 10.5q-4 4 -8.5 19.5t-4.5 68.5v385h224v311h-224v53 l38 1q38 1 83 12.5t83 35t38 66.5q0 53 -30.5 96t-78.5 70q-49 29 -136 42t-191 13q-203 0 -318.5 -66.5t-115.5 -219.5q0 -14 3 -42t7 -61h-109v-311zM14 803h150v-418q0 -29 -1 -42t-11 -26q-12 -16 -48 -16h-79v-301h942v313h-150q-25 0 -41 6.5t-22 10.5q-4 4 -8.5 19.5 t-4.5 68.5v385h224v311h-224v53l38 1q38 1 83 12.5t83 35t38 66.5q0 53 -30.5 96t-78.5 70q-49 29 -136 42t-191 13q-203 0 -318.5 -66.5t-115.5 -219.5q0 -14 3 -42t7 -61h-109v-311z" />
<glyph unicode="&#xfb04;" horiz-adv-x="2875" d="M2046 0h799v301h-57q-29 0 -43 14q-10 12 -12.5 26.5t-2.5 43.5v1071h-684v-301h56q29 0 43 -14q10 -12 12 -25.5t2 -42.5v-688v-43q0 -12 -10 -25q-6 -6 -18.5 -11t-30.5 -5h-54v-301zM1030 803h150v-418q0 -29 -1 -42t-11 -26q-12 -16 -48 -16h-79v-301h942v313h-150 q-25 0 -41 6.5t-22 10.5q-4 4 -8.5 19.5t-4.5 68.5v385h224v311h-224v53l38 1q38 1 83 12.5t83 35t38 66.5q0 53 -30.5 96t-78.5 70q-49 29 -136 42t-191 13q-203 0 -318.5 -66.5t-115.5 -219.5q0 -14 3 -42t7 -61h-109v-311zM14 803h150v-418q0 -29 -1 -42t-11 -26 q-12 -16 -48 -16h-79v-301h942v313h-150q-25 0 -41 6.5t-22 10.5q-4 4 -8.5 19.5t-4.5 68.5v385h224v311h-224v53l38 1q38 1 83 12.5t83 35t38 66.5q0 53 -30.5 96t-78.5 70q-49 29 -136 42t-191 13q-203 0 -318.5 -66.5t-115.5 -219.5q0 -14 3 -42t7 -61h-109v-311z" />
</font>
</defs>
</svg>
