<?xml version="1.0" standalone="no"?>
<!DOCTYPE svg PUBLIC "-//W3C//DTD SVG 1.1//EN" "http://www.w3.org/Graphics/SVG/1.1/DTD/svg11.dtd" >
<svg xmlns="http://www.w3.org/2000/svg" width="100%" height="100%">
<metadata>
Created by FontXChange 20110222 at Mon Feb  4 15:44:16 2013
 By Matthew Gaffen
Copyright \251 2002, Before: CuttedSansKlein M.Klein 95-02. All rights reserved.
</metadata>
<defs>
<font id="MKStencilsansBlack" horiz-adv-x="1000" >
  <font-face 
    font-family="MKStencilsansBlack"
    font-weight="500"
    font-stretch="normal"
    units-per-em="1000"
    panose-1="2 0 6 3 5 0 0 2 0 4"
    ascent="800"
    descent="-200"
    x-height="517"
    cap-height="698"
    bbox="-206 -192 1004.57 904"
    underline-thickness="20"
    underline-position="-123"
    unicode-range="U+0019-2122"
  />
<missing-glyph horiz-adv-x="500" 
 />
    <glyph glyph-name=".notdef" horiz-adv-x="500" 
 />
    <glyph glyph-name="fraction" 
d="M429 686q1 12 2.5 25t1 25t-4 23t-12.5 18q-8 6 -24.5 -4t-37 -29t-42 -44.5t-40 -50.5t-30.5 -47t-12 -35q4 -4 9 -7t10 -2q3 0 7 2q19 8 44 20.5t49.5 28.5t45.5 35.5t34 41.5zM569 -79h-64q-2 89 -7 177l-10 176l18 -2q24 -35 40 -76.5t23.5 -87t7 -93.5t-7.5 -94z
M844 373q-28 14 -55.5 21.5t-56.5 11.5q6 13 14.5 23t16.5 20.5t14.5 22t9.5 26.5q-26 2 -52 -0.5t-52 -6t-52.5 -5.5t-52.5 1q28 32 39 78t2 95l61 -28q-24 42 -50.5 85t-57 72t-65 36.5t-73.5 -21.5l18 -35q0 -70 -10.5 -115.5t-30 -75.5t-45.5 -48t-57.5 -33t-66 -31
t-70.5 -41q-4 -16 -11 -31t-7 -32q0 -9 6 -17.5t14 -16t16 -13.5t13 -9q14 -11 38 -37t51.5 -58t55.5 -67t51 -63.5t37.5 -47t15.5 -18.5q-26 66 -56.5 128t-57.5 127q40 -6 78 -2q31 -81 53.5 -168t31.5 -179h-313q-8 0 -13.5 -4.5t-5.5 -10.5v-76q0 -14 19 -14h636
q8 0 13.5 4t5.5 10v76q0 6 -5.5 10.5t-13.5 4.5h-248q15 38 29 88t22 102.5t8.5 101.5t-12.5 84l6 3q19 -16 33 -39t26.5 -47.5t26.5 -48t32 -40.5q11 18 30 49.5t36 67t27 70.5t4 61zM568 697q0 -23 -11.5 -40t-28.5 -17t-28.5 17t-11.5 40q0 24 11.5 41t28.5 17t28.5 -17
t11.5 -41zM249 335q0 -8 -3.5 -12.5t-8.5 -4.5q-4 0 -7.5 4.5t-3.5 12.5t3.5 12t7.5 4q5 0 8.5 -4t3.5 -12zM546 686q0 17 -12 17q-5 0 -8.5 -4.5t-3.5 -12.5t3.5 -12.5t8.5 -4.5q12 0 12 17z" />
    <glyph glyph-name="fi" 
d="M507 -79h-307q-8 0 -13.5 -4.5t-5.5 -10.5v-76q0 -14 19 -14h636q8 0 13.5 4t5.5 10v76q0 6 -5.5 10.5t-13.5 4.5h-318q12 5 26.5 27.5t29 50t27 53t18.5 36.5t14.5 23t12.5 25q3 4 12 14.5t18.5 22t17 22t9.5 13.5q32 26 60.5 56.5t63.5 49.5q10 5 20.5 11t19.5 14l1 9
l-5 11q0 3 -5 8t-11.5 10t-12.5 10t-6 9q3 3 9 6t12.5 6t12 6t6.5 7q-9 25 -23 47t-29.5 42.5t-31.5 40t-30 40.5q-8 12 -12 27t-7 31t-7.5 30.5t-13.5 25.5l-26 32l6 -70l-1 -3l4 -12q-9 10 -18 30.5t-18.5 43.5t-20 44t-21.5 33l4 -70q-7 9 -16.5 24t-20.5 30t-21.5 28.5
t-18.5 20.5l11 -45q3 -15 11 -30q-12 14 -26 25t-26 25q-26 9 -37 4.5t-15 -17.5t-3.5 -32t-0.5 -39q-5 -6 -9.5 -10.5t-10 -9t-11.5 -11t-12 -16.5q-37 -61 -75.5 -114.5t-86.5 -102.5q-17 -17 -36 -30.5t-34 -31.5q-2 -4 -4 -7.5t-2 -8.5q0 -11 9 -21t17 -16l-8 -6
q-14 6 -27.5 13t-28.5 10l-9 -5q13 -17 27.5 -31.5t25.5 -32.5v1q25 -43 54 -82t59 -75q8 -11 17.5 -18.5t17.5 -17.5q7 -8 20 -24t29 -35t34 -39.5t35 -38t31.5 -30t24.5 -16.5zM679 314q-13 0 -22.5 12t-9.5 28q0 6 3 15.5t7 20.5t7 24t3 26q0 23 -5 35t-12 31
q16 11 42.5 4t52 -24.5t45 -41t21.5 -45.5q-24 -31 -55 -49t-63 -33q-6 -3 -14 -3zM490 24q-23 0 -36.5 14.5t-26.5 34.5q-8 13 -17.5 24.5t-17.5 24.5q-17 26 -33 53t-33 53q20 4 45.5 -2t43.5 -16q14 -8 26.5 -21t28.5 -19q1 -1 9 -2.5t17 -3t16.5 -3t9.5 -1.5
q3 0 5.5 0.5t5.5 1.5l17 20q2 8 7 13.5t11 10.5h1q8 6 20.5 12t26.5 10t26.5 3t20.5 -9q-2 -12 -14.5 -34.5t-28.5 -47t-31.5 -46t-23.5 -31.5q-15 -18 -34.5 -28.5t-40.5 -10.5zM353 117q-6 0 -9.5 4.5t-3.5 10.5t3.5 10.5t9.5 4.5t9 -4.5t3 -10.5t-3 -10.5t-9 -4.5z
M432 245q-14 0 -29.5 10.5t-29 26.5t-22 35t-8.5 36q0 14 3.5 30.5t9 33.5t12.5 32.5t13 26.5q-9 7 -18.5 6t-19 -5l-19 -8t-19.5 -2q24 21 48.5 47t51 48.5t54.5 38t60 15.5q25 0 44.5 -12t33 -32t21 -46.5t7.5 -54.5q0 -17 -3 -33.5t-11 -30.5q-7 -14 -19.5 -30t-27 -31.5
t-29 -30t-25.5 -26.5q-17 -17 -36 -30.5t-42 -13.5zM720 371q18 0 30.5 15t12.5 36q0 22 -12.5 37t-30.5 15q-17 0 -29.5 -15t-12.5 -37q0 -21 12.5 -36t29.5 -15zM712 399q-12 0 -12 16q0 6 3.5 10.5t8.5 4.5q6 0 9.5 -4.5t3.5 -10.5q0 -16 -13 -16z" />
    <glyph glyph-name="fl" 
d="M198 278q0 -15 3.5 -25t9.5 -20q20 -33 38 -66.5t38 -65.5q24 -40 48.5 -78.5t50.5 -77.5q4 -6 7 -12l6 -12h-217q-8 0 -13.5 -4.5t-5.5 -10.5v-76q0 -14 19 -14h636q8 0 13.5 4t5.5 10v76q0 6 -5.5 10.5t-13.5 4.5h-342q29 101 65.5 185.5t92.5 160.5q10 14 23.5 29
t27.5 28t28.5 23.5t27.5 16.5l22 10t22 12q-9 35 -18.5 66.5t-23.5 62.5q-9 20 -19 37.5t-21 35.5q-18 31 -39 62t-45 56t-50 40.5t-53 15.5q-13 0 -20.5 -4.5t-18.5 -6.5q-12 -2 -20 3t-14 14.5t-10.5 22.5t-9.5 27q-26 -64 -57 -115.5t-73 -86.5q-6 -5 -20.5 -13.5
t-28 -20.5t-21.5 -26.5t-1 -30.5q1 -39 1.5 -75.5t-15.5 -69.5q4 -26 -3 -51t-7 -51zM487 687q0 24 10 41t25 17q14 0 24.5 -17t10.5 -41q0 -23 -10.5 -40t-24.5 -17q-15 0 -25 17t-10 40zM464 -79h12l-10 -36t-10 -37q-20 10 -32 30t-25 43h18q5 -11 11 -19t14 -14
q12 14 22 33zM334 508q-3 16 0 34.5t5 35.5q2 26 7 48t17 39q14 -44 17.5 -89.5t3.5 -91.5q0 -45 -1 -91.5t4 -92.5q8 -20 17 -45t13 -48q5 -32 9 -66.5t4 -67.5q4 4 11 5.5t15 1t16 -2.5t13 -3q9 58 27.5 109.5t38.5 102.5q3 8 7.5 19t9.5 23t8.5 23.5t5.5 20.5q1 5 1 11
v11q0 52 -20.5 91.5t-48.5 56.5q-15 9 -32.5 19t-34.5 23.5t-31 31.5t-21 45q5 14 12.5 26t18.5 11q16 -25 44 -52t56.5 -55.5t52 -57.5t31.5 -57q8 -25 6 -54.5t-10 -52.5q-14 -39 -29 -76t-30 -74.5t-29 -76t-24 -80.5q2 -5 3.5 -10.5t1.5 -11.5q0 -4 -2 -10
q-8 -30 -14.5 -58t-18.5 -51h-47q-2 4 -4 7.5t-4 8.5q0 10 -2 19.5t-3 20.5q-8 20 -16.5 42.5t-8.5 48.5q0 29 6 55.5t6 55.5q0 33 -10 70t-21.5 78t-20 86t-5.5 95zM681 354q0 17 10 17t10 -17t-10 -17t-10 17zM506 676q0 -17 10 -17q11 0 11 17t-11 17q-10 0 -10 -17z" />
    <glyph glyph-name="space" unicode=" " horiz-adv-x="333" 
 />
    <glyph glyph-name="exclam" unicode="!" horiz-adv-x="250" 
d="M211 526q1 10 -4 16.5t-13 6.5h-141q-16 0 -16 -20q1 -11 2 -31.5t2.5 -43t3.5 -44t4 -34.5l22 -132q1 -6 6 -10.5t10 -4.5h73q5 0 10 4.5t5 10.5zM198 2q16 0 16 19v159q0 8 -5 13.5t-12 5.5h-146q-7 0 -11.5 -5.5t-4.5 -13.5v-159q0 -8 5 -13.5t12 -5.5h146zM215 683
q0 8 -5.5 13.5t-11.5 5.5h-147q-7 0 -11.5 -5.5t-4.5 -13.5v-99q0 -8 5 -13t12 -5h147q6 0 11 5t5 13v99z" />
    <glyph glyph-name="quotedbl" unicode="&#x22;" horiz-adv-x="451" 
d="M194 515q8 0 13 5t5 13v112q0 7 -5 12t-13 5h-144q-8 0 -13 -5t-5 -12l1 -112q0 -8 5 -13t13 -5h143zM419 533v63l-1 49q0 7 -5 12t-13 5h-142q-8 0 -13.5 -5t-5.5 -12v-112q0 -8 5.5 -13t13.5 -5h143q8 0 13 5t5 13zM190 491h-84q-6 0 -11.5 -4.5t-6.5 -10.5
q-4 -19 -15 -33t-31 -24q-5 -2 -7.5 -6.5t-2.5 -9.5v-59q0 -8 6.5 -13.5t14.5 -4.5q130 18 155 143zM395 491h-82q-8 0 -13 -5t-5 -13q0 -2 -0.5 -2.5t-0.5 -1.5v3q-2 -8 -3 -14.5t-3 -7.5q-8 -16 -37 -29q-4 -2 -8 -7t-4 -10v-61q0 -8 6.5 -14t15.5 -4q48 10 82 31.5
t51 54.5l-1 -1q14 23 20 60z" />
    <glyph glyph-name="numbersign" unicode="#" horiz-adv-x="549" 
d="M472 174q8 0 13.5 5t5.5 13v64q0 8 -5.5 13.5t-13.5 5.5h-62l8 66q1 9 -4.5 15.5t-14.5 6.5h-62q-17 0 -19 -16l-10 -72h-74l9 66q2 9 -3.5 15.5t-14.5 6.5h-64q-16 0 -18 -16l-10 -72h-82q-8 0 -13 -5.5t-5 -13.5v-64q0 -8 5 -13t13 -5h68l-23 -171q-2 -9 3.5 -15.5
t14.5 -6.5h63q6 0 11.5 5t6.5 11l24 177h76l-23 -171q-2 -9 3.5 -15.5t14.5 -6.5h63q7 0 12.5 5t6.5 11l24 177h76zM497 419q8 0 13.5 5.5t5.5 13.5v63q0 8 -5.5 13.5t-13.5 5.5h-54l24 171q2 9 -4 15.5t-15 6.5h-62q-7 0 -12.5 -5t-6.5 -11l-25 -177h-76l24 171
q2 9 -3.5 15.5t-14.5 6.5h-63q-6 0 -11.5 -5t-6.5 -11l-25 -177h-91q-8 0 -13 -5.5t-5 -13.5v-64q0 -8 5 -13.5t13 -5.5h77l-1 -7q-2 -9 4 -15.5t14 -6.5h64q16 0 19 17l2 13h74l-1 -9q-1 -9 5 -15t14 -6h63q15 0 18 17l2 13h68z" />
    <glyph glyph-name="dollar" unicode="$" horiz-adv-x="662" 
d="M612 180l-295 301q-9 10 -20.5 5.5t-11.5 -18.5v-3q-39 10 -39 31v2q0 11 9 19q6 5 5.5 13t-5.5 14l-97 100q-12 12 -24 2q-74 -58 -74 -171q0 -95 83 -148q25 -15 60 -28.5t81 -21.5v-110q-59 6 -139 53q-13 6 -24 -3l-86 -99q-6 -8 -4.5 -16t9.5 -13q68 -42 128.5 -63
t115.5 -24v-98q0 -8 5.5 -13.5t13.5 -5.5h72q8 0 13.5 5.5t5.5 13.5v97q48 7 86.5 21t69.5 39q25 20 41 45t25 55zM440 221q0 -19 -21 -38q-10 -9 -24 -14v87q20 -5 25 -8q20 -11 20 -27zM598 621q-111 71 -202 80v87q0 8 -5.5 13.5t-13.5 5.5h-75q-8 0 -13 -5.5t-5 -13.5
v-86q-26 -3 -50 -9.5t-44 -14.5q-10 -5 -12 -14t6 -17l100 -103q2 -2 4 -2q1 -3 3 -3l73 -75q9 -10 20.5 -5.5t11.5 18.5v56q49 -16 100 -39q5 -3 12 -1.5t11 5.5q23 28 43 50.5t39 42.5zM595 228q9 -10 20.5 -5t11.5 19q-2 76 -50 124.5t-140 71.5q-7 2 -12.5 -1t-8.5 -8
t-2.5 -11.5t5.5 -11.5z" />
    <glyph glyph-name="percent" unicode="%" horiz-adv-x="884" 
d="M850 223q0 96 -32 155q-22 43 -56 64t-79 21h-3q-92 0 -135 -81h1q-14 -26 -21.5 -53.5t-11.5 -56.5q0 -3 2 -8.5t4 -7.5l94 -94q10 -10 21.5 -4.5t10.5 19.5q0 10 -0.5 20.5t-0.5 22.5v12q0 56 9.5 83.5t26.5 26.5q36 -1 36 -109v-14q0 -88 -23 -105q-7 -6 -7.5 -14
t5.5 -15l60 -60q12 -12 25 -2q25 19 41 49v-1q34 64 33 152zM358 379l-86 86q-10 10 -21.5 5.5t-11.5 -18.5v-13q0 -108 -32 -108h-1q-39 0 -39 115v21q0 24 3.5 42.5t8.5 32.5q4 11 -4 20l-63 63q-6 7 -14 6t-14 -7q-5 -5 -7.5 -10t-6.5 -11q-17 -32 -27 -71t-10 -86
q2 -233 178 -233q91 0 131 88q15 30 21 61zM676 645q4 7 1.5 14.5t-10.5 10.5l-75 40q-7 4 -14.5 1.5t-11.5 -9.5q-28 -54 -50.5 -96.5t-41.5 -77.5l-23 -46t-19 -35l-31 -56q-5 -11 4 -22l63 -62q8 -8 17 -6.5t14 10.5zM467 253q3 5 1.5 11.5t-5.5 9.5l-62 62q-7 8 -16 6.5
t-14 -11.5q-57 -107 -97.5 -183.5t-65.5 -123.5q-4 -8 -1.5 -15t9.5 -11q33 -16 51.5 -24.5t23.5 -11.5q8 -5 15.5 -2.5t11.5 10.5zM373 455q0 44 -8.5 80t-25.5 67q-43 83 -126 83h-3q-20 0 -37 -4t-34 -12q-8 -4 -10 -13.5t5 -16.5l206 -205q10 -9 21.5 -5t11.5 18v8z
M713 26l-167 165q-5 5 -11 5.5t-11 -1.5t-8 -7.5t-2 -12.5q5 -29 11.5 -54t17.5 -46q46 -84 139 -84q7 0 11.5 0.5t9.5 1.5z" />
    <glyph glyph-name="ampersand" unicode="&#x26;" horiz-adv-x="693" 
d="M660 24v104q0 9 -6.5 15t-15.5 4q-5 -1 -9 -1.5t-9 -0.5q-30 0 -52 16q17 30 33 66.5t31 82.5q2 7 -1 13.5t-11 9.5l-116 45q-9 4 -16.5 -1t-9.5 -14q-4 -17 -8 -33.5t-9 -30.5l-59 85q20 11 38.5 24.5t34.5 30.5q42 46 42 107q0 77 -53 120q-41 34 -99 41q-9 1 -15 -4.5
t-6 -14.5v-106q0 -3 2.5 -8t4.5 -7l5 -3q6 -5 6 -12q0 -11 -18 -31v-335l12 -18q-5 -2 -8.5 -7.5t-3.5 -10.5v-121q0 -11 7 -16t17 -2l6 2q13 5 31 12.5t43 20.5q42 -32 80 -38q13 -2 20.5 -3.5t15.5 -1.5q3 0 5.5 0.5t5.5 1.5h6q5 0 13 0.5t19 0.5q5 -1 11 -1h17zM318 19
v110q0 8 -4.5 13.5t-12.5 5.5q-89 3 -89 79v3q0 44 53 80l19 -28q8 -12 21 -8t13 18v228q-5 11 -8.5 18.5t-3.5 10.5v2q0 5 7 12q2 2 3.5 6.5t1.5 6.5v110q0 10 -6.5 15.5t-14.5 3.5q-54 -7 -89 -35q-58 -43 -58 -126q0 -48 33 -103q-150 -69 -150 -215q0 -105 71 -168
q33 -29 74.5 -44t92.5 -15h4h14t13 1z" />
    <glyph glyph-name="quotesingle" unicode="'" horiz-adv-x="193" 
d="M176 507v145q0 8 -4.5 13t-11.5 5h-127q-7 0 -11.5 -5t-4.5 -13v-148q0 -7 4.5 -12t11.5 -5h36q-2 -13 -3 -17q-6 -30 -37 -42q-11 -6 -11 -17v-62q0 -9 6 -14.5t14 -3.5q62 14 100 59t38 117z" />
    <glyph glyph-name="parenleft" unicode="(" horiz-adv-x="360" 
d="M326 -101q4 5 3 13t-6 13q-133 129 -133 348v5q0 8 -5 13.5t-12 5.5h-122q-8 0 -13 -5.5t-5 -13.5v-4q0 -137 62 -247q26 -48 66.5 -94t95.5 -92q5 -5 12 -4t12 7zM326 662l-44 44q-5 4 -12 4q-6 0 -11 -3q-98 -78 -152.5 -168t-68.5 -194q-1 -8 4.5 -15t13.5 -7h121
q7 0 12 5t5 12q7 67 32 129q30 82 101 165z" />
    <glyph glyph-name="parenright" unicode=")" horiz-adv-x="360" 
d="M327 273q0 136 -62 248q-26 48 -66 94.5t-96 91.5q-5 4 -11.5 3t-11.5 -6l-46 -55q-5 -5 -4 -13.5t7 -13.5q133 -129 133 -348v-4q0 -8 5 -13.5t12 -5.5h123q17 0 17 19v3zM304 225h-121q-7 0 -12 -5t-5 -13q-4 -33 -12 -65t-19 -62h2q-17 -41 -42 -82.5t-62 -83.5
q-5 -6 -4.5 -14t6.5 -14l44 -44q4 -5 11 -5t12 4q96 78 151.5 168t69.5 194z" />
    <glyph glyph-name="asterisk" unicode="*" horiz-adv-x="385" 
d="M353 572l-21 65q-2 7 -9 10.5t-14 1.5l-67 -22v67q0 8 -5 13t-13 5h-68q-8 0 -13 -5t-5 -13v-67l-67 18q-8 2 -13.5 -1.5t-7.5 -11.5l-18 -63q-2 -7 1 -13.5t10 -8.5l64 -19l-38 -54q-4 -5 -2.5 -12t7.5 -12l55 -38q13 -8 24 4l41 55l39 -54q5 -5 11.5 -7t12.5 2
q15 10 29 19t28 17q8 5 9 12t-4 13l-42 58q33 13 63 18z" />
    <glyph glyph-name="plus" unicode="+" horiz-adv-x="603" 
d="M577 227q8 0 13.5 5t5.5 13v97q0 8 -6 13.5t-14 5.5h-206v209q0 8 -5.5 13.5t-13.5 5.5h-98q-8 0 -13 -5.5t-5 -13.5v-209h-209q-8 0 -13.5 -5.5t-5.5 -13.5v-97q0 -8 6 -13t14 -5h209v-208q0 -8 5 -13.5t13 -5.5h98q8 0 13.5 5.5t5.5 13.5v208h206z" />
    <glyph glyph-name="comma" unicode="," horiz-adv-x="193" 
d="M176 23v145q0 8 -4.5 13t-11.5 5h-127q-7 0 -11.5 -5t-4.5 -13v-149q0 -8 4.5 -13t11.5 -5h33q-1 -15 -8 -25q-1 -5 -35 -40q-2 -1 -3.5 -5.5t-1.5 -7.5v-60q0 -9 6 -14t14 -3q138 45 138 177z" />
    <glyph glyph-name="hyphen" unicode="-" horiz-adv-x="295" 
d="M255 175q17 0 17 16v111q0 7 -5 11.5t-13 4.5h-213q-8 0 -13 -4.5t-5 -11.5v-111q0 -7 5.5 -11.5t13.5 -4.5h213z" />
    <glyph glyph-name="period" unicode="." horiz-adv-x="193" 
d="M160 0q16 0 16 16v136q0 16 -16 16h-127q-16 0 -16 -16v-136q0 -16 16 -16h127z" />
    <glyph glyph-name="slash" unicode="/" horiz-adv-x="511" 
d="M352 382q5 10 -0.5 18.5t-16.5 8.5h-129q-5 0 -10 -3.5t-7 -8.5l-155 -368q-4 -10 1 -18t16 -8h130q5 0 10 3.5t7 7.5l145 346zM461 703h-132q-5 0 -10 -3.5t-7 -8.5l-96 -230q-4 -11 1 -19t16 -8h128q5 0 10 3.5t7 8.5l30 73q21 51 37.5 89t32.5 67z" />
    <glyph glyph-name="zero" unicode="0" horiz-adv-x="543" 
d="M491 341h-135q-8 0 -13.5 -5t-5.5 -13q-6 -167 -65 -167h-1q-59 0 -67 167q0 8 -5 13t-13 5h-135q-8 0 -13 -5.5t-5 -13.5q2 -62 13 -112t33 -91q61 -115 189 -115q132 0 196 121v-1q20 40 32 89t14 109zM491 367q8 0 14 5.5t5 14.5q-6 119 -45 196q-59 119 -193 119
q-129 0 -193 -126q-20 -39 -31.5 -86t-13.5 -103q-1 -9 4.5 -14.5t13.5 -5.5h134q8 0 13 5t5 13q7 161 63 161q64 -1 70 -161q0 -8 5.5 -13t13.5 -5h135z" />
    <glyph glyph-name="one" unicode="1" horiz-adv-x="365" 
d="M316 0q8 0 13 5.5t5 13.5v399q0 8 -5.5 13.5t-13.5 5.5h-140q-7 0 -12 -5.5t-5 -13.5v-399q0 -8 5.5 -13.5t12.5 -5.5h140zM316 462q8 0 13 5.5t5 13.5v171q0 8 -5.5 13.5t-13.5 5.5h-104q-4 0 -8.5 -3t-6.5 -6q-11 -23 -26.5 -38.5t-34.5 -25.5q-14 -8 -36.5 -13
t-52.5 -8q-6 -1 -10.5 -6.5t-4.5 -12.5v-97q0 -9 5.5 -14.5t14.5 -4.5l64 8q15 2 29.5 5t27.5 7h4h140z" />
    <glyph glyph-name="two" unicode="2" horiz-adv-x="531" 
d="M498 477q-1 53 -18 93.5t-52 69.5l2 -1q-32 27 -73 39t-93 12q-55 -1 -96.5 -17t-73.5 -47q-62 -61 -62 -172v-22q0 -8 5 -13.5t13 -5.5l147 -8q9 -1 14.5 6t3.5 16q-2 17 -2.5 29.5t-0.5 22.5q0 63 53 63q44 0 44 -73q0 -39 -26 -86q-5 -11 1 -20t17 -9h156q5 0 10 3.5
t7 8.5q24 57 24 111zM479 4q8 0 14 5.5t6 13.5v117q0 8 -6 13.5t-14 5.5h-184q41 32 70.5 60t49.5 52l-3 -1q7 7 11 12l8 10q0 3 5 8q6 10 0.5 19.5t-17.5 9.5h-164q-3 0 -7.5 -2.5t-6.5 -4.5q-8 -8 -14 -15.5t-15 -15.5q-42 -42 -169 -142q-2 -2 -5 -7t-3 -8v-111
q0 -8 6 -13.5t14 -5.5h424z" />
    <glyph glyph-name="three" unicode="3" horiz-adv-x="551" 
d="M518 214q0 60 -37 106q-5 5 -13.5 12.5t-13.5 11.5h-214q-8 0 -13.5 -5.5t-5.5 -13.5v-24q0 -10 6.5 -15.5t15.5 -3.5q16 3 21 3q32 -2 52 -20q18 -18 18 -46v-2q0 -17 -4 -29t-12 -22q-13 -19 -38 -19h-4q-65 0 -65 71v11q0 2 0.5 3.5t0.5 3.5v8q0 8 -5.5 14t-13.5 5
l-143 -10q-7 -1 -12 -6t-5 -12v-14q0 -115 67 -175q62 -56 175 -56q51 0 93.5 14.5t75.5 43.5v-1q74 62 74 163v4zM502 493q0 95 -64 146q-29 23 -66 35t-84 12q-217 -1 -244 -208q-1 -8 4 -14.5t13 -7.5l146 -13q8 -1 14 4.5t6 13.5v6q0 29 9 44q12 21 30 21q54 -1 54 -47
q0 -26 -15.5 -50t-36.5 -28q-8 -1 -11.5 -7t-3 -12.5t4.5 -12t12 -5.5h178q3 0 8 2.5t7 4.5q15 20 27 53.5t12 62.5z" />
    <glyph glyph-name="four" unicode="4" horiz-adv-x="586" 
d="M536 148q8 0 13 5.5t5 13.5v106q0 8 -5.5 13.5t-13.5 5.5h-95t-95 -1q-39 -1 -77.5 -1.5t-76.5 -0.5l19 27q3 5 6.5 13.5t5 16.5t0 13.5t-7.5 5.5h-110q-8 0 -15 -7l-57 -73q2 -20 2.5 -42t0.5 -39v-35q-2 -8 4 -14.5t15 -6.5h234v-128q0 -8 5 -13.5t13 -5.5h145
q8 0 13.5 5.5t5.5 13.5v128h66zM452 315q8 0 13.5 5.5t5.5 13.5v320q0 8 -5.5 13.5t-13.5 5.5h-137q-3 0 -8 -2.5t-7 -5.5l-172 -244q-7 -10 -1.5 -20t17.5 -10h105q10 0 16 8q8 12 15.5 23.5t13.5 22.5l-3 -111q0 -8 6 -13.5t14 -5.5h141z" />
    <glyph glyph-name="five" unicode="5" horiz-adv-x="551" 
d="M518 246q0 13 -1 28.5t-3 31.5t-4.5 30t-6.5 25q-2 5 -7.5 8.5t-10.5 3.5h-160q-7 0 -11.5 -6.5t-6.5 -15t-1.5 -17t5.5 -13.5q11 -11 15 -30t4 -45q-1 -97 -55 -97h-2q-57 0 -57 84q0 8 -6 13.5t-14 5.5l-146 -5q-8 0 -12.5 -6t-4.5 -14q3 -103 66 -166
q32 -31 72.5 -47.5t91.5 -16.5q111 0 183 67h-1q73 67 73 182zM493 659q1 9 -5 15t-14 6h-356q-7 0 -12.5 -4t-6.5 -12l-30 -244q-1 -8 4.5 -14.5t13.5 -6.5h344q14 0 18.5 11.5t-6.5 21.5q-52 46 -131 46h-5q-38 0 -69 -15l7 61h220q7 0 12.5 5t6.5 12zM219 373h-142
q-5 0 -10.5 -4t-6.5 -9l-1 -3q-2 -4 -1.5 -11t2.5 -14t5 -12.5t8 -6.5l127 -22q5 -1 11 2t8 8q3 7 6.5 11.5t6.5 8.5z" />
    <glyph glyph-name="six" unicode="6" horiz-adv-x="551" 
d="M518 246q0 55 -22 102q-2 5 -7 7.5t-10 2.5h-427q-16 0 -18 -17l-1 -8q0 -70 13 -126t38 -99q63 -109 192 -109h4q103 0 171 70q67 68 67 172v5zM340 231q0 -42 -15.5 -62t-44.5 -20h-2q-24 0 -38 23v-1q-13 22 -13 54q0 40 13 63q6 11 17 17t25 6h3q55 0 55 -76v-4z
M427 384q14 0 18 12.5t-7 21.5q-46 37 -112 37q-67 0 -110 -37q-2 -1 -2.5 -2t-1.5 -2q11 128 67 128h1q40 0 40 -53q0 -8 6 -14t14 -5l147 15q8 1 13.5 8t3.5 15q-36 187 -214 187q-231 0 -253 -290q-1 -9 4.5 -15t13.5 -6h138q10 0 16 11q4 -11 18 -11h200z" />
    <glyph glyph-name="seven" unicode="7" horiz-adv-x="543" 
d="M510 538v119q0 8 -5.5 13.5t-13.5 5.5h-440q-8 0 -13 -5.5t-5 -13.5v-119q0 -8 5 -13.5t13 -5.5h259q-46 -58 -77 -110q-6 -11 -1 -20.5t17 -9.5l140 -2q4 0 9 3t7 8q9 17 20.5 36.5t25.5 37.5zM359 354h-146q-4 0 -9 -3t-7 -6l-12 -24q-2 -5 -4 -8.5t-4 -7.5
q-25 -51 -47 -119.5t-44 -156.5q-2 -9 3 -16t15 -7h170q19 0 19 18q2 64 22.5 139.5t60.5 163.5z" />
    <glyph glyph-name="eight" unicode="8" horiz-adv-x="541" 
d="M508 200q0 78 -25 116q-8 12 -22.5 25t-34.5 27h-314q-79 -58 -79 -152q1 -51 19.5 -89.5t53.5 -67.5q61 -50 155 -50h4q91 0 159 43q84 52 84 145v3zM325 228q0 -34 -14 -51q-13 -19 -36 -19h-3q-24 0 -40 19q-15 18 -15 45v5q0 76 51 76q28 0 42 -19q15 -21 15 -51v-5z
M484 515q-2 94 -69 144q-29 21 -64.5 32.5t-78.5 11.5h-6q-87 0 -144 -48q-64 -52 -64 -139v-3q0 -28 7 -51t19 -42h-1q3 -5 7.5 -9.5t10.5 -11.5q2 -2 6.5 -4t6.5 -2h315q3 0 7.5 2.5t6.5 4.5q41 48 41 115zM312 495q0 -57 -43 -57q-16 0 -28 17v-1q-10 18 -10 42
q0 60 40 60h2q39 0 39 -58v-3z" />
    <glyph glyph-name="nine" unicode="9" horiz-adv-x="551" 
d="M518 364q0 136 -50 221q-64 108 -196 108h-12q-8 0 -13 -5.5t-5 -13.5v-110q0 -11 7 -16t17 -1h2q19 0 34 -13q22 -20 22 -63v-5q0 -18 -4 -32.5t-11 -26.5q-14 -24 -42 -24h-7q-8 0 -13 -5.5t-5 -13.5v-102q0 -9 6.5 -15t15.5 -4q41 9 75 37q-4 -65 -22.5 -96.5
t-47.5 -31.5h-9q-8 0 -13 -5.5t-5 -13.5l2 -115q0 -8 5.5 -13.5t13.5 -5.5q255 1 255 365zM217 260v160q-7 19 -7 37v6q0 11 2 22.5t5 21.5v157q0 10 -7 15t-16 3q-55 -16 -95 -55q-66 -66 -66 -175q0 -88 52 -149q46 -52 110 -62zM217 26v177q0 9 -6.5 14.5t-14.5 4.5
l-134 -14q-8 -1 -13 -7.5t-3 -15.5q30 -146 148 -177z" />
    <glyph glyph-name="colon" unicode=":" horiz-adv-x="226" 
d="M177 0q16 0 16 19v158q0 8 -4.5 13t-11.5 5h-128q-7 0 -11.5 -5t-4.5 -13v-158q0 -19 16 -19h128zM177 332q7 0 11.5 5t4.5 13v155q0 19 -16 19h-128q-16 0 -16 -19v-155q0 -8 4.5 -13t11.5 -5h128z" />
    <glyph glyph-name="semicolon" unicode=";" horiz-adv-x="226" 
d="M193 41v139q0 8 -4.5 13.5t-11.5 5.5h-128q-7 0 -11.5 -5.5t-4.5 -13.5v-160q0 -19 16 -19h30q-2 -11 -4 -19t-4 -12q-4 -11 -11 -18t-17 -12q-5 -2 -8 -7.5t-3 -10.5v-64q0 -9 5.5 -15t13.5 -4q142 31 142 202zM178 338q16 0 16 19v159q0 19 -16 19h-129q-16 0 -16 -19
v-159q0 -19 16 -19h129z" />
    <glyph glyph-name="less" unicode="&#x3c;" horiz-adv-x="562" 
d="M509 -6q10 -5 18 0.5t8 16.5v63q0 11 -11 17l-358 163l358 162q5 2 8 7t3 10v63q0 11 -8 16.5t-18 0.5l-470 -214q-5 -2 -8.5 -7t-3.5 -10v-57q0 -5 3.5 -10t8.5 -7z" />
    <glyph glyph-name="equal" unicode="=" horiz-adv-x="608" 
d="M622 132q8 0 13.5 5t5.5 13v92q0 7 -5.5 12t-13.5 5h-636q-8 0 -13.5 -5t-5.5 -12v-92q0 -8 5.5 -13t13.5 -5h636zM622 298q8 0 13.5 4.5t5.5 12.5v91q0 7 -5.5 12t-13.5 5h-636q-8 0 -13.5 -5t-5.5 -12v-91q0 -17 19 -17h636z" />
    <glyph glyph-name="greater" unicode="&#x3e;" horiz-adv-x="562" 
d="M524 208q5 2 8 7t3 10v57q0 11 -11 17l-471 214q-10 5 -18 -0.5t-8 -16.5v-63q0 -5 3.5 -10t8.5 -7l356 -162l-356 -163q-5 -2 -8.5 -7t-3.5 -10v-63q0 -11 8 -16.5t18 -0.5z" />
    <glyph glyph-name="question" unicode="?" horiz-adv-x="583" 
d="M550 521q0 106 -83 156q-33 20 -75.5 29.5t-93.5 9.5q-50 0 -92 -12q-11 -3 -14.5 -13t5.5 -19l101 -101q58 -8 63 -66l113 -112q14 -12 27 1q49 55 49 127zM449 380l-81 81q-15 15 -28 -2q-6 -9 -17 -17l-88 -65q-54 -56 -54 -127q0 -8 5 -13.5t13 -5.5h116q5 0 10 3
t7 7q11 22 29 42.5t45 38.5q5 5 15 10q14 11 25 18zM333 3q8 0 13 5.5t5 13.5v158q0 8 -5 13.5t-13 5.5h-145q-8 0 -13.5 -5.5t-5.5 -13.5v-158q0 -8 5.5 -13.5t13.5 -5.5h145zM243 589l-81 82q-4 4 -10 5t-10 -1l-11 -5q-72 -47 -98 -141q-2 -7 1.5 -13.5t10.5 -8.5
l130 -43q8 -3 15 1.5t9 13.5q9 60 41 81z" />
    <glyph glyph-name="at" unicode="@" horiz-adv-x="763" 
d="M703 534q0 121 -93 201q-43 36 -95 55t-113 19q-133 0 -230 -97q-87 -87 -96 -208q-1 -8 4 -13t13 -5h60q7 0 11.5 4.5t5.5 10.5q9 90 65 153v-1q66 71 167 71q91 0 153 -53q2 -3 5.5 -6t5.5 -6h-49q-12 0 -16 -11l-6 -17q-35 42 -90 41q-93 0 -153 -80q-31 -40 -42 -84
q-2 -9 2 -15.5t14 -6.5h70q5 0 9.5 3.5t6.5 7.5q7 18 18 34q33 49 77 49q20 -1 35 -19q16 -18 16 -41v-7q0 -3 -1 -7q-2 -8 3 -14t14 -6h57q13 0 16 12q8 28 14.5 50.5t11.5 39.5q5 15 8.5 26.5t5.5 18.5q29 -44 29 -103v-3q0 -4 -0.5 -10t-0.5 -12q-1 -8 3.5 -13.5
t12.5 -5.5h53q6 0 10.5 4.5t6.5 10.5q2 7 2 16v17zM665 329h-53q8 8 16 17t16 19q14 19 24 37.5t18 38.5l-16 22h-54q-5 0 -9 -3.5t-6 -6.5q-3 -8 -6 -14.5t-8 -14.5q-33 -58 -71 -58q-1 0 -1 2v3q0 8 4 26t12 44q2 9 -2.5 15.5t-13.5 6.5h-57q-4 0 -8.5 -3.5t-6.5 -6.5
q-3 -8 -7.5 -15.5t-9.5 -15.5v1q-35 -51 -74 -51q-26 0 -39 17q-13 16 -13 42v15q0 8 -5 12.5t-12 4.5h-68q-7 0 -12 -4.5t-5 -12.5v-18q0 -60 37 -103q20 -23 44 -35t54 -12h3q23 0 45.5 10t44.5 28q16 -38 61 -38h3q23 0 44.5 6.5t42.5 18.5q-29 -28 -65 -44h1
q-50 -24 -104 -24q-103 0 -173 68q-58 58 -66 145q-2 15 -17 15h-59q-8 0 -13 -5.5t-4 -13.5q11 -116 94 -199q95 -95 232 -95h4q82 0 156 43l-1 -1q37 20 66 48.5t51 63.5z" />
    <glyph glyph-name="A" unicode="A" horiz-adv-x="768" 
d="M716 0q11 0 17 7.5t1 18.5l-43 115l-232 122h-132q4 11 7.5 21.5t6.5 21.5q5 16 -9 23l-134 70q-8 5 -16 1.5t-11 -11.5l-137 -363q-4 -10 1.5 -17.5t16.5 -7.5h176q5 0 11 4t7 9l28 92h219l31 -93q2 -5 7 -9t11 -4h174zM635 201q13 -6 22 2t4 21l-170 463q-2 5 -7.5 8.5
t-10.5 3.5h-171q-5 0 -10.5 -3.5t-7.5 -8.5l-90 -238q-2 -6 0.5 -13.5t8.5 -9.5l131 -68q8 -5 16 -1t10 12q7 20 12.5 43t12.5 46l44 -144q1 -2 4.5 -5.5l5.5 -5.5z" />
    <glyph glyph-name="B" unicode="B" horiz-adv-x="670" 
d="M637 207q-1 109 -113 153h-473q-8 0 -13 -5t-5 -13v-323q0 -8 5 -13.5t13 -5.5l189 -1h76q91 0 138 9h-1q86 15 127 62q57 63 57 137zM434 219q0 -30 -20 -45q-23 -17 -57 -17h-130v125h139q27 0 48 -19q20 -18 20 -44zM611 515q-2 92 -68 138q-49 35 -152 44
q-41 3 -156 3h-65l-119 -1q-8 0 -13 -5.5t-5 -13.5v-274q0 -8 5 -13.5t13 -5.5h503q2 0 6.5 2t6.5 4q44 44 44 122zM414 486q-1 -47 -87 -47h-100v101h130q27 0 42 -16q15 -12 15 -38z" />
    <glyph glyph-name="C" unicode="C" horiz-adv-x="705" 
d="M354 2v147q0 5 -3.5 10t-6.5 7q-32 15 -54 50q-18 28 -26 62.5t-8 76.5q0 79 33 131q22 36 54 51q4 2 7.5 7t3.5 10v141q0 22 -22 19q-112 -18 -188 -107q-89 -102 -89 -260q1 -81 22 -146t65 -116q73 -85 190 -102zM660 511q8 4 10.5 11.5t-2.5 15.5q-97 169 -269 181
q-8 1 -14 -4.5t-6 -14.5v-136q0 -8 5 -13t11 -6q72 -10 108 -87q3 -7 10.5 -10t15.5 1zM662 181l-130 69q-7 4 -14 1.5t-11 -8.5q-48 -83 -111 -89q-7 -1 -12 -6.5t-5 -12.5v-137q0 -8 6 -14t14 -5q42 4 78.5 15.5t68.5 32.5q29 19 60 50t63 76z" />
    <glyph glyph-name="D" unicode="D" horiz-adv-x="693" 
d="M641 350h-161q-7 0 -13 -5t-6 -13q-2 -47 -15.5 -80t-38.5 -50h1q-49 -34 -165 -34h-3h-3v163q0 8 -5.5 13.5t-13.5 5.5h-166q-8 0 -13 -5.5t-5 -13.5v-311q0 -8 5 -13.5t13 -5.5h291q155 0 241 105h-1q71 88 77 224zM640 377q8 0 14 5.5t5 13.5q-7 119 -67 191
q-65 80 -207 103q-34 5 -82.5 8t-112.5 3h-45l-93 -2q-8 0 -13 -5.5t-5 -13.5v-285q0 -8 5 -13t13 -5h166q8 0 13.5 5t5.5 13v129h54q150 0 168 -131q1 -7 6.5 -11.5t12.5 -4.5h162z" />
    <glyph glyph-name="E" unicode="E" horiz-adv-x="617" 
d="M566 1q8 0 13 5.5t5 13.5v139l-13 9h-336v121h110q13 0 17.5 11t-4.5 21l-125 127l-2 2l-2 2l-164 166q-9 9 -20.5 5t-11.5 -18v-585q0 -8 5.5 -13.5t13.5 -5.5h514zM539 535q8 0 13 5t5 13v131q0 8 -5 13.5t-13 5.5h-476q-14 0 -18 -11.5t5 -20.5l153 -155
q9 -10 20.5 -5.5t11.5 18.5v6h304zM517 289q8 0 13.5 5t5.5 13v128q0 8 -5.5 13.5t-13.5 5.5h-209q-13 0 -17.5 -11.5t4.5 -20.5l126 -128q2 -2 6.5 -3.5t6.5 -1.5h83z" />
    <glyph glyph-name="F" unicode="F" horiz-adv-x="604" 
d="M258 268q19 0 19 19v128q0 19 -19 19h-24v101h24q8 0 13.5 5.5t5.5 13.5v128q0 8 -5.5 13.5t-13.5 5.5h-206q-8 0 -13.5 -5.5t-5.5 -13.5v-662q0 -8 5.5 -13.5t13.5 -5.5h163q8 0 13 5.5t5 13.5v248h25zM554 535q8 0 13 5.5t5 13.5v125q0 7 -4.5 12.5t-11.5 6.5
q-20 3 -35 3h-200q-8 0 -13.5 -5.5t-5.5 -13.5v-128q0 -8 5.5 -13.5t13.5 -5.5h233zM528 268q19 0 19 19v128q0 19 -19 19h-207q-8 0 -13.5 -5.5t-5.5 -13.5v-128q0 -8 5.5 -13.5t13.5 -5.5h207z" />
    <glyph glyph-name="G" unicode="G" horiz-adv-x="728" 
d="M301 15v160q0 3 -3 8t-5 7q-5 5 -11 12t-12 15v-1q-17 26 -25.5 61.5t-8.5 77.5q2 92 36 141q5 8 11 14l11 11q2 2 4.5 6.5t2.5 7.5v158q0 11 -7.5 15.5t-17.5 2.5q-91 -26 -152 -96q-91 -106 -91 -270q0 -149 84 -250q63 -77 161 -99zM676 1q8 0 13.5 5.5t5.5 13.5v371
q0 8 -6 13.5t-14 5.5h-288q-8 0 -13 -5.5t-5 -13.5v-127q0 -8 5.5 -13.5t13.5 -5.5h126q-27 -87 -125 -87h-3q-24 0 -37 3q-10 2 -16.5 -2.5t-6.5 -15.5v-135q0 -8 6 -13.5t14 -5.5h9q94 0 172 55v-24q0 -8 5.5 -13.5t13.5 -5.5h130zM680 538q7 5 8 12.5t-4 14.5
q-120 161 -300 161h-22q-10 0 -20 -2q-5 -1 -10.5 -7t-5.5 -12v-138q0 -10 7.5 -15t17.5 -3q20 5 46 5q35 0 76 -26q39 -25 56 -58q3 -8 10.5 -10t15.5 3z" />
    <glyph glyph-name="H" unicode="H" horiz-adv-x="679" 
d="M627 313q8 0 13.5 5.5t5.5 13.5v352q0 8 -5.5 13.5t-13.5 5.5h-166q-8 0 -13.5 -5.5t-5.5 -13.5v-220h-204v220q0 8 -5.5 13.5t-13.5 5.5h-168q-8 0 -13 -5.5t-5 -13.5v-352q0 -8 5 -13.5t13 -5.5h576zM627 1q8 0 13.5 5.5t5.5 13.5v249q0 8 -5.5 13.5t-13.5 5.5h-168
q-8 0 -13.5 -5.5t-5.5 -13.5v-249q0 -19 19 -19h168zM219 2q19 0 19 19v248q0 8 -5.5 13.5t-13.5 5.5h-168q-8 0 -13 -5.5t-5 -13.5v-248q0 -8 5 -13.5t13 -5.5h168z" />
    <glyph glyph-name="I" unicode="I" horiz-adv-x="232" 
d="M187 530q7 0 12 5.5t5 13.5v130q0 8 -5.5 13.5t-12.5 5.5h-142q-16 0 -16 -19v-130q0 -8 5 -13.5t12 -5.5h142zM187 -1q7 0 12 5.5t5 13.5v468q0 8 -5.5 13.5t-12.5 5.5h-142q-7 0 -11.5 -5.5t-4.5 -13.5v-468q0 -8 5 -13.5t12 -5.5h142z" />
    <glyph glyph-name="J" unicode="J" horiz-adv-x="378" 
d="M347 186v287q0 8 -5 13t-13 5h-157q-8 0 -13 -5t-5 -13v-260q0 -43 -61 -43h-22l-21 1q-8 0 -13 -5t-5 -14v-133q0 -8 5 -13.5t13 -5.5h128q169 0 169 186zM329 518q8 0 13 5.5t5 13.5v142q0 8 -5 13.5t-13 5.5h-157q-8 0 -13 -5.5t-5 -13.5v-142q0 -8 5 -13.5t13 -5.5
h157z" />
    <glyph glyph-name="K" unicode="K" horiz-adv-x="735" 
d="M680 2q12 0 17 9.5t-1 19.5q-21 35 -35.5 57t-22.5 35l-170 283q-2 4 -7.5 6.5t-8.5 2.5h-397q-19 0 -19 -19v-375q0 -19 19 -19h157q8 0 13.5 5.5t5.5 13.5v185l80 82l164 -277q2 -3 7.5 -6t8.5 -3h189zM666 701h-205q-3 0 -7.5 -2t-6.5 -4l-205 -221q-9 -10 -4.5 -21
t18.5 -11h190q2 0 6.5 2t6.5 3q27 29 51.5 55.5t45.5 49.5v-1q35 39 65.5 67.5t55.5 48.5zM212 442q8 0 13.5 5.5t5.5 13.5v221q0 8 -5.5 13.5t-13.5 5.5h-157q-8 0 -13.5 -5.5t-5.5 -13.5v-221q0 -19 19 -19h157z" />
    <glyph glyph-name="L" unicode="L" horiz-adv-x="516" 
d="M465 0q8 0 13.5 5.5t5.5 13.5v140q0 8 -5.5 13.5t-13.5 5.5h-236v158q0 5 -4 10.5t-10 7.5l-161 42q-8 2 -15 -2.5t-7 -15.5v-359q0 -8 5 -13.5t13 -5.5h415zM229 682q0 8 -5 13.5t-13 5.5h-161q-8 0 -13 -5.5t-5 -13.5v-238q0 -14 13 -18l161 -44q9 -2 16 3t7 15v282z
" />
    <glyph glyph-name="M" unicode="M" horiz-adv-x="845" 
d="M370 401q10 0 15.5 7t2.5 18l-19 65v-1q-15 53 -25.5 93t-18.5 69q-2 10 -4 19t-4 17q-2 5 -7.5 9t-10.5 4h-246q-8 0 -13.5 -5.5t-5.5 -13.5v-451q0 -8 5.5 -13.5t13.5 -5.5h155q8 0 13.5 6t5.5 14q0 9 -0.5 25.5t-1 38.5t-0.5 47v52q0 3 -0.5 6t-0.5 6q4 -6 13 -6h133z
M592 376h-134q-5 0 -10.5 -4.5t-7.5 -10.5q-5 -17 -9 -34l-8 -34q-3 14 -6 28.5t-8 29.5l-3 10q-2 6 -7 10.5t-11 4.5h-134q-10 0 -15 -7.5t-3 -16.5q4 -14 7 -28t8 -28v1l2 -6l2 -6q33 -114 51.5 -180.5t23.5 -89.5q2 -5 7.5 -10t11.5 -5h144q5 0 10.5 4t7.5 9l79 266
q5 19 10 37l10 36zM811 682q0 19 -19 19h-242q-6 0 -11 -4t-7 -9q-22 -70 -40 -136t-35 -127q-2 -10 2.5 -17t15.5 -7h135q8 0 14 8q6 -8 15 -8h153q8 0 13.5 5.5t5.5 13.5v262zM792 -1q8 0 13.5 5.5t5.5 13.5v339q0 8 -5.5 13.5t-13.5 5.5h-155q-8 0 -13.5 -5.5t-5.5 -13.5
q-2 -68 -3 -129t-2 -116v-48t-1 -45q0 -8 5.5 -14t13.5 -6h161zM215 1q8 0 13.5 5.5t5.5 13.5q0 23 -0.5 36.5t-0.5 20.5q0 8 -0.5 12t-0.5 7t-0.5 7.5t-1 12t-1 20t-0.5 31.5t-19 19h-157q-8 0 -13.5 -5.5t-5.5 -13.5v-147q0 -8 5.5 -13.5t13.5 -5.5h162z" />
    <glyph glyph-name="N" unicode="N" horiz-adv-x="659" 
d="M210 2q19 0 19 19l-4 335q5 -9 10.5 -17.5t10.5 -17.5l62 -105q40 -69 68 -114.5t42 -70.5q5 -7 8 -12t5 -9q2 -3 7.5 -6t8.5 -3h159q8 0 13 5.5t5 13.5v664q0 8 -5 13.5t-13 5.5h-49h-40t-38 -0.5t-43 -2.5q-2 0 -4 -5.5t-2 -7.5l5 -351q-21 39 -41.5 75.5t-40.5 71.5
l-16 27q-5 8 -13.5 9.5t-15.5 -5.5l-98 -99q-2 -4 -4 -10q-8 0 -12 -6l-152 -154q-2 -2 -4 -6.5t-2 -6.5v-211q0 -8 5.5 -13.5t13.5 -5.5h155zM300 544q10 10 3 23l-74 126q-2 4 -7 7t-9 3h-158q-8 0 -13.5 -5.5t-5.5 -13.5v-362q0 -14 11.5 -18.5t20.5 4.5z" />
    <glyph glyph-name="O" unicode="O" horiz-adv-x="769" 
d="M717 367h-165q-19 0 -19 -19v-7q0 -38 -10 -70t-29 -58q-42 -56 -112 -56t-111 62q-37 55 -37 129q0 8 -5.5 13.5t-13.5 5.5h-163q-8 0 -13.5 -5.5t-5.5 -13.5q3 -159 94 -259q98 -107 257 -107q158 0 257 108q93 101 95 258zM713 393q10 0 15.5 6.5t3.5 15.5
q-15 117 -92 200q-100 107 -255 107q-162 -2 -258 -106v1q-75 -81 -90 -203q-2 -9 4 -15t15 -6h163q15 0 19 16q9 45 31 81q38 58 108 58h3q76 0 117 -63q10 -16 17 -35t12 -42q3 -15 19 -15h168z" />
    <glyph glyph-name="P" unicode="P" horiz-adv-x="669" 
d="M598 577q5 5 6 12t-3 12q-7 12 -17 22t-21 20q-69 58 -181 58h-331q-8 0 -13 -5.5t-5 -13.5v-629q0 -14 10.5 -18t20.5 5l166 165q1 2 3 8l2 6q8 0 14 6l119 121q5 5 5.5 11.5t-2.5 11.5t-8 7.5t-12 0.5h-117v166h94q107 0 107 -85q0 -14 11.5 -18.5t20.5 5.5zM636 467
q0 18 -2 33.5t-5 29.5q-3 12 -13.5 15t-18.5 -6l-286 -288q-9 -10 -5 -21t18 -11h1q8 -4 23 -4q12 0 30.5 1.5t44.5 6.5q52 8 92.5 29t66.5 55h-1q27 32 41 70.5t14 85.5v4zM216 0q8 0 13.5 5.5t5.5 13.5v110q0 14 -11 17.5t-21 -4.5l-129 -110q-10 -8 -5 -20t19 -12h128z
" />
    <glyph glyph-name="Q" unicode="Q" horiz-adv-x="841" 
d="M806 71q3 9 -0.5 17t-13.5 10q-74 15 -108 42q15 30 25.5 53.5t16.5 42.5q8 29 13 59t5 62q-2 151 -82 248q-5 7 -13.5 7.5t-15.5 -6.5l-112 -112q-4 -4 -5 -10.5t2 -11.5q24 -47 24 -114q-1 -80 -39 -136h2q-44 -60 -115 -60t-112 58q-5 8 -13.5 9t-15.5 -6l-112 -113
q-12 -14 0 -26q94 -100 242 -100h4q95 0 172 44q49 -35 79 -52h-2q46 -24 104 -34q7 -2 13 2t8 9zM614 625q15 15 -1 28q-88 73 -222 73q-155 -2 -254 -95q-102 -96 -102 -246v-3q0 -143 62 -243q5 -9 13.5 -10t16.5 7l120 121q2 3 4 8.5t0 10.5q-10 34 -10 78q0 42 8 76.5
t26 60.5q38 59 109 59h4q58 0 95 -32q6 -5 13.5 -4.5t12.5 5.5z" />
    <glyph glyph-name="R" unicode="R" horiz-adv-x="689" 
d="M304 237q8 0 13.5 5t5.5 13v122q0 8 -5.5 13t-13.5 5h-68v145h68q8 0 13.5 5.5t5.5 13.5v123q0 8 -5.5 13.5t-13.5 5.5h-90q-9 0 -17.5 -0.5t-16.5 -0.5h-127q-8 0 -13 -5.5t-5 -13.5v-661q0 -8 5 -13.5t13 -5.5h166q8 0 13 5.5t5 13.5v217h67zM635 0q11 0 16 9t0 19
l-140 247q64 34 91 68q36 49 36 132q0 120 -90 179q-69 45 -181 46q-8 0 -13.5 -5.5t-5.5 -13.5v-123q0 -7 5.5 -12.5t12.5 -6.5q34 -1 49 -15q22 -15 22 -57v-4q0 -59 -72 -66q-7 -1 -12 -6t-5 -13v-209l90 -160q2 -3 7 -6t9 -3h181z" />
    <glyph glyph-name="S" unicode="S" horiz-adv-x="706" 
d="M667 170l-291 293q-85 19 -85 49v1q0 8 4 15q2 5 0.5 11.5t-4.5 10.5l-107 107q-5 5 -12 5.5t-13 -4.5q-72 -63 -72 -165v-4q0 -123 116 -173q17 -8 66 -18t131 -26q88 -17 88 -51v-1q0 -27 -36 -42q-17 -8 -35 -10.5t-39 -2.5q-46 1 -88 19.5t-80 56.5q-9 9 -20 5
q-18 -6 -35 -16t-34 -21q-24 -17 -38.5 -27.5t-22.5 -15.5q-8 -4 -9 -11.5t4 -15.5q110 -142 311 -142h4q130 0 216 54q62 38 86 98zM654 559q8 5 8.5 13.5t-6.5 14.5q-135 132 -306 132q-38 0 -71 -5.5t-62 -17.5q-10 -4 -12 -13.5t6 -17.5l107 -108q3 -3 8.5 -4.5
t9.5 -0.5h8q54 0 90 -20q11 -6 31 -20.5t49 -37.5q5 -4 11 -4q7 0 12 4zM638 234q10 -10 21.5 -5t10.5 19q-4 116 -115 162l1 -1q-11 5 -25 8.5l-34 8.5q-14 3 -20.5 -9t3.5 -23z" />
    <glyph glyph-name="T" unicode="T" horiz-adv-x="607" 
d="M387 1q8 0 13.5 5.5t5.5 13.5v409q0 2 -2 6.5t-4 6.5l-249 253q-2 2 -6.5 4t-6.5 2h-86q-8 0 -13.5 -5.5t-5.5 -13.5v-131q0 -8 5.5 -13t13.5 -5h152v-513q0 -8 5 -13.5t13 -5.5h165zM561 533q8 0 13 5t5 13v131q0 8 -5 13.5t-13 5.5h-350q-14 0 -18 -11.5t5 -20.5
l180 -183q9 -9 20.5 -5t11.5 18v34h151z" />
    <glyph glyph-name="U" unicode="U" horiz-adv-x="665" 
d="M632 287v397q0 8 -5 13.5t-13 5.5h-165q-8 0 -13.5 -5.5t-5.5 -13.5v-407q0 -62 -17 -87q-2 -2 -3 -3.5t-2 -2.5q-8 -6 -8.5 -14t6.5 -15l102 -103q5 -5 12.5 -5.5t12.5 4.5q5 4 9 7.5t10 9.5q80 80 80 219zM478 45l-112 112q-2 2 -6.5 4t-6.5 2h-15q-60 0 -81 21v-1
q-21 21 -21 78v20q0 2 -2 7t-4 7l-164 165q-9 10 -20.5 5.5t-11.5 -18.5v-176q0 -135 85 -212q80 -72 209 -72h5q39 0 73.5 7t65.5 20zM203 359q9 -9 20.5 -5t11.5 18v311q0 8 -5.5 13.5t-13.5 5.5h-163q-8 0 -13.5 -5.5t-5.5 -13.5v-145q0 -2 2 -6.5t4 -6.5z" />
    <glyph glyph-name="V" unicode="V" horiz-adv-x="731" 
d="M586 355q3 10 -2 17.5t-16 7.5h-161q-5 0 -10.5 -4t-7.5 -10l-24 -87l-26 88q-1 6 -6.5 9.5t-10.5 3.5h-160q-11 0 -16.5 -7t-1.5 -17l117 -344q2 -5 7.5 -9t10.5 -4h169q5 0 10.5 3.5t7.5 8.5zM697 676q3 10 -2 17.5t-16 7.5h-175q-5 0 -10.5 -3.5t-7.5 -8.5
q-13 -36 -30 -95.5t-42 -140.5l-7 -23q-3 -10 2.5 -17t15.5 -7h164q5 0 10.5 3.5t7.5 8.5zM303 407q10 0 15 7t3 17l-76 257q-2 5 -7 9t-11 4h-174q-11 0 -16.5 -7t-1.5 -18l88 -256q1 -5 6.5 -9t10.5 -4h163z" />
    <glyph glyph-name="W" unicode="W" horiz-adv-x="1038" 
d="M962 511q2 9 -3 16.5t-16 7.5h-160q-6 0 -11 -4.5t-7 -10.5l-3 -10q-17 -54 -23.5 -90t-11.5 -65l1 1q-1 -3 -2 -9.5t-2 -9.5q-2 -10 -2.5 -19t-2.5 -17q-8 36 -17.5 72t-21.5 73l-24 75q-2 5 -7 9.5t-11 4.5h-238q-6 0 -11.5 -4.5t-6.5 -10.5q-19 -66 -33.5 -122
t-25.5 -104q-11 66 -21 117t-22 92l-5 17q-2 6 -7.5 10.5t-10.5 4.5h-163q-10 0 -15 -7.5t-3 -16.5l129 -497q2 -5 7 -9.5t11 -4.5h172q6 0 11 4t7 9q22 68 39 122t30 96q12 39 21 72.5t17 63.5q20 -72 45 -160t58 -195q1 -5 6.5 -9t11.5 -4h172q5 0 10.5 4.5t7.5 9.5
q20 73 35 132t27 107q19 72 30 114zM620 561q10 0 15.5 7t2.5 17l-29 103q-2 5 -7 9.5t-11 4.5h-147q-6 0 -11 -4.5t-7 -9.5l-27 -103q-2 -10 3 -17t15 -7h203zM241 561q10 0 15.5 6.5t3.5 16.5q-3 17 -6.5 38t-8.5 42l-6 24q-2 5 -7 9.5t-11 4.5h-168q-10 0 -15 -7t-3 -17
l25 -103q2 -5 7 -9.5t11 -4.5h163zM1004 677q2 10 -3 17t-15 7h-167q-6 0 -11.5 -4.5t-7.5 -10.5l-22 -102q-2 -10 4 -16.5t15 -6.5h164q5 0 10.5 4.5t7.5 9.5z" />
    <glyph glyph-name="X" unicode="X" horiz-adv-x="828" 
d="M776 -1q12 0 17 10t-2 20l-244 344q-5 7 -15 7h-233q-3 0 -8 -2t-7 -5l-246 -342q-7 -10 -2 -20t17 -10h189q4 0 9 3t7 5l157 228q47 -68 85.5 -125t70.5 -104q2 -3 7 -6t9 -3h189zM756 672q7 10 2.5 20t-17.5 10h-192q-4 0 -9 -3t-7 -5l-119 -176l-113 175q-2 2 -7 5
t-9 3h-193q-12 0 -17 -10t2 -20l186 -258q2 -2 7 -4.5t8 -2.5h275q4 0 8.5 2.5t6.5 4.5z" />
    <glyph glyph-name="Y" unicode="Y" horiz-adv-x="725" 
d="M704 672q7 10 2 20t-17 10h-187q-4 0 -9 -3t-7 -6q-46 -66 -77.5 -115.5t-50.5 -84.5l-128 200q-2 3 -7 6t-9 3h-185q-12 0 -17 -9.5t2 -19.5l216 -311q2 -2 7 -5t9 -3h220q4 0 8.5 2.5t6.5 4.5zM438 0q8 0 13 5.5t5 13.5v289q0 8 -5 13.5t-13 5.5h-162q-19 0 -19 -19
v-289q0 -8 5.5 -13.5t13.5 -5.5h162z" />
    <glyph glyph-name="Z" unicode="Z" horiz-adv-x="668" 
d="M360 -1q8 0 13.5 5.5t5.5 13.5v131q0 8 -5.5 13.5t-13.5 5.5h-64l83 92v226q0 14 -12 18.5t-21 -5.5l-313 -350v-131q0 -8 5 -13.5t13 -5.5h309zM635 548v135q0 8 -5.5 13.5t-13.5 5.5h-192q-19 0 -19 -19v-345q0 -14 12 -19t21 6zM360 536q8 0 13.5 5t5.5 13v129
q0 8 -5.5 13.5t-13.5 5.5h-277q-8 0 -13.5 -5.5t-5.5 -13.5v-129q0 -8 5.5 -13t13.5 -5h277zM612 -1q8 0 13.5 5.5t5.5 13.5v131q0 8 -5.5 13.5t-13.5 5.5h-188q-19 0 -19 -19v-131q0 -8 5.5 -13.5t13.5 -5.5h188z" />
    <glyph glyph-name="bracketleft" unicode="[" horiz-adv-x="326" 
d="M278 597q8 0 13 5.5t5 13.5v75q0 8 -5.5 13.5t-13.5 5.5h-230q-7 0 -12 -5.5t-5 -13.5v-332q0 -2 2 -6.5t4 -6.5l112 -123q8 -9 19 -5t11 18v361h100zM278 -94q7 0 12 5.5t5 13.5v77q0 8 -5.5 13.5t-12.5 5.5h-100v132q0 2 -2 7t-4 7l-112 122q-8 9 -18.5 4.5
t-10.5 -18.5v-350q0 -8 5.5 -13.5t12.5 -5.5h230z" />
    <glyph glyph-name="backslash" unicode="\" horiz-adv-x="349" 
d="M337 -18q10 0 15.5 7t1.5 18l-218 718q-1 5 -6.5 9t-10.5 4h-108q-10 0 -15 -7t-2 -18l217 -718q2 -5 7 -9t10 -4h109z" />
    <glyph glyph-name="bracketright" unicode="]" horiz-adv-x="326" 
d="M278 -94q8 0 13 5.5t5 13.5v331q0 2 -2.5 7t-2.5 7l-114 122q-8 9 -18.5 5t-10.5 -18v-361h-101q-7 0 -12 -5.5t-5 -13.5v-74q0 -8 5.5 -13.5t12.5 -5.5h230zM266 327q8 -10 19 -5.5t11 18.5v351q0 8 -5.5 13.5t-13.5 5.5h-229q-8 0 -12.5 -5.5t-4.5 -13.5v-78
q0 -8 5 -13.5t13 -5.5h100v-132q0 -2 1.5 -6.5t3.5 -6.5z" />
    <glyph glyph-name="asciicircum" unicode="^" horiz-adv-x="0" 
d="M137 584q12 0 17 8t-3 16l-80 85q-2 2 -6.5 4t-7.5 2h-117q-2 0 -7 -2t-7 -4l-78 -85q-7 -8 -2.5 -16t16.5 -8h99q2 0 6.5 1.5t6.5 3.5l24 24l23 -24q2 -2 7 -3.5t7 -1.5h102z" />
    <glyph glyph-name="underscore" unicode="_" horiz-adv-x="519" 
d="M519 -124q19 0 19 11v28q0 5 -6 8t-14 3h-518q-19 0 -19 -11v-28q0 -5 6 -8t14 -3h518z" />
    <glyph glyph-name="grave" unicode="`" horiz-adv-x="0" 
d="M112 450q11 0 15.5 7t-0.5 15l-65 99q-2 3 -7 5.5t-8 2.5h-158q-14 0 -18 -10t6 -17l142 -102h93z" />
    <glyph glyph-name="a" unicode="a" horiz-adv-x="539" 
d="M339 241h1h135q8 0 13.5 5t5.5 13v114q0 173 -219 173h-4q-88 0 -145 -34q-75 -45 -75 -134q0 -19 19 -19h134q11 0 17 11q11 26 25 36h-1q13 8 39 8q18 0 26 -12q11 -16 11 -33v-4v-3q-18 -4 -33 -7t-29 -5q-14 -3 -26 -5.5t-22 -4.5q-40 -8 -70.5 -21.5t-51.5 -31.5
l-6 -5l-10 -10q-9 -9 -4.5 -20t17.5 -11h253zM487 4q11 0 16.5 7.5t1.5 17.5q-11 27 -11 45v123q0 8 -5.5 13t-13.5 5h-144q-13 0 -17 -13q-4 -15 -13 -29q-20 -36 -60 -36q-38 1 -38 37q0 4 5 12q8 10 3 19.5t-18 9.5h-139q-6 0 -12 -4.5t-7 -11.5q-1 -9 -2 -19t-1 -22
q1 -37 12.5 -66.5t37.5 -52.5h-1q46 -44 120 -42q33 0 65.5 10t64.5 29v-14q0 -8 5.5 -13t13.5 -5h137z" />
    <glyph glyph-name="b" unicode="b" horiz-adv-x="586" 
d="M535 281q8 0 13.5 6t4.5 14q-2 48 -17 88t-40 73q-64 83 -167 83q-23 0 -43 -3.5t-39 -11.5q-9 -4 -18 -9.5t-19 -12.5v178q0 8 -5.5 13.5t-13.5 5.5h-139q-8 0 -13.5 -5.5t-5.5 -13.5v-386q0 -8 5.5 -13.5t13.5 -5.5h137q7 0 12.5 5t6.5 11q2 20 7 35.5t12 29.5h-1
q25 43 72 43q66 0 77 -107q1 -7 6 -12t12 -5h142zM534 255h-141q-7 0 -12 -5.5t-6 -12.5q-3 -38 -16 -64q-19 -40 -62 -40q-47 1 -71 40q-8 13 -12.5 29t-6.5 36q-1 7 -6.5 12t-12.5 5h-136q-8 0 -13.5 -5.5t-5.5 -13.5v-213q0 -19 19 -19h135q8 0 14.5 6.5t4.5 15.5v1
q52 -37 120 -37q115 0 177 95q42 63 49 149z" />
    <glyph glyph-name="c" unicode="c" horiz-adv-x="555" 
d="M514 153l-106 53q-5 2 -11 1t-10 -5l-3 -3q-11 -17 -19 -28t-13 -16q-16 -15 -44 -15q-47 1 -71 40q-8 11 -12 25.5t-6 31.5q-2 16 -19 16h-147q-8 0 -13.5 -6t-4.5 -14q6 -96 66 -164q69 -78 181 -78h3q80 0 137 34q51 31 98 101zM511 387q17 10 5 27q-22 32 -45.5 55
t-48.5 37q-53 32 -129 32q-119 0 -192 -82q-55 -61 -64 -157q-1 -8 4.5 -14t13.5 -6h145q7 0 12.5 4.5t6.5 11.5q4 32 21 58q23 38 59 38h3q44 0 79 -57q4 -7 11 -9t14 2z" />
    <glyph glyph-name="d" unicode="d" horiz-adv-x="586" 
d="M535 278q8 0 13 5.5t5 13.5v386q0 8 -5 13.5t-13 5.5h-139q-8 0 -13 -5.5t-5 -13.5v-178q-10 7 -19 12.5t-18 9.5q-36 16 -84 16q-52 0 -93 -21t-73 -63q-52 -67 -58 -161q-1 -8 5 -14t14 -6h142q7 0 12 5t6 12q9 107 77 107q48 0 71 -43q16 -29 19 -64q1 -7 6.5 -12
t12.5 -5h137zM535 1q8 0 13 5.5t5 13.5v213q0 8 -5 13.5t-13 5.5h-136q-7 0 -12.5 -5t-6.5 -12q-3 -39 -19 -65q-24 -39 -71 -40q-43 0 -62 40q-7 14 -11 30t-6 35q-1 7 -6 12t-12 5h-139q-9 0 -14.5 -6.5t-4.5 -14.5q8 -88 48 -149q63 -95 178 -95q68 0 120 37v-1
q-2 -9 4.5 -15.5t14.5 -6.5h135z" />
    <glyph glyph-name="e" unicode="e" horiz-adv-x="599" 
d="M547 161l-106 55l-4 2h108q8 0 13.5 5.5t5.5 13.5q0 132 -60 211q-69 92 -199 92h-5q-8 0 -13.5 -5.5t-5.5 -13.5l2 -101q0 -8 5.5 -13.5t13.5 -5.5q56 -1 74 -59h-20q-8 0 -13.5 -5t-5.5 -13v-87q0 -8 5.5 -13.5t13.5 -5.5h73q-9 -2 -13 -10q-9 -17 -16 -26
q-36 -49 -89 -49h-6q-9 2 -16.5 -2.5t-7.5 -14.5v-109q0 -8 5.5 -13t13.5 -5q88 2 145 35q54 32 109 109zM293 218q8 0 13.5 5.5t5.5 13.5v87q0 8 -5.5 13t-13.5 5h-70q3 11 9.5 19.5t14.5 17.5l4 3q2 2 3.5 6.5t1.5 6.5v119q0 10 -7 14.5t-16 2.5q-78 -18 -126 -71
q-71 -76 -71 -198v-5q0 -120 68 -193q26 -29 58.5 -46t71.5 -25q9 -1 15.5 4.5t6.5 14.5v130q0 2 -2 7.5t-5 7.5t-4 3q-15 20 -24 58h72z" />
    <glyph glyph-name="f" unicode="f" horiz-adv-x="398" 
d="M349 397q8 0 13 5.5t5 13.5v89q0 8 -5 13.5t-13 5.5h-74q2 32 13 36q5 2 8 3l6 2q3 -2 9 -2h4q2 0 5 -0.5t7 -0.5h17q8 0 13 5.5t5 13.5v103q0 14 -14 18q-39 12 -88 12h-12q-84 0 -119 -59q-25 -45 -25 -132h-54q-8 0 -13 -5.5t-5 -13.5v-70q0 -16 14 -19q1 0 3 -2
l9 -10q2 -2 6.5 -3.5t6.5 -1.5h33v-35q0 -2 1.5 -7t3.5 -7l137 -145q8 -9 19 -4.5t11 18.5v179h73zM258 6q8 0 13 5.5t5 13.5v103q0 2 -2 6.5t-3 6.5l-137 145q-9 9 -19.5 5t-10.5 -18v-248q0 -8 5 -13.5t12 -5.5h137z" />
    <glyph glyph-name="g" unicode="g" horiz-adv-x="570" 
d="M537 297q0 19 -19 19h-140q-19 0 -19 -19v-10q0 -112 -69 -112q-75 0 -75 108v14q0 8 -5 13.5t-13 5.5h-145q-8 0 -13 -5.5t-5 -13.5v-12q0 -109 53 -177q18 -24 39.5 -41t48.5 -26h-115q-8 0 -14 -6t-5 -14q2 -32 7.5 -55t13.5 -37q56 -97 224 -97q250 0 250 194z
M248 28h4q51 0 107 28v-10q0 -46 -11 -63q-13 -19 -51 -19h-5q-29 0 -51 16q-20 15 -20 42q0 2 -2 8q7 -1 14 -1.5t15 -0.5zM537 516q0 8 -5.5 13.5t-13.5 5.5h-132q-8 0 -13.5 -5.5t-5.5 -13.5v-8q-52 35 -115 35h-4q-100 0 -161 -82q-32 -41 -44 -96q-2 -10 3.5 -16.5
t14.5 -6.5h148q5 0 10.5 3.5t7.5 8.5q17 43 60 43h3q39 0 55 -28q2 -3 3 -6t3 -8q4 -13 17 -13h150q19 0 19 19v155z" />
    <glyph glyph-name="h" unicode="h" horiz-adv-x="536" 
d="M482 302q8 0 13 5.5t5 13.5v34q0 82 -42 133q-44 51 -123 51q-51 0 -85 -19h1q-8 -3 -17 -9.5t-20 -14.5v185q0 8 -5 13.5t-13 5.5h-141q-8 0 -13.5 -5.5t-5.5 -13.5v-460q0 -8 5.5 -13.5t13.5 -5.5h144q7 0 13 4t6 12q0 58 4.5 90.5t12 48t17.5 18.5t21 3h2q42 0 49 -60
q0 -8 5.5 -12t12.5 -4h140zM197 -1q8 0 13 5.5t5 13.5v139q0 8 -5 13.5t-13 5.5h-142q-8 0 -13.5 -5.5t-5.5 -13.5v-139q0 -8 5.5 -13.5t13.5 -5.5h142zM482 -2q8 0 13 5.5t5 13.5v240q0 8 -5 13.5t-13 5.5h-138q-8 0 -13.5 -5.5t-5.5 -13.5v-240q0 -8 5.5 -13.5t13.5 -5.5
h138z" />
    <glyph glyph-name="i" unicode="i" horiz-adv-x="256" 
d="M198 2q6 0 11 5.5t5 13.5v313q0 8 -5 13.5t-11 5.5h-141q-6 0 -10.5 -5.5t-4.5 -13.5v-313q0 -8 4.5 -13.5t10.5 -5.5h141zM198 379q6 0 11 5.5t5 13.5v114q0 8 -5 13.5t-11 5.5h-141q-6 0 -10.5 -5.5t-4.5 -13.5v-114q0 -8 4.5 -13.5t10.5 -5.5h141z" />
    <glyph glyph-name="j" unicode="j" horiz-adv-x="279" 
d="M242 100q7 0 12 6t5 14v401q0 8 -5 13.5t-12 5.5h-148q-7 0 -12 -5.5t-5 -13.5v-401q0 -8 5 -14t12 -6h148zM259 -16v71q0 8 -5 13.5t-12 5.5h-148q-7 0 -12 -6t-5 -14l1 -35v-2q0 -25 -24 -25h-4l-13 1q-8 1 -12.5 -4.5t-4.5 -14.5v-113q0 -7 4.5 -12.5t11.5 -6.5
q42 -3 69 -3q15 0 31 2.5t32 7.5t30 12.5t23 16.5q18 19 28 45t10 61z" />
    <glyph glyph-name="k" unicode="k" horiz-adv-x="590" 
d="M540 1q11 0 16 9t-1 19l-163 283q-2 4 -7 7t-9 3h-324q-8 0 -13.5 -5.5t-5.5 -13.5v-283q0 -19 19 -19l138 -2q8 0 13.5 5.5t5.5 13.5v146l38 37l114 -191q2 -3 7 -6t9 -3h163zM191 347q7 0 11 4q4 -4 12 -4h167q2 0 6.5 2t6.5 4l139 146q9 9 5 20.5t-18 11.5h-174
q-2 0 -7 -2t-7 -4l-122 -135v293q0 8 -5.5 13.5t-13.5 5.5h-139q-19 0 -19 -19v-317q0 -8 5.5 -13.5t13.5 -5.5h139z" />
    <glyph glyph-name="l" unicode="l" horiz-adv-x="208" 
d="M165 259q6 0 11 5.5t5 13.5v404q0 8 -5.5 13.5t-11.5 5.5h-122q-6 0 -10.5 -5.5t-4.5 -13.5v-404q0 -8 5 -13.5t11 -5.5h122zM181 215q0 8 -5.5 13.5t-11.5 5.5h-122q-6 0 -10.5 -5.5t-4.5 -13.5v-196q0 -8 5 -13.5t11 -5.5h122q6 0 11 5.5t5 13.5v196z" />
    <glyph glyph-name="m" unicode="m" horiz-adv-x="824" 
d="M772 6q8 0 13.5 5t5.5 13v360q0 74 -48 113t-122 39q-52 0 -85 -16l2 1q-4 -2 -17.5 -9t-36.5 -20q0 -1 -6 -5q-59 50 -131 50h-4q-71 0 -126 -38v7q0 8 -5.5 13.5t-13.5 5.5h-146q-8 0 -13.5 -5.5t-5.5 -13.5v-74q0 -2 2.5 -6.5t4.5 -6.5l143 -137q9 -9 20.5 -5.5
t11.5 17.5q3 90 55 90q51 0 51 -61v-172q0 -2 2 -6.5t4 -6.5l130 -127q2 -2 6.5 -3.5t6.5 -1.5h16q8 0 13.5 5t5.5 13v293q0 67 54 67q51 0 51 -70v-290q0 -8 5.5 -13t13.5 -5h143zM196 0q8 0 14 5.5t6 13.5v177q0 2 -2.5 7t-4.5 6l-143 141q-9 9 -21 5t-12 -18v-318
q0 -8 6 -13.5t14 -5.5h143zM399 -1q14 0 18 11.5t-6 20.5l-59 58q-9 9 -20.5 5t-11.5 -18v-58q0 -8 6 -13.5t14 -5.5h59z" />
    <glyph glyph-name="n" unicode="n" horiz-adv-x="527" 
d="M476 294q8 0 13.5 5.5t5.5 13.5v54q0 170 -156 170h-3q-71 0 -124 -34v2q0 8 -5 13.5t-13 5.5h-144q-8 0 -13 -5.5t-5 -13.5v-263q0 -8 5.5 -13.5t13.5 -5.5h138q8 -2 16 2t8 13v4q0 45 3.5 73.5t10 44t16 21.5t22.5 6h3q21 0 36 -15q15 -17 15 -40v-19q0 -8 5 -13.5
t13 -5.5h139zM194 6q8 0 13.5 5t5.5 13v155q0 8 -5.5 13.5t-13.5 5.5h-144q-8 0 -13 -5.5t-5 -13.5v-155q0 -8 5.5 -13t13.5 -5h143zM476 6q8 0 13.5 5t5.5 13v226q0 8 -6 13.5t-14 5.5h-139q-8 0 -12.5 -5.5t-4.5 -13.5l-2 -226q0 -8 5.5 -13t13.5 -5h140z" />
    <glyph glyph-name="o" unicode="o" horiz-adv-x="624" 
d="M574 269h-145q-7 0 -12.5 -5t-6.5 -12q-3 -45 -23 -74q-27 -36 -76 -36q-47 0 -74 38h1q-21 30 -25 73q0 7 -5.5 11.5t-12.5 4.5h-143q-8 0 -14 -5.5t-5 -13.5q6 -119 78 -186q76 -71 206 -71h5q122 0 196 76q35 35 53.5 80t20.5 101zM570 295q9 0 15 6t4 15
q-13 87 -68 146q-73 79 -194 79q-135 0 -211 -66q-69 -59 -80 -160q-1 -8 5 -14t14 -6h144q6 0 11 4.5t7 9.5q8 31 23 50q27 34 73 34h4q49 0 73 -36q11 -17 17 -48q1 -6 6.5 -10t11.5 -4h145z" />
    <glyph glyph-name="p" unicode="p" horiz-adv-x="586" 
d="M535 257h-142q-7 0 -12 -5t-6 -12q-11 -107 -77 -107q-47 0 -72 43h1q-7 14 -12 29.5t-7 35.5q-1 6 -6.5 11t-12.5 5h-137q-8 0 -13.5 -5.5t-5.5 -13.5v-386q0 -8 5.5 -13.5t13.5 -5.5h139q8 0 13.5 5.5t5.5 13.5v177q10 -7 19.5 -12t17.5 -9q36 -16 82 -16q53 0 94 21
t73 63q25 33 40 73t17 88zM534 282q8 0 13.5 6.5t4.5 14.5q-9 89 -49 150q-62 95 -177 95q-69 0 -120 -38v2q2 9 -4.5 15.5t-14.5 6.5h-135q-19 0 -19 -19v-214q0 -8 5.5 -13.5t13.5 -5.5h136q7 0 12.5 5t6.5 12q5 43 19 67q23 38 71 39q43 0 62 -40q13 -26 16 -65
q1 -7 6 -12.5t12 -5.5h141z" />
    <glyph glyph-name="q" unicode="q" horiz-adv-x="586" 
d="M535 -168q8 0 13 5.5t5 13.5v386q0 8 -5 13.5t-13 5.5h-137q-7 0 -12.5 -5t-6.5 -11q-2 -20 -6.5 -35.5t-12.5 -29.5q-23 -43 -71 -43q-68 0 -77 107q-1 7 -6 12t-12 5h-142q-8 0 -14 -6t-5 -14q6 -94 58 -161q32 -42 73 -63t93 -21q48 0 84 16q9 4 17.5 9t19.5 12v-177
q0 -8 5 -13.5t13 -5.5h139zM535 281q8 0 13 5.5t5 13.5v214q0 8 -5 13.5t-13 5.5h-135q-8 0 -14.5 -6.5t-4.5 -15.5v-2q-51 38 -120 38q-115 0 -178 -95q-40 -61 -48 -150q-1 -8 4.5 -14.5t14.5 -6.5h139q7 0 12 5t6 12q2 20 6 36t11 30q19 40 62 40q48 -1 71 -39
q16 -27 19 -67q1 -7 6.5 -12t12.5 -5h136z" />
    <glyph glyph-name="r" unicode="r" horiz-adv-x="363" 
d="M332 381v125q0 10 -6.5 15t-15.5 3q-8 -2 -15.5 -3t-14.5 -3q-19 -4 -30 -6.5t-9 -2.5q-11 -4 -21.5 -9t-21.5 -11v14q0 8 -5 13t-12 5h-131q-8 0 -13 -5t-5 -13v-214q0 -8 5 -13.5t13 -5.5h134q8 0 13 5.5t5 12.5q3 45 26 58q10 5 89 16zM184 1q8 0 13 5.5t5 13.5v207
q0 8 -5 13t-13 5h-135q-8 0 -12.5 -5t-4.5 -13v-207q0 -8 5 -13.5t13 -5.5h134z" />
    <glyph glyph-name="s" unicode="s" horiz-adv-x="565" 
d="M529 171q0 30 -8 54t-25 44q-2 2 -7 4.5t-7 2.5h-351q-14 0 -18.5 -13t6.5 -21q30 -26 78 -36l108 -25q40 -9 40 -24q0 -9 -22 -17q-28 -10 -44 -10q-62 1 -130 61q-5 5 -12 5t-12 -5l-89 -78q-8 -6 -7 -15t8 -14q35 -27 63 -45.5t49 -27.5q30 -13 64 -18.5t72 -5.5
q94 2 160 41q84 51 84 143zM514 429q7 6 6 15t-9 14q-33 23 -59 36.5t-46 21.5q-26 9 -56 13t-65 4q-93 -2 -151 -46q-67 -52 -67 -145q0 -14 4 -27q2 -6 7 -10t10 -4h267q7 0 12 5t5.5 11t-2.5 12t-10 8q-11 3 -26 7.5t-30 7.5q-56 12 -59 19q2 11 15 15q7 2 15.5 4t17.5 2
q25 -1 53.5 -11.5t60.5 -32.5q5 -4 11 -4q7 0 12 4z" />
    <glyph glyph-name="t" unicode="t" horiz-adv-x="390" 
d="M354 131q0 8 -5 13.5t-13 5.5q-11 0 -26.5 -1.5t-25.5 1.5v1q-12 6 -15.5 25t-3 44t3 53t3 51t-3.5 38t-17 15h-134q-8 0 -13 -5.5t-5 -13.5v-207q0 -72 32 -114t108 -42h52q21 0 33.5 3.5t18.5 11t8 22.5t2 39t1 60zM341 398q8 0 13 5.5t5 13.5v88q0 12 -11.5 16.5
t-27 5t-30.5 -1t-21 -1.5v132q0 8 -5 14.5t-13 4.5l-135 -30q-8 -2 -13 -6.5t-5 -12.5v-101q-6 0 -17 1t-22.5 0.5t-19.5 -5t-8 -15.5v-87q0 -12 20.5 -16.5t47 -5.5t52 0t36.5 1h154z" />
    <glyph glyph-name="u" unicode="u" horiz-adv-x="532" 
d="M481 7q8 0 13.5 5.5t5.5 13.5v481q0 8 -6 13.5t-14 5.5h-140q-8 0 -13 -5.5t-5 -13.5v-309q0 -24 -17 -38q-9 -8 -2.5 -19t16.5 -13l114 -115q1 -2 6 -4t7 -2h35zM338 71l-63 65q-2 4 -5.5 7t-8.5 3h-5q-23 0 -34.5 13.5t-11.5 36.5v3q0 11 -13 15l-134 135
q-8 9 -19.5 4.5t-11.5 -17.5v-157q0 -85 39.5 -135.5t129.5 -50.5q38 0 73 13.5t64 36.5v28zM179 269q9 -9 20.5 -5t11.5 18v226q0 8 -5.5 13t-13.5 5h-142q-8 0 -13 -5t-5 -13v-83q0 -2 2 -6.5t4 -6.5z" />
    <glyph glyph-name="v" unicode="v" horiz-adv-x="562" 
d="M443 233q3 10 -2.5 17t-15.5 7h-122q-6 0 -11.5 -4t-6.5 -11q-2 6 -7 10.5t-11 4.5h-130q-10 0 -15.5 -7t-2.5 -17l70 -218q4 -13 18 -13h147q5 0 10.5 4t7.5 9zM252 282q10 0 15 7t3 16q-11 47 -24.5 96.5t-27.5 103.5q-2 5 -7 9.5t-11 4.5h-149q-10 0 -15 -7t-2 -17
l65 -200q1 -5 6.5 -9t10.5 -4h136zM528 495q3 10 -2.5 17t-15.5 7h-145q-5 0 -10.5 -4.5t-6.5 -9.5q-8 -30 -13.5 -54t-10.5 -43v1q-3 -14 -6 -25t-5 -19q-2 -7 -3.5 -14t-3.5 -13l1 1l-9 -34q-2 -9 3 -16t15 -7h130q5 0 10 4t7 9z" />
    <glyph glyph-name="w" unicode="w" horiz-adv-x="852" 
d="M738 229q3 10 -2.5 17.5t-16.5 7.5h-127q-10 0 -17 -11q-6 11 -16 11h-113q-9 0 -15 -7t-4 -16l50 -219q1 -5 6.5 -10t12.5 -5h156q5 0 10.5 4t7.5 9zM400 254h-107q-9 0 -16 -9q-7 9 -15 9h-134q-11 0 -16 -7.5t-2 -16.5l61 -218q2 -5 7.5 -9.5t10.5 -4.5h158
q6 0 11.5 4.5t6.5 9.5q16 62 29.5 116.5t24.5 102.5zM546 280q10 0 15.5 6.5t3.5 15.5l-5 30q-9 51 -19.5 94.5t-18.5 76.5q-2 6 -7.5 10t-11.5 4h-151q-6 0 -11.5 -4.5t-7.5 -10.5l-45 -200q-2 -9 4 -15.5t15 -6.5h107q6 0 9 1q2 -1 9 -1h114zM248 280q10 0 15.5 6.5
t3.5 15.5l-40 200q-2 7 -7.5 11t-11.5 4h-155q-10 0 -15.5 -7t-2.5 -16l57 -201q2 -5 7.5 -9t10.5 -4h138zM818 492q3 10 -2 17t-16 7h-148q-7 0 -12 -4.5t-7 -10.5l-46 -199q-2 -9 4 -15.5t15 -6.5h132q14 0 19 13z" />
    <glyph glyph-name="x" unicode="x" horiz-adv-x="582" 
d="M531 5q12 0 17 9t-1 19l-157 247q2 8 -3.5 14.5t-14.5 6.5h-155q-4 0 -9 -3t-7 -6q-14 -20 -25 -37t-20 -30l1 1q-4 -6 -7.5 -11.5t-5.5 -10.5q-31 -48 -54.5 -84.5t-38.5 -61.5q-9 -13 -15 -25q-7 -10 -1.5 -19t17.5 -9h156q4 0 9 2.5t7 6.5l67 122l74 -122q2 -4 7 -6.5
t9 -2.5h150zM529 494q6 10 1 19.5t-17 9.5h-150q-5 0 -10 -3t-7 -7l-49 -91l-50 91q-2 4 -7 7t-9 3h-162q-12 0 -17.5 -9.5t1.5 -19.5q6 -10 25.5 -37t51.5 -73q9 -13 17 -25l16 -24q2 -3 7 -5.5t9 -2.5h233q3 0 8.5 2.5t7.5 5.5z" />
    <glyph glyph-name="y" unicode="y" horiz-adv-x="535" 
d="M457 283q3 10 -2 17t-16 7h-129q-7 0 -11.5 -4.5t-6.5 -10.5l-11 -50l-11 50q-2 6 -6.5 10.5t-11.5 4.5h-130q-11 0 -16 -7t-2 -17l12 -36q36 -108 50.5 -167t14.5 -72q-3 -19 -49 -19h-12l-28 1q-8 0 -13.5 -5.5t-5.5 -13.5v-114q0 -8 5 -13.5t13 -5.5h123q99 0 143 136
zM529 506q3 9 -1.5 16.5t-14.5 8.5q-17 1 -34.5 1.5t-35.5 0.5h-23l-59 -1q-5 0 -10 -4t-7 -10l-37 -161q-2 -10 2.5 -17t14.5 -7h136q13 0 17 13zM237 333q9 0 14.5 6.5t3.5 16.5l-36 161q-2 6 -6.5 10.5t-11.5 4.5h-150q-10 0 -15 -7.5t-2 -17.5q11 -31 23 -70.5t28 -90.5
q4 -13 17 -13h135z" />
    <glyph glyph-name="z" unicode="z" horiz-adv-x="544" 
d="M511 455v8l-1 39q0 19 -19 19h-213q-8 0 -13 -5.5t-5 -13.5v-108q0 -13 10 -17l-10 -10v-191q0 -13 11 -18t20 5l215 221q3 14 4 31.5t1 39.5zM216 2q8 0 13.5 5t5.5 13v275q0 14 -11.5 18.5t-20.5 -5.5l-170 -175v-113q0 -8 5 -13t13 -5h165zM490 2q8 0 13 5t5 13v110
q0 8 -5 13.5t-13 5.5h-212q-8 0 -13 -5.5t-5 -13.5v-110q0 -8 5 -13t13 -5h212zM216 375q19 0 19 19v108q0 19 -19 19h-135q-8 0 -13.5 -5.5t-5.5 -13.5v-108q0 -8 5.5 -13.5t13.5 -5.5h135z" />
    <glyph glyph-name="asciitilde" unicode="~" horiz-adv-x="256" 
d="M198 553q6 0 11 5.5t5 13.5v111q0 8 -5 13.5t-11 5.5h-139q-7 0 -11.5 -5.5t-4.5 -13.5v-111q0 -8 4.5 -13.5t11.5 -5.5h139z" />
    <glyph glyph-name="quotesinglbase" unicode="&#x201a;" horiz-adv-x="188" 
d="M173 23v145q0 8 -4.5 13t-11.5 5h-126q-7 0 -11.5 -5t-4.5 -13v-149q0 -8 4.5 -13t11.5 -5h33q-3 -17 -9 -29q-1 -2 -9 -10.5l-24 -25.5q-2 -1 -3.5 -5.5t-1.5 -7.5v-60q0 -9 6 -14.5t14 -2.5q136 43 136 177z" />
    <glyph glyph-name="florin" unicode="&#x192;" 
d="M844 392l-8 15q-13 10 -33.5 19t-41.5 19t-39 21t-26 25q-12 20 -19 44t-20 45q-14 23 -30 47t-34 42l-1 -1q10 -37 31 -81.5t47.5 -88.5t53.5 -83.5t49 -66.5q-15 -36 -32.5 -71t-39 -64.5t-48 -52t-57.5 -32.5l-12 7q11 15 30.5 40.5t39 54t33.5 56.5t14 49
q0 6 -3.5 17t-9 23t-10.5 22.5t-8 16.5q-18 35 -40 66.5t-36 70.5q-14 41 -20.5 84.5t-19.5 85.5q-3 -17 -3 -34q0 -42 11 -80t18 -77q8 -43 17.5 -86t20.5 -85q2 -8 3 -14.5t1 -14.5q0 -17 -8.5 -45t-21.5 -54t-28.5 -45t-30.5 -19q-3 0 -5.5 0.5t-5.5 0.5q-9 12 -17 28
q0 12 4.5 22t10 19t11 18.5t8.5 20.5q4 16 4.5 32.5t0.5 33.5q0 24 -1 49t-1 51q0 51 3 99t-5 99q-10 65 -22 129t-21 130q-4 -22 -8 -43.5t-13 -41.5q-3 -5 -4 -11q-3 -8 -4.5 -27.5t-3 -41t-2 -42t-0.5 -30.5q0 -56 3 -112.5t-1 -112.5q-2 -24 -1.5 -50.5t-2 -52t-9.5 -49
t-23 -39.5q-18 31 -25 54t-8.5 45t0.5 46.5t2 58.5q0 27 4.5 52.5t10 51t11.5 51t9 51.5q3 29 2.5 56.5t5.5 54.5q8 35 16 68.5t12 68.5q-23 -46 -41 -94.5t-35 -99.5l-38 -114t-36 -116q2 -41 8.5 -80t11.5 -80q-10 13 -30 28.5t-40.5 32.5t-35.5 36t-15 38q0 1 3 13t7 27
t7.5 28t4.5 16q15 49 39 93.5t47 86.5q14 26 29.5 49.5t28.5 50.5q-58 -71 -109.5 -151.5t-80.5 -177.5q-6 -20 -11.5 -42.5t-5.5 -44.5q0 -10 5 -16t12 -8q11 -8 22.5 -13.5t17.5 -20.5h2l11 -9q-13 -6 -19 -17.5t-5 -25t7 -26.5t17 -21q41 -29 74.5 -60t63.5 -78
q20 -29 36.5 -59.5t33.5 -62.5q8 -16 15.5 -33t17.5 -29l3 -3h-315q-8 0 -13.5 -4.5t-5.5 -10.5v-76q0 -14 19 -14h636q8 0 13.5 4t5.5 10v76q0 6 -5.5 10.5t-13.5 4.5h-285q8 6 15.5 14t12.5 14q17 20 32 40.5t32 40.5q22 26 44 50.5t40 56.5q-12 -2 -24 -6.5t-24 -4.5
q18 24 39.5 42.5t40.5 41.5q45 55 82 126q8 14 15.5 27t12.5 29zM609 57q0 -20 -11.5 -35t-27.5 -15t-27.5 15t-11.5 35q0 21 11.5 36t27.5 15t27.5 -15t11.5 -36zM440 46q-3 1 -8.5 7.5t-11 14.5t-10.5 16t-7 12q6 -3 9.5 1t4.5 10t-2 11.5t-9 5.5q-5 0 -8.5 -4.5
t-1.5 -11.5q-11 17 -18.5 34t-12.5 37q18 -15 28 -22t16.5 -14.5t11.5 -21.5t13 -43l4 -16t2 -16zM587 47q0 15 -11 15q-12 0 -12 -15q0 -6 3.5 -10.5t8.5 -4.5t8 4.5t3 10.5z" />
    <glyph glyph-name="quotedblbase" unicode="&#x201e;" horiz-adv-x="420" 
d="M406 26v142q0 8 -6 13t-13 5h-147q-8 0 -13 -5t-5 -13v-150q0 -8 5.5 -13t13.5 -5h41q-6 -26 -9 -32q-6 -15 -39 -30q-4 -2 -7.5 -7t-3.5 -9v-63q0 -9 7 -14.5t17 -2.5q40 11 68.5 26t46.5 34q44 47 44 124zM195 168q0 8 -5 13t-13 5h-145q-8 0 -13 -5t-5 -13v-149
q0 -8 5.5 -13t13.5 -5h40q-4 -12 -6.5 -20t-4.5 -13q-9 -18 -34 -24q-6 -1 -10 -6t-4 -11v-65q0 -10 7.5 -15t15.5 -2q79 21 118 64q20 23 31 54.5t11 72.5q0 2 -1 2.5t-1 2.5v127z" />
    <glyph glyph-name="ellipsis" unicode="&#x2026;" horiz-adv-x="951" 
d="M842 0q8 0 13.5 4.5t5.5 10.5v76q0 6 -6 10.5t-14 4.5h-99q-8 0 -13.5 -4.5t-5.5 -10.5v-76q0 -6 6 -10.5t14 -4.5h99zM208 0q9 0 14.5 4.5t5.5 10.5v76q0 6 -6 10.5t-14 4.5h-99q-8 0 -13.5 -4.5t-5.5 -10.5v-76q0 -6 6 -10.5t14 -4.5h98zM526 0q8 0 13.5 4.5t5.5 10.5
v76q0 6 -6 10.5t-14 4.5h-99q-8 0 -13.5 -4.5t-5.5 -10.5v-76q0 -6 6 -10.5t14 -4.5h99z" />
    <glyph glyph-name="dagger" unicode="&#x2020;" horiz-adv-x="678" 
d="M416 -192q8 0 13 5.5t5 13.5v470q0 2 -1.5 7t-3.5 7l-215 221q-2 2 -6.5 4t-6.5 2h-150q-8 0 -13 -6t-5 -14v-148q0 -8 5 -13.5t13 -5.5h193v-524q0 -19 19 -19h153zM626 350q8 0 13.5 5.5t5.5 13.5v149q0 8 -5.5 14t-13.5 6h-190q-3 21 -3 42v11q0 24 0.5 49t0.5 49v99
q0 8 -5 14t-13 6h-152q-8 0 -13.5 -6t-5.5 -14v-223q0 -2 2 -6.5t3 -6.5l192 -196q2 -2 6.5 -4t6.5 -2h171z" />
    <glyph glyph-name="daggerdbl" unicode="&#x2021;" 
d="M844 405q0 14 -2.5 26.5t-4.5 25.5q-20 36 -51 56t-62 35q-8 4 -14.5 3.5t-10.5 -12.5q2 -8 2.5 -15t2.5 -15q3 -19 4.5 -43t1.5 -49q0 -24 -1 -48t-4 -43q-8 -13 -15 -26.5t-16 -24.5l-1 3q2 16 2 26q0 11 -2.5 19t-7.5 16t-12 20q7 68 -4 135t-35 128
q-22 57 -42.5 113.5t-43.5 113.5q-3 -12 -4.5 -38.5t-1.5 -61.5q0 -34 0.5 -72.5t1.5 -74.5t2 -66t1 -47q-6 4 -12.5 4.5t-13.5 2.5l-18 -11q-6 -17 -16.5 -29.5t-22.5 -23.5l-2 1q11 56 24 111.5t13 112.5q0 13 -0.5 36t-3 47t-8 43.5t-15.5 25.5q-17 -17 -40.5 -55
t-47 -82t-43 -86t-27.5 -68q-3 -10 -6.5 -20t-7.5 -21q1 -6 4.5 -17t8 -23t9 -22.5t7.5 -15.5q-9 -12 -17 -21.5t-13 -26.5q-27 45 -60 87q6 45 29 92.5t52 94t59.5 90t52.5 78.5q4 7 8 14.5t9 14.5q-45 -56 -83.5 -99.5t-71.5 -88.5t-62 -99.5t-56 -132.5l10 -24
q10 -8 28 -21t36 -27.5t34 -28.5t24 -24q11 -17 23 -36t24 -37q30 -44 60.5 -86t50.5 -96q8 -20 15 -41t15 -41h3l6 6h7l12 -25h-326q-8 0 -13.5 -4.5t-5.5 -10.5v-76q0 -14 19 -14h636q8 0 13.5 4t5.5 10v76q0 6 -5.5 10.5t-13.5 4.5h-294q16 14 30.5 35.5t27.5 46
t23.5 49.5t19.5 45q5 11 9.5 22t10.5 19q10 15 22 26t23 23q45 50 86 101.5t72 116.5zM464 661q0 -21 -12 -36t-29 -15t-28.5 15t-11.5 36t11.5 36.5t28.5 15.5t29 -15.5t12 -36.5zM579 344q-10 -29 -23 -42t-39 -13q-14 0 -26.5 10t-18.5 26q-3 7 -1.5 12.5t5.5 8t8.5 1
t7.5 -7.5q5 -9 11 -15t14 -6q11 0 17 2.5t10 7t6.5 12t7.5 18.5q3 6 8 7.5t8.5 -1t5.5 -8t-1 -12.5zM563 9q0 -8 -3.5 -11.5t-8.5 -3.5q-4 0 -7.5 3.5t-3.5 11.5q0 7 3.5 11t7.5 4q5 0 8.5 -4t3.5 -11zM488 35q0 -8 -3.5 -11.5t-8.5 -3.5q-4 0 -7.5 3.5t-3.5 11.5
q0 7 3.5 10.5t7.5 3.5q5 0 9 -3.5t4 -10.5h-1zM442 651q0 7 -3.5 11t-8.5 4q-13 0 -13 -15t13 -15q5 0 8.5 4t3.5 11z" />
    <glyph glyph-name="guilsinglleft" unicode="&#x2039;" 
d="M703 186q0 16 -11 16t-11 -16q0 -15 11 -15t11 15zM829 341q2 10 0.5 19.5t-3.5 17.5q-20 14 -37 31.5t-35 34.5q-65 61 -111 131.5t-89 162.5q-11 22 -19.5 44.5t-19.5 44.5q-9 7 -18.5 2t-19.5 -3q-31 -16 -66 -43t-68 -61t-62 -72.5t-49 -77.5h2q12 12 24 26.5
t25.5 27t27 21.5t28.5 11q-6 -23 -18 -54.5t-24.5 -64t-22 -63t-9.5 -52.5q0 -16 10.5 -38t21.5 -46t17.5 -47t-0.5 -41l-17 -11q-17 23 -32 48.5t-31 50.5q-5 8 -10.5 15.5t-10.5 16.5q-5 13 -5 25q0 11 7.5 35t17.5 50t20 49t15 33q-32 -47 -60.5 -100.5t-35.5 -121.5
q12 -16 25 -29.5t27 -27.5q49 -48 93.5 -103.5t81.5 -124.5q14 -24 24.5 -49.5t23.5 -50.5q1 -2 4 -4t5 -3l6 10q3 31 3 55q0 25 -2.5 47.5t-7.5 45t-12 51.5q-6 -25 -14.5 -48t-14.5 -48q-15 46 -28 92.5t-27 91.5q-7 22 -15 41t-12 42q12 21 34.5 30t39.5 9q13 0 26 -8
q24 -13 40.5 -39t26 -58.5t14 -69t4.5 -70.5q0 -15 -3 -42.5t-7.5 -57.5t-10.5 -58.5t-13 -44.5h-301q-8 0 -13.5 -4.5t-5.5 -10.5v-76q0 -14 19 -14h636q8 0 13.5 4t5.5 10v76q0 6 -5.5 10.5t-13.5 4.5h-296q10 13 19 25t20 16q27 66 51 134.5t47 137.5q5 17 8 36t1 38
q0 5 -9.5 33t-20.5 62t-22 64t-14 39q-32 -1 -64 12t-63.5 25t-63 15.5t-62.5 -17.5q6 46 17.5 89t25.5 86q10 9 23 9q14 0 26.5 -11.5t24.5 -23.5q29 -29 65 -52t70 -33q23 -55 52.5 -101.5t61.5 -91.5q16 -23 31 -47.5t28 -53.5q-41 -94 -89.5 -179t-102.5 -163
q-6 -9 -12 -17t-11 -18q27 42 61 80q59 67 113 151.5t96 175.5zM531 733q0 -22 -10.5 -37.5t-26.5 -15.5q-15 0 -26 15.5t-11 37.5q0 23 11 39t26 16q16 0 26.5 -16t10.5 -39zM511 723q0 16 -11 16t-11 -16t11 -16t11 16z" />
    <glyph glyph-name="OE" unicode="&#x152;" 
d="M542 -79h-59q2 17 1.5 37t-0.5 30q0 61 -4.5 121t-14.5 120q26 -63 38 -127t26 -132q2 -9 4 -25t9 -24zM841 343l-8 12q-42 26 -86.5 46.5t-86.5 49.5q-8 -1 -19 6q-1 22 -6.5 42t-13.5 38q-21 48 -42 97t-41 98q-6 -3 -9 -11t-4 -18t-1 -20t-1 -17q2 -14 2 -28v-28
q0 -9 -4.5 -18t-11 -16.5t-14 -11.5t-13.5 -4q-4 24 -4.5 54t3.5 54q5 26 12.5 50.5t7.5 52.5q0 16 -2.5 34t-11.5 30q-20 -45 -47 -83t-54 -75q-29 -39 -59 -77t-57.5 -78.5t-51 -85t-41.5 -95.5q9 -30 24.5 -55t34 -46t38.5 -40t39 -38q25 -25 47 -54t42 -61l7 -6h2
q-2 16 -11.5 44t-20.5 58.5t-22 59t-17 44.5q35 -60 63.5 -127t51.5 -138q5 -15 8.5 -30.5t8.5 -30.5h-294q-8 0 -13.5 -4.5t-5.5 -10.5v-76q0 -14 19 -14h636q8 0 13.5 4t5.5 10v76q0 6 -5.5 10.5t-13.5 4.5h-256q22 22 45 61.5t36.5 85t13 89.5t-25.5 75q19 -24 41 -27
t43.5 6t42 25t38.5 31q11 20 24.5 37.5t24.5 38.5zM343 449q0 -21 -11 -36t-28 -15q-16 0 -27.5 15t-11.5 36q0 22 11.5 37t27.5 15q17 0 28 -15t11 -37zM315 337v-41t-2 -41q-2 -16 -11.5 -15t-9.5 15q0 21 0.5 41.5t0.5 40.5q0 15 11 15t11 -15zM269 281q0 -14 -11 -14
t-11 14t11 14t11 -14zM322 439q0 7 -3.5 11t-8.5 4t-8.5 -4t-3.5 -11t3.5 -11t8.5 -4t8.5 4t3.5 11zM262 282q0 6 -5 6q-4 0 -4 -6t4 -6q5 0 5 6z" />
    <glyph glyph-name="quoteleft" unicode="&#x2018;" horiz-adv-x="193" 
d="M160 335q7 0 11.5 5t4.5 13v150q0 8 -4.5 13t-11.5 5h-32q6 40 39 59q3 2 6 7t3 9v62q0 10 -6.5 15t-14.5 2q-2 -1 -4 -1q-1 0 -3 -1q-4 -2 -5 -2h1l-3 -1q-57 -20 -89 -62q-35 -47 -35 -114v-141q0 -8 4.5 -13t11.5 -5h127z" />
    <glyph glyph-name="quoteright" unicode="&#x2019;" horiz-adv-x="193" 
d="M176 507v145q0 8 -4.5 13t-11.5 5h-127q-7 0 -11.5 -5t-4.5 -13v-148q0 -7 4.5 -12t11.5 -5h36q-2 -13 -3 -17q-6 -30 -37 -42q-11 -6 -11 -17v-62q0 -9 6 -14.5t14 -3.5q62 14 100 59t38 117z" />
    <glyph glyph-name="quotedblleft" unicode="&#x201c;" horiz-adv-x="420" 
d="M178 334q8 0 13 5t5 13v150q0 8 -5.5 13t-13.5 5h-40q0 3 2 6v-1q6 41 44 53q5 2 9 7t4 10v65q0 9 -6.5 14.5t-15.5 3.5q-38 -7 -67.5 -22.5t-51.5 -42.5q-40 -51 -40 -127v-134q0 -8 5.5 -13t13.5 -5h144zM386 334q8 0 13.5 5t5.5 13v150q0 8 -6 13t-14 5h-39
q3 23 11 35q5 11 36 22q5 2 8.5 7t3.5 10v64q0 11 -7.5 16t-17.5 1q-5 0 -8 -1q-4 -2 -6 -2h2l-3 -1q-141 -40 -141 -184v-135q0 -8 5.5 -13t13.5 -5h143zM366 672v-1v1z" />
    <glyph glyph-name="quotedblright" unicode="&#x201d;" horiz-adv-x="420" 
d="M196 533v119q0 8 -5.5 13t-13.5 5h-145q-8 0 -13 -5t-5 -13v-148q0 -8 5.5 -13t13.5 -5h39q-6 -42 -48 -62q-5 -2 -7.5 -7t-2.5 -9v-60q0 -8 6.5 -14t15.5 -4q160 21 160 203zM406 556v47q0 9 -1 17t-1 15v17q0 8 -5 13t-13 5h-145q-8 0 -13 -5t-5 -13v-148q0 -8 5.5 -13
t13.5 -5h38q-3 -23 -8 -31q-8 -17 -38 -30q-4 -2 -7.5 -6.5t-3.5 -9.5v-62q0 -8 7 -14t16 -4q98 20 134 87q26 49 26 140z" />
    <glyph glyph-name="bullet" unicode="&#x2022;" horiz-adv-x="319" 
d="M244 249l-159 158q-5 5 -12 5t-13 -6q-30 -35 -30 -81q0 -55 40 -92q37 -36 89 -36h3q45 0 80 26zM289 326q0 26 -10.5 48t-28.5 41h2q-38 39 -91 39q-6 0 -11 -0.5t-11 -1.5q-11 -2 -15 -11.5t5 -18.5l129 -129q8 -9 18.5 -5.5t10.5 16.5q2 5 2 9v12v1z" />
    <glyph glyph-name="endash" unicode="&#x2013;" horiz-adv-x="500" 
d="M461 173q8 0 13.5 4.5t5.5 11.5v114q0 6 -5.5 10.5t-13.5 4.5h-423q-8 0 -13 -4.5t-5 -10.5v-114q0 -7 5 -11.5t13 -4.5h423z" />
    <glyph glyph-name="emdash" unicode="&#x2014;" horiz-adv-x="608" 
d="M622 176q8 0 13.5 4t5.5 10v76q0 6 -5.5 10.5t-13.5 4.5h-636q-8 0 -13.5 -4.5t-5.5 -10.5v-76q0 -14 19 -14h636z" />
    <glyph glyph-name="trademark" unicode="&#x2122;" horiz-adv-x="772" 
d="M299 504q18 2 18 19l-1 52q4 -2 9 -2h21q9 -3 9 -13v-245q0 -6 -24 -6h-4q-8 0 -13.5 -5.5t-5.5 -12.5v-17q0 -8 5.5 -13t13.5 -5h119q8 0 13.5 5t5.5 13v17q0 7 -5.5 12.5t-13.5 5.5h-4q-25 0 -25 6v147l98 -196q2 -4 7 -7t10 -3h17q5 0 10 3.5t7 7.5l88 200v-152
q0 -6 -25 -6h-4q-8 0 -13.5 -5.5t-5.5 -12.5v-17q0 -8 5.5 -13t13.5 -5h148q8 0 13.5 5t5.5 13v17q0 7 -5.5 12.5t-13.5 5.5h-4q-23 0 -23 6v254q0 4 13 4h13q8 0 13.5 5t5.5 13v16q0 8 -5.5 13t-13.5 5h-103q-12 0 -17 -11l-100 -216l-105 216q-6 11 -17 11h-105
q-9 0 -15 -6q-5 6 -14 6h-294q-19 0 -19 -17l-3 -85q0 -8 5 -13t13 -6l17 -1q9 -1 14.5 4.5t5.5 13.5v4q0 28 21 37q6 3 17.5 4t29.5 2v-253q0 -6 -23 -6h-6q-8 0 -13.5 -5.5t-5.5 -12.5v-17q0 -8 5.5 -13t13.5 -5h148q8 0 13.5 5t5.5 13v17q0 7 -5.5 12.5t-13.5 5.5h-5
q-22 0 -22 6v253q17 -1 28 -2t17 -4q22 -7 22 -35v-6q0 -8 6 -13.5t14 -4.5z" />
    <glyph glyph-name="guilsinglright" unicode="&#x203a;" 
d="M842 353q-39 5 -78 19.5t-75 33.5q16 0 31.5 3.5t29 11.5t24 22.5t16.5 36.5q4 14 2 20t-9 -7q-3 -6 -5.5 -12t-6.5 -12q-17 -24 -42 -29t-48 -5h-7q17 6 30 13t23 28q-4 10 -13 20t-17 16q-20 17 -36.5 37.5t-32.5 45.5q-10 15 -21.5 29.5t-26.5 19.5q-14 -6 -22 -22
q-4 51 -17.5 99t-30.5 94q-15 0 -26.5 -8t-20.5 -20.5t-17 -27.5t-15 -28q-5 -8 -9.5 -15t-9.5 -15q-9 -20 -9 -43q0 -27 11 -45.5t17 -41.5q-6 -29 -4 -59.5t-4 -59.5q-2 -11 -7 -25t-11.5 -26.5t-15.5 -21t-19 -8.5q-12 0 -21 10.5t-13.5 25.5t-3.5 31.5t9 27.5q5 16 9 35
t-7 33q-47 -47 -69 -80t-26 -59.5t6.5 -50t29.5 -49.5t42 -58t44 -77l-9 4q-21 22 -39 47t-38 50q-9 11 -18.5 22t-18.5 23q-13 17 -19.5 40.5t-6.5 46.5q14 23 28.5 46t28.5 45q17 25 35.5 49.5t31.5 53.5l3 2q2 9 4.5 18.5t4.5 18.5l-5 6q-14 -1 -24.5 -9t-19 -19
t-16.5 -24t-15 -25q-5 -7 -9 -12.5t-9 -11.5q-25 -36 -47 -80.5t-39 -88.5q2 -22 11.5 -40t22 -34t27 -29t27.5 -25q38 -37 65.5 -65.5t50 -59t42 -68.5t42.5 -93q7 -16 14 -27h-298q-8 0 -13.5 -4.5t-5.5 -10.5v-76q0 -14 19 -14h636q8 0 13.5 4t5.5 10v76q0 6 -5.5 10.5
t-13.5 4.5h-327q5 15 7 38t2 47t-1 46t-2 36q17 -28 41.5 -46.5t52.5 -18.5q26 0 58 25t63.5 59.5t58.5 72t43 62.5q14 22 22 52.5t11 58.5zM527 708q0 -20 -11.5 -35t-27.5 -15q-17 0 -28.5 15t-11.5 35q0 21 11.5 36t28.5 15q16 0 27.5 -15t11.5 -36zM761 227
q0 -7 -3.5 -10.5t-8.5 -3.5q-4 0 -7.5 3.5t-3.5 10.5t3.5 11t7.5 4q5 0 8.5 -4t3.5 -11zM505 698q0 15 -11 15q-13 0 -13 -15t13 -15q11 0 11 15z" />
    <glyph glyph-name="oe" unicode="&#x153;" 
d="M532 -79h-49q-13 102 -34.5 199.5t-45.5 193.5q-5 19 -13.5 42.5t-8.5 43.5q0 13 5 24t11.5 21t13 20.5t8.5 23.5q23 -81 44 -148.5t37 -132.5t24.5 -134t7.5 -153zM825 374q-2 12 -7.5 21t-12 16t-13.5 13.5t-13 14.5q-29 16 -53 38t-45.5 47.5t-42.5 54t-43 58.5
q-6 8 -12 12.5t-14 4.5q-19 0 -29 -24q-8 51 -16 101.5t-23 98.5q-14 -7 -30 -20.5t-31 -30t-29.5 -34.5t-25.5 -33q-4 -14 -10.5 -26.5t-12.5 -23.5v9l-5 4l-8 -3q-31 -39 -55.5 -74.5t-45.5 -74t-38.5 -83t-33.5 -101.5q4 -4 6.5 -8t5.5 -8q8 -9 23 -14.5t30.5 -6.5
t29.5 5.5t20 21.5q7 -22 18 -45t23.5 -45t26.5 -41.5t26 -34.5q-5 34 -17 68.5t-26.5 69t-29 68t-24.5 65.5q9 36 19 72.5t25 67.5q8 16 19 34.5t24 34t27.5 25.5t29.5 10q14 0 27 -10t24 -26t19.5 -35t13.5 -37q-6 -23 -19.5 -31t-28.5 -8q-14 0 -23.5 4t-17.5 9.5
t-16 11.5t-20 11q-8 -8 -16 -17t-16 -19q2 -11 3 -22.5t2 -22.5q-5 -14 -14 -31.5t-10 -31.5q9 -30 20.5 -57t23 -53.5t22.5 -54t18 -57.5q4 -16 6 -32t6 -33q11 -54 23 -107t22 -108h-299q-8 0 -13.5 -4.5t-5.5 -10.5v-76q0 -14 19 -14h636q8 0 13.5 4t5.5 10v76
q0 6 -5.5 10.5t-13.5 4.5h-273q17 107 5 216.5t-44 207.5q33 -64 66.5 -126.5t59.5 -133.5q7 -16 16 -33t23 -17q9 0 16 12q-10 76 -38.5 140t-63.5 120q24 -32 59 -42t70.5 -1t65.5 37t45 73zM746 339q0 -8 -3.5 -12.5t-7.5 -4.5t-7.5 4.5t-3.5 12.5q0 16 11 16t11 -16z
M683 384q0 -12 -2 -32.5t-4 -35t-2 -16.5q-1 2 -4 17.5t-6.5 36.5t-3.5 29v12t1 13t3.5 10t7.5 4t9.5 -5t6.5 -11t1 -12.5t-7 -9.5zM284 397q0 -23 -11 -40t-27 -17t-27 17t-11 40q0 24 11 41t27 17t27 -17t11 -41zM741 339q0 7 -5 7q-4 0 -4 -7t4 -7q5 0 5 7zM263 386
q0 17 -11 17q-5 0 -8.5 -4.5t-3.5 -12.5t3.5 -12.5t8.5 -4.5q11 0 11 17z" />
    <glyph glyph-name="Ydieresis" unicode="&#x178;" 
d="M845 367q-7 6 -23.5 18.5t-37 27.5t-43.5 30t-43.5 26t-36.5 16t-22 1q-33 81 -62.5 164t-61.5 164l-7 4q-2 -17 -4 -35l-4 -36q-4 -50 -11 -98t-7 -98q0 -17 2 -34t5 -34q6 -44 17.5 -87.5t28 -83.5t38 -74.5t49.5 -59.5q8 -2 15 -6.5t15 -6.5l6 -11q-2 -5 -3 -9.5
t-3 -9.5q-4 -9 -12.5 -22.5t-18.5 -26.5t-20.5 -22.5t-17.5 -9.5q-11 0 -18.5 14.5t-13 34t-9.5 39.5l-6 30q-11 57 -23 112t-32 107q-10 25 -17.5 57t-15 63.5t-17 60.5t-22.5 49q-24 4 -42.5 -7t-32.5 -31t-25 -45.5t-20 -50.5q-5 -11 -8 -24t-3 -27q0 -8 1.5 -14t3.5 -13
q8 -19 14 -38.5t14 -39.5q17 -50 33.5 -98.5t31.5 -99.5q-12 21 -32.5 60t-40 82.5t-34 84.5t-14.5 66q0 19 6 36q17 42 34.5 82.5t34.5 80.5q25 56 51 111t46 114q-11 -13 -18.5 -30.5t-17.5 -31.5q-23 -34 -46 -66.5t-46 -67.5q-13 -21 -23.5 -44t-19.5 -47.5t-18.5 -49
t-20.5 -47.5l4 14l-4 11l-7 3q-6 -4 -14 -11.5t-15.5 -16t-14 -17.5t-10.5 -16q-1 -3 -1 -10q0 -18 5.5 -25.5t13.5 -7.5t16.5 5.5t15.5 12.5q-9 -9 -15 -22.5t-10 -29t-4.5 -31.5t1.5 -31q12 -2 19.5 9.5t12.5 28t8 34.5t6 30q21 -36 35.5 -77.5t35.5 -77.5
q45 -74 86.5 -152t70.5 -166l2 -2h-265q-8 0 -13.5 -4.5t-5.5 -10.5v-76q0 -14 19 -14h636q8 0 13.5 4t5.5 10v76q0 6 -5.5 10.5t-13.5 4.5h-367l6 4q7 33 7 70t-1 71q5 -14 12.5 -30.5t17 -30.5t21 -24t23.5 -10q18 0 45.5 23t59.5 59t64.5 81t60 89t47 82.5t24.5 61.5z
M709 394q0 -23 -12 -39t-29 -16t-28.5 16t-11.5 39t11.5 39.5t28.5 16.5t29 -16.5t12 -39.5zM722 212q0 -8 -3.5 -12t-8.5 -4q-4 0 -7.5 4t-3.5 12q0 7 3.5 11t7.5 4q5 0 8.5 -4t3.5 -11zM687 384q0 7 -3.5 11.5t-8.5 4.5q-13 0 -13 -16q0 -17 13 -17q5 0 8.5 4.5t3.5 12.5z
" />
    <glyph glyph-name="exclamdown" unicode="&#xa1;" 
d="M817 364q0 13 -15 33t-35 39.5t-39.5 36.5t-27.5 25t-16.5 19t-17.5 16q-3 4 -10 15.5t-15.5 23.5t-15.5 22t-9 12q-18 40 -40 76.5t-35 81.5q-4 13 -8 26.5t-9 24.5l-6 2l-8 -7q-5 1 -11.5 -3t-11.5 -6q-4 7 -9.5 10t-11.5 6q-18 -12 -33 -29.5t-29 -37.5t-28 -40.5
t-29 -38.5q-17 -20 -34 -39.5t-32 -42.5l1 -1l12 6l2 -1l8 5q-7 -11 -14.5 -20.5l-15 -19t-15.5 -20t-16 -25.5l5 -9q-14 -18 -24.5 -39t-20.5 -42l4 -4q10 5 21 14q-10 -14 -17.5 -32t-17.5 -33q-6 -33 -3 -47.5t12 -19.5t22.5 -4t27.5 -1q9 -11 14 -24.5t19 -29.5
q43 -48 80 -97.5t72 -110.5q12 -21 21 -45t22 -44l5.5 -5.5t5.5 -2.5q8 0 15 12t12 22l4 -10q-3 -10 -6 -19.5t-5 -20.5h-329q-8 0 -13.5 -4.5t-5.5 -10.5v-76q0 -14 19 -14h636q8 0 13.5 4t5.5 10v76q0 6 -5.5 10.5t-13.5 4.5h-282q9 13 18 24h-1q30 32 57 69t53 75
q8 11 13 22.5t12 22.5l18 27t26 40t29.5 46.5t27.5 47t20 41t8 28.5zM541 575q0 -16 -8.5 -28t-19.5 -12q-4 0 -10.5 3.5t-14.5 8t-17 8.5t-18 4q-16 0 -24 -6t-22 -15q-8 21 -3 54.5t17 66.5t29 57.5t32 27.5q22 -32 34 -70.5t23 -80.5q2 -10 2 -18zM744 334
q0 -29 -10 -46.5t-24 -33.5q-9 -11 -17.5 -22.5t-16.5 -21.5q-18 -23 -37 -43t-37 -42q-3 25 1 57.5t11 55.5q6 19 14.5 34.5t13.5 35.5q0 2 1.5 12t2.5 21t2 21t1 13q0 4 -0.5 7t-0.5 7l-14 22q-6 3 -10 9t-7 13v1q-4 10 -8.5 26.5t-7 34t-2.5 33.5q0 17 6 27q8 -2 24 -18
t33.5 -36.5t32.5 -40.5t22 -30q27 -41 27 -96zM679 159q0 -16 -11 -16q-10 0 -10 16t10 16q11 0 11 -16zM589 260q0 -18 -7 -37.5t-18.5 -36.5t-24.5 -28t-25 -11q-20 0 -45 16t-41 33q-5 -12 -4.5 -24t3.5 -24t5.5 -24.5t1.5 -24.5q-15 31 -33 62t-33.5 64t-26.5 69t-11 77
q0 32 8.5 57t22.5 42.5t32 27t38 9.5q25 0 45 -18q10 -9 21 -25.5t22 -35t21 -37t18 -32.5q13 -20 22 -45t9 -54zM501 628q0 23 -10.5 38.5t-25.5 15.5t-25.5 -15.5t-10.5 -38.5q0 -22 10.5 -38t25.5 -16t25.5 16t10.5 38zM482 618q0 -16 -12 -16q-10 0 -10 16t10 16
q12 0 12 -16z" />
    <glyph glyph-name="cent" unicode="&#xa2;" horiz-adv-x="447" 
d="M463 152l-108 55q-14 7 -24 -8q-8 -14 -16.5 -25t-16.5 -19v223q8 -7 15 -17t15 -23q3 -7 10.5 -8.5t14.5 1.5l107 62q8 5 9.5 12.5t-4.5 15.5q-72 104 -167 122v84q0 8 -5.5 13.5t-13.5 5.5h-74q-8 0 -13 -5.5t-5 -13.5v-84q-50 -8 -87.5 -31.5t-65.5 -61.5
q-27 -38 -42 -85.5t-15 -104.5q0 -108 60 -183q58 -75 151 -88v-80q0 -8 5 -13.5t13 -5.5h74q8 0 13.5 5.5t5.5 13.5v82q47 12 89.5 44t81.5 88zM162 274q0 17 2.5 34.5t11.5 32.5q1 7 4.5 12t7.5 10v-192q-14 17 -20 42.5t-6 60.5z" />
    <glyph glyph-name="sterling" unicode="&#xa3;" horiz-adv-x="625" 
d="M636 208v26q0 7 -4.5 12.5t-12.5 6.5l-138 11q-9 1 -15.5 -5t-4.5 -17v-16q0 -28 -8 -49q-10 -19 -20 -19q-21 0 -43 21q2 12 2 21v18q0 14 -3.5 30.5t-10.5 36.5h58q8 0 13.5 5.5t5.5 13.5v93q0 8 -6 13.5t-14 5.5h-141q-30 31 -30 70q0 27 22 43q18 14 53 14
q48 0 67 -20v1q19 -22 19 -72q0 -9 5 -14.5t14 -4.5l144 10q8 1 13.5 7t3.5 14q0 8 -0.5 15t-0.5 14q-1 9 -2.5 17.5t-1.5 13.5q-6 35 -20 61q-35 69 -105 93q-50 18 -135 18q-100 0 -175 -39q-98 -53 -98 -153q0 -17 5.5 -38.5t16.5 -50.5h-42q-8 0 -13.5 -5.5t-5.5 -13.5
v-93q0 -8 6 -13.5t14 -5.5h128q5 -8 8 -14.5t7 -12.5h-11h-4q-73 0 -122 -26h2q-67 -37 -67 -110q0 -64 57 -103q44 -32 109 -32q61 0 104 20q16 8 33.5 20t36.5 30q79 -62 158 -62q78 0 119 77q30 58 30 137zM158 106q-12 0 -23 7v-1q-5 5 -5 11q0 7 7 14q13 8 25 8
q17 0 40 -9q-21 -30 -44 -30z" />
    <glyph glyph-name="currency" unicode="&#x20ac;" 
d="M832 511q8 4 10.5 11.5t-2.5 15.5q-97 169 -269 181q-8 1 -14 -4.5t-6 -14.5v-136q0 -8 5 -13t11 -6q72 -10 108 -87q3 -7 10.5 -10t15.5 1zM814 363q8 0 13.5 3.5t5.5 8.5v60q0 5 -5.5 8t-13.5 3h-372q8 23 19 40q22 36 54 51q4 2 7.5 7t3.5 10v141q0 22 -22 19
q-112 -18 -188 -107q-60 -69 -79 -161h-59q-19 0 -19 -11v-60q0 -12 19 -12h49v-16v-12h-49q-19 0 -19 -11v-61q0 -12 19 -12h58q20 -99 78 -166q73 -85 190 -102l22 19v147q0 5 -3.5 10t-6.5 7q-32 15 -54 50q-5 8 -9.5 16.5t-7.5 18.5h243q-7 -3 -9 -8q-48 -83 -111 -89
q-7 -1 -12 -6.5t-5 -12.5v-137q0 -8 6 -14t14 -5q42 4 78.5 15.5t68.5 32.5q29 19 60 50t63 76l-7 28l-130 69l-2 1h112q8 0 13.5 3.5t5.5 8.5v61q0 5 -5.5 8t-13.5 3h-386v20v8h386z" />
    <glyph glyph-name="yen" unicode="&#xa5;" 
d="M816 225q-3 17 -13 31t-22.5 23.5t-26.5 15t-25 5.5q-37 0 -67 -24q-2 34 -4.5 67.5t-11.5 65.5q12 -1 25.5 -3.5t27 -1.5t25.5 8t21 25q0 50 -23.5 105.5t-56.5 108t-68 99t-59 79.5q-8 -56 -12 -111.5t-11 -111.5q-11 -14 -22 -27.5t-22 -27.5q2 37 4.5 74.5t-3.5 74.5
q-9 -2 -15.5 -9.5t-12 -17.5t-10.5 -21t-10 -19q-20 -35 -48.5 -72t-55.5 -61q-15 -14 -31 -34.5t-16 -49.5q0 -23 10 -46t24 -34q-11 -14 -20.5 -30t-19.5 -32q2 -11 4.5 -20t7.5 -17q-14 7 -26 16.5t-24 19.5t-24.5 19.5t-25.5 16.5q1 -8 1 -14t1 -14q1 -6 7.5 -22t15 -34
t16.5 -34l11 -22q42 -69 93 -135.5t108 -112.5h-250q-8 0 -13.5 -4.5t-5.5 -10.5v-76q0 -14 19 -14h636q8 0 13.5 4t5.5 10v76q0 6 -5.5 10.5t-13.5 4.5h-332q7 14 10 35t3.5 43t-1 42.5t-3.5 32.5l15 6l2 1q5 3 10.5 2t11.5 -3.5t11.5 -5.5t11.5 -4q0 -7 -1.5 -30t-1.5 -47
q0 -25 2.5 -44t8.5 -19q4 0 6 7q22 40 44 76t46 66t52 54t63 41q14 7 20.5 12t16.5 21zM620 658q0 -16 -11 -16t-11 16q0 8 3.5 12t7.5 4q5 0 8.5 -4t3.5 -12h-1zM396 375q0 -23 -11 -39t-28 -16q-16 0 -27.5 16t-11.5 39t11.5 39t27.5 16q17 0 28 -16t11 -39zM375 364
q0 8 -3.5 12.5t-8.5 4.5q-12 0 -12 -17q0 -16 12 -16q5 0 8.5 4.5t3.5 11.5z" />
    <glyph glyph-name="section" unicode="&#xa7;" horiz-adv-x="545" 
d="M557 270q0 84 -96 149q-17 11 -57 31.5t-104 48.5q-75 33 -75 47q0 9 24 9q19 0 39 -3t41 -11q13 -5 32 -13.5t46 -21.5q10 -5 19 2l91 74q9 8 8.5 18t-11.5 15q-155 84 -267 84q-81 0 -135 -38q-67 -46 -67 -128q0 -32 28 -76q-34 -23 -56 -58q-29 -47 -29 -98
q0 -88 94 -152l-1 1q20 -14 60 -34t103 -47q74 -33 74 -46t-25 -13q-63 0 -158 53q-4 2 -11 2q-6 0 -9 -3l-95 -73q-8 -7 -7.5 -17t9.5 -15q154 -92 277 -92q72 0 130 41q32 23 49.5 53.5t17.5 70.5q0 24 -15 53q-10 20 -10 26q2 -3 16 10q13 13 24 26.5t20 29.5
q12 22 19 45.5t7 49.5zM387 241q0 -19 -23 -48l-151 77q-16 8 -26.5 14t-16.5 11h1q-17 14 -17 32q0 26 24 46l148 -72q58 -29 61 -55v-5z" />
    <glyph glyph-name="dieresis" unicode="&#xa8;" horiz-adv-x="0" 
d="M188 452q8 0 13 4.5t5 10.5v100q0 6 -5 10.5t-13 4.5h-142q-8 0 -13 -4.5t-5 -10.5v-100q0 -6 5 -10.5t13 -4.5h142zM-44 451q8 0 13 4.5t5 11.5v98q0 6 -5 10.5t-13 4.5h-143q-7 0 -12 -4.5t-6 -10.5l-1 -15v-51l1 -32q0 -7 5 -11.5t13 -4.5h143z" />
    <glyph glyph-name="copyright" unicode="&#xa9;" horiz-adv-x="679" 
d="M675 321q0 141 -99 237q-100 98 -237 98t-237 -98q-98 -98 -98 -237q0 -140 99 -237q49 -48 108 -73t129 -25q138 0 237 98q98 96 98 237zM599 321q0 -108 -76 -184q-77 -77 -184 -77t-184 77t-77 184t78 184q76 76 184 76q54 0 99.5 -18.5t84.5 -57.5q73 -74 76 -178
q-1 -2 -1 -6zM459 235q-22 -16 -34.5 -24.5t-15.5 -10.5q-11 -5 -25.5 -7t-32.5 -2q-52 0 -80 34l1 -1q-27 35 -27 89q0 53 30 97q27 42 76 42q34 0 60 -23q12 -11 19.5 -25t11.5 -31q1 -7 6.5 -11.5t11.5 -4.5h19q8 0 13.5 6t5.5 14l-5 117q0 8 -5 12.5t-13 4.5h-18
q-16 0 -19 -15q-1 1 -3 1q-14 0 -43 8q-35 9 -53 9q-82 0 -136 -60q-26 -30 -40 -64.5t-14 -76.5q0 -83 55 -141q54 -54 140 -54q47 0 86 21q27 15 64 52q7 7 6 15t-7 13l-7 11q-5 8 -13 9t-14 -4z" />
    <glyph glyph-name="ordfeminine" unicode="&#xaa;" 
d="M841 524q-8 13 -19.5 19.5t-24.5 11.5q-29 12 -53 28.5t-46 37t-43 44t-43 47.5q-8 10 -18 18.5t-22 7.5q-7 12 -13.5 25.5t-13.5 26t-15.5 23t-20.5 16.5q-24 -12 -49 -31t-50.5 -40.5t-49 -45l-44.5 -44.5q-11 -11 -24 -24.5t-24 -29.5t-17.5 -34.5t-4.5 -38.5v-7
q-25 -29 -46 -62t-40 -69q0 -8 -0.5 -14.5t-0.5 -15.5q14 -20 37.5 -31t42.5 -22q55 -32 105 -74.5t96 -93.5l14 14q-3 19 -4.5 38t-6.5 38q-2 12 -5.5 28.5t-4.5 32.5t3 30t16 21l14 -3q43 -45 63.5 -112.5t20.5 -138.5v-49v-22v-35q0 -20 1.5 -40t4.5 -33h-378
q-8 0 -13.5 -4.5t-5.5 -10.5v-76q0 -14 19 -14h636q8 0 13.5 4t5.5 10v76q0 6 -5.5 10.5t-13.5 4.5h-227q14 14 25.5 29.5t23.5 31.5q38 49 76.5 97t80.5 90l-22.5 -15t-20.5 -12.5t-21 -9t-26 -3.5q-14 0 -31.5 3t-29.5 13q-28 24 -49.5 62.5t-36.5 83.5t-23.5 92.5
t-9.5 89.5q37 -44 77 -69.5t79.5 -27t77 23t71.5 81.5q6 11 8.5 21t4.5 22zM551 727q0 -23 -13 -40t-31 -17q-17 0 -30 17t-13 40q0 24 13 41t30 17q18 0 31 -17t13 -41zM646 47q0 -8 -4 -12.5t-9 -4.5q-4 0 -8 4.5t-4 12.5t4 12t8 4q5 0 9 -4t4 -12zM603 12q0 -7 -5 -7
t-5 7t5 7t5 -7zM527 716q0 17 -13 17t-13 -17t13 -17t13 17z" />
    <glyph glyph-name="guillemotleft" unicode="&#xab;" horiz-adv-x="362" 
d="M156 95q10 -8 20 -3t10 17v102l142 -114q9 -8 18.5 -3t9.5 18v120q0 3 -2.5 7.5t-4.5 6.5l-48 40l47 37q2 2 4.5 7t2.5 8v126q0 12 -10 16.5t-20 -3.5l-139 -119v107q0 12 -10 16.5t-20 -3.5l-143 -123q-2 -2 -4.5 -6.5t-2.5 -7.5v-112q0 -8 8 -14zM136 286l41 36v-72z
" />
    <glyph glyph-name="logicalnot" unicode="&#xac;" 
d="M860 288q0 13 -3 25.5t-6 25.5t-5 25.5t1 25.5q-20 33 -19 69.5t2 75.5q9 16 -1 30.5t-27 26.5t-34.5 20.5t-24.5 13.5q-51 35 -89.5 86.5t-69.5 115.5q-6 -14 -12 -27t-13.5 -22.5t-17 -14.5t-23.5 -3q-13 2 -22.5 6.5t-25.5 4.5q-34 0 -65.5 -15.5t-60.5 -40.5t-55 -56
t-48 -62q-13 -18 -25.5 -35.5t-23.5 -37.5q-17 -31 -29 -62.5t-23 -66.5q14 -7 27.5 -12t26.5 -10q16 -6 34 -16.5t35 -23.5t33 -28t29 -29q70 -78 115.5 -164.5t81.5 -191.5h-349q-8 0 -13.5 -4.5t-5.5 -10.5v-76q0 -14 19 -14h636q8 0 13.5 4t5.5 10v76q0 6 -5.5 10.5
t-13.5 4.5h-203q5 8 11 17t13 17q30 39 60.5 77.5t60.5 78.5q24 32 46.5 65.5t45.5 66.5q8 10 12.5 20t4.5 25zM506 697q0 -23 -12.5 -40t-30.5 -17t-30.5 17t-12.5 40q0 24 12.5 41t30.5 17t30.5 -17t12.5 -41zM693 518q4 -50 -6.5 -95t-24.5 -86t-26.5 -78t-12.5 -70
q0 -29 7.5 -55.5t7.5 -55.5q0 -26 -10 -48.5t-21 -42.5q-1 -11 -3.5 -20.5t-2.5 -19.5q-7 -14 -16 -26h-45q-18 25 -27.5 55t-19.5 64q-2 6 -2 10q0 6 2 11.5t4 10.5q-13 42 -30 80.5t-35.5 76t-37 74.5t-34.5 76q-9 23 -12 52.5t6 54.5q10 28 39 57t64 57.5t69 55.5t54 52
q13 1 22.5 -11t15.5 -26q-8 -27 -25 -45t-38 -31.5t-43 -23.5t-40 -19q-34 -17 -59 -56.5t-25 -91.5q0 -5 -0.5 -11t1.5 -11q2 -9 6.5 -20.5t10.5 -23.5l11.5 -23l9.5 -19q24 -51 47 -102.5t34 -109.5q6 1 15 3t19 2.5t19 -1t14 -5.5q0 33 5 67.5t11 66.5q5 23 16.5 48
t20.5 45q6 46 5 92.5t-1.5 92t4 91t21.5 89.5q15 -17 21.5 -39t8.5 -48q2 -17 6 -35.5t0 -34.5zM268 364q0 -8 -4 -12.5t-9 -4.5q-4 0 -8 4.5t-4 12.5t4 12t8 4q5 0 9 -4t4 -12zM482 686q0 8 -3.5 12.5t-8.5 4.5q-14 0 -14 -17t14 -17q5 0 8.5 4.5t3.5 12.5z" />
    <glyph glyph-name="registered" unicode="&#xae;" horiz-adv-x="679" 
d="M675 316q0 139 -99 237t-237 98q-137 0 -237 -98q-98 -98 -98 -237t99 -236q49 -48 108 -73t129 -25q138 0 237 98q49 48 73.5 107.5t24.5 128.5zM524 138h4l-5 -6q-76 -76 -184 -76t-184 75q-77 75 -77 184q0 108 77 185q75 77 184 77q108 0 185 -77q38 -38 56 -82
t20 -96q-1 -2 -1 -6q0 -92 -56 -162v3v17q0 8 -5.5 13t-13.5 5q-9 0 -13 1q-2 0 -6 6l1 -1l-91 115q25 9 45 29q33 33 33 78q0 104 -144 104h-157q-8 0 -13 -5.5t-5 -13.5v-16q0 -8 5 -13.5t13 -5.5h23v-273q0 -1 -10 -3q-5 -2 -9 -2h-8q-8 0 -13.5 -5t-5.5 -13v-17
q0 -19 19 -19h147q8 0 13.5 5.5t5.5 13.5v17q0 8 -5.5 13t-13.5 5q-4 0 -14 2h-2q-9 1 -9 6v94l113 -149q2 -2 7 -4.5t8 -2.5h86zM393 412q0 -31 -30 -42q-9 -3 -22.5 -6t-30.5 -4v107q53 -4 65 -9h-1q17 -9 20 -40q-1 -2 -1 -6z" />
    <glyph glyph-name="degree" unicode="&#xb0;" horiz-adv-x="351" 
d="M320 377q-2 61 -43 102q-42 42 -97 42h-4q-24 0 -44.5 -7t-38.5 -19q-8 -5 -8.5 -13.5t5.5 -14.5l23 -23q4 -5 10.5 -5.5t11.5 2.5q16 11 40 11q30 0 54 -22q23 -23 23 -50v-3q0 -19 -13 -40q-3 -5 -2 -11t5 -11l25 -24q6 -6 13.5 -5.5t12.5 7.5q14 17 20.5 38.5
t6.5 45.5zM228 270l-28 28q-2 2 -6 3.5t-6 1.5h-6q-1 0 -2.5 -0.5t-3.5 -0.5q-32 1 -54 22q-11 10 -16 22.5t-5 26.5v4q0 2 0.5 3t0.5 3v6q0 2 -2 6.5t-4 5.5l-29 29q-8 8 -17 5.5t-12 -13.5t-5 -22t-2 -23q1 -30 11 -55.5t32 -47.5q41 -40 99 -40h3q12 0 22.5 2t21.5 5z
" />
    <glyph glyph-name="plusminus" unicode="&#xb1;" 
d="M834 386q-15 45 -39 89t-52 86t-57.5 81t-53.5 73q-5 6 -12.5 17t-15.5 22t-16 21t-12 13l-3 -5q11 -46 12 -96t-4 -98q-4 11 -9 23t-12 22.5t-14.5 17t-16.5 6.5q-5 0 -12 -5t-14.5 -12t-14 -14.5t-10.5 -11.5q8 60 10 117t0 119q-6 -71 -19 -136.5t-30 -131.5
q-2 -7 -4 -19q-36 -34 -69 -73.5t-66 -77.5q19 27 34 60t27.5 68.5t23 73t19.5 73.5l3 3l-2 4v-3q-19 -37 -46.5 -75t-54.5 -63q-11 -11 -32 -32.5t-42 -47t-36.5 -52t-15.5 -48.5q0 -21 7 -40.5t13 -38.5q11 -14 21.5 -28t21.5 -31q-4 -6 -9.5 -4.5t-10.5 6t-10.5 10
t-9.5 7.5q0 -13 3 -25q9 -21 20 -41t21 -40q14 -28 28 -55t31 -52q21 -32 42.5 -61.5t43.5 -59.5h-208q-8 0 -13.5 -4.5t-5.5 -10.5v-76q0 -14 19 -14h636q8 0 13.5 4t5.5 10v76q0 6 -5.5 10.5t-13.5 4.5h-392q2 8 1 19t-3 17q35 -23 73 -32q5 16 10.5 43.5t7 56t-4 51.5
t-21.5 31q10 14 18.5 31t16.5 34q2 5 4.5 11t5.5 11q4 8 9.5 12.5t10.5 9.5q23 22 46.5 45.5t47.5 44t49.5 35t53.5 19.5q6 1 19 1.5t27 2.5t24.5 6.5t12.5 15.5zM746 471q0 -8 -3.5 -12.5t-7.5 -4.5t-7.5 4.5t-3.5 12.5t3.5 12t7.5 4q5 0 8.5 -4t3.5 -12h-1zM292 357
q0 -23 -11 -40t-28 -17q-16 0 -27 17t-11 40q0 24 11 41t27 17q17 0 28 -17t11 -41zM271 346q0 8 -3.5 12.5t-8.5 4.5t-8.5 -4.5t-3.5 -12.5t3.5 -12.5t8.5 -4.5t8.5 4.5t3.5 12.5z" />
    <glyph glyph-name="acute" unicode="&#xb4;" horiz-adv-x="0" 
d="M117 580h-162q-10 0 -15 -7l-65 -100q-5 -8 -0.5 -15.5t15.5 -7.5h96q42 29 79 56.5t63 47.5z" />
    <glyph glyph-name="mu" unicode="&#xb5;" 
d="M838 349q0 5 -3 11q-8 17 -22.5 44.5t-33 59t-39.5 63.5t-41.5 57.5t-39.5 42t-32 16.5q-11 0 -20 -6t-17.5 -15.5t-16 -20t-14.5 -19.5q2 22 4 43.5t2 44.5q0 48 -15 88.5t-41 68.5q2 -29 6 -58.5t4 -58.5q0 -14 -4.5 -39t-10.5 -52t-13 -51.5t-11 -36.5q-7 -18 -21 -44
t-30.5 -53t-33 -50.5t-27.5 -37.5q23 37 39.5 82.5t27.5 95.5t16.5 102t5.5 101q0 18 -1.5 35t-6.5 34l-5 -4q-22 -46 -43 -92t-45 -90q-28 -51 -55.5 -103t-51.5 -109q-10 -23 -16 -47t-14 -49q14 -42 33 -78.5t41 -69.5q14 0 28 -4.5t28 -4.5q17 0 33 14.5t16 42.5
q0 8 -1.5 16.5t-1.5 16.5q0 37 11 67.5t25.5 59t28.5 57.5t21 62q12 17 24 34.5t29 24.5q14 -6 19.5 -24.5t5.5 -37.5q0 -13 -6.5 -38.5t-17 -57t-23.5 -66t-25.5 -66t-23 -56t-17.5 -35.5q-13 -23 -33.5 -36t-40.5 -13q-10 0 -19.5 -2.5t-19.5 -2.5q-51 0 -96.5 34.5
t-79.5 87.5q15 -28 40.5 -66t54.5 -72t59.5 -58t56.5 -24q25 0 47.5 17t43 41t39.5 51t38 47q-10 -48 -32 -87t-50 -67q-7 -7 -20 -16.5t-27.5 -18.5t-28 -15t-20.5 -6q-12 0 -23.5 4t-23.5 9q14 -25 34 -45h-157q-8 0 -13.5 -4.5t-5.5 -10.5v-76q0 -14 19 -14h636
q8 0 13.5 4t5.5 10v76q0 6 -5.5 10.5t-13.5 4.5h-296q11 30 22.5 60t24.5 59q14 29 28 57t22 62q41 46 78.5 78.5t83.5 65.5q4 3 12.5 8t17 11t15 13t6.5 14zM775 387q0 -23 -11.5 -40t-28.5 -17q-16 0 -27.5 17t-11.5 40q0 24 11.5 41t27.5 17q17 0 28.5 -17t11.5 -41z
M427 702q6 -11 4.5 -33t-6.5 -46.5t-12 -46.5t-12 -32q3 9 0 15t-7.5 7.5t-9 -2t-4.5 -13.5t6 -14.5t12 1.5q-13 -19 -26 -31l-14 4q-1 4 -1 8t-1 9q7 23 18 43.5t21.5 40.5t19 42t12.5 48zM753 376q0 17 -11 17q-13 0 -13 -17t13 -17q11 0 11 17z" />
    <glyph glyph-name="paragraph" unicode="&#xb6;" horiz-adv-x="683" 
d="M646 623q11 0 19 5.5t8 13.5v51q0 8 -8 13.5t-19 5.5h-310q-143 0 -232 -53q-76 -46 -94 -115q0 -4 3 -9t6 -7l290 -201q13 -9 29.5 -5t16.5 18v283h139v-419q0 -2 3.5 -7t5.5 -7l77 -54q7 -5 15 -6t15 1t11.5 6.5t4.5 11.5v474h20zM327 -152q11 0 19.5 5.5t8.5 13.5v355
q0 2 -3.5 6.5t-5.5 6.5l-79 55q-14 9 -30 4.5t-16 -18.5v-409q0 -8 8 -13.5t19 -5.5h79zM600 -152q11 0 18.5 5.5t7.5 13.5v164q0 2 -2.5 6.5t-4.5 6.5l-79 55q-14 9 -30 5t-16 -18v-219q0 -8 8.5 -13.5t19.5 -5.5h78zM186 344l-83 60q-9 6 -26.5 18t-33.5 22.5t-25.5 16
t-2.5 -0.5q12 -38 15 -52.5t3 -17.5q-2 1 -1.5 -0.5t1.5 -0.5v1q1 -1 2.5 -2t3.5 -4q15 -19 32 -26.5t41 -13.5q13 -3 31 -3q19 0 30 1.5t13 1.5z" />
    <glyph glyph-name="periodcentered" unicode="&#xb7;" horiz-adv-x="125" 
d="M141 250q0 32 -22 56q-23 24 -55 24t-56 -22q-24 -24 -24 -56q0 -17 5 -31t17 -26q22 -24 55 -24q32 0 56 24v-1q24 22 24 56z" />
    <glyph glyph-name="periodcentered" unicode="&#x2219;" horiz-adv-x="125" 
d="M141 250q0 32 -22 56q-23 24 -55 24t-56 -22q-24 -24 -24 -56q0 -17 5 -31t17 -26q22 -24 55 -24q32 0 56 24v-1q24 22 24 56z" />
    <glyph glyph-name="ordmasculine" unicode="&#xba;" 
d="M874 323q0 11 -7 18q-13 2 -34.5 -1.5t-46.5 -8.5t-50 -9.5t-44 -4.5q-54 0 -103.5 16.5l-100.5 33.5q-4 1 -11 1q-20 0 -33.5 -18.5t-13.5 -41.5q0 -20 10 -44t24.5 -48t30.5 -44.5t28 -32.5q31 -6 57 8.5t50.5 34.5t49.5 37.5t55 17.5q8 0 16 -4t13 -13
q-2 -23 -25.5 -55.5t-54.5 -61.5t-62.5 -49.5t-50.5 -20.5q-8 0 -12 2q-22 8 -42 28t-39 44.5t-36.5 50t-33.5 44.5q-46 55 -93.5 109t-86.5 117q13 44 36.5 79.5t53.5 64t63.5 50.5t66.5 40q26 -42 54.5 -88.5t61.5 -85t73 -63.5t89 -25q6 0 14 2.5t14.5 7.5t10 12.5
t1.5 17.5l-12 22t-14 21q-5 8 -11.5 15t-13.5 14q-26 29 -48 60q-86 116 -145 254h-2q0 -22 10.5 -51t25.5 -59.5t33.5 -61t33.5 -56t25.5 -43.5t10.5 -24q0 -21 -15 -28t-29 1q-39 25 -59.5 54.5t-32 63.5t-18.5 73.5t-18 84.5q-2 10 -5.5 19t-8.5 17l-6 3
q-18 -17 -49.5 -50.5t-69 -75.5t-77 -88.5t-71.5 -91t-52.5 -83t-21.5 -63.5q12 -11 21.5 -23t23.5 -22q34 -24 67 -48t64 -51.5t59.5 -59.5t52.5 -71q25 -40 44 -84.5t42 -86.5h-317q-8 0 -13.5 -4.5t-5.5 -10.5v-76q0 -14 19 -14h636q8 0 13.5 4t5.5 10v76q0 6 -5.5 10.5
t-13.5 4.5h-269q23 19 44 46t39 46q11 11 33 34t48.5 53t55 63.5t51.5 64.5t38 56t15 39zM577 257q0 -23 -13.5 -39t-32.5 -16t-32 16t-13 39t13 39t32 16t32.5 -16t13.5 -39zM552 246q0 8 -4.5 12t-9.5 4t-9.5 -4t-4.5 -12q0 -7 4.5 -11.5t9.5 -4.5t9.5 4.5t4.5 11.5z
M672 140q0 8 -4 12t-9 4t-9 -4t-4 -12t4 -12t9 -4t9 4t4 12z" />
    <glyph glyph-name="guillemotright" unicode="&#xbb;" horiz-adv-x="361" 
d="M348 217q2 2 4 6.5t2 6.5v112q0 8 -6 14l-142 119q-9 8 -19 3t-10 -17v-103l-139 116q-10 8 -20 3t-10 -17v-124q0 -3 2 -7.5t4 -6.5l45 -38l-46 -39q-2 -2 -4 -6.5t-2 -7.5v-124q0 -12 10.5 -17t19.5 3l140 121v-109q0 -12 10 -16.5t19 3.5zM228 285l-42 -39v74z" />
    <glyph glyph-name="questiondown" unicode="&#xbf;" 
d="M826 362q-39 5 -77.5 19.5t-74.5 34.5q15 0 32.5 3.5t33.5 12t28.5 23t18.5 37.5q4 14 -4.5 20t-15.5 -7q-3 -6 -5.5 -12.5t-6.5 -12.5q-17 -24 -41.5 -29.5t-47.5 -5.5h-8q18 6 30.5 13.5t22.5 28.5q-4 11 -13 21t-16 16q-20 18 -37 39t-32 46q-10 16 -21.5 30t-26.5 19
q-14 -4 -22 -22q-4 52 -17.5 101t-30.5 97q-14 0 -25.5 -8t-21 -21t-17.5 -28.5t-15 -28.5q-5 -8 -9 -15.5t-9 -15.5q-5 -10 -7 -21.5t-2 -22.5q0 -27 10.5 -46t17.5 -42q-7 -30 -4.5 -61t-3.5 -61q-2 -11 -7 -25.5t-11.5 -27.5t-15.5 -21.5t-19 -8.5q-12 0 -21 11
t-13.5 26.5t-3.5 32t9 28.5q5 15 9 34.5t-7 34.5q-47 -48 -69 -82t-25.5 -61t7 -51t29 -50.5t41.5 -59t44 -78.5l-9 4q-21 23 -39 48.5t-38 50.5q-9 11 -18.5 22.5t-18.5 23.5q-13 17 -19 41t-6 48q14 23 28 46.5t29 46.5q17 26 35 51t31 54l3 2q2 9 4.5 18.5t4.5 18.5l-5 7
q-14 -1 -24.5 -9t-19 -19.5t-16.5 -25t-15 -25.5q-4 -7 -8 -12.5t-9 -12.5q-25 -36 -47 -81.5t-39 -90.5q2 -22 11.5 -41t22 -35t27 -29.5t26.5 -25.5q38 -37 65.5 -66t49.5 -60.5t42 -70t43 -95.5l6 -14t8 -13h-276q-8 0 -13.5 -4.5t-5.5 -10.5v-76q0 -14 19 -14h636
q8 0 13.5 4t5.5 10v76q0 6 -5.5 10.5t-13.5 4.5h-349q5 16 7 39t2 47q0 25 -1.5 47.5l-2.5 37.5q17 -29 41.5 -48t52.5 -19q17 0 37.5 12t41.5 31t42 43t40 49t34.5 48t26.5 40q14 23 22 54t11 60zM512 724q0 -21 -11 -36t-28 -15t-28 15t-11 36q0 22 11 37t28 15t28 -15
t11 -37zM745 234q0 -8 -3.5 -11.5t-8.5 -3.5q-4 0 -7.5 3.5t-3.5 11.5q0 7 3.5 11t7.5 4q5 0 8.5 -4t3.5 -11zM491 714q0 7 -3.5 11.5t-8.5 4.5q-12 0 -12 -16q0 -15 12 -15q5 0 8.5 4t3.5 11z" />
    <glyph glyph-name="Agrave" unicode="&#xc0;" 
d="M837 391q0 39 -4.5 75t-12.5 70.5t-18 68.5t-21 70q-2 6 -5 18.5t-7.5 26t-9 23.5t-9.5 10q-11 0 -11 -13q0 -12 4 -28.5t10 -32.5t8 -22q5 -16 12.5 -41t15 -54.5t14 -60.5t9.5 -60t1 -53t-11 -39v8q-16 11 -31 23.5t-30 23.5q-57 41 -101.5 95.5t-80.5 122.5
q-10 19 -15.5 32.5t-10.5 26t-13 25t-22 29.5l-9 4q-5 -6 -9 -12t-9 -13q-4 20 -8.5 39.5t-6.5 39.5l-7 11l-9 6q-5 -5 -8.5 -10t-7.5 -10q-48 -69 -100 -130.5t-97 -131.5q-11 -16 -18.5 -35t-7.5 -40l3 -4l7 -3q27 14 60 24.5t62 10.5q20 0 37.5 -9.5t31 -26t21.5 -38.5
t8 -46q0 -15 -7 -28t-20 -13q-3 0 -5.5 1.5t-5.5 3.5l-18 8t-17 9q-14 9 -31 22t-35 24t-36.5 16.5t-35.5 -0.5q-7 -3 -17.5 -13.5t-20 -24t-16 -27.5t-6.5 -23q0 -24 9.5 -43t23.5 -35t30 -29t30 -25q61 -53 101.5 -115t75.5 -142l1.5 -3l1.5 -3h-248q-8 0 -13.5 -4.5
t-5.5 -10.5v-76q0 -14 19 -14h636q8 0 13.5 4t5.5 10v76q0 6 -5.5 10.5t-13.5 4.5h-369q3 9 5 27t4 38.5t3 39t1 28.5q0 21 -2.5 43t-10.5 42q7 -16 17.5 -40.5t23 -47.5t27.5 -39.5t32 -16.5q19 0 42.5 19.5t46.5 46.5t42.5 55.5t31.5 46.5q22 32 44 65t36 71
q17 20 29.5 40t12.5 52zM361 550q0 -20 -12 -35t-29 -15t-29 15t-12 35q0 21 12 35.5t29 14.5t29 -14.5t12 -35.5zM390 95l-7 -7l-9 4q-13 14 -26 26.5t-25 26.5q-10 12 -19 24.5t-18 23.5q-22 23 -9 57q8 10 18 10q11 0 20 -6q15 -9 27.5 -28t22.5 -41.5t16 -46.5t9 -43z
M338 540q0 15 -12 15t-12 -15t12 -15t12 15zM332 213q0 7 -3.5 10.5t-8.5 3.5q-4 0 -7.5 -3.5t-3.5 -10.5t3.5 -10.5t7.5 -3.5q5 0 8.5 3.5t3.5 10.5zM326 213q0 -6 -5 -6q-4 0 -4 6t4 6q5 0 5 -6z" />
    <glyph glyph-name="Atilde" unicode="&#xc3;" 
d="M839 369q-3 8 -7.5 14t-8.5 14q-12 11 -23.5 21.5t-23.5 21.5q-11 10 -23.5 17t-23.5 16q-14 11 -26 27t-25 30q-24 27 -47 61.5t-42.5 73t-36 80t-27.5 83.5q-1 2 -1 4t-1 4l-0.5 -0.5t-1.5 -0.5q7 -31 10 -63t9 -62q4 -20 10.5 -39.5t11 -39t5.5 -39.5t-5 -42
q-12 30 -22 63t-21.5 65t-26 60.5t-35.5 48.5q-24 1 -48 -15t-46 -40t-42.5 -51t-37.5 -49q-4 -5 -14 -19.5t-21 -30t-20 -30t-11 -19.5q-4 -8 -6.5 -18.5t-4.5 -19.5q-2 -5 -3 -9.5t-1 -9.5q0 -11 5.5 -19.5t13.5 -8.5q14 0 33 9.5l33 16.5q32 17 67.5 29.5t70.5 12.5
q22 0 42 -7t36 -22t25.5 -39.5t9.5 -60.5q0 -26 -6 -47q-23 46 -57 79.5t-75 33.5q-18 0 -34.5 -7t-33.5 -15.5t-33.5 -15.5t-34.5 -7q-11 0 -22.5 4t-22 8.5t-20.5 8.5t-19 4q-5 0 -8 -5.5t-3 -11.5q0 -10 12.5 -17.5t29 -12t32 -7t21.5 -2.5q18 0 34.5 7t33.5 15.5
t33.5 15.5t34.5 7q19 0 36.5 -9.5t33 -25t28.5 -36t22 -41.5q-20 -35 -51 -48.5t-61 -13.5q-26 0 -45.5 16t-37.5 34.5t-36 34.5t-42 16q-9 0 -19 -4.5t-17 -13t-10.5 -21t0.5 -28.5q-3 -21 7.5 -33t21.5 -21q11 -10 23 -18.5t23 -16.5q35 -24 67.5 -61.5t57.5 -80.5
q5 -8 9 -14t11 -8q-4 10 -6.5 20t-7.5 18q20 -31 36.5 -65.5t36.5 -67.5q2 -5 8 -13h-308q-8 0 -13.5 -4.5t-5.5 -10.5v-76q0 -14 19 -14h636q8 0 13.5 4t5.5 10v76q0 6 -5.5 10.5t-13.5 4.5h-288q9 9 19.5 21t20 24.5t16.5 23t10 15.5q4 9 4 19q-3 3 -6.5 4t-6.5 3
q11 9 22 17t22 19q27 27 56.5 62.5t57.5 75.5t53 82t43 82zM442 654q0 -23 -11 -38.5t-26 -15.5q-16 0 -27 15.5t-11 38.5t11 38.5t27 15.5q15 0 26 -15.5t11 -38.5zM416 160q0 -16 -11 -16q-10 0 -10 16t10 16q11 0 11 -16zM422 643q0 16 -12 16q-4 0 -7.5 -4t-3.5 -12
q0 -7 3.5 -11.5t7.5 -4.5q12 0 12 16zM413 164q0 6 -5 6q-4 0 -4 -6q0 -7 4 -7q5 0 5 7z" />
    <glyph glyph-name="Adieresis" unicode="&#xc4;" horiz-adv-x="768" 
d="M716 0q11 0 16.5 7.5t1.5 18.5l-43 117l-232 123h-133l15 44q5 16 -9 23l-134 71q-8 5 -16 1.5t-11 -12.5l-137 -366q-4 -11 1.5 -18.5t16.5 -7.5h176q5 0 10.5 4t7.5 9l28 93h219l31 -94q2 -5 7 -9t11 -4h174zM635 203q12 -7 21.5 2t4.5 22l-170 468q-2 5 -7.5 8.5
t-10.5 3.5h-171q-13 0 -18 -12l-90 -240q-2 -7 0.5 -14t8.5 -10l131 -69q8 -5 16 -1.5t10 12.5q7 23 13 45.5t12 45.5l44 -146q1 -2 4.5 -6t5.5 -6zM585 733q8 0 13.5 5.5t5.5 13.5v125q0 8 -5.5 13.5t-13.5 5.5h-148q-8 0 -13.5 -5.5t-5.5 -13.5v-125q0 -8 5.5 -13.5
t13.5 -5.5h148zM343 732q8 0 13.5 5.5t5.5 13.5v123q0 19 -19 19h-147q-8 0 -13 -5t-6 -13l-1 -19v-63l1 -42q0 -8 5.5 -13.5t13.5 -5.5h147z" />
    <glyph glyph-name="AE" unicode="&#xc6;" 
d="M838 350l-8 14q-13 9 -33.5 17.5t-41 17.5t-38 19t-25.5 23q-12 18 -19 39.5t-19 41.5q-14 21 -30 42.5t-33 38.5l-1 -1q9 -34 30 -74.5t46.5 -80.5t52.5 -76t48 -61q-14 -33 -31 -64.5t-38.5 -58.5t-47 -47.5t-56.5 -30.5l-12 6q10 14 29.5 37.5t38.5 49.5t33 51.5
t14 44.5q0 5 -3.5 15t-8.5 21.5t-10 21.5t-8 15q-19 32 -40 60.5t-35 64.5q-14 37 -20.5 77t-19.5 78q-3 -17 -3 -32q0 -38 11 -72.5t18 -70.5q8 -39 17 -78t20 -78q2 -7 3 -13t1 -13q0 -16 -8.5 -41.5t-21 -49.5t-28 -41.5t-30.5 -17.5q-2 0 -10 2q-9 10 -17 25
q0 11 4.5 20t10 17.5l11 17t8.5 19.5q4 14 4.5 29t0.5 30q0 23 -1 46t-1 46q0 46 3 90.5t-5 90.5q-10 60 -22 118t-20 118q-5 -20 -9 -40t-12 -37q-4 -6 -4 -10q-3 -8 -4.5 -25.5t-3 -37.5t-2 -38.5t-0.5 -27.5q0 -51 2.5 -102.5t-0.5 -102.5q-2 -22 -1.5 -46.5t-2 -48
t-9.5 -44.5t-23 -36q-18 28 -24.5 49t-8 41t0.5 42.5t2 53.5q0 24 4 48t10 47t11.5 46.5t8.5 47.5q3 26 3 51q0 26 5 50q8 32 16 62.5t12 62.5q-23 -42 -40.5 -86.5t-34.5 -90.5q-19 -53 -37.5 -105t-34.5 -106q2 -37 8 -73t11 -73q-10 12 -29.5 26.5t-39.5 30t-35 32.5
t-15 35q0 1 3 12t6.5 24.5t7 25.5t4.5 15q16 45 39 85.5t46 78.5q14 23 29.5 45t27.5 47q-57 -66 -107 -138.5t-79 -162.5q-6 -19 -11.5 -39.5t-5.5 -40.5q0 -8 5 -14t12 -8q10 -7 21.5 -12t16.5 -18h3l11 -9q-13 -5 -19 -15.5t-5 -23t7 -24.5t17 -19q40 -26 73 -55t63 -71
q19 -26 35 -54.5t33 -57.5q8 -14 15.5 -29.5t17.5 -27.5l1 -1h-307q-8 0 -13.5 -4.5t-5.5 -10.5v-76q0 -14 19 -14h636q8 0 13.5 4t5.5 10v76q0 6 -5.5 10.5t-13.5 4.5h-291q8 5 14.5 12t11.5 13q17 17 31.5 36t31.5 37q22 24 43.5 46.5t39.5 51.5q-12 -2 -23.5 -6t-24.5 -4
q18 22 39 39t40 38q46 53 81 115q7 12 15 24.5t13 26.5zM606 44q0 -19 -11 -32.5t-27 -13.5t-27 13.5t-11 32.5q0 20 11 33.5t27 13.5t27 -13.5t11 -33.5zM440 34q-3 1 -8 7t-10.5 13.5t-10.5 15l-7 10.5q6 -3 9.5 1t4.5 9.5t-2 10.5t-9 5q-5 0 -8.5 -4.5t-1.5 -10.5
q-10 16 -17.5 31t-12.5 34q17 -14 27 -20.5t16.5 -13.5t11.5 -19t13 -39q5 -17 5 -30zM585 35q0 14 -11 14q-5 0 -8.5 -4t-3.5 -10t3.5 -9.5t8.5 -3.5q11 0 11 13z" />
    <glyph glyph-name="Ccedilla" unicode="&#xc7;" 
d="M845 394v15q-4 8 -13.5 23.5t-22 33.5t-26.5 37t-27.5 34t-25 25t-18.5 10q-11 0 -15 -10t-7 -22t-8 -22t-17 -10q-14 0 -28 10t-32 10q-55 0 -111 -14q-2 -1 -4.5 -2t-5.5 -1q-14 0 -24.5 14t-10.5 33q0 5 1 10t3 10q13 44 41.5 73.5t64.5 29.5q38 0 73 -16.5t69 -35.5
q-2 4 -11 16t-21 26t-23 26.5t-15 18.5q-23 31 -47.5 61.5t-55.5 45.5l-5 3h-4l-3 -3q-17 -14 -26 -40t-18 -49q-17 -44 -38 -84t-40 -82q-14 -33 -25.5 -68t-24.5 -69q-7 -20 -13.5 -40.5t-13.5 -40.5q-4 -10 -8 -19t-8 -20q-3 -9 -3 -20q0 -20 7.5 -36.5t15.5 -32.5
q-14 10 -19.5 29t-13.5 36q10 49 24 95t24 95l-8 13q-9 -6 -35.5 -23t-55 -35.5t-51.5 -33.5t-25 -18q-6 -6 -6 -17v-19q23 -50 49.5 -96t60.5 -84q31 -35 65 -65.5t62 -70.5l1 -2v-17l-6 -5l-3 1q1 -4 9 -14t18.5 -22t22.5 -25t21 -23h-269q-8 0 -13.5 -4.5t-5.5 -10.5v-76
q0 -14 19 -14h636q8 0 13.5 4t5.5 10v76q0 6 -5.5 10.5t-13.5 4.5h-342q-1 43 -13 73t-28.5 56t-34.5 51.5t-33 58.5q36 13 71.5 29.5t71.5 30.5t72.5 23.5t74.5 9.5q32 0 71.5 12.5t67.5 32.5l9 23q-3 5 -5.5 9.5t-6.5 9.5q-15 18 -50 27.5t-75 13t-78 4t-60 2.5
q13 15 22.5 26t19 18.5t21.5 11.5t31 4q26 0 51.5 -9t51.5 -19.5t52 -20.5t53 -11zM733 496q0 -8 -3.5 -11.5t-8.5 -3.5q-4 0 -7.5 3.5t-3.5 11.5t3.5 12t7.5 4q5 0 8.5 -4t3.5 -12zM436 300q0 -21 -11.5 -36.5t-28.5 -15.5t-28.5 15.5t-11.5 36.5q0 23 11.5 38.5t28.5 15.5
t28.5 -15.5t11.5 -38.5zM414 290q0 16 -12 16q-5 0 -8.5 -4t-3.5 -12q0 -7 3.5 -11t8.5 -4q12 0 12 15zM702 193l-1 2l-4 -3q-20 0 -40 -11.5t-40 -16.5q-14 -4 -28.5 -6t-28.5 -7q-11 -4 -21.5 -10t-21 -11t-21.5 -7.5t-22 1.5q-5 -20 -3.5 -42.5t7 -45.5t13 -44t15.5 -38
q6 -3 11 -3q9 0 18 9t17 21.5t14.5 25.5t11.5 21q18 31 37.5 60t41.5 55q11 13 23.5 24.5t21.5 25.5z" />
    <glyph glyph-name="Egrave" unicode="&#xc8;" 
d="M738 623q-6 8 -10.5 18t-10.5 19q-12 18 -36.5 50t-52.5 62.5t-55 53t-43 22.5q-9 0 -20 -4t-22 -10t-22 -13.5t-18 -15.5l-9 -20h-2q-5 -8 -8.5 -19t-8.5 -21q-5 -13 -12 -23t-14 -21q-5 -8 -9.5 -17t-9.5 -17q-11 -17 -21 -33t-20 -34v-15q3 -12 7.5 -17t10.5 -6.5
t12.5 -1t12.5 0.5q31 0 60 13.5t58.5 29.5t59 29.5t60.5 13.5q26 0 50.5 -10.5t50.5 -19.5q2 -1 6 -1q9 0 16 7zM651 705q0 -17 -11 -17t-11 17q0 9 3.5 13.5t7.5 4.5q5 0 8.5 -4.5t3.5 -13.5h-1zM855 399q-3 9 -5 18.5t-5 17.5q-6 15 -18 30.5t-27 29.5t-30 24.5t-26 16.5
q-22 11 -46 17t-47 6q-38 0 -73 -16.5t-69.5 -36t-69.5 -35.5t-73 -16q-5 0 -13.5 0.5t-17.5 2t-17 3.5t-12 5q-7 5 -13 12.5t-12.5 15t-13 12.5t-15.5 5q-11 0 -17.5 -10t-9 -23.5t0 -29t9.5 -25.5q6 -11 22 -21t26 -14q55 -67 125 -67q36 0 70 12.5t68 27t68 27t70 12.5
h45t44 -5q19 -4 41.5 -7.5t40.5 11.5zM777 455q0 -9 -3.5 -13.5t-8.5 -4.5q-4 0 -7.5 4.5t-3.5 13.5t3.5 13.5t7.5 4.5q5 0 8.5 -4.5t3.5 -13.5zM719 254l-6 12q-39 0 -77 -13t-75.5 -28t-75 -28t-76.5 -13q-32 0 -68.5 18t-72 46.5t-67.5 63.5t-56 68q17 -47 43.5 -92.5
t57 -87.5t62.5 -80t59 -68q20 -22 40 -41.5t40 -41.5q8 -9 21 -25.5t24 -22.5h-317q-8 0 -13.5 -4.5t-5.5 -10.5v-76q0 -14 19 -14h636q8 0 13.5 4t5.5 10v76q0 6 -5.5 10.5t-13.5 4.5h-302q9 4 15.5 13.5t11.5 20.5q19 39 36 74.5t35.5 68.5t39 63t46.5 59q8 8 14 16t12 18
zM631 193q0 -18 -11 -18t-11 18q0 9 3.5 13t7.5 4q5 0 8.5 -4t3.5 -13h-1zM539 22q0 -25 -11 -43t-28 -18t-28 18t-11 43q0 26 11 44t28 18t28 -18t11 -44zM518 10q0 8 -3.5 13t-8.5 5q-12 0 -12 -18t12 -18q5 0 8.5 5t3.5 13z" />
    <glyph glyph-name="Eacute" unicode="&#xc9;" 
d="M878 339q-8 6 -26 19t-40.5 28.5t-48 31t-48 27t-39.5 17t-24 1.5q-36 85 -68 170.5t-67 170.5l-9 5q-2 -18 -4 -36.5t-4 -37.5q-4 -52 -12 -102.5t-8 -102.5q0 -18 2.5 -35.5t5.5 -34.5q7 -45 19.5 -91t30.5 -87.5t42 -77.5t54 -62q8 -2 16 -7t17 -7l6 -11
q-2 -5 -3.5 -10t-3.5 -10q-4 -9 -13.5 -23.5t-20.5 -28t-22 -23t-19 -9.5q-11 0 -19.5 15t-15 35.5t-10.5 41t-6 31.5q-13 59 -26 116.5t-35 111.5q-11 26 -19 59t-16.5 66t-18.5 63t-25 51q-26 4 -46 -7t-35.5 -32t-27.5 -47.5t-22 -52.5q-5 -12 -8.5 -25.5t-3.5 -27.5
q0 -9 1.5 -15t4.5 -13q8 -20 15 -41t15 -41q19 -51 37 -102t34 -104q-13 22 -35 62.5t-43.5 86t-37.5 88t-16 68.5q0 21 7 38q19 43 37 85t38 84q28 59 55.5 116.5t50.5 118.5q-12 -14 -20 -32t-19 -33q-25 -35 -50.5 -69t-50.5 -70q-15 -22 -26 -46.5t-21 -50t-20 -50.5
t-23 -49l4 14l-4 12l-7 3q-7 -4 -15.5 -11.5t-17 -16.5t-16 -18.5t-11.5 -17.5q-1 -3 -1 -10q0 -19 6 -26.5t14 -7.5q9 0 18.5 5.5t17.5 12.5q-9 -9 -16 -23t-11 -30t-5 -33t1 -32q13 -2 22 10t14 29.5t8 36t6 30.5q23 -38 39 -81t40 -80q43 -68 83 -138.5t71 -148.5h-272
q-8 0 -13.5 -4.5t-5.5 -10.5v-76q0 -14 19 -14h636q8 0 13.5 4t5.5 10v76q0 6 -5.5 10.5t-13.5 4.5h-327q2 26 1.5 52.5t-1.5 51.5q6 -14 14 -31t18.5 -32t22.5 -25.5t26 -10.5q19 0 49.5 24t65.5 61.5t70.5 84.5t66 93t51.5 86t27 64zM729 367q0 -23 -13 -40t-32 -17
q-18 0 -31 17t-13 40q0 24 13 41t31 17q19 0 32 -17t13 -41zM743 177q0 -8 -4 -12.5t-9 -4.5t-9 4.5t-4 12.5t4 12t9 4t9 -4t4 -12zM704 356q0 17 -13 17q-5 0 -9.5 -4.5t-4.5 -12.5t4.5 -12.5t9.5 -4.5q13 0 13 17z" />
    <glyph glyph-name="Ecircumflex" unicode="&#xca;" 
d="M834 385q0 13 -2.5 25.5t-4.5 25.5q-20 35 -49.5 55t-60.5 35q-8 4 -14 3.5t-10 -12.5q2 -8 2.5 -14.5t2.5 -14.5q3 -19 4.5 -42.5t1.5 -48.5t-1.5 -48.5t-3.5 -42.5q-8 -13 -15 -26t-15 -24l-1 3q2 16 2 26q0 11 -2.5 19t-7 16t-11.5 20q6 67 -4.5 133t-33.5 126
q-22 56 -42 112t-42 112q-3 -12 -4.5 -38t-1.5 -60t0.5 -72t1.5 -74t2 -65.5t1 -46.5q-6 5 -12.5 5.5t-13.5 1.5l-17 -10q-6 -17 -16.5 -29.5t-21.5 -23.5l-2 2q11 55 23.5 109.5t12.5 111.5q0 12 -0.5 35t-3 46.5t-7.5 43t-15 25.5q-16 -17 -39 -54.5t-46 -81t-42 -85.5
t-27 -67l-6 -20t-7 -20q1 -6 4.5 -17t7.5 -22.5t8.5 -22t7.5 -16.5q-9 -11 -16.5 -20.5t-12.5 -26.5q-14 23 -28 44.5t-30 41.5q6 44 28 91.5t50 93.5t57.5 88.5t51.5 77.5q4 7 8 14.5t9 14.5q-44 -56 -81.5 -98.5t-69.5 -87.5t-60.5 -98.5t-54.5 -130.5l10 -24
q10 -8 27.5 -21t35 -27t33 -28t22.5 -24q11 -17 23 -36t23 -36q30 -44 59.5 -85t49.5 -94q7 -20 13.5 -41t14.5 -41h3l6 6h7l5 -10h-315q-8 0 -13.5 -4.5t-5.5 -10.5v-76q0 -14 19 -14h636q8 0 13.5 4t5.5 10v76q0 6 -5.5 10.5t-13.5 4.5h-285q13 15 25 35.5t22.5 42
t19.5 43t17 39.5q5 11 9.5 21.5t9.5 18.5q10 15 21.5 26t22.5 23q44 48 84 99.5t70 115.5zM464 638q0 -21 -11 -36t-28 -15q-16 0 -27.5 15t-11.5 36t11.5 36t27.5 15q17 0 28 -15t11 -36zM577 325q-10 -29 -23 -42t-37 -13q-14 0 -26.5 10t-17.5 25q-5 14 3.5 20.5
t15.5 -6.5q4 -8 10 -14t15 -6q20 0 25 9.5t14 29.5q3 6 7.5 7.5t8 -1t5.5 -8t0 -11.5zM561 -7q0 -7 -3.5 -10.5t-8.5 -3.5q-4 0 -7.5 3.5t-3.5 10.5t3.5 11t7.5 4q5 0 8.5 -4t3.5 -11zM488 19q0 -15 -11 -15t-11 15q0 7 3.5 10.5t7.5 3.5q5 0 8.5 -3.5t3.5 -10.5h-1z
M443 628q0 7 -3.5 11t-8.5 4t-8.5 -4t-3.5 -11t3.5 -11t8.5 -4t8.5 4t3.5 11z" />
    <glyph glyph-name="Edieresis" unicode="&#xcb;" 
d="M821 342q-3 7 -8 9t-10 2.5t-10 0.5t-9 3q-19 0 -36.5 6t-34 15t-33 19.5t-33.5 19.5q-30 88 -61.5 173.5t-56.5 176.5q3 -24 8 -62.5t9.5 -79t7 -77t-0.5 -57.5q-10 10 -19.5 20t-20.5 19l-5 2q-6 41 -9 81t-4 82q-1 33 -0.5 66.5t-3.5 66.5q-6 -45 -16 -88.5t-21 -85.5
q-8 -28 -20 -53t-21 -53q-15 3 -29 -5q-5 3 -10.5 4.5t-11.5 3.5q13 48 28 93t27 93q-29 -38 -55.5 -78.5t-49.5 -85.5q-10 -18 -19 -38t-20 -37q-8 -12 -21 -29.5t-26.5 -37t-23 -39.5t-9.5 -36q0 -15 5.5 -27t13.5 -22q10 -11 20.5 -18t21.5 -15q45 -35 86 -75t79 -91
q6 -18 10.5 -37t11.5 -36q9 -27 18 -53.5t19 -52.5q4 1 6 14.5t3 30t0.5 32.5t-0.5 21q8 -15 20 -27t27 -9q0 -20 -4 -36t-5 -34h-343q-8 0 -13.5 -4.5t-5.5 -10.5v-76q0 -14 19 -14h636q8 0 13.5 4t5.5 10v76q0 6 -5.5 10.5t-13.5 4.5h-272q11 17 21 34.5t20 35.5
q6 11 11.5 22.5t12.5 19.5q13 15 26.5 28t26.5 27q17 18 42 49t49 67t42.5 72.5t23.5 65.5zM764 307q0 -20 -10.5 -35t-26.5 -15q-15 0 -25.5 15t-10.5 35q0 21 10.5 36t25.5 15q16 0 26.5 -15t10.5 -36zM703 179q0 -14 -10 -14t-10 14q0 15 10 15q11 0 11 -15h-1zM669 186
q0 -15 -10 -15t-10 15q0 14 10 14q11 0 11 -14h-1zM744 297q0 15 -11 15t-11 -15q0 -6 3 -10.5t8 -4.5t8 4.5t3 10.5z" />
    <glyph glyph-name="Igrave" unicode="&#xcc;" 
d="M845 354q-30 4 -67.5 26.5t-74 55t-66.5 70.5t-45 73q-5 14 -10 29t-10 29q-12 36 -24 71l-24 70q4 -39 11 -76.5t14.5 -75t14 -75.5t9.5 -77q-36 84 -56 178t-33 189q-16 -93 -25 -186t-22 -187q-13 51 -12.5 111.5t5.5 114.5q2 15 4 29.5t0 29.5q-8 -10 -15.5 -19.5
t-14.5 -20.5q-10 -17 -18 -35.5t-17 -35.5q-21 -44 -41.5 -87.5t-42.5 -86.5q7 25 13 50.5t13 51.5l-2 19l-9 4q-15 -18 -29 -41.5t-25.5 -49.5t-21.5 -53t-18 -51l8 -30q8 -4 15 -10.5t15 -13.5q20 -17 41 -32t44 -24q-37 13 -75 17.5t-74 -16.5q-6 -9 -12.5 -16t-12.5 -16
v-19l9 -13q8 -2 15 -6.5t15 -6.5q16 10 32 18t33 16q5 -24 13 -42.5t18 -35.5t21 -32.5t23 -33.5q-2 9 -6.5 21.5t-8 25.5t-4.5 25.5t4 21.5q9 -27 20.5 -51.5t24.5 -49.5q21 -42 40 -85.5t36 -88.5h-256q-8 0 -13.5 -4.5t-5.5 -10.5v-76q0 -14 19 -14h636q8 0 13.5 4
t5.5 10v76q0 6 -5.5 10.5t-13.5 4.5h-363q-7 56 -20 111t-42 97q7 4 14 7t14 3q11 0 20 -9t17.5 -22t16 -29t16.5 -29t19.5 -22t23.5 -9t32 14.5t39 37.5t38.5 52t31.5 58t18.5 55.5t-1.5 43.5q12 -12 16 -31.5t4 -41.5t-2.5 -44.5t-3.5 -41t2 -30t14 -11.5q14 0 26 17
q17 26 33.5 56t30 62.5t22 67.5t9.5 71zM348 404q0 -22 -11.5 -37.5t-27.5 -15.5q-17 0 -28.5 15.5t-11.5 37.5t11.5 37.5t28.5 15.5q16 0 27.5 -15.5t11.5 -37.5zM307 246q0 -16 -11 -16t-11 16q0 7 3.5 11t7.5 4q5 0 8.5 -4t3.5 -11h-1zM326 393q0 16 -11 16
q-13 0 -13 -16q0 -15 13 -15q11 0 11 15z" />
    <glyph glyph-name="Iacute" unicode="&#xcd;" 
d="M865 317q0 19 -8 35q-4 8 -17.5 21t-30 25.5t-31.5 21.5t-22 9q-5 0 -10 -0.5t-10 -1.5q-17 39 -36.5 71t-38.5 63.5t-36.5 66.5t-30.5 79q10 -11 24.5 -23.5t30.5 -24.5t31.5 -22t28.5 -17v5q-47 57 -98 114t-102 109l-11 -15q-5 -34 -4 -65t1 -65q0 -28 9 -44
t21.5 -25.5t26.5 -15t23.5 -13.5t12.5 -20.5t-6 -36.5q-11 -7 -23.5 -9.5t-25.5 -2.5q-28 0 -42 11.5t-19 30t-4 41t2.5 44.5t1.5 41q0 20 -8 31q-19 -20 -32.5 -48t-19.5 -60q-51 -36 -101.5 -72t-100.5 -75q-20 -16 -33 -41.5t-13 -57.5t13.5 -58t34 -47.5t43 -38.5
t40.5 -30q25 -18 52 -20.5t53 -2.5t50 -3.5t45 -24.5q-5 -38 -30 -64t-54 -26q-17 0 -32.5 6t-30 13.5t-29.5 14.5t-31 10q-5 7 -16 21t-25.5 30.5t-30 34.5t-29.5 32.5t-25.5 23.5t-17.5 9q-3 0 -9 -2q3 -19 15 -43t27.5 -48t31 -46.5t26.5 -37.5q7 -5 13.5 -11t14.5 -8
q8 -17 22.5 -37.5t32 -37.5t36.5 -26t36 -1q6 -10 11.5 -20.5t10.5 -21.5h-240q-8 0 -13.5 -4.5t-5.5 -10.5v-76q0 -14 19 -14h636q8 0 13.5 4t5.5 10v76q0 6 -5.5 10.5t-13.5 4.5h-300q14 41 24 82.5t19 84.5q7 13 19 29.5t22.5 34.5t18.5 36.5t8 35.5q0 19 -8.5 34.5
t-21.5 27t-28 17.5t-27 6q-4 0 -8 -0.5t-7 -0.5q-23 0 -47 10.5t-43.5 29.5t-32 46.5t-12.5 60.5q35 -25 70 -37t69.5 -24t67 -32t62.5 -61q7 -10 15 -21.5t17 -22t19 -17.5t21 -7q4 0 22 6t39 14t38.5 16t22.5 11q8 6 13 14.5t5 22.5zM546 773q0 -8 -4 -12.5t-9 -4.5
q-4 0 -8 4.5t-4 12.5t4 12t8 4q5 0 9 -4t4 -12zM279 407q0 -23 -12.5 -40t-31.5 -17q-18 0 -30.5 17t-12.5 40q0 24 12.5 41t30.5 17q19 0 31.5 -17t12.5 -41zM255 396q0 17 -13 17t-13 -17t13 -17t13 17z" />
    <glyph glyph-name="Icircumflex" unicode="&#xce;" 
d="M841 336q-1 25 -13 56.5t-29.5 61.5t-37.5 56t-35 41q-30 31 -59.5 27t-56 -27t-49.5 -57.5t-41 -63.5q23 48 42.5 100t19.5 110q0 17 -2.5 39.5t-9.5 37.5q-3 6 -6.5 12t-6.5 12q-5 10 -11 24.5t-13.5 27t-17.5 19.5t-22 3q-19 -61 -41 -120t-46 -117t-36.5 -125
t-12.5 -133q0 -14 3.5 -27t6.5 -26.5t4.5 -27t-2.5 -27.5q-14 19 -29.5 35.5t-33.5 27.5q-13 -9 -23 -20q-7 14 -7 28q0 16 6 41.5t14.5 53t16 54t10.5 46.5q1 4 1 8t2 9h-2h-5q-21 -23 -41.5 -45t-43.5 -42q-14 -12 -32.5 -22.5t-30.5 -25.5q-9 -11 -9 -24q0 -4 2 -10
q18 -53 44 -98.5t55 -87.5q11 -14 21 -29t22 -28q11 -11 31.5 -20.5t34.5 -9.5q19 0 32 13q7 7 12.5 15t12.5 16q20 25 41.5 48t45.5 40q-11 -24 -25.5 -50t-26 -53t-17 -56.5t1.5 -61.5q2 -9 6 -20.5t9 -22.5h-286q-8 0 -13.5 -4.5t-5.5 -10.5v-76q0 -14 19 -14h636
q8 0 13.5 4t5.5 10v76q0 6 -5.5 10.5t-13.5 4.5h-294q12 34 23 68l22 68q9 26 12.5 53t5 54t3 54.5t6.5 54.5q12 -16 13.5 -35.5t-1.5 -40t-7.5 -41.5t-4.5 -40v-13l7 -8q28 36 54.5 72t56.5 68q20 20 40.5 38t41.5 33q12 8 25 14t24 16zM782 404q0 -8 -4 -12t-9 -4
q-4 0 -7.5 4t-3.5 12q0 7 3.5 11t7.5 4q5 0 9 -4t4 -11zM557 648q0 -22 -12 -37.5t-29 -15.5t-29 15.5t-12 37.5t12 37.5t29 15.5t29 -15.5t12 -37.5zM534 637q0 8 -3.5 12t-8.5 4q-13 0 -13 -16q0 -15 13 -15q5 0 8.5 4t3.5 11z" />
    <glyph glyph-name="Idieresis" unicode="&#xcf;" 
d="M527 -79h-23q4 29 6 55.5t2 40.5q0 36 -9.5 69t-9.5 70q0 24 3.5 51t11.5 52t20 44.5t29 29.5h11l6 -17q0 -91 -14 -176.5t-26 -173.5q-2 -11 -3.5 -22.5t-3.5 -22.5zM848 395v19q-11 24 -22.5 45.5t-23.5 42.5l-24 44t-25 42q-44 69 -93 127.5t-99 118.5l-4 1
q-2 -3 -2.5 -6.5t-1.5 -6.5q0 -4 1 -14t1 -15q4 -32 15 -55.5t23.5 -45t24 -44t17.5 -50.5q-11 -2 -19.5 1.5t-17.5 10.5q-21 15 -36 37t-25.5 48t-19 55t-15.5 59q-2 10 -7 22.5t-13 11.5q-10 -13 -16.5 -29.5t-13.5 -32.5q-18 -43 -37 -76t-39 -61.5t-43 -55t-48 -57.5
q-9 -11 -17.5 -21t-18.5 -19l12 -6q15 3 30.5 10t29.5 15q-29 -25 -59.5 -43t-63.5 -29q-6 -7 -11 -14t-10 -18l1 -20l8 -13q11 -7 21 -10t21 2q-30 -14 -59 -17q-6 -25 3.5 -58t26 -65t35.5 -58.5t33 -38.5l9 6v3q-4 12 -8.5 26.5t-8 30.5t-6 31.5t-2.5 28.5q0 20 4.5 31
t15.5 22q17 18 36 35.5t40 28.5q9 -9 12 -22t4 -27.5t0 -30t-1 -28.5q0 -14 5 -41.5t7.5 -55.5t-2 -49t-23.5 -23q-10 5 -18.5 12t-18.5 13q26 -51 55 -97.5t53 -100.5h-249q-8 0 -13.5 -4.5t-5.5 -10.5v-76q0 -14 19 -14h636q8 0 13.5 4t5.5 10v76q0 6 -5.5 10.5t-13.5 4.5
h-241l2 4q34 81 72.5 143t95.5 113q11 10 20 22.5t14 29.5q-7 12 -19 21l-10 2t-10 1q-8 0 -15 -4t-13.5 -9t-13.5 -9t-15 -5q-8 13 -8 32q0 15 4.5 37.5t10 48t10.5 52t7 50.5q1 12 5 21t14 9q5 0 20.5 -13t33 -30t33.5 -33t24 -22l14 -2zM718 558q0 -8 -3.5 -12.5
t-8.5 -4.5q-4 0 -7.5 4.5t-3.5 12.5t3.5 12t7.5 4q5 0 8.5 -4t3.5 -12zM534 667q0 -23 -11 -40t-27 -17q-17 0 -28.5 17t-11.5 40q0 24 11.5 41t28.5 17q16 0 27 -17t11 -41zM513 656q0 17 -12 17q-5 0 -8.5 -4.5t-3.5 -12.5t3.5 -12.5t8.5 -4.5q12 0 12 17z" />
    <glyph glyph-name="Eth" unicode="&#xd0;" 
d="M852 339q0 4 -5.5 18t-14 32t-19 38.5t-20 39t-17.5 32t-11 18.5q-46 70 -94.5 134t-101.5 124q-12 14 -24.5 27t-23.5 27q-5 5 -8.5 9.5t-8.5 6.5q-12 -8 -20.5 -23.5t-15 -33.5t-12.5 -37.5t-13 -34.5q-41 -97 -101 -179t-127 -142q-18 -16 -34.5 -32.5t-32.5 -36.5
q7 -20 14.5 -39t16.5 -36q6 -11 21 -33.5t34 -50t40.5 -58t41.5 -57t35.5 -46t23.5 -26.5q9 -9 17.5 -16.5t16.5 -18.5q9 -12 15 -24h-252q-8 0 -13.5 -4.5t-5.5 -10.5v-76q0 -14 19 -14h636q8 0 13.5 4t5.5 10v76q0 6 -5.5 10.5t-13.5 4.5h-255q27 77 60.5 137t78.5 119
q9 11 17.5 22.5t17.5 23.5q18 26 41.5 42.5t47.5 32.5q6 4 13 7.5t13 9.5q4 5 7 10.5t3 13.5zM780 399q0 -12 -4.5 -22.5t-11.5 -18.5q-16 -17 -28.5 -32t-23 -30.5t-19.5 -34.5t-19 -44l-12 8q-3 6 -6.5 11.5t-7.5 10.5l-4 2q4 13 11 33t14 41t12 40.5t5 31.5q0 30 -11 55
t-19 51q-10 30 -18 61.5t-16 63.5l1 14l9 10l8 3q16 -12 39.5 -44t46 -70t38.5 -76.5t16 -63.5zM647 427q0 -23 -12 -40t-29 -17t-29 17t-12 40q0 24 12 41t29 17t29 -17t12 -41zM557 528q0 -64 -16.5 -121t-39.5 -111q-7 -17 -14 -41.5t-16.5 -47t-22.5 -38t-31 -15.5
q-17 0 -32 9.5t-31 17.5q-5 -2 -11 -2h-12q-7 4 -16 10t-16.5 14t-13.5 18.5t-7 23.5q20 -8 39 -19t40 -11q27 24 46 64.5t31 88.5t17 98.5t5 92.5q0 11 0.5 21.5t-1.5 21.5q-2 13 -4.5 23.5t-3.5 20.5t-0.5 21t4.5 26q6 7 12.5 16.5t14 15t15 4t14.5 -15.5q22 -44 36 -86.5
t14 -98.5zM421 467q0 -23 -12 -40t-29 -17t-29 17t-12 40q0 24 12 41t29 17t29 -17t12 -41zM731 471q0 8 -4 12t-9 4q-4 0 -7.5 -4t-3.5 -12t3.5 -12.5t7.5 -4.5q5 0 9 4.5t4 12.5zM625 416q0 8 -3.5 12.5t-8.5 4.5q-13 0 -13 -17t13 -17q5 0 8.5 4.5t3.5 12.5zM398 456
q0 8 -3.5 12.5t-8.5 4.5q-13 0 -13 -17t13 -17q5 0 8.5 4.5t3.5 12.5z" />
    <glyph glyph-name="Ntilde" unicode="&#xd1;" 
d="M607 -79h-64q2 25 -4.5 49.5t-1.5 49.5q7 -11 16 -13.5t19 -1t19.5 4.5t18.5 4q-2 -10 -5.5 -22.5t-5 -24.5t0.5 -23t11 -18q-1 -2 -4 -5zM556 865q-5 -13 -12 -19q-17 -55 -17.5 -103.5t11 -92.5t33 -85t48.5 -80q-26 13 -51 26.5t-51 24.5q-9 29 -24 50.5t-27 47.5
q-13 26 -19 56.5t-20 54.5q-31 7 -59 -4t-53.5 -34t-49 -54.5t-45 -66t-41.5 -68.5t-39 -62v-12q12 0 23 2l22 4q38 6 76.5 6.5t76.5 -0.5q-12 0 -33.5 -9t-42 -23.5t-35.5 -33.5t-15 -40q0 -14 8 -25q12 -19 27.5 -35t29.5 -31q42 -47 85 -91l86 -88q-32 19 -62.5 42.5
t-60.5 47t-60.5 46t-62.5 39.5l3 -14q18 -16 34.5 -35t32.5 -40q19 -26 36 -53t35 -54q6 -9 16 -25t22 -35t25 -39.5t26 -38.5h-261q-8 0 -13.5 -4.5t-5.5 -10.5v-76q0 -14 19 -14h636q8 0 13.5 4t5.5 10v76q0 6 -5.5 10.5t-13.5 4.5h-166q15 20 33 46t33.5 52.5t26 49
t10.5 35.5q0 8 -4 18l-14 -5q-6 5 -12.5 8t-14.5 5q31 54 70 97t85 68q-31 -4 -60.5 -16.5t-58 -30.5t-55 -41t-51.5 -47q-2 20 -5.5 38.5t-7.5 38.5q16 -4 30.5 0t28 12t27 17.5t28.5 17.5q27 14 55.5 19.5t56.5 13.5q0 30 18 50q-19 8 -38 12t-36 18q2 3 2.5 6.5t0.5 6.5
q0 14 -7 22.5t-13 16.5q-25 27 -47 58.5t-46 60.5q-5 5 -9.5 10t-8.5 10l-9 -1l-4 -7q-2 -22 2.5 -44t10.5 -42q-35 46 -50 109.5t-23 127.5q-4 29 -7.5 58t-6.5 58q-7 13 -15 18zM253 546q6 0 8.5 -5t2.5 -12q0 -6 -2.5 -11t-8.5 -5t-9 5.5t-3 11.5t3 11.5t9 5.5v-1z
M706 441q17 0 29 -17t12 -41t-12 -41t-29 -17t-29 17t-12 41t12 41t29 17zM714 409q-5 0 -8.5 -5t-3.5 -12q0 -8 3.5 -13t8.5 -5t8.5 5t3.5 13q0 7 -3.5 12t-8.5 5z" />
    <glyph glyph-name="Ograve" unicode="&#xd2;" 
d="M849 354q-14 65 -50 129.5t-80.5 125.5t-91 116t-80.5 102l-10 6q-6 -11 -9.5 -33.5t-5.5 -36.5q-20 -113 -52 -219.5t-76 -204.5q15 36 30.5 89t28 110t18.5 112.5t1 97.5l-11 6l-1 -3q-11 -25 -28 -63.5t-37.5 -84.5t-42 -95.5t-39.5 -94.5t-31 -82.5t-16 -59.5
q3 -13 7.5 -29t10.5 -32t13 -30.5t13 -24.5q8 -12 20.5 -24t26.5 -21t28.5 -14.5t26.5 -5.5q2 0 6.5 2.5t6.5 4.5q15 11 26 28.5t19 38.5t14 44t11 44q14 60 25.5 119.5t28.5 117.5q16 -18 25.5 -44t15.5 -54q-4 -39 -12.5 -75t-19.5 -71t-23 -69.5t-23 -69.5
q-6 -18 -12.5 -44.5t-14 -53t-16 -50t-18.5 -35.5q-21 9 -49.5 39.5t-58 68t-56.5 75t-45 60.5q-11 14 -21.5 30t-21 31t-22.5 28.5t-26 22.5q-4 -16 8.5 -43t34 -60.5t50 -70t58 -71t56 -64t44.5 -48.5h-224q-8 0 -13.5 -4.5t-5.5 -10.5v-76q0 -14 19 -14h636q8 0 13.5 4
t5.5 10v76q0 6 -5.5 10.5t-13.5 4.5h-287q5 17 9.5 34.5t9.5 34.5t10 33t9 33q11 45 19 90t25 87q15 -33 11.5 -63.5t-13.5 -59t-21.5 -56.5t-13.5 -55q32 56 66 106.5t72 95.5q22 26 37 56.5t13 73.5q15 -2 30 -2h32q8 0 16.5 5t10.5 20zM752 474q0 -8 -3.5 -12.5
t-8.5 -4.5q-4 0 -7.5 4.5t-3.5 12.5t3.5 12t7.5 4q5 0 8.5 -4t3.5 -12zM366 257q0 -23 -11.5 -40t-28.5 -17t-28.5 17t-11.5 40q0 24 11.5 41t28.5 17t28.5 -17t11.5 -41zM344 246q0 17 -12 17t-12 -17t12 -17t12 17z" />
    <glyph glyph-name="Oacute" unicode="&#xd3;" 
d="M832 524q-8 13 -19 19.5t-23 11.5q-27 12 -50 28.5t-43.5 37t-40.5 44t-41 47.5q-8 10 -17.5 18.5t-21.5 7.5q-7 12 -13 25.5t-12.5 26t-14.5 23t-19 16.5q-23 -12 -47 -31t-48 -40.5t-46.5 -45t-41.5 -44.5q-10 -11 -22.5 -24.5t-23 -29.5t-17 -34.5t-4.5 -38.5v-7
q-46 -58 -81 -131q0 -8 -1 -14.5t0 -15.5q12 -20 35 -31.5t40 -21.5q53 -32 100 -74.5t92 -93.5l12 14l-4 38t-6 38q-2 12 -5.5 28.5t-4.5 32.5t2.5 30t15.5 21l14 -3q41 -45 60.5 -112.5t19.5 -138.5v-49v-22v-35q0 -20 1 -40t4 -33h-379q-8 0 -13.5 -4.5t-5.5 -10.5v-76
q0 -14 19 -14h636q8 0 13.5 4t5.5 10v76q0 6 -5.5 10.5t-13.5 4.5h-227q13 14 24 29.5t22 31.5q37 49 73 97t77 90q-12 -8 -21.5 -15t-19.5 -12.5t-20.5 -9t-24.5 -3.5t-30.5 3t-27.5 13q-26 24 -46.5 62.5t-35 83.5t-22.5 92.5t-9 89.5q36 -44 73.5 -69.5t75 -27t73 23
t67.5 81.5q1 2 -16 7.5t-43 12t-56.5 14.5t-57 15t-44 12.5t-16.5 7.5q0 1 18.5 -0.5t45.5 -5t59 -7.5t59 -7.5t45.5 -5t18.5 -0.5zM556 727q0 -23 -12 -40t-29 -17t-29 17t-12 40q0 24 12 41t29 17t29 -17t12 -41zM647 47q0 -8 -4 -12.5t-9 -4.5q-4 0 -7.5 4.5t-3.5 12.5
t3.5 12t7.5 4q5 0 9 -4t4 -12zM606 12q0 -7 -5 -7t-5 7t5 7t5 -7zM533 716q0 17 -12 17t-12 -17t12 -17t12 17z" />
    <glyph glyph-name="Ocircumflex" unicode="&#xd4;" 
d="M482 826l-118 -110q-2 -2 -3.5 -5.5t-1.5 -5.5l1 -237q0 -11 8.5 -15t16.5 4l109 102q2 1 3.5 4.5t1.5 5.5q1 31 0.5 59t-0.5 53q-1 42 1.5 77t6.5 59zM360 433q4 5 4.5 10.5t-4.5 10.5l-118 128q-5 4 -11 4.5t-10 -4.5l-91 -84q-5 -5 -5 -11q0 -5 5 -10l118 -127
q5 -5 10.5 -5.5t10.5 4.5zM827 -8q8 0 13.5 5t5.5 13v92q0 7 -5.5 12t-13.5 5h-296l65 61q5 4 5.5 10t-4.5 11l-100 106l2 91l244 -72q2 0 7 1t7 3l108 101q8 7 5.5 15t-11.5 10q-31 9 -51 14l-32 8l-250 72q-8 2 -14 -4l-228 -213q-11 -9 -1 -21l180 -193h-272
q-8 0 -13.5 -5t-5.5 -12v-92q0 -8 5.5 -13t13.5 -5h636z" />
    <glyph glyph-name="Otilde" unicode="&#xd5;" 
d="M575 -79h-38q8 11 16 25t15 28.5t13 28t11 23.5q7 14 9.5 30.5t2.5 33.5q0 15 -2.5 28t-10.5 24q-9 13 -27 28t-36 31t-32 31.5t-14 29.5t3.5 22t14.5 8q4 0 12 -3.5t17 -8t16.5 -9.5t11.5 -8q17 -14 35.5 -21.5t34.5 -17.5t28 -28t17 -53q-14 -47 -33.5 -87.5
t-39.5 -82.5l-12.5 -25t-11.5 -27zM183 375q3 -5 5.5 -10t6.5 -8q22 -26 48 -43t50 -37q20 -17 39.5 -35t39.5 -33q8 5 10 15.5t2 21.5q0 33 -7 63t-16 55.5t-16 47t-7 36.5q0 12 3 23.5t6 22.5h11q18 -29 30 -63.5t21 -73t15.5 -78t11.5 -76.5q4 -30 11.5 -67t16.5 -74.5
t19.5 -74t21.5 -66.5h-323q-8 0 -13.5 -4.5t-5.5 -10.5v-76q0 -14 19 -14h636q8 0 13.5 4t5.5 10v76q0 6 -5.5 10.5t-13.5 4.5h-238q30 40 61 81t60.5 84.5t55.5 91t45 101.5q6 18 13 46t5 48q-11 4 -28.5 14.5t-36 22t-34 20.5t-22.5 9q-8 0 -11.5 -14t-3.5 -23
q0 -22 3 -41t1 -41q-16 -33 -44 -43t-56.5 -1.5t-52.5 33.5t-33 63q7 -8 12 -17.5t12 -16.5q10 -9 27.5 -14t28.5 -5q19 0 32.5 11.5t22 30t12.5 42t4 48.5q0 29 -5 50t-17 44q-23 44 -43.5 90.5t-38.5 95.5q-7 19 -13.5 42t-16.5 40q-7 12 -17 6.5t-19.5 -19t-17.5 -29.5
t-11 -24q-7 -21 -6 -48t7 -54t14.5 -52t16.5 -42q-3 -11 -14 -10.5t-23 12.5t-21.5 34t-9.5 54q0 10 4 28t8.5 36t8 33t2.5 18l-3 -2q-14 -15 -26.5 -33t-26.5 -35q-49 -62 -96.5 -126t-85.5 -141l-10 -22zM270 472q0 14 10 14t10 -14q0 -16 -10 -16t-10 16zM500 106
q0 22 10.5 37.5t25.5 15.5q14 0 25 -15.5t11 -37.5q0 -23 -11 -38.5t-25 -15.5q-15 0 -25.5 15.5t-10.5 38.5zM277 477q0 -7 4 -7q5 0 5 7t-5 7q-4 0 -4 -7zM519 116q0 -16 12 -16q10 0 10 16t-10 16q-12 0 -12 -16z" />
    <glyph glyph-name="Odieresis" unicode="&#xd6;" horiz-adv-x="769" 
d="M717 371h-165q-8 0 -13.5 -5.5t-5.5 -13.5v-8q0 -38 -10 -70.5t-29 -58.5q-41 -56 -112 -56q-70 0 -111 62q-37 56 -37 131q0 8 -5.5 13.5t-13.5 5.5h-163q-8 0 -13.5 -5.5t-5.5 -13.5q3 -162 94 -262q97 -108 257 -108q158 0 257 109q94 103 95 261zM713 397
q10 0 15.5 6.5t3.5 15.5q-15 117 -92 202q-99 108 -255 108q-163 -2 -258 -107v1q-75 -82 -90 -205q-2 -9 4 -15t15 -6h163q15 0 19 16q5 24 12.5 43.5t18.5 37.5q37 60 108 60h3q76 0 117 -64q10 -16 17 -35.5t12 -42.5q3 -15 19 -15h168zM585 734q8 0 13.5 5.5t5.5 13.5
v125q0 8 -5.5 13.5t-13.5 5.5h-148q-8 0 -13.5 -5.5t-5.5 -13.5v-125q0 -8 5.5 -13.5t13.5 -5.5h148zM343 733q8 0 13.5 5.5t5.5 13.5v123q0 8 -5.5 13.5t-13.5 5.5h-147q-8 0 -13.5 -5.5t-5.5 -12.5l-1 -19v-64l1 -41q0 -8 5.5 -13.5t13.5 -5.5h147z" />
    <glyph glyph-name="Oslash" unicode="&#xd8;" 
d="M869 428q-15 25 -42 63.5t-58 78.5t-61 75t-49 52q10 5 18 5q5 0 13 -6t16 -14t15.5 -16.5t11.5 -12.5q-39 46 -76.5 94.5t-82.5 87.5q-11 2 -17.5 -2.5t-13.5 -15.5q-11 -18 -16.5 -39.5t-8.5 -44.5t-4.5 -46.5t-2.5 -44.5q-5 -84 -25 -166.5t-39 -163.5
q-2 -11 -3.5 -22t-1.5 -23q0 -33 7 -69.5t11 -72.5t-0.5 -69t-28.5 -59q-7 16 -16.5 30t-17.5 29q-20 37 -37 74t-17 84q0 52 16.5 102.5t37.5 100.5t40.5 100t25.5 103q-36 -79 -69.5 -159t-74.5 -156q-3 -15 -11.5 -26.5t-18 -23t-17 -23.5t-8.5 -27q0 -2 0.5 -3t0.5 -3
q11 -90 52 -147.5t107 -88.5q6 -3 12.5 -5t12.5 -6q11 11 15.5 26.5t4.5 32.5q0 37 10 71.5t10 71.5q0 11 -1.5 22t-1.5 22q0 48 12.5 93.5t22.5 90.5q3 16 5 31.5t5 30.5q5 22 11.5 43t11.5 42q3 11 5 21t5 21q5 18 10.5 35t13 31t18.5 24.5t27 16.5q19 -17 44.5 -59.5
t49 -93t39.5 -99.5t18 -79q-22 -29 -44.5 -56.5t-46.5 -54.5q-17 -20 -34 -40.5t-31 -45.5q-10 -18 -13.5 -37.5t-9.5 -39.5q-9 -29 -23.5 -54.5t-28.5 -50.5v48q0 36 12 69.5t30.5 66.5t40 65.5t40 65t30.5 66t12 68.5q0 22 -8.5 49t-20 54.5t-23 54t-18.5 47.5
q-32 -54 -50.5 -111t-30.5 -116.5t-22 -120.5t-25 -123l-16 -66t-18 -66q-8 -31 -17.5 -53t-36.5 -35q-29 13 -52 31t-42.5 41t-37 49.5t-36.5 55.5q-5 7 -14 23t-18 34t-16 34t-7 24q0 18 13.5 38t22.5 31q43 51 83 106t69 118q14 32 29 65t23 68q-24 -48 -62 -98
t-81.5 -95.5t-89 -85t-85.5 -67.5q12 -48 31.5 -92t45.5 -83q40 -61 85 -111t94 -96h-199q-8 0 -13.5 -4.5t-5.5 -10.5v-76q0 -14 19 -14h636q8 0 13.5 4t5.5 10v76q0 6 -5.5 10.5t-13.5 4.5h-220q26 48 49 99.5t37 103.5q-4 19 -8 37.5t-3 38.5q5 11 17.5 24t27 25t29 22.5
t23.5 16.5q9 5 17 9.5t13.5 11t9 16t3.5 24.5q0 18 -10 44.5t-23.5 54t-27.5 52.5t-23 41q-15 29 -33.5 54t-28.5 57q33 -28 64 -60t60 -69q19 -24 36 -48t36 -47zM592 758q0 -8 -4 -12.5t-10 -4.5q-5 0 -9 4.5t-4 12.5t4 12t9 4q6 0 10 -4t4 -12zM697 437q0 -23 -13 -40
t-33 -17q-19 0 -32.5 17t-13.5 40q0 24 13.5 41t32.5 17q20 0 33 -17t13 -41zM672 426q0 17 -14 17t-14 -17t14 -17t14 17z" />
    <glyph glyph-name="Udieresis" unicode="&#xdc;" horiz-adv-x="665" 
d="M632 290v402q0 8 -5.5 13.5t-13.5 5.5h-165q-8 0 -13.5 -5.5t-5.5 -13.5v-412q0 -62 -17 -87q-4 -6 -4 -7q-8 -6 -8.5 -14t6.5 -15l102 -104q5 -5 12 -5.5t13 4.5q4 4 8.5 7.5t10.5 9.5q80 83 80 221zM477 45l-112 114q-1 2 -6 4t-7 2h-15q-61 0 -81 21v-1q-21 21 -21 79
v21q0 2 -2 6.5t-4 6.5l-164 168q-8 9 -20 4.5t-12 -18.5v-178q0 -137 86 -215q78 -72 209 -72h5q39 0 73.5 7t65.5 20zM202 363q9 -9 21 -5t12 18v315q0 8 -6 13.5t-14 5.5h-163q-8 0 -13.5 -5.5t-5.5 -13.5v-147q0 -2 2.5 -6.5t4.5 -6.5zM524 734q8 0 13.5 5.5t5.5 13.5
v124q0 8 -6 14t-14 6h-146q-8 0 -13.5 -6t-5.5 -14v-124q0 -8 6 -13.5t14 -5.5h146zM284 733q19 0 19 19v123q0 8 -5.5 13.5t-13.5 5.5h-146q-8 0 -13 -5.5t-5 -12.5l-2 -20v-63l2 -41q0 -19 19 -19h145z" />
    <glyph glyph-name="germandbls" unicode="&#xdf;" horiz-adv-x="568" 
d="M535 244q-1 36 -8 65.5t-22 54.5q-23 39 -59 52q9 7 16 14t13 15q19 32 19 83q0 91 -72 142h1q-62 45 -149 45q-66 -1 -112 -19.5t-76 -53.5l-6 -7q-5 -6 -4.5 -13.5t5.5 -12.5l100 -102q9 -9 19.5 -6t12.5 16q6 63 63 63h2q49 0 49 -62q0 -49 -63 -51
q-14 -1 -17.5 -11.5t5.5 -20.5l249 -256q9 -9 19 -5.5t12 16.5q3 27 3 54zM192 1q8 0 13.5 5.5t5.5 13.5v411q0 2 -2 7t-4 6l-127 130q-8 9 -17.5 6t-12.5 -14q-15 -53 -15 -123v-423q0 -8 5 -13.5t13 -5.5h141zM510 133l-117 117q-9 9 -20 5t-11 -18q-3 -100 -58 -100
q-16 0 -47 11q-10 3 -17 -2.5t-7 -15.5v-104q0 -6 4 -11.5t9 -6.5q28 -9 51.5 -13t42.5 -4q104 0 154 82v-1q11 17 21 41z" />
    <glyph glyph-name="atilde" unicode="&#xe3;" 
d="M804 359q0 -22 -11 -38t-27 -16q-17 0 -28 16t-11 38q0 23 11 39.5t28 16.5q16 0 27 -16.5t11 -39.5zM233 322q0 -16 -11 -16t-11 16t11 16t11 -16zM812 -184q8 0 13.5 4t5.5 10v76q0 6 -5.5 10.5t-13.5 4.5h-257q20 30 49.5 69t61.5 80.5t63.5 84t57 80.5t41 69.5
t15.5 51.5v8t-2 9q-17 12 -33 26t-33 28q-16 14 -33 25t-31 27q-21 -4 -29.5 -14t-11.5 -24.5t-4.5 -31.5t-7.5 -36q1 -30 -7.5 -55t-21 -46.5t-28.5 -40.5t-30 -36q-8 -10 -14 -19.5t-12 -18.5t-13.5 -16t-19.5 -11q-18 42 -34.5 74t-25.5 64t-8.5 69.5t17.5 88.5
q14 44 21.5 90t25.5 85q6 -7 16.5 -19.5t22.5 -25t23 -22t19 -9.5q5 0 10.5 1.5t11.5 2.5q-5 24 -14.5 50.5t-21 53.5t-22.5 53t-20 48q-15 14 -32 12q0 34 -6 67l-11 14q-25 -23 -43.5 -55t-39.5 -61q-4 -16 5.5 -24t22.5 -15.5t24.5 -18t11.5 -30.5q0 -11 -5 -21t-12 -16
q-14 -28 -36.5 -60.5t-39 -67.5t-20.5 -72t20 -74q-17 4 -33.5 3t-33.5 -3q-6 32 -14.5 62t-13.5 62q3 22 -0.5 41.5t-17.5 32.5q-11 -20 -25.5 -42t-27.5 -46.5t-21 -50.5t-6 -53q16 -37 39.5 -57t48.5 -39q20 -15 37.5 -31.5t34.5 -34.5q6 20 14 37.5t11 38.5
q43 -65 78 -139.5t64 -153.5l6 -18h-336q-8 0 -13.5 -4.5t-5.5 -10.5v-76q0 -14 19 -14h636zM783 349q0 16 -11 16q-12 0 -12 -16t12 -16q11 0 11 16z" />
    <glyph glyph-name="adieresis" unicode="&#xe4;" horiz-adv-x="519" 
d="M329 243h1h136q8 0 13 5.5t5 13.5v115q0 177 -219 177h-4q-45 0 -81.5 -9t-63.5 -26q-75 -47 -75 -137q0 -8 5 -13.5t13 -5.5h135q5 0 10 3.5t7 7.5q5 13 14.5 24.5l9.5 11.5q12 9 39 9q17 0 26 -12q5 -8 8 -16t3 -18v-3v-4q-18 -4 -33 -7t-29 -5q-14 -3 -26.5 -5.5
l-22.5 -4.5q-39 -8 -69 -22t-52 -32l-15 -15q-9 -9 -5 -20.5t18 -11.5h252zM477 2q11 0 16.5 7.5t1.5 17.5q-5 14 -8 25t-3 21v125q0 8 -5 13.5t-13 5.5h-145q-5 0 -10 -4t-7 -9q-4 -15 -13 -30q-21 -37 -60 -37q-38 1 -38 38q0 4 5 12q8 10 3 20t-18 10h-139q-7 0 -12 -5
t-7 -11q-1 -9 -2 -20t-1 -22q2 -78 48 -121q47 -44 121 -43q64 0 130 40v-14q0 -8 5.5 -13.5t13.5 -5.5h137zM226 563q8 0 13.5 5.5t5.5 13.5v122q0 8 -5.5 13.5t-13.5 5.5h-144q-19 0 -19 -19v-122q0 -8 5.5 -13.5t13.5 -5.5h144zM459 563q8 0 13 5.5t5 13.5v122
q0 8 -5 13.5t-13 5.5h-144q-8 0 -13.5 -5.5t-5.5 -13.5v-122q0 -8 5.5 -13.5t13.5 -5.5h144z" />
    <glyph glyph-name="aring" unicode="&#xe5;" 
d="M818 334q-10 -2 -21 -10t-22.5 -19t-22 -22t-19.5 -18q4 10 7 21.5t3 22.5q0 8 -5 18.5t-12 21.5t-14 21t-11 16q-35 58 -65 120.5t-56 128.5q19 -51 27.5 -107.5t22.5 -110.5q6 -26 11 -50q-11 22 -25.5 34t-31.5 20q-24 11 -46 28.5t-44 37.5l-4 12q2 7 3.5 13l3.5 14
q3 12 5 36t3 51t0.5 51.5t-2.5 37.5q-7 2 -14 7t-12 12q5 26 12.5 50.5t8.5 51.5q-3 -23 -13.5 -44t-27.5 -27l-2 2l-3 7q-12 -2 -24 -9q1 -16 7.5 -20t14.5 -9q0 -5 -2.5 -24t-6 -44.5t-8 -54.5t-8.5 -54.5t-7 -43.5t-4 -22q-5 -17 -13 -30.5l-16 -27t-15.5 -27.5
t-11.5 -32q-11 20 -23 38t-22 39q0 54 13.5 106.5t30.5 99.5q-9 -14 -19 -25.5t-20 -25.5q-13 -18 -29.5 -47.5t-32.5 -61.5t-30 -64t-22 -56q4 -30 21 -47t32 -35q51 -7 96 -42.5t84 -82.5q-11 48 -14 97.5t-8 99.5q32 -60 48.5 -130.5t24.5 -144.5l-3 -8q-10 -5 -21.5 -4
t-20.5 5q14 -28 31 -52t37 -44l3 -57h-332q-8 0 -13.5 -4.5t-5.5 -10.5v-76q0 -14 19 -14h636q8 0 13.5 4t5.5 10v76q0 6 -5.5 10.5t-13.5 4.5h-298q6 18 16 41t19.5 45t16.5 40t7 26q0 21 -2.5 42t-5.5 42t-5.5 42t-1.5 42q11 -18 22.5 -37.5t20.5 -41.5t12.5 -46.5
t-0.5 -50.5q25 33 51.5 64.5t52 64t50 67t45.5 73.5zM325 359q0 -21 -10.5 -36t-25.5 -15q-14 0 -24.5 15t-10.5 36q0 22 10.5 37t24.5 15q15 0 25.5 -15t10.5 -37zM518 27q0 -15 -11 -15q-10 0 -10 15q0 14 10 14q11 0 11 -14zM305 349q0 16 -10 16q-11 0 -11 -16
q0 -15 11 -15q10 0 10 15z" />
    <glyph glyph-name="ae" unicode="&#xe6;" 
d="M436 646q1 12 2.5 25t1.5 25t-3.5 23t-12.5 18q-7 6 -22.5 -4t-35 -29t-40.5 -44.5t-38.5 -50.5t-29 -47t-12.5 -35q5 -4 9.5 -7t9.5 -2q2 0 6 2q19 8 42.5 20.5t46.5 28.5t43.5 35.5t32.5 41.5zM570 -79h-61q-2 89 -7 177t-9 176l17 -2q23 -35 38 -76.5t22.5 -87
t7 -93.5t-7.5 -94zM833 373q-27 14 -54 21.5t-54 11.5q6 13 14 23t15.5 20.5t14 22t9.5 26.5q-25 2 -50 -0.5t-50 -6t-50 -5.5t-50 1q26 32 37 78t3 95l12 -18q-23 42 -41 83.5t-38.5 68.5t-46.5 33t-63 -23l18 -35q0 -70 -10.5 -115.5t-28.5 -75.5t-43 -48t-55 -33
t-63.5 -31t-67.5 -41q-4 -16 -10.5 -31t-6.5 -32q0 -9 5.5 -17.5t13.5 -16t15.5 -13.5t12.5 -9q14 -11 36.5 -37t49 -58t53 -67t48.5 -63.5t35.5 -47t14.5 -18.5q-25 66 -54 128t-55 127q39 -6 75 -2q29 -81 50.5 -168t30.5 -179h-323q-8 0 -13.5 -4.5t-5.5 -10.5v-76
q0 -14 19 -14h636q8 0 13.5 4t5.5 10v76q0 6 -5.5 10.5t-13.5 4.5h-241q14 38 27.5 88t21 102.5t7.5 101.5t-12 84l6 3q18 -16 31.5 -39t25.5 -47.5t25 -48t31 -40.5q11 18 29 49.5t34 67t25.5 70.5t4.5 61zM569 697q0 -23 -11 -40t-27 -17t-27 17t-11 40q0 24 11 41t27 17
t27 -17t11 -41zM265 335q0 -8 -3.5 -12.5t-7.5 -4.5t-7.5 4.5t-3.5 12.5q0 16 11 16t11 -16zM548 686q0 17 -12 17q-11 0 -11 -17t11 -17q12 0 12 17z" />
    <glyph glyph-name="ccedilla" unicode="&#xe7;" 
d="M846 301q-18 -22 -34 -45.5t-34 -46.5q-52 -71 -116 -126q10 31 27 56t31 52q8 16 21.5 40.5t26 51t22 52t9.5 43.5q0 15 -3 24t-8.5 15t-13 10.5t-15.5 9.5q-9 6 -22.5 16t-27 22t-25 24.5t-16.5 23.5q-2 20 2 37.5t8 36.5q-17 68 -49.5 135t-66.5 124l-14 -2
q-11 11 -23.5 15t-24.5 4q-14 0 -22.5 -4t-19.5 -15q-65 -59 -123 -120t-109 -141q-24 -38 -42.5 -81t-29.5 -89q37 -27 80 -65.5t84 -83t76 -93t58 -95.5q-7 34 -21 66.5t-28 63.5q-27 61 -64.5 114.5t-77.5 102.5q-9 11 -21.5 30.5t-12.5 36.5q0 8 6.5 24t14.5 33
t16.5 32.5t13.5 22.5q18 28 34.5 54t35 48t40 40t49.5 30q25 -12 33.5 -34t16.5 -51q9 -32 16.5 -64.5t15.5 -64.5q14 -60 23 -119.5t20.5 -117t29 -113t47.5 -107.5q6 21 17.5 46.5t22 52t18.5 52.5t8 48q0 34 -11.5 66.5t-29 64.5t-37.5 63.5t-37.5 63t-29 64.5t-11.5 68
q0 11 0.5 23t-0.5 23q14 -24 27.5 -49t22.5 -53q5 -19 8.5 -38t12.5 -37q13 -24 29 -44t32 -39q23 -26 44 -53t42 -55q-1 -19 -8.5 -47.5t-19 -61t-26.5 -66t-30.5 -62.5t-30.5 -52t-27 -33q-30 11 -43 40t-22 64q-3 11 -5 20.5t-4 20.5q-5 20 -11.5 41t-10.5 42
q-3 14 -4.5 29.5t-5.5 30.5q-9 44 -20.5 88t-11.5 91q0 11 1.5 21.5t1.5 21.5q0 35 -9.5 69t-9.5 70q0 16 -4.5 31t-14.5 26q-5 -4 -11 -6t-12 -5q-63 -30 -100.5 -86t-48.5 -143q0 -2 -0.5 -3t-0.5 -3q0 -15 7 -26.5t16 -22.5t17.5 -22t11.5 -26q38 -74 69 -151.5
t65 -154.5q-5 51 -23.5 100t-38 97.5t-35 97t-15.5 99.5q0 45 15.5 81.5t35.5 72.5q8 14 16.5 28t14.5 29q22 -25 27 -57.5t1 -67.5t-10.5 -70.5t-6.5 -66.5q0 -12 1.5 -22.5t3.5 -21.5q17 -79 35.5 -159t23.5 -162q1 -21 2 -43.5t4 -44.5t8 -43t16 -39l2 -2h-366
q-8 0 -13.5 -4.5t-5.5 -10.5v-76q0 -14 19 -14h636q8 0 13.5 4t5.5 10v76q0 6 -5.5 10.5t-13.5 4.5h-227q37 36 68.5 78.5t65.5 83.5q-4 -5 -11 -13t-15 -15.5t-15.5 -13.5t-11.5 -6q-7 0 -17 5q18 16 46 50t57 73t54.5 76.5t39.5 61.5zM551 806q0 -23 -13 -39.5t-31 -16.5
q-17 0 -30 16.5t-13 39.5t13 39.5t30 16.5q18 0 31 -16.5t13 -39.5zM578 -35q0 -8 -4 -12t-9 -4q-4 0 -7.5 4t-3.5 12t3.5 12t7.5 4q5 0 9 -4t4 -12zM527 795q0 17 -13 17t-13 -17t13 -17t13 17z" />
    <glyph glyph-name="egrave" unicode="&#xe8;" 
d="M862 467q-5 9 -15 25.5t-21 34t-21.5 32.5t-16.5 20q-5 5 -9.5 7.5t-9.5 6.5q-11 9 -22.5 20.5t-22.5 23.5q-27 30 -53 62t-54 60t-59.5 47.5t-68.5 24.5q-3 -17 -8 -31.5t-10 -30.5q-12 -41 -23.5 -76.5t-24.5 -69t-28.5 -66.5t-35.5 -69q-30 -9 -60 -17t-60 -8
q-11 0 -20.5 1.5t-19.5 2.5q-6 0 -7 -4.5t4 -9.5q5 -4 20 -4h23q29 0 56 7t54 15l-14 -26q-31 -19 -64.5 -33.5t-67.5 -16.5q-13 -1 -24.5 2.5t-20.5 3.5q-5 0 -6.5 -5t3.5 -9q2 -1 8 -2.5t8 -1.5q19 -4 38.5 -2t38.5 8t37.5 14.5t35.5 18.5q-14 -24 -32 -50
q-33 -13 -66.5 -17.5t-68.5 -4.5q-5 0 -5 -7t5 -7q32 0 62.5 3.5t60.5 13.5l-37 -57q-15 -5 -30 -8.5t-30 -5.5q-2 0 -8.5 -1t-14 -1.5t-13.5 -1.5l-6 -1q-5 -2 -5 -7t6 -7q3 -1 15.5 1t27.5 4.5t28 5.5t18 4q-21 -32 -42 -65t-40 -68q22 -40 50 -71.5t59.5 -58.5t65 -49.5
t66.5 -44.5h-218q-8 0 -13.5 -4.5t-5.5 -10.5v-76q0 -14 19 -14h636q8 0 13.5 4t5.5 10v76q0 6 -5.5 10.5t-13.5 4.5h-315q9 17 16 36t12 30q49 107 107 193t132 165q16 17 29 30t25.5 26.5t24.5 28.5t26 37zM746 561q0 -10 -4 -18t-9.5 -11.5t-9.5 -1.5t-4 12t4 18t9.5 12
t9.5 1.5t4 -12.5zM576 727q0 -23 -12.5 -40t-30.5 -17q-17 0 -29.5 17t-12.5 40q0 24 12.5 41t29.5 17q18 0 30.5 -17t12.5 -41zM740 552q0 10 -6 5.5t-6 -12.5q0 -10 6 -5.5t6 12.5zM553 716q0 17 -13 17t-13 -17t13 -17t13 17z" />
    <glyph glyph-name="eacute" unicode="&#xe9;" 
d="M490 -79h-32q4 6 9 15.5t9 20t7 20t5 15.5l12 -10q-1 -17 -2 -32t-8 -29zM811 629v50q0 16 -2 28.5t-4 28.5l-4 1l-2 3q-11 -10 -20.5 -21t-20.5 -22q-25 -28 -50 -52.5t-53 -44.5q-30 -20 -62 -32.5t-62 -30.5q0 23 -2.5 46.5t-2.5 46.5q0 27 7 54t17.5 53t24 49.5
t25.5 42.5v8l-16 1l-10 -10q-20 -5 -39.5 -11.5t-39.5 -8.5q-27 -3 -54.5 -2.5t-55.5 -7.5q-35 -11 -55.5 -34t-32.5 -54.5t-18.5 -69.5t-13.5 -79q-11 9 -22 9q-13 9 -27 10.5t-28 3.5l-11 -8q-2 -16 0.5 -44t6.5 -62t10 -72t12 -73t11.5 -64t9.5 -47q3 -13 11.5 -29.5
t19.5 -16.5q4 0 16.5 5t27 11t28.5 11.5t21 7.5q5 -12 9 -28t5.5 -33t-0.5 -33t-9 -28q-2 -9 -5 -16t-4 -16q-11 -11 -20 -15.5t-20 -12.5q-4 -3 -3 -8t6 -4q9 2 23.5 14t22.5 20q4 -2 8 -2.5t9 -1.5q-8 -12 -16 -23.5t-18 -19.5q-3 -3 -7 -5.5t-7 -5.5q-4 -4 -2.5 -8.5
t6.5 -2.5q6 2 14 9.5t15.5 17.5t14 19.5t11.5 16.5q7 -1 13 -3t13 -4q-8 -19 -14 -28t-19 -20q-5 -3 -4 -8t6 -4q6 1 12 7.5t11.5 15t9.5 18t7 16.5l21 -8q-4 -20 -10 -41.5t-20 -30.5q-5 -3 -4.5 -8t5.5 -5q7 0 13.5 10t11.5 23t8 26.5t5 20.5q17 -7 30 -17
q-7 -21 -14 -37.5t-18 -33.5q-1 -1 -1 -5h-264q-8 0 -13.5 -4.5t-5.5 -10.5v-76q0 -14 19 -14h636q8 0 13.5 4t5.5 10v76q0 6 -5.5 10.5t-13.5 4.5h-316q4 12 5 28.5t1 24.5q10 -9 19 -13q-3 10 -3 23q0 5 6.5 32t15 58t16.5 58.5t11 33.5l-1 5q16 -7 30 -21t28 -27.5
t29 -24.5t32 -12q9 -7 21.5 -12t24.5 -5t22 6.5t16 23.5q10 31 16 69.5t9 80t4.5 82t3.5 75.5q0 11 1 21.5t1 21.5q0 23 -1 45.5t-1 44.5q0 23 1.5 45.5t1.5 44.5zM510 762q0 -9 -4 -13t-8.5 -3.5t-8.5 6t-4 14.5q0 10 4 14t8.5 3t8.5 -6.5t4 -14.5zM275 471
q0 -20 -10.5 -35t-26.5 -15q-15 0 -25.5 15t-10.5 35q0 22 10.5 37t25.5 15q16 0 26.5 -15t10.5 -37zM503 762q0 8 -5.5 9t-5.5 -7t5.5 -9t5.5 7zM255 462q0 15 -11 15t-11 -15t11 -15t11 15z" />
    <glyph glyph-name="ecircumflex" unicode="&#xea;" 
d="M840 693q0 22 0.5 43t-0.5 42q0 10 -1.5 21t-5 20t-11 15t-20.5 6q-2 0 -5 -0.5t-6 -0.5q-40 -38 -80.5 -75t-82.5 -72.5t-86.5 -67t-92.5 -58.5q-21 -11 -42.5 -29.5t-21.5 -45.5q0 -15 10 -23t23.5 -11.5t28.5 -3.5t25 2q-17 -11 -33 -24.5t-29.5 -29.5t-22.5 -34.5
t-10 -39.5q-12 -3 -24 -5t-25 -2q-31 0 -45 7.5t-22 18.5t-15.5 23.5t-25.5 21.5q-13 -12 -23 -40t-18 -64t-13.5 -77t-8 -79.5t-3 -70.5t2.5 -50q2 -13 5 -25.5t5 -26.5q6 -8 17.5 -6t19.5 4q38 24 75 49.5t76 48.5q2 -34 19.5 -68t41.5 -65h-230q-8 0 -13.5 -4.5
t-5.5 -10.5v-76q0 -14 19 -14h636q8 0 13.5 4t5.5 10v76q0 6 -5.5 10.5t-13.5 4.5h-349q-15 15 -29.5 32.5t-26.5 37t-19.5 40.5t-7.5 43q48 25 100.5 42.5t106.5 17.5q26 0 42.5 18t23 45.5t2.5 59.5t-19 59.5t-42 45.5t-65 18q-12 0 -29 -4.5t-34.5 -11.5t-34.5 -14
t-29 -11q2 12 6.5 23t11.5 21t24.5 25t38 30t40 28t31.5 18q36 17 65.5 17.5t58 -4t58 -9t63.5 3.5q21 16 28 41t8 53t-2 56t-3 51zM598 307q0 -23 -17 -40t-40 -17q-24 0 -41 17t-17 40q0 24 17 41t41 17q23 0 40 -17t17 -41zM567 296q0 8 -5 12.5t-13 4.5q-7 0 -12 -4.5
t-5 -12.5t5 -12.5t12 -4.5q8 0 13 4.5t5 12.5z" />
    <glyph glyph-name="edieresis" unicode="&#xeb;" 
d="M807 -48q-7 27 -25 49.5t-45 37.5t-62 21t-75 0q-5 25 -10.5 49.5t-12.5 47.5q45 18 79 38t59.5 43t41.5 51.5t25 64.5q-6 27 -15.5 59t-26 60.5t-41.5 49t-62 25.5q-22 2 -46 -2.5t-49.5 -13t-50.5 -19.5t-48 -22l-18 43q38 26 75.5 63t70 77.5t57.5 81t38 74.5h-4
q-21 -12 -39 -27t-38 -29q-33 -24 -71 -46.5t-77 -41.5t-79 -33t-78 -20l-2 6l42 65q4 6 -2.5 6.5t-10.5 -5.5l-43 -66l-1 -9l-24 -5q0 14 7.5 30.5t17.5 31.5q4 6 -2.5 6.5t-10.5 -5.5q-12 -17 -20 -35.5t-7 -35.5q-10 -6 -17.5 -13.5t-12.5 -15.5t-4 -22.5t6 -29t11.5 -27
t12.5 -17.5q14 -12 34.5 -15t43.5 0.5t48 13t49 23.5l17 -39q-50 -27 -89 -60t-66 -75q-5 -30 -3.5 -67.5t12.5 -71.5t33.5 -58.5t60.5 -28.5q18 -2 40.5 -0.5t47 5.5t49 10.5t44.5 13.5q6 -23 10.5 -45t9.5 -45q-29 -7 -61.5 -20.5t-64 -31t-60.5 -38.5t-52 -42h-141
q-8 0 -13.5 -4.5t-5.5 -10.5v-76q0 -14 19 -14h636q8 0 13.5 4t5.5 10v76q0 6 -5.5 10.5t-13.5 4.5h-450q8 3 15 5.5t15 4.5q53 16 102 21t94.5 2.5t89 -10.5t84.5 -16q11 2 21 9t18 15zM568 700q-5 -8 -11.5 -11t-11 -1.5t-6 7t4.5 14.5q5 8 11.5 11t11 1t6 -7.5
t-4.5 -13.5zM743 331q-14 -20 -39.5 -33t-48.5 -11q-22 3 -28.5 20t6.5 37q14 21 39.5 34t47.5 10q23 -2 30 -19t-7 -38zM560 702q5 8 0 10t-10 -6q-5 -7 0 -9t10 5zM706 325q10 15 -7 17q-6 1 -13.5 -3t-11.5 -10q-5 -7 -2.5 -11.5t8.5 -5.5q16 -2 26 13z" />
    <glyph glyph-name="igrave" unicode="&#xec;" 
d="M379 744q-6 -1 -11.5 -5.5t-10.5 -9.5q-5 -6 -9.5 -12.5t-9.5 -12.5q-19 -23 -39.5 -39.5t-44.5 -24.5q-17 -6 -32.5 -13.5t-29.5 -18.5q0 -14 7 -22t17 -13t20 -6.5t16 -1.5q36 0 60.5 26t44.5 70q9 20 13 40t9 43zM818 131q-18 53 -54 74t-73 10q-17 27 -36.5 49
t-42.5 36q14 14 25.5 29.5t20.5 35.5q-14 38 -34.5 73t-41.5 64q-1 21 0.5 43t8.5 41q23 -24 46.5 -46t46.5 -45q12 -12 23.5 -25t23.5 -25q6 -7 13 -13l14 -12l2 -1l4 8q-6 16 -23.5 47.5t-42.5 70.5t-53.5 81.5t-55.5 81t-49 69t-34 46.5v3l-12 9q-3 -4 -4.5 -9t-3.5 -10
q6 -43 13 -73t18 -54.5t27 -46t40 -47.5q-7 -19 -9 -40t-2 -42q-21 26 -40 38.5t-47 12.5q-21 0 -47 -8.5t-51.5 -24t-47.5 -36t-36 -44.5q-6 -10 -10 -21t-9 -22q-4 -10 -5.5 -16.5t-1.5 -17.5q0 -14 2 -27l4 -26q16 -20 31 -40t31.5 -37.5t34.5 -30.5t39 -19
q-14 -24 -26 -50t-26 -49q-29 29 -59.5 54.5t-59.5 54.5q-16 17 -30 36t-29 37q-14 17 -28 20q13 -39 38 -86.5t56 -97t64.5 -99.5t65.5 -93h-203q-8 0 -13.5 -4.5t-5.5 -10.5v-76q0 -14 19 -14h636q8 0 13.5 4t5.5 10v76q0 6 -5.5 10.5t-13.5 4.5h-359q-2 15 -4 28.5
t-4 20.5q-10 36 -33 66t-43 51q15 25 27.5 52.5t27.5 51.5q14 -2 29.5 -0.5t29.5 10.5q9 6 17.5 14t17.5 15q20 16 39.5 30t38.5 31q23 -13 42 -33.5t36 -46.5q-26 -12 -46 -37.5t-34.5 -59t-22.5 -72.5t-9 -77l6 -12l6 8v2q10 11 19 24.5t20 25.5q65 79 151 91q12 2 26 5.5
t21 21.5zM519 472q0 -8 -4 -10.5t-8.5 -0.5t-8.5 7.5t-4 13.5t4 10.5t8.5 0.5t8.5 -7.5t4 -13.5zM748 150q0 -23 -11 -40t-27 -17t-27.5 17t-11.5 40q0 24 11.5 41t27.5 17t27 -17t11 -41zM444 433q0 -8 -4 -10.5t-8.5 -0.5t-8.5 7.5t-4 13.5t4 10.5t8.5 0.5t8.5 -7.5
t4 -13.5zM511 480q0 6 -5 9t-5 -5q0 -7 5 -9.5t5 5.5zM727 139q0 17 -11 17q-12 0 -12 -17t12 -17q11 0 11 17zM438 439q0 6 -5 8.5t-5 -5.5q0 -6 5 -8.5t5 5.5z" />
    <glyph glyph-name="iacute" unicode="&#xed;" 
d="M811 100q-2 6 -3 12.5t-3 12.5q-4 11 -13 24t-20 25.5t-22.5 22t-18.5 14.5q-29 18 -60.5 15.5t-59.5 -22t-49.5 -54.5t-31.5 -82q-46 22 -89 52q-17 32 -40 54.5t-46 42.5q-2 1 -7.5 6t-12 10.5t-11.5 10t-6 5.5q-1 2 -1.5 19.5t-0.5 39.5v41v26q19 0 36.5 11.5t32 31.5
t25 46t15.5 53q3 14 4 29t2 29q21 4 42 3q-3 -59 13 -97.5t43 -63.5t59 -40t60 -27q10 -5 20 -8t20 -3q13 0 24.5 7t19.5 24q-1 35 -14.5 78t-34.5 89.5t-47 93.5t-52 90t-49.5 79t-38.5 61q-5 -61 -10 -121t-10 -121q-11 1 -21.5 0.5t-21.5 -2.5q1 56 -8 114
q-15 -6 -24 -26t-18 -37q-20 -35 -46 -64t-52 -51q-6 -5 -12.5 -9.5t-11.5 -11.5l-4 -9l-5 -5q-8 -22 -6 -42.5t9 -38.5t18.5 -32t23.5 -23q-1 -26 -1 -57q0 -30 1 -56q-32 30 -63.5 61t-59.5 70l-6 -6q2 -11 5 -21.5t6 -21.5q7 -27 24.5 -64t41 -78.5t50 -84.5t52.5 -80.5
t49 -67t39 -44.5q12 -5 19 2.5t11 21t5.5 29.5t1.5 28q0 17 -2.5 30t-7.5 28q16 -10 31 -18.5t31 -16.5q-2 -29 0 -58t6 -57h-348q-8 0 -13.5 -4.5t-5.5 -10.5v-76q0 -14 19 -14h636q8 0 13.5 4t5.5 10v76q0 6 -5.5 10.5t-13.5 4.5h-276q21 32 47 59.5t54.5 48t59 32
t60.5 11.5q12 0 23.5 3t22.5 14zM643 491q0 -11 -3.5 -15t-8 -3t-8 7t-3.5 17q0 10 3.5 14t8 3t8 -7t3.5 -16zM757 137q0 -23 -11 -40t-26 -17q-16 0 -26.5 17t-10.5 40q0 24 10.5 41t26.5 17q15 0 26 -17t11 -41zM633 501q0 9 -4.5 10t-4.5 -8q0 -8 4.5 -9.5t4.5 7.5z
M736 126q0 17 -11 17t-11 -17t11 -17t11 17z" />
    <glyph glyph-name="icircumflex" unicode="&#xee;" 
d="M554 811q0 20 -10 22.5t-10 -16.5q0 -20 10 -22.5t10 16.5zM552 811q0 -9 -4.5 -8t-4.5 9t4.5 7.5t4.5 -8.5zM810 369q-4 21 -11.5 38.5t-15.5 33.5q-18 35 -36 69t-39 64q-35 51 -72 100t-75 97q7 -25 18 -53t24 -56t26 -54l24 -48q26 -51 57 -94.5t65 -81.5
q2 -2 9.5 -10.5t9.5 -9.5q2 -2 5 -2.5t5 -2.5zM431 792q0 10 -3.5 16t-7.5 7t-7.5 -3t-3.5 -14t3.5 -16t7.5 -7t7.5 3t3.5 14zM427 792q0 -9 -4.5 -8t-4.5 9q0 9 4.5 8t4.5 -9zM618 489q0 31 -10 57.5t-21 49.5q-13 26 -25.5 54t-26 55t-28.5 51t-33 43q-5 -14 -12 -51.5
t-14 -80t-12 -80.5t-5 -53q0 -14 2.5 -30.5t7.5 -32.5t11.5 -29t14.5 -19q13 -10 38 -12.5t50 4.5t44 25t19 49zM772 248q0 15 -5.5 24.5t-12.5 17.5l-16 5q-25 -7 -48.5 -30.5t-43.5 -56t-37 -69t-29 -70.5l8 1q16 26 31 43t30 29.5t32 23t38 22.5q15 9 30 23t23 37z
M695 456q0 8 -3.5 15t-8.5 7q-2 0 -9 -13t-18.5 -32t-27 -41.5t-34.5 -41.5t-40.5 -32t-44.5 -13q-14 0 -35 8.5t-41 19t-36.5 18t-21.5 6.5q-9 -3 -9 -18q0 -14 9 -21q10 -8 28.5 -17t39 -17t39 -13.5t29.5 -5.5q26 0 52 15.5t50 41t44 57.5t35 65q3 4 3 12zM414 696l-8 5
q-32 -73 -82 -118t-102 -68q-14 -5 -27 -17.5t-13 -38.5q0 -4 2 -12q16 -38 40.5 -60.5t53.5 -22.5q34 0 57.5 25t39.5 64t25 86.5t13 92.5q2 16 2.5 31.5t-1.5 32.5zM297 457q0 -23 -11 -40t-26 -17t-25 17t-10 40q0 24 10 41t25 17t26 -17t11 -41zM277 446q0 17 -11 17
t-11 -17t11 -17t11 17zM466 -69q1 23 0.5 44.5t-5.5 43.5q-21 42 -46.5 67t-52.5 46t-54 42.5t-50 55.5q-4 -12 3.5 -33.5t21.5 -47t32.5 -53t36 -52t32 -43.5t20.5 -27q10 -13 22 -25.5t21 -27.5h-265q-8 0 -13.5 -4.5t-5.5 -10.5v-76q0 -14 19 -14h636q8 0 13.5 4t5.5 10
v76q0 6 -5.5 10.5t-13.5 4.5h-310q20 41 37.5 82t37.5 82q11 23 19 49.5t8 56.5q0 49 -21.5 64t-48 -2t-48 -65.5t-21.5 -126.5q0 -14 1 -32t3.5 -37.5t6 -38t9.5 -32.5h-28z" />
    <glyph glyph-name="idieresis" unicode="&#xef;" 
d="M837 406q-18 35 -37.5 68t-41.5 64q-10 13 -27.5 38t-39.5 54.5t-46 61.5t-46 59.5t-40 47.5t-27 26q5 -19 19.5 -46.5t34 -58.5t42.5 -63.5t45 -62.5t41.5 -55.5t31.5 -41.5q4 -6 17 -24t27 -36t27.5 -29t19.5 -2zM522 804q0 7 -4 12t-9.5 7.5t-9.5 0t-4 -10.5
q0 -6 4 -11.5t9.5 -7.5t9.5 0t4 10zM561 644q0 21 -14 52t-34 60.5t-41.5 51.5t-37.5 25q-2 -8 -4.5 -14.5t-5.5 -12.5q-11 -23 -16.5 -47.5t-15.5 -47.5q-5 -11 -7.5 -19.5t-2.5 -20.5t3 -25t8 -26t12 -23.5t15 -16.5q9 -8 20.5 -11t23.5 -3q13 0 25 3.5t21 9.5
q20 2 35.5 19t15.5 46zM371 800q0 10 -4.5 16.5t-9.5 8t-9.5 -1t-4.5 -8.5q0 -11 4.5 -17t9.5 -7.5t9.5 1t4.5 8.5zM343 733q-26 -17 -53 -31.5t-55 -21.5q-17 -5 -33 -5t-33 -5l8 -25q14 -9 30 -13t32 -4q15 0 34.5 7t36 20.5t26.5 33t7 44.5zM826 138q-2 16 -13 26.5
t-24.5 16.5t-28 7t-23.5 -1q-11 38 -31 70.5t-46 55.5q11 11 21 23.5t18 27.5q1 24 -9.5 47t-27 43t-35 36t-32.5 26q-24 17 -42.5 21t-34.5 -0.5t-30.5 -15t-29.5 -22t-31.5 -20.5t-36.5 -12q-6 -17 -13.5 -32.5t-7.5 -35.5q0 -19 6 -38t16 -35.5t21.5 -30.5t23.5 -24
q-26 -37 -43.5 -75.5t-33.5 -82.5q-38 37 -76.5 72.5t-70.5 80.5q-11 15 -23 29l-24 28l14 -17q6 -20 22 -50t37.5 -65.5t46.5 -73.5t51 -74.5t51 -68t45 -53.5h-250q-8 0 -13.5 -4.5t-5.5 -10.5v-76q0 -14 19 -14h636q8 0 13.5 4t5.5 10v76q0 6 -5.5 10.5t-13.5 4.5h-346
q0 26 -11 52.5t-27 50.5t-34 45t-33 35q17 45 34.5 84.5t43.5 75.5q15 -10 28 -14q-2 -13 -0.5 -34.5t5.5 -45.5t10.5 -46.5t15 -38t18.5 -21t20 6.5q6 17 20 46t28 60.5t23.5 60t5.5 44.5q18 12 32 24q26 -22 45.5 -53.5t30.5 -68.5q-16 -6 -39 -21.5t-33 -32.5
q-8 -13 -13 -33t-9 -35l1 -5l-3 -4v-1l5 1q25 30 55 43.5t58 20t49 9.5t28 12zM579 248q0 -21 -11.5 -37t-28.5 -16t-29 16t-12 37q0 23 12 38.5t29 15.5t28.5 -15.5t11.5 -38.5zM557 238q0 16 -13 16q-5 0 -8.5 -4.5t-3.5 -11.5t3.5 -11.5t8.5 -4.5q13 0 13 16z" />
    <glyph glyph-name="ntilde" unicode="&#xf1;" 
d="M494 766q0 7 -3.5 12.5t-7.5 8t-7.5 0.5t-3.5 -9q0 -8 3.5 -13t7.5 -7.5t7.5 -0.5t3.5 9zM795 337q-14 43 -46 95t-70 104t-76 99.5t-65 82.5q-11 1 -11.5 -16t4 -39t10.5 -41.5t8 -23.5q14 -30 40 -65.5t56.5 -70t61 -65t52.5 -51.5q3 -3 8 -7.5t10 -7t10 -1.5t8 7z
M395 789q0 8 -3.5 13.5t-7.5 7.5t-7.5 0t-3.5 -9q0 -8 3.5 -13t7.5 -7t7.5 -0.5t3.5 8.5zM492 657q-11 38 -23.5 77t-36.5 64q-8 -11 -10 -20.5t-6 -22.5q-5 -19 -15.5 -46t-21 -54.5t-18.5 -53t-8 -42.5q0 -30 12.5 -41t32.5 -11q22 0 43.5 10.5t36 30t19.5 47t-5 62.5z
M368 707l-4 15l-14 -12q-5 -9 -20.5 -21.5t-34 -24t-35.5 -19t-25 -7.5q-7 0 -16 -2t-16.5 -6.5t-12.5 -13t-5 -20.5q0 -8 4.5 -18t10.5 -19t13 -16t12 -10q32 -18 63 1t51 56q9 16 13.5 34.5t7.5 35t4.5 29.5t3.5 18zM691 163v6q0 4 -2 8q-9 13 -20 23t-20 24q-4 -2 -9 1
t-11 2q-34 -26 -58 -71.5t-24 -100.5q0 -25 11 -42q11 5 17 13t13 19q15 23 34 41.5t38 35.5q8 7 19.5 16t11.5 25zM823 174q13 9 6 33.5t-25.5 53.5t-44 58t-48.5 47t-39.5 19.5t-17.5 -22.5q-8 -18 -6.5 -40t8.5 -41h-81q5 16 9 32.5t4 33.5q0 20 -9.5 48.5t-24.5 54.5
t-32.5 44t-32.5 18q-7 0 -18 -4.5t-23.5 -11t-24.5 -13t-19 -9.5q-31 -15 -62 -29.5t-59 -38.5q-5 -14 -0.5 -31t13 -33.5t17.5 -31.5l15 -25q21 -35 50 -67t60 -47q1 -23 1.5 -45.5t5.5 -45.5q-5 -14 -3.5 -35t8 -43.5t16.5 -44.5t21 -37h-305q-8 0 -13.5 -4.5t-5.5 -10.5
v-76q0 -14 19 -14h636q8 0 13.5 4t5.5 10v76q0 6 -5.5 10.5t-13.5 4.5h-304q3 14 6 31t5.5 33.5t4 31.5t1.5 24q0 17 -4 31t-15 24h-12t-18.5 -1t-18 -2.5t-10.5 -2.5q-4 19 -4.5 38.5t-0.5 39.5q21 -8 39 -2t33.5 21t28 36.5t21.5 45.5h91q15 -34 36 -55t50 -26
q19 -4 37.5 -8.5t38.5 -5.5zM769 275q0 -22 -11.5 -37.5t-27.5 -15.5t-27 15.5t-11 37.5q0 23 11 38.5t27 15.5t27.5 -15.5t11.5 -38.5zM747 265q0 16 -11 16t-11 -16t11 -16t11 16zM426 -23q-5 42 -24 82.5t-44.5 78.5t-53 71.5t-49.5 60.5q-5 7 -16.5 22.5t-24 32.5
t-24 30.5t-15.5 15.5q-2 -14 12.5 -45.5t37.5 -71t51.5 -83.5t55.5 -83.5t48.5 -70.5t31.5 -45l9 -5z" />
    <glyph glyph-name="ograve" unicode="&#xf2;" 
d="M809 332q-7 17 -20.5 28.5t-24.5 18.5q-35 21 -62.5 42.5t-52 48t-46.5 59.5t-44 76q-8 15 -15 33.5t-15.5 35.5t-19.5 28.5t-26 11.5q-20 0 -38.5 -11.5t-37.5 -19.5q12 29 24.5 61t14.5 66l-2 2h-5q-21 -27 -40.5 -54t-39.5 -54q-7 24 -10 50t-10 52q-3 14 -11.5 12.5
t-8.5 -18.5q0 -9 2.5 -25.5t6.5 -34t7.5 -34t6.5 -26.5q-15 -21 -29 -42.5t-28 -43.5q-5 3 -20 14t-31.5 23t-30 21.5l-13.5 9.5q-5 0 -8 -5t-3 -11q0 -7 12 -18.5t27.5 -23t30.5 -21t20 -12.5q-15 -24 -26.5 -48.5t-21.5 -53.5l-1 -4q0 -3 2 -6.5t4 -5.5l12 3q8 10 16.5 19
t16.5 19q-8 -15 -21.5 -39.5t-26.5 -52t-22 -53.5t-9 -43q15 -44 29 -74t28 -52t28.5 -38.5t30.5 -34t34 -38.5t39 -52q2 -4 4.5 -7.5t4.5 -8.5v-1l2 -1l-2 2v2q-8 12 -14 25.5t-13 26.5q-37 70 -77.5 137t-69.5 144q9 42 25 77t33 71q1 3 3 8.5t4.5 11t4.5 10.5t4 6
q-9 -32 -22 -65t-13 -68q0 -23 6.5 -36.5t17.5 -27.5q31 -39 56 -84t48 -94q24 -53 41.5 -110t37.5 -114h-280q-8 0 -13.5 -4.5t-5.5 -10.5v-76q0 -14 19 -14h636q8 0 13.5 4t5.5 10v76q0 6 -5.5 10.5t-13.5 4.5h-330q12 34 15 72.5t8 76.5q11 91 -1 174.5t-37 167.5
q18 -35 40.5 -68t49 -59.5t55.5 -42.5t61 -16q45 0 75 27t55 79zM741 306q0 -21 -11 -36.5t-26 -15.5t-26 15.5t-11 36.5q0 22 11 37.5t26 15.5t26 -15.5t11 -37.5zM411 620q0 -15 -11 -15q-10 0 -10 15q0 14 10 14q11 0 11 -14zM358 537q0 7 -2.5 6.5t-5 -3.5t-2.5 -7
q0 -3 5 -3l4 2q-5 -10 -12.5 -6.5t-7.5 14.5q0 8 3.5 11.5t7.5 3.5t7.5 -4.5t2.5 -13.5zM720 296q0 15 -10 15q-12 0 -12 -15q0 -16 12 -16q10 0 10 16zM408 614q0 6 -5 6q-4 0 -4 -6t4 -6q5 0 5 6z" />
    <glyph glyph-name="oacute" unicode="&#xf3;" 
d="M697 597q-5 21 -12.5 38.5t-18.5 31.5q-26 35 -54 69.5t-59 60.5q-3 -3 -5.5 -7.5t-3.5 -9.5q2 -20 2.5 -39t6.5 -36q2 -5 3.5 -10t3.5 -10v-1q9 -5 15.5 -14t13.5 -17q9 -11 21 -23t25.5 -23t27 -18t24.5 -7h1q2 3 5 6.5t4 8.5zM535 802q0 17 -10 16.5t-10 -20.5
q0 -17 10 -16t10 20zM449 801q0 17 -10 16.5t-10 -20.5q0 -17 10 -16t10 20zM520 660q0 8 -2 31t-5.5 47.5t-8 43.5t-10.5 19q-2 0 -3.5 -2.5t-3.5 -4.5q-3 -7 -8 -30t-11 -50t-11 -52.5t-8 -37.5q-3 -11 -7 -32t-4.5 -41.5t4 -36t18.5 -15.5q5 0 8 3t7 8q45 59 45 150z
M729 286q-13 11 -29 10.5t-32 -8.5t-30.5 -22t-23.5 -30q-8 -32 -12 -66t-7 -69l2 -6l8 1q5 5 7.5 11t6.5 13q20 40 43.5 74t49.5 63q4 5 7 8.5t6 7.5zM440 726l-9 -16q-23 -60 -50 -115t-57 -106q5 4 10 7t10 4l-3 -14q9 -4 20.5 10t23 37t22 52t18.5 57t12 51t3 33z
M814 431q-8 17 -23.5 37t-34 37t-37.5 28.5t-32 11.5q-11 0 -21.5 -11.5t-16.5 -27.5q3 -8 5.5 -16.5t2.5 -17.5q-14 -3 -30 -18.5t-27 -29.5q-9 25 -24.5 41t-33.5 21.5t-36.5 0.5t-33.5 -22q-5 -6 -9.5 -13.5t-10.5 -12.5q-4 -21 -9 -40.5t-11 -38.5q-18 -6 -36.5 -9.5
t-36.5 -11.5q-3 14 -9.5 26.5t-14.5 19.5t-17.5 8t-19.5 -8q-7 -6 -13 -14.5t-13 -14.5q-14 -14 -29 -24t-29 -24q-3 -12 -2 -23q7 -20 18.5 -37.5t21.5 -33.5q12 -20 29.5 -41t37.5 -38t40.5 -28t38.5 -11q7 0 13 9t6 20q0 15 -5.5 33t-13.5 37t-16 36t-13 31q-2 16 -3 32
t-4 33q17 7 33.5 10t33.5 8q-10 -39 -15 -80q7 -26 18.5 -47.5t27.5 -35.5q-14 -38 -18.5 -80.5t-2.5 -85.5q-17 16 -35 29t-36.5 26t-36 26.5t-33.5 31.5q4 -21 14.5 -35t21.5 -27q18 -20 36.5 -36.5t37.5 -33.5t37.5 -35.5t35.5 -40.5h-299q-8 0 -13.5 -4.5t-5.5 -10.5
v-76q0 -14 19 -14h636q8 0 13.5 4t5.5 10v76q0 6 -5.5 10.5t-13.5 4.5h-330v9q-4 25 -15.5 43.5t-24.5 32.5q-3 44 1.5 88t18.5 82q25 -18 47.5 -7.5t42.5 39.5q1 -23 0 -49.5t-9 -46.5q-16 12 -25 11.5t-24 -12.5v-2q-9 -20 -9 -53q0 -32 6 -62t16.5 -50.5t23.5 -16.5
q6 14 12 35t11 43.5t8 44.5t3 38q-6 11 -15 19q10 23 11 55t-1 59q10 18 20 41t16 48.5t7.5 52t-5.5 50.5q11 12 25.5 27.5t28.5 17.5q-2 -14 -5.5 -28t-3.5 -30q0 -14 2.5 -30t7.5 -29.5t13 -22.5t19 -9q5 0 9 2t9 4q15 8 31.5 17.5t31.5 22.5t26.5 31t15.5 45zM754 454
q0 -22 -10 -38t-25 -16q-14 0 -24.5 16t-10.5 38q0 23 10.5 38.5t24.5 15.5q15 0 25 -15.5t10 -38.5zM735 443q0 16 -10 16q-11 0 -11 -16t11 -16q10 0 10 16z" />
    <glyph glyph-name="ocircumflex" unicode="&#xf4;" 
d="M817 388q0 8 -1 18.5t-3 18.5q-7 21 -23.5 34t-30.5 24q-18 14 -37.5 25.5t-36.5 27.5q-6 6 -10.5 9t-12.5 3q-7 0 -11 -2q-8 -28 0 -58q-20 40 -32.5 82.5t-30.5 82.5q-7 16 -15 31.5t-16 29.5l-5 -4q0 -34 5 -66t5 -65q0 -26 1 -52.5t6 -52.5q-12 35 -21.5 70.5
t-18.5 71.5l2 22l3 1q3 15 0.5 41t-7.5 53t-13 50.5t-15 34.5q-17 -4 -32.5 -17t-30 -29.5t-28 -34t-26.5 -31.5q-28 -32 -59 -72.5t-58.5 -87t-48.5 -95.5t-30 -97q17 -20 36 -37t38.5 -33.5t38.5 -33.5t37 -36q-7 11 -11.5 23t-10.5 23q-18 32 -41.5 59t-43.5 59
q-3 5 -4.5 9.5t-1.5 12.5q0 19 9 36q19 39 41.5 79.5t54.5 63.5q-13 -19 -24 -35t-20.5 -32t-18.5 -33.5t-18 -39.5q-2 -6 -3.5 -11t-1.5 -11q0 -9 8.5 -25t19.5 -33t22.5 -32.5t16.5 -22.5q35 -49 67.5 -99.5t58.5 -107.5q14 -28 25.5 -57.5t20.5 -60.5q3 -11 6 -22.5
t7 -22.5q4 -10 7 -13h-319q-8 0 -13.5 -4.5t-5.5 -10.5v-76q0 -14 19 -14h636q8 0 13.5 4t5.5 10v76q0 6 -5.5 10.5t-13.5 4.5h-308q12 14 21 35t17 39q5 8 9.5 16t7.5 18q3 7 4.5 19t1 23.5t-4.5 21t-13 12.5q-8 11 -18.5 19t-20.5 18q-33 32 -63.5 80t-48.5 95
q-5 14 -9 28.5t-9 28.5q-4 13 -7 25t-3 26q0 13 3.5 27.5t10.5 26.5t16 19.5t21 7.5q11 0 19.5 -7t16.5 -16q27 -33 49 -59.5t44.5 -48t49 -40t62.5 -35.5q7 -3 14 -9.5t13.5 -12.5t14 -10.5t15.5 -4.5q10 0 26 14.5t31 35t26 41.5t11 34zM785 427q-26 -4 -47 -7.5
t-46 -17.5q-2 -2 -5 -2q-4 0 -7 4.5t-3 9.5q0 7 9.5 13.5t21.5 11t23.5 7t16.5 3.5q-4 -1 -3.5 -6t5.5 -5q4 0 4 6t-5 5q8 2 14 2.5t13 1.5q-3 -2 -2.5 -6.5t4.5 -4.5t4.5 5t-3.5 6q8 1 11.5 -2.5t4 -8.5t-2 -9.5t-7.5 -5.5zM783 360q0 -13 -11 -13q-10 0 -10 13q0 14 10 14
q11 0 11 -14zM361 383q0 -19 -10.5 -32.5t-25.5 -13.5t-26 13.5t-11 32.5q0 20 11 33.5t26 13.5t25.5 -13.5t10.5 -33.5zM769 445q0 6 -5 6q-4 0 -4 -6q0 -5 4 -5q5 0 5 5zM738 437q0 6 -4 6t-4 -6q0 -5 4 -5t4 5zM723 431q0 6 -5 6q-4 0 -4 -6q0 -5 4 -5q5 0 5 5zM706 422
q0 6 -5 6q-4 0 -4 -6q0 -5 4 -5q5 0 5 5zM694 415q0 6 -5 6q-4 0 -4 -6q0 -5 4 -5q5 0 5 5zM781 359q0 7 -5 7q-4 0 -4 -7q0 -5 4 -5q5 0 5 5zM341 374q0 14 -11 14t-11 -14t11 -14t11 14zM728 239q-25 14 -51.5 16t-52.5 8q-13 3 -25 8t-25 9q-8 3 -20.5 10.5t-25 15.5
t-24 14.5t-16.5 6.5q-11 0 -18 -11t-9 -25q4 -8 6.5 -15t4.5 -15q7 -20 17.5 -33.5t21.5 -28.5q10 -12 23 -31.5t27.5 -37.5t30 -31t30.5 -13q13 0 35.5 17.5t41.5 42.5t29.5 50.5t-0.5 42.5z" />
    <glyph glyph-name="otilde" unicode="&#xf5;" 
d="M834 352q-1 6 -4 11.5t-7 10.5q-34 20 -67 40.5t-67 42.5q2 24 -10 44q-6 12 -18 24.5t-21 23.5q-37 47 -68 105t-54 118q-7 17 -16 33.5t-26 16.5q-12 0 -25 -14.5t-21 -25.5l-20 -5q-29 -28 -71 -75t-81.5 -102t-67.5 -111.5t-29 -103.5q-7 -13 -2 -27.5t15 -28
t21.5 -24.5t18.5 -17q70 -65 130.5 -146t98.5 -180l14 -10q2 14 1.5 31t-2 35t-4 35t-4.5 31q20 -34 29.5 -74.5t22.5 -79.5q2 -6 4 -9h-316q-8 0 -13.5 -4.5t-5.5 -10.5v-76q0 -14 19 -14h636q8 0 13.5 4t5.5 10v76q0 6 -5.5 10.5t-13.5 4.5h-293q37 44 80 96t84 107.5
t77.5 112t59.5 110.5zM486 687q0 -21 -12.5 -36.5t-30.5 -15.5q-17 0 -29 15.5t-12 36.5q0 23 12 38.5t29 15.5q18 0 30.5 -15.5t12.5 -38.5zM584 563l-1 -5q-26 -29 -59 -46t-68 -17q-33 0 -71 4.5t-69 18.5q-4 2 -4 5q0 6 7 6.5t16 -1.5t17.5 -5t11.5 -4q47 -11 92 -11
q23 0 45 9.5t39.5 21.5t28 21.5l10.5 9.5q5 0 5 -7zM584 287q0 -8 -4 -11.5t-10 -3.5q-5 0 -9 3.5t-4 11.5t4 12t9 4q6 0 10 -4t4 -12zM398 281q0 -8 -4 -11.5t-9 -3.5q-4 0 -7.5 3.5t-3.5 11.5q0 7 3.5 11t7.5 4q5 0 9 -4t4 -11zM462 677q0 16 -12 16t-12 -16q0 -15 12 -15
t12 15zM579 292q0 7 -5 7t-5 -7t5 -7t5 7zM393 286q0 7 -5 7t-5 -7q0 -6 5 -6t5 6z" />
    <glyph glyph-name="odieresis" unicode="&#xf6;" horiz-adv-x="573" 
d="M543 274h-145q-7 0 -12.5 -5.5t-5.5 -12.5q-2 -23 -8 -42t-16 -33q-27 -37 -75 -37t-75 39h1q-20 32 -23 73q0 7 -6 12.5t-13 5.5h-143q-8 0 -13.5 -6t-5.5 -14q6 -121 78 -190q75 -72 205 -72h5q61 0 109.5 20t86.5 58q35 36 54 81.5t20 102.5zM539 300q9 0 15 6.5
t4 14.5q-7 45 -23 82t-44 67q-74 80 -195 80q-131 0 -210 -67q-69 -58 -81 -163q-1 -8 5 -14t14 -6h144q5 0 10.5 4t6.5 10q7 28 24 51q25 35 73 35h4q49 0 73 -37q10 -16 18 -48q2 -6 7 -10.5t11 -4.5h144zM458 559q8 0 13.5 5.5t5.5 13.5v124q0 8 -5.5 13t-13.5 5h-146
q-8 0 -13 -5t-5 -13v-124q0 -8 5 -13.5t13 -5.5h146zM223 559q8 0 13 5.5t5 13.5v123q0 8 -5 13.5t-13 5.5h-147q-8 0 -13 -5.5t-5 -13.5v-123q0 -8 5 -13.5t13 -5.5h147z" />
    <glyph glyph-name="divide" unicode="&#xf7;" 
d="M807 461q-8 4 -24 11t-33 14t-32.5 12t-23.5 5q-11 0 -19 -9.5t-8 -25.5q0 -12 3.5 -28.5t6.5 -33.5t3.5 -32t-5.5 -25q-13 5 -21 17t-13.5 27t-9 32t-7.5 32t-8 40t-6.5 51.5t-3.5 51.5t2 40l-1 8q-5 8 -7 16.5t-5 17.5q-7 19 -16 36t-17 35q-11 23 -17.5 44.5
t-20.5 41.5v-8q0 -30 6.5 -58t8.5 -57q4 -42 3 -84t5 -84q-17 11 -31 26t-27.5 31l-27 32t-28.5 28l-14 26l-8 4q7 22 14 50.5t5 53.5l-4 4h-3l-15 -7q-26 -32 -52.5 -66t-49.5 -71q-5 -8 -8.5 -17.5t-7.5 -18.5q17 0 35 3t35 3q18 0 34 -11.5t26.5 -29t15.5 -37.5t3 -37.5
t-13 -29t-32 -11.5t-35.5 12t-26.5 26.5t-23 27.5t-24 15q-29 -38 -54 -80t-46 -88q0 -20 8.5 -38.5t22.5 -26.5q13 -8 27 -12.5t28 -11.5q29 -14 56 -31t54 -36q8 -5 17 -9t19 -4q13 0 19.5 8t12 17t11 17t15.5 8t21.5 -8.5t21.5 -21.5t16.5 -28.5t6.5 -29.5
q0 -16 -8.5 -35.5t-18 -41.5t-18 -45.5t-8.5 -47.5q0 -17 4.5 -43.5t12.5 -44.5h-323q-8 0 -13.5 -4.5t-5.5 -10.5v-76q0 -14 19 -14h636q8 0 13.5 4t5.5 10v76q0 6 -5.5 10.5t-13.5 4.5h-288q32 27 55.5 67t47.5 76q15 22 23 46t13 48.5t10 49.5t15 50q8 20 19.5 36.5
t24.5 31.5t26 29.5t25 30.5q5 7 11 16t10 19t4 20q0 11 -7 20zM655 169q0 -14 -11 -14t-11 14t11 14t11 -14zM318 427q0 -21 -11 -36t-27 -15t-27 15t-11 36t11 36.5t27 15.5t27 -15.5t11 -36.5zM650 171q0 7 -5 7q-4 0 -4 -7q0 -6 4 -6q5 0 5 6zM297 417q0 15 -11 15
q-12 0 -12 -15t12 -15q11 0 11 15z" />
    <glyph glyph-name="oslash" unicode="&#xf8;" 
d="M497 -79h-40q2 30 2 54q0 23 -3 45t-8 44.5t-13 51.5q-8 -26 -17.5 -51t-15.5 -51q-17 49 -31.5 98.5t-31.5 97.5q-8 23 -17 43.5t-13 44.5q14 23 39 32t45 9q13 0 29 -8q27 -14 45.5 -41.5t30 -62.5t16.5 -73.5t5 -74.5q0 -12 -1.5 -30t-4.5 -39.5t-7 -44.5t-9 -44z
M598 -79h-23q29 67 55 136t50 139q5 17 8.5 37.5t1.5 40.5q-1 3 -6 18.5t-12.5 37t-16.5 46t-17 47t-14.5 39.5t-9.5 23q-36 -1 -72 13t-71.5 26.5t-71 16t-71.5 -18.5q7 49 20.5 95t28.5 91q10 10 25 10q17 0 30.5 -12t27.5 -25q33 -30 74 -55t80 -36q26 -58 60 -107.5
t69 -97.5q18 -25 35.5 -51t31.5 -56q-45 -98 -98.5 -187t-113.5 -170zM873 309q3 20 -4 40q-22 14 -42 33t-40 37q-37 32 -68 67t-58 73t-51.5 81t-49.5 92q-12 23 -21.5 47.5t-21.5 47.5q-11 7 -22 1.5t-22 -3.5q-36 -17 -75.5 -45.5t-77 -64.5t-70.5 -77t-55 -83h2
q13 13 27.5 28t29.5 28.5t30.5 23.5t32.5 12q-7 -25 -21 -58t-28 -68t-24.5 -67.5t-10.5 -55.5q0 -17 12 -40.5t24.5 -49t20 -50t-1.5 -43.5l-19 -12q-19 25 -36.5 52t-35.5 53q-6 9 -12.5 17t-11.5 18q-5 13 -5 26q0 12 8.5 37t19.5 53t22.5 52.5t17.5 35.5
q-18 -25 -35.5 -51.5t-32.5 -55.5t-26 -61t-15 -68q14 -17 28.5 -32t30.5 -29q56 -51 106.5 -110.5t92.5 -132.5q12 -20 22 -42t21 -44h-253q-8 0 -13.5 -4.5t-5.5 -10.5v-76q0 -14 19 -14h636q8 0 13.5 4t5.5 10v76q0 6 -5.5 10.5t-13.5 4.5h-211q16 21 35 41
q66 71 128 161t110 186zM535 727q0 -23 -12.5 -40t-29.5 -17t-29.5 17t-12.5 40q0 24 12.5 41t29.5 17t29.5 -17t12.5 -41zM730 145q0 8 -4 12t-9 4q-4 0 -8 -4t-4 -12t4 -12.5t8 -4.5q5 0 9 4.5t4 12.5zM512 716q0 17 -13 17t-13 -17t13 -17t13 17z" />
    <glyph glyph-name="ugrave" unicode="&#xf9;" 
d="M502 670q0 22 -11 37.5t-28 15.5q-16 0 -27 -15.5t-11 -37.5q0 -21 11 -36.5t27 -15.5q17 0 28 15.5t11 36.5zM481 660q0 -7 -3.5 -11t-8.5 -4t-8.5 4t-3.5 11t3.5 11.5t8.5 4.5t8.5 -4.5t3.5 -11.5zM823 361q0 9 -5.5 14.5t-10.5 9.5q-20 14 -38.5 25.5t-36 24t-35 27
t-34.5 35.5q-12 15 -24.5 28t-22.5 31q-23 43 -41.5 91t-35.5 96q-3 7 -8.5 21t-12.5 28.5t-13.5 26.5t-10.5 17q-9 -5 -17.5 -16t-17 -23.5t-17 -25.5t-15.5 -22q-32 -36 -69.5 -79.5t-72.5 -92.5t-63 -103t-39 -110q6 -5 23 -15.5t34.5 -17.5t31 -5t13.5 23q0 19 -12 38.5
t-18 35.5q2 8 3 16.5t0 16.5q14 56 43.5 96t60.5 80q14 19 29.5 36.5t30.5 37.5q7 9 12.5 18t12.5 17l7.5 10t10 11.5t10.5 9.5t9 4h5q18 -21 28.5 -51.5t24.5 -57.5q22 -42 47.5 -81.5t51.5 -78t52 -76.5t50 -78q5 -8 7.5 -15t2.5 -18q0 -10 -16 -42t-40.5 -74.5
t-54.5 -89.5t-57.5 -86.5t-49.5 -65.5t-31 -26t-16.5 10.5t-14 25.5t-11.5 30.5t-9 24.5q-5 12 -16.5 36t-23.5 50.5t-21 49.5t-10 34l4 8q6 -2 9 -4q32 -23 49 -58.5t32 -78.5q8 -23 15 -48.5t20 -43.5q25 15 46.5 38.5t40.5 51t36 58t33 60.5q7 12 16.5 29t18 35.5
t14 37.5t4.5 35v1q-12 24 -31.5 54t-42 59.5t-45 54.5t-40.5 38q-66 48 -114.5 31.5t-76.5 -118.5q5 -23 17 -38.5t26 -26.5q-6 13 -4.5 28t8 26.5t16.5 15.5t20 -4q39 -31 66.5 -82.5t27.5 -116.5q0 -16 -3 -34.5t-10 -35t-17 -27.5t-23 -11q-10 0 -19 11q-25 25 -46 55
t-40 62.5t-37 67t-36 67.5l-2 4q-5 8 -11.5 14t-11.5 14l-8 2l-7 -7q1 -2 1 -5q0 -2 1 -4q17 -67 44.5 -126.5t57.5 -116.5t58.5 -115.5t49.5 -122.5q1 -4 3 -10h-309q-8 0 -13.5 -4.5t-5.5 -10.5v-76q0 -14 19 -14h636q8 0 13.5 4t5.5 10v76q0 6 -5.5 10.5t-13.5 4.5h-278
q4 8 5 13q11 14 20.5 29t20.5 30q30 44 61.5 86t62 85t59 89t52.5 98q2 6 2 10zM703 306q0 -14 -11 -14q-5 0 -18 0.5t-27 1.5t-26 2t-16 2q-9 4 -9 15q0 6 3 10.5t8 4.5q10 0 19.5 -1.5t19.5 -1.5q11 0 24 0.5t24 -4.5q9 -2 9 -15zM659 226q0 -15 -11 -15t-11 15t11 15
t11 -15zM690 306q0 6 -5 6q-4 0 -4 -6q0 -7 4 -7q5 0 5 7zM673 310q0 6 -5 6t-5 -6t5 -6t5 6zM650 306q0 7 -5 7q-4 0 -4 -7q0 -6 4 -6q5 0 5 6zM629 312q0 6 -5 6q-4 0 -4 -6t4 -6q5 0 5 6zM613 315q0 6 -5 6t-5 -6q0 -7 5 -7t5 7zM656 227q0 6 -5 6q-4 0 -4 -6q0 -7 4 -7
q5 0 5 7z" />
    <glyph glyph-name="uacute" unicode="&#xfa;" 
d="M844 379q0 12 -10.5 26t-24.5 27.5t-28.5 24.5t-21.5 17q-45 33 -82.5 68.5t-69.5 88.5q-15 24 -30 53q9 -24 16 -49t14 -51q-24 47 -44 96t-42 98q-6 13 -14.5 25.5t-22.5 12.5q-8 0 -18 -12t-20.5 -28t-20 -32t-15.5 -24q-10 -14 -22.5 -24.5t-23.5 -22.5
q-13 -14 -33 -37t-42.5 -50.5t-46 -58.5t-42 -61t-31 -57t-13.5 -47q6 -2 21 -5.5t32.5 -6.5t32.5 -4.5t21 -0.5t11.5 7.5t7.5 14.5q-2 23 -3.5 44.5t0.5 43.5q11 19 19 40t19 39q7 -3 15 -3q27 0 54 22.5t39 54.5q9 25 12.5 61.5t5.5 64.5l-7 7q6 6 12.5 10.5t12 5t9.5 -5
t5 -20.5q-17 -38 -28 -80t-27 -80q10 -5 21.5 -11t22.5 -6q13 0 18 21.5t5.5 49t-1.5 54.5t-2 38l10 10l3 -7q2 -22 1 -44.5t-1 -44.5q0 -21 2.5 -41.5t6.5 -41.5q-5 -8 -6 -17.5t-3 -19.5q-14 14 -31.5 22.5t-36.5 8.5q-21 0 -44 -11.5t-41.5 -31.5t-31 -46.5t-12.5 -56.5
q0 -40 12 -75t31 -65q35 -57 65 -117.5t59 -122.5l3 1q4 8 5.5 33.5t1.5 55.5t-1 57.5t-2 39.5q9 5 14.5 16.5t10 25t8.5 27.5t10 23q5 8 12.5 13.5t13.5 12.5q3 -38 7.5 -76.5t13.5 -74.5q-12 -26 -21.5 -57t-16 -63t-9 -65t1.5 -64h-342q-8 0 -13.5 -4.5t-5.5 -10.5v-76
q0 -14 19 -14h636q8 0 13.5 4t5.5 10v76q0 6 -5.5 10.5t-13.5 4.5h-285q26 47 51.5 93t54.5 91q56 42 104 104.5t90 127.5q6 8 11 18.5t5 23.5zM837 381q0 -14 -19 -19.5t-42 -4t-42 8t-19 17.5q0 6 3 11.5t8 4.5q16 -1 30.5 -6.5t31.5 -5.5q14 0 24.5 5t12.5 5q5 0 8.5 -5
t3.5 -11zM703 244q0 -14 -11 -14t-11 14q0 15 11 15t11 -15zM641 205q0 -9 -6 -13t-12 0q-29 22 -40 62.5t-11 81.5q0 6 3 21.5t7.5 32t10 29.5t10.5 13q10 0 10.5 -11t-4 -26t-9.5 -31.5t-5 -27.5q0 -36 7 -59t16 -37.5t16 -22t7 -12.5zM416 381q0 -21 -12 -36t-29 -15
t-28.5 15t-11.5 36t11.5 36.5t28.5 15.5t29 -15.5t12 -36.5zM834 386q0 6 -5 6t-5 -6t5 -6t5 6zM821 376q0 6 -5 6t-5 -6t5 -6t5 6zM802 370q0 6 -5 6t-5 -6t5 -6t5 6zM781 373q0 7 -6 7q-5 0 -5 -7q0 -6 5 -6q6 0 6 6zM757 376q0 6 -5 6t-5 -6t5 -6t5 6zM735 385q0 6 -5 6
t-5 -6t5 -6t5 6zM697 245q0 6 -5 6t-5 -6t5 -6t5 6zM393 371q0 15 -11 15q-13 0 -13 -15t13 -15q11 0 11 15z" />
    <glyph glyph-name="ucircumflex" unicode="&#xfb;" 
d="M847 331q-17 11 -34.5 15.5t-35.5 5.5t-36.5 0t-36.5 0q6 1 21 5.5t31 10.5t28.5 14t12.5 16q0 6 -3.5 11.5t-8.5 5.5q-2 0 -11.5 -4t-20.5 -8.5t-21.5 -9t-14.5 -5.5q14 15 19 38.5t2 46.5l-3 4l-1 7l-12 13q-2 4 -9 12t-15 16.5t-16 16t-12 10.5q-18 16 -37 43.5
t-36 55.5t-31 50.5t-22 28.5h-9q-29 -15 -56.5 -34.5t-50.5 -45.5q6 16 11 39.5t8.5 49t5 50t-0.5 42.5q-7 -6 -22.5 -23.5t-36 -41.5t-42.5 -51t-42 -51t-35.5 -42.5t-20.5 -25.5q-24 -30 -40 -73.5t-25.5 -84t-13 -69l-3.5 -28.5l85 69l-36 -80l12 9.5t27.5 22t29 25.5
t16.5 19q-3 -45 8.5 -87t31 -81.5t42.5 -76.5t42 -71q19 -35 32 -74.5t29 -75.5l4.5 -9t4.5 -10h-327q-8 0 -13.5 -4.5t-5.5 -10.5v-76q0 -14 19 -14h636q8 0 13.5 4t5.5 10v76q0 6 -5.5 10.5t-13.5 4.5h-271q88 90 165.5 192.5t144.5 217.5zM701 186q0 -8 -4 -11.5t-9 -3.5
q-4 0 -7.5 3.5t-3.5 11.5t3.5 12t7.5 4q5 0 9 -4t4 -12zM569 145q0 -7 1 -10.5l1 -3.5l-1 1.5t-4 5.5q-11 19 -25 41t-26 46t-20 49t-8 49q0 7 1.5 21t5.5 28.5t9 25t13 10.5q5 0 9 -4.5t4 -11.5q0 -5 -8.5 -25t-8.5 -44q0 -32 9 -61.5t19.5 -53.5t19.5 -40.5t9 -22.5z
M340 510q0 -22 -12.5 -37.5t-30.5 -15.5q-17 0 -29.5 15.5t-12.5 37.5q0 23 12.5 38.5t29.5 15.5q18 0 30.5 -15.5t12.5 -38.5zM699 191q0 6 -6 6q-5 0 -5 -6t5 -6q6 0 6 6zM316 500q0 16 -12 16q-13 0 -13 -16t13 -16q12 0 12 16z" />
    <glyph glyph-name="udieresis" unicode="&#xfc;" horiz-adv-x="537" 
d="M484 8q8 0 13 5.5t5 13.5v490q0 8 -5 13t-13 5h-140q-8 0 -13 -5t-5 -13v-315q0 -22 -13 -35l-5 -5l1 2q-18 -15 -44 -15h-5q-46 0 -46 51l-1 6l-20 -3l16 7l-142 145q-9 10 -20.5 5.5t-11.5 -18.5v-160q0 -189 168 -189q77 0 137 51q8 5 8 13q0 9 -6 15l-42 43
q8 2 14 4.5t12 7.5l110 -114q2 -2 6.5 -3.5t6.5 -1.5h35zM182 274q9 -9 20 -5t11 18v230q0 8 -5 13.5t-13 5.5h-141q-8 0 -13.5 -5.5t-5.5 -13.5v-84q0 -2 2 -6.5t4 -6.5zM449 559q8 0 13 5.5t5 13.5v122q0 8 -5 13.5t-13 5.5h-145q-8 0 -13 -5.5t-5 -13.5v-122
q0 -8 5 -13.5t13 -5.5h145zM216 559q8 0 13 5.5t5 13.5v122q0 8 -5 13.5t-13 5.5h-144q-8 0 -13 -5.5t-5 -13.5v-122q0 -8 5 -13.5t13 -5.5h144z" />
    <glyph glyph-name="ydieresis" unicode="&#xff;" 
d="M838 319q0 11 -7 18q-12 2 -31.5 -1t-41.5 -8t-44.5 -9.5t-40.5 -4.5q-48 0 -93 16t-91 32q-6 2 -10 2q-18 0 -30 -18.5t-12 -40.5q0 -19 9 -42.5t22 -46.5t27.5 -42.5t25.5 -31.5q28 -6 51 8t45 33.5t45 36.5t50 17q8 0 15 -4t11 -12q-1 -15 -11.5 -34t-26 -39.5
t-34.5 -39.5t-37.5 -34.5t-36 -24.5t-28.5 -9q-7 0 -11 2q-20 7 -38 26.5t-35 43t-32.5 48t-30.5 43.5q-42 53 -84.5 105t-77.5 113q11 43 32 77t48 61.5t57.5 49t60.5 38.5q24 -41 49.5 -85.5t55.5 -82t66 -61.5t80 -24q6 0 13 2.5t12.5 7.5t9 12t1.5 17q-5 11 -10.5 21.5
t-12.5 19.5q-5 8 -11 14.5t-12 13.5q-24 29 -43 58q-78 111 -131 246h-2q0 -21 9.5 -49t23.5 -58t30 -59.5t30 -54t23.5 -42t9.5 -22.5q0 -20 -14 -27t-26 1q-35 24 -54 52t-29.5 61t-16.5 71t-16 82q-2 9 -5 18t-8 17l-5 2q-16 -17 -44.5 -48.5t-62.5 -72t-69.5 -86
t-64.5 -88t-47.5 -80t-19.5 -61.5q11 -11 19.5 -22.5t21.5 -21.5q31 -23 60.5 -46t57.5 -49.5t53.5 -57t47.5 -68.5q24 -42 42.5 -87.5t40.5 -88.5h-323q-8 0 -13.5 -4.5t-5.5 -10.5v-76q0 -14 19 -14h636q8 0 13.5 4t5.5 10v76q0 6 -5.5 10.5t-13.5 4.5h-288q13 7 25 19.5
t23 27t21.5 28t20.5 24.5q10 10 30 33t44 52t49.5 61t46.5 61.5t34.5 54t13.5 37.5zM569 256q0 -22 -12 -37.5t-29 -15.5t-29 15.5t-12 37.5t12 37.5t29 15.5t29 -15.5t12 -37.5zM547 245q0 8 -3.5 12t-8.5 4q-13 0 -13 -16q0 -15 13 -15q5 0 8.5 4t3.5 11zM656 143
q0 7 -4 11t-9 4q-4 0 -7.5 -4t-3.5 -11q0 -8 3.5 -11.5t7.5 -3.5q5 0 9 3.5t4 11.5z" />
    </font>
</defs>
</svg>
